<?xml version="1.0" encoding="UTF-8" standalone="no"?>
<!-- Created with Inkscape (http://www.inkscape.org/) -->

<svg
   xmlns:dc="http://purl.org/dc/elements/1.1/"
   xmlns:cc="http://creativecommons.org/ns#"
   xmlns:rdf="http://www.w3.org/1999/02/22-rdf-syntax-ns#"
   xmlns:svg="http://www.w3.org/2000/svg"
   xmlns="http://www.w3.org/2000/svg"
   xmlns:sodipodi="http://sodipodi.sourceforge.net/DTD/sodipodi-0.dtd"
   xmlns:inkscape="http://www.inkscape.org/namespaces/inkscape"
   width="330"
   height="250"
   viewBox="0 0 330 250"
   id="svg6984"
   version="1.1"
   inkscape:version="0.91 r13725"
   sodipodi:docname="devOps.svg">
  <defs
     id="defs6986">
    <clipPath
       clipPathUnits="userSpaceOnUse"
       id="clipPath5381">
      <path
         d="m 175.406,165.326 34.065,0 0,-44.132 -34.065,0 0,44.132 z"
         id="path5383"
         inkscape:connector-curvature="0" />
    </clipPath>
  </defs>
  <sodipodi:namedview
     id="base"
     pagecolor="#ffffff"
     bordercolor="#666666"
     borderopacity="1.0"
     inkscape:pageopacity="0.0"
     inkscape:pageshadow="2"
     inkscape:zoom="1.979899"
     inkscape:cx="150.54347"
     inkscape:cy="114.19426"
     inkscape:document-units="px"
     inkscape:current-layer="layer1"
     showgrid="false"
     units="px"
     inkscape:window-width="1366"
     inkscape:window-height="742"
     inkscape:window-x="0"
     inkscape:window-y="0"
     inkscape:window-maximized="1"
     showguides="true"
     inkscape:guide-bbox="true">
    <sodipodi:guide
       position="217.1828,219.2031"
       orientation="0,1"
       id="guide7747" />
    <sodipodi:guide
       position="213.64726,24.748737"
       orientation="0,1"
       id="guide7749" />
  </sodipodi:namedview>
  <metadata
     id="metadata6989">
    <rdf:RDF>
      <cc:Work
         rdf:about="">
        <dc:format>image/svg+xml</dc:format>
        <dc:type
           rdf:resource="http://purl.org/dc/dcmitype/StillImage" />
        <dc:title></dc:title>
      </cc:Work>
    </rdf:RDF>
  </metadata>
  <g
     inkscape:label="Layer 1"
     inkscape:groupmode="layer"
     id="layer1"
     transform="translate(0,-802.36216)">
    <g
       id="g8008"
       transform="matrix(2.4349683,0,0,2.4349683,-467.37487,-1442.0497)">
      <g
         transform="matrix(1.25,0,0,-1.25,241.02092,1006.4342)"
         id="g5417">
        <path
           inkscape:connector-curvature="0"
           id="path5419"
           style="fill:#002b66;fill-opacity:1;fill-rule:nonzero;stroke:none"
           d="m 0,0 0,-4.438 0.781,0 c 0.684,0 1.22,0.205 1.609,0.615 0.389,0.41 0.584,0.969 0.584,1.675 0,0.667 -0.194,1.192 -0.578,1.575 C 2.009,-0.191 1.468,0 0.771,0 L 0,0 Z m -1.577,-5.718 0,7.002 2.48,0 c 2.488,0 3.731,-1.138 3.731,-3.413 0,-1.091 -0.34,-1.961 -1.018,-2.612 C 2.937,-5.393 2.033,-5.718 0.903,-5.718 l -2.48,0 z" />
      </g>
      <g
         transform="matrix(1.25,0,0,-1.25,252.5748,1013.5815)"
         id="g5421">
        <path
           inkscape:connector-curvature="0"
           id="path5423"
           style="fill:#002b66;fill-opacity:1;fill-rule:nonzero;stroke:none"
           d="m 0,0 -3.486,0 0,5.249 3.354,0 0,-1.06 -1.802,0 0,-1.02 1.656,0 0,-1.06 -1.656,0 0,-1.054 L 0,1.055 0,0 Z" />
      </g>
      <g
         transform="matrix(1.25,0,0,-1.25,259.98455,1007.0202)"
         id="g5425">
        <path
           inkscape:connector-curvature="0"
           id="path5427"
           style="fill:#002b66;fill-opacity:1;fill-rule:nonzero;stroke:none"
           d="m 0,0 -1.855,-5.249 -1.827,0 -1.831,5.249 1.656,0 0.952,-3.271 c 0.029,-0.101 0.053,-0.202 0.073,-0.3 0.019,-0.1 0.034,-0.187 0.044,-0.262 l 0.024,0 c 0.01,0.081 0.028,0.169 0.051,0.264 0.025,0.094 0.057,0.21 0.096,0.346 L -1.66,0 0,0 Z" />
      </g>
      <g
         transform="matrix(1.25,0,0,-1.25,264.80017,1006.3793)"
         id="g5429">
        <path
           inkscape:connector-curvature="0"
           id="path5431"
           style="fill:#002b66;fill-opacity:1;fill-rule:nonzero;stroke:none"
           d="m 0,0 c -0.554,0 -0.993,-0.207 -1.318,-0.623 -0.326,-0.414 -0.489,-0.964 -0.489,-1.648 0,-0.693 0.163,-1.242 0.489,-1.645 0.325,-0.403 0.752,-0.605 1.279,-0.605 0.544,0 0.975,0.196 1.294,0.587 0.319,0.393 0.478,0.938 0.478,1.634 0,0.726 -0.154,1.291 -0.463,1.695 C 0.96,-0.202 0.537,0 0,0 m -0.068,-5.884 c -1.003,0 -1.82,0.326 -2.452,0.98 -0.631,0.652 -0.947,1.503 -0.947,2.55 0,1.107 0.321,2.002 0.962,2.686 0.642,0.684 1.491,1.025 2.549,1.025 0.999,0 1.808,-0.327 2.425,-0.981 0.616,-0.654 0.925,-1.517 0.925,-2.588 0,-1.101 -0.32,-1.987 -0.96,-2.661 C 1.795,-5.547 0.96,-5.884 -0.068,-5.884" />
      </g>
      <g
         transform="matrix(1.25,0,0,-1.25,272.38692,1008.2775)"
         id="g5433">
        <path
           inkscape:connector-curvature="0"
           id="path5435"
           style="fill:#002b66;fill-opacity:1;fill-rule:nonzero;stroke:none"
           d="m 0,0 0,-1.489 0.356,0 c 0.479,0 0.718,0.26 0.718,0.781 C 1.074,-0.236 0.835,0 0.356,0 L 0,0 Z m 0,-2.485 0,-1.758 -1.553,0 0,5.249 2.051,0 c 1.465,0 2.197,-0.557 2.197,-1.67 0,-0.273 -0.05,-0.522 -0.151,-0.745 C 2.443,-1.632 2.3,-1.823 2.114,-1.982 1.929,-2.142 1.706,-2.266 1.445,-2.354 1.185,-2.441 0.894,-2.485 0.571,-2.485 l -0.571,0 z" />
      </g>
      <g
         transform="matrix(1.25,0,0,-1.25,276.70204,1013.3312)"
         id="g5437">
        <path
           inkscape:connector-curvature="0"
           id="path5439"
           style="fill:#002b66;fill-opacity:1;fill-rule:nonzero;stroke:none"
           d="M 0,0 0,1.27 C 0.237,1.091 0.493,0.957 0.767,0.869 1.04,0.781 1.318,0.737 1.602,0.737 1.901,0.737 2.124,0.778 2.271,0.862 2.417,0.944 2.49,1.057 2.49,1.196 2.49,1.274 2.471,1.342 2.432,1.399 2.393,1.456 2.327,1.511 2.233,1.562 2.142,1.614 2.018,1.672 1.862,1.733 1.708,1.795 1.514,1.87 1.279,1.958 0.833,2.131 0.505,2.351 0.293,2.62 0.081,2.888 -0.024,3.208 -0.024,3.579 c 0,0.274 0.06,0.509 0.183,0.705 C 0.28,4.481 0.446,4.644 0.657,4.771 0.866,4.897 1.109,4.99 1.384,5.049 1.659,5.107 1.951,5.137 2.261,5.137 2.566,5.137 2.835,5.12 3.066,5.088 3.298,5.056 3.513,5.005 3.711,4.937 l 0,-1.192 C 3.613,3.807 3.507,3.86 3.392,3.906 3.275,3.952 3.157,3.99 3.037,4.021 2.917,4.052 2.796,4.075 2.676,4.089 2.556,4.104 2.441,4.111 2.334,4.111 2.058,4.111 1.842,4.072 1.687,3.994 1.532,3.916 1.455,3.811 1.455,3.677 1.455,3.615 1.472,3.562 1.507,3.516 1.54,3.47 1.599,3.425 1.683,3.379 1.765,3.333 1.875,3.284 2.012,3.232 2.148,3.181 2.319,3.117 2.524,3.042 2.977,2.876 3.33,2.654 3.584,2.378 3.838,2.102 3.965,1.751 3.965,1.328 3.965,0.798 3.77,0.395 3.379,0.12 2.988,-0.155 2.415,-0.293 1.66,-0.293 1.338,-0.293 1.034,-0.269 0.749,-0.22 0.465,-0.171 0.215,-0.098 0,0" />
      </g>
      <g
         transform="matrix(1.25,0,0,-1.25,297.29655,975.43446)"
         id="g5441">
        <path
           inkscape:connector-curvature="0"
           id="path5443"
           style="fill:#005595;fill-opacity:1;fill-rule:nonzero;stroke:none"
           d="m 0,0 c -3.101,-3.249 -7.473,-5.273 -12.318,-5.273 -4.315,0 -8.254,1.605 -11.254,4.251 l -0.073,7.073 5.809,0 c 0,0 1.843,-2.066 5.752,-1.954 3.909,0.111 5.418,2.513 5.418,2.513 l 0,-6.605 L 0,0 Z" />
      </g>
      <g
         transform="matrix(1.25,0,0,-1.25,296.94492,945.70059)"
         id="g5445">
        <path
           inkscape:connector-curvature="0"
           id="path5447"
           style="fill:#005595;fill-opacity:1;fill-rule:nonzero;stroke:none"
           d="m 0,0 c 3.081,-3.081 4.986,-7.336 4.986,-12.037 0,-3.931 -1.332,-7.551 -3.57,-10.433 l -6.464,0 0,7.519 c 0,0 1.231,2.051 0.469,4.686 -0.762,2.637 -2.05,3.691 -2.05,3.691 L -0.01,-6.516 0,0 Z" />
      </g>
      <g
         transform="matrix(1.25,0,0,-1.25,264.9113,947.92959)"
         id="g5449">
        <path
           inkscape:connector-curvature="0"
           id="path5451"
           style="fill:#005595;fill-opacity:1;fill-rule:nonzero;stroke:none"
           d="m 0,0 c 3.107,4.112 8.039,6.77 13.59,6.77 4.08,0 7.825,-1.436 10.758,-3.83 l 0,-6.325 -6.873,0 c 0,0 -3.105,1.23 -5.858,0.586 C 8.704,-3.481 6.696,-6.138 6.696,-6.138 l 0,6.193 L 0,0 Z" />
      </g>
      <g
         transform="matrix(1.25,0,0,-1.25,273.66855,966.30971)"
         id="g5453">
        <path
           inkscape:connector-curvature="0"
           id="path5455"
           style="fill:#005595;fill-opacity:1;fill-rule:nonzero;stroke:none"
           d="m 0,0 -5.903,0 0,-6.994 -3.903,4.288 L -3.473,3.77 0,0 Z" />
      </g>
      <g
         transform="matrix(1.25,0,0,-1.25,249.71842,949.17896)"
         id="g5457">
        <path
           inkscape:connector-curvature="0"
           id="path5459"
           style="fill:#005595;fill-opacity:1;fill-rule:nonzero;stroke:none"
           d="M 0,0 6.376,0 8.439,-1.975 1.997,-8.484 0,-6.531 0,0 Z" />
      </g>
      <g
         transform="matrix(1.25,0,0,-1.25,269.80629,956.44709)"
         id="g5461">
        <path
           inkscape:connector-curvature="0"
           id="path5463"
           style="fill:#005595;fill-opacity:1;fill-rule:nonzero;stroke:none"
           d="m 0,0 -14.191,-14.884 0.091,4.767 -3.432,0 L -3.916,4.028 0,4.028 0,0 Z m -15.381,-15.93 c 0,0 -2.563,-2.93 -9.567,-2.93 -6.318,0 -8.973,3.976 -8.973,3.976 l 3.754,0 -0.046,3.944 c 0,0 5.127,-3.892 11.307,-0.321 l 3.525,0 0,-4.669 z m -23.941,9.43 c -1.289,8.936 3.662,12.954 3.662,12.954 l 0,-4.257 3.616,0 c -4.266,-7.28 0.732,-12.268 0.732,-12.268 l 0,-3.745 -4.076,0 c 0,0 -3.294,2.876 -3.934,7.316 m 4.787,13.764 c 0,0 2.926,3.745 9.003,4.365 6.076,0.621 10.268,-3.199 10.268,-3.199 l -3.77,0 0,-4.402 c 0,0 -2.561,2.094 -6.471,1.662 -3.942,-0.435 -5.533,-2.419 -5.533,-2.419 l -3.497,0 0,3.993 z M -4.667,5.733 c 0,0 -9.891,-10.045 -13.879,-14.345 -3.492,-3.766 -11.534,-3.139 -13.025,2.441 -0.949,3.55 -0.444,9.14 6.435,10.102 4.22,0.59 7.949,-3.416 7.949,-3.416 l 0,6.42 6.3,0.015 c -3.112,4.034 -7.996,6.633 -13.485,6.633 -9.402,0 -17.024,-7.621 -17.024,-17.023 0,-9.401 7.622,-17.023 17.024,-17.023 3.529,0 7.129,0.671 9.526,2.914 3.575,3.344 16.613,16.862 16.613,16.862 l 0,6.437 -6.434,-0.017 z" />
      </g>
    </g>
  </g>
</svg>
