<?xml version="1.0" encoding="utf-8"?>
<!-- Generator: Adobe Illustrator 22.1.0, SVG Export Plug-In . SVG Version: 6.00 Build 0)  -->
<svg version="1.1" id="Layer_1" xmlns="http://www.w3.org/2000/svg" xmlns:xlink="http://www.w3.org/1999/xlink" x="0px" y="0px"
	 viewBox="0 0 40 40" style="enable-background:new 0 0 40 40;" xml:space="preserve">
<style type="text/css">
	.st0{opacity:0.2;enable-background:new    ;}
	.st1{fill:#007FFF;}
</style>
<g>
	<title>Layer 1</title>
	<path id="svg_1" class="st0" d="M20,3.1C10.6,3.1,3.1,10.7,3.1,20C3.1,29.4,10.6,37,20,37S36.9,29.4,36.9,20
		C36.9,10.7,29.4,3.1,20,3.1z M20,33.2c-7.3,0-13.2-5.9-13.2-13.2c0-7.3,5.9-13.2,13.2-13.2S33.2,12.8,33.2,20
		C33.2,27.3,27.3,33.2,20,33.2z"/>
	<path id="svg_2" class="st1" d="M26.6,8.6l1.9-3.2C26,3.9,23.1,3.1,20,3.1l0,0v3.8l0,0C22.4,6.9,24.6,7.5,26.6,8.6z"/>
</g>
</svg>
