<svg width="1450" height="840" xmlns="http://www.w3.org/2000/svg">

 <g>
  <title>background</title>
  <rect fill="none" id="canvas_background" height="842" width="1452" y="-1" x="-1"/>
 </g>
 <g>
  <title>Layer 1</title>
  <g id="svg_1">
   <g id="svg_2">
    <path id="svg_3" d="m1343.897755,552.696521c-5.9,-2.3 -12,-3.6 -18.1,-4.3c1.8,-30.5 -14.7,-60.5 -44,-74.3c-27.6,-13.1 -59,-8.4 -81.3,9.7c-0.9,-0.5 -2,-0.9 -2.9,-1.4c0.7,-5 0.9,-9.9 0.9,-14.9c0,-66.6 -54,-120.6 -120.6,-120.6c-53.5,0 -98.9,35 -114.7,83.4c-13.1,-6.6 -28,-10.2 -43.6,-10.2c-45.2,0 -83.1,30.5 -94.6,72.1c-7.5,-35 -38.4,-61.2 -75.7,-61.2c-34.3,0 -63.5,22.4 -73.4,53.3c-8.4,-4.3 -17.8,-6.6 -28,-6.6c-34.3,0 -62.3,27.6 -63,61.9c-28.5,10.8 -48.3,34.6 -48.3,62.1c0,34.3 30.7,62.8 70.7,67.5c9,9.9 20.6,18.3 33.9,24.2c-0.5,3.4 -0.7,6.6 -0.7,10.2c0,44.7 36.4,81.1 81.1,81.1c35.9,0 66.6,-23.5 77,-56c8.8,4.3 18.7,6.8 29.4,6.8c21,0 39.8,-9.7 51.7,-25.1c13.8,24.2 39.8,40.7 69.6,40.7c25.5,0 48.3,-12 63,-30.7c11.5,0 23,0 34.1,0c9.9,24.2 33.9,41.3 61.7,41.3c14.2,0 27.3,-4.3 37.9,-12c9.3,12.4 21.5,22.8 36.4,30c48.3,22.8 105.9,2.3 128.8,-46.1c4.7,-10.2 7.7,-20.8 8.8,-31.4c29.8,-1.4 57.6,-20.3 68.7,-50.1c15.3,-40.2 -5,-84.5 -44.8,-99.4z" fill="#2AB6F4"/>
    <path id="svg_4" d="m1029.497755,640.996521c-18.1,-19.4 -43.6,-30.5 -70,-30.5c-23.9,0 -47,9 -64.6,25.3l-2.7,2.5l-2.3,-2.7c-8.4,-9.7 -21.2,-14.2 -34.3,-10.6l-2.5,0.7l-1.4,-2.3c-9.5,-15.8 -26.2,-25.3 -44.7,-25.3c-16.5,0 -32.3,7.9 -42.2,21.5l-5.6,-4.1c11.1,-15.1 29.1,-24.2 47.9,-24.2c20.1,0 38.4,9.9 49.5,26.4c13.6,-2.7 27.1,1.6 36.6,10.8c18.5,-16 42.2,-24.8 66.9,-24.8c28.5,0 55.8,12 75.2,32.8l-5.8,4.5z" fill="#006BBA"/>
    <path id="svg_5" d="m1199.297755,346.696521c0,-33 -26.7,-59.6 -59.6,-59.6c-2,0 -4.1,0 -6.3,0.2c0,-0.7 0,-1.6 0,-2.3c0,-30.3 -24.6,-54.9 -54.9,-54.9c-23,0 -42.9,14.2 -50.8,34.3c-6.3,-35 -31.8,-65.1 -67.3,-82.2c0.7,-5.2 1.1,-10.6 1.1,-16c0,-63.7 -51.5,-115.2 -115.2,-115.2c-51,0 -94.2,33.2 -109.3,79.3c-10.8,-4.5 -22.6,-7.2 -35.2,-7.2c-47.2,0 -85.8,36.6 -89.4,82.7c-11.7,4.1 -22.8,10.2 -32.5,17.8c23,12.6 38.6,37 39.3,65.1c15.4,5.9 28.7,14.9 38.6,26c-1.8,8.6 -2.9,17.6 -2.9,26.9c0,48.8 27.8,91 68.4,111.8c11.1,50.4 55.8,88.1 109.3,88.1c58.1,0 105.7,-44 111.4,-100.7c1.8,0 3.4,0.2 5.2,0.2c8.1,0 15.8,-1.1 23.3,-3.2c0.5,0.2 0.9,0.2 1.4,0.5c0.2,-0.2 0.2,-0.7 0.5,-0.9c14.5,-4.3 27.3,-12 37.7,-22.1c15.1,16.3 36.8,26.4 60.8,26.4c28.2,0 53.1,-14 68.2,-35.5c32.3,-0.8 58.2,-27 58.2,-59.5z" fill="#B4E5F9"/>
    <g id="svg_6">
     <g id="svg_7">
      <path id="svg_8" d="m1300.097755,296.496521l-129.4,0c-5.2,0 -9.3,4.1 -9.3,9.3l0,166.5c0,5 4.1,9.3 9.3,9.3l129.4,0c5.2,0 9.3,-4.1 9.3,-9.3l0,-166.5c-0.1,-5.2 -4.4,-9.3 -9.3,-9.3z" fill="#004999"/>
      <path id="svg_9" d="m1300.097755,296.496521c5.2,0 9.3,4.1 9.3,9.3l0,166.5c0,5 -4.1,9.3 -9.3,9.3l-129.4,0c-5.2,0 -9.3,-4.1 -9.3,-9.3l0,-166.5c0,-5.2 4.1,-9.3 9.3,-9.3l129.4,0m0,-6.7l-129.4,0c-8.8,0 -15.8,7.2 -15.8,15.8l0,166.4c0,8.8 7.2,15.8 15.8,15.8l129.4,0c8.8,0 15.8,-7.2 15.8,-15.8l0,-166.4c0,-8.6 -7,-15.8 -15.8,-15.8l0,0z" fill="#008CDB"/>
     </g>
     <g id="svg_10">
      <circle id="svg_11" r="7.9" cy="442.196521" cx="1235.297755" fill="#2AB6F4"/>
     </g>
     <g id="svg_12">
      <rect id="svg_13" height="14.7" width="98.9" fill="#2AB6F4" y="347.096521" x="1185.797755"/>
     </g>
     <g id="svg_14">
      <rect id="svg_15" height="14.7" width="98.9" fill="#2AB6F4" y="322.496521" x="1185.797755"/>
     </g>
    </g>
    <path id="svg_16" d="m816.897755,377.396521c-0.2,-19.9 -16.5,-35.7 -36.4,-35.7c-5.9,0 -11.3,1.4 -16,3.8c-5.9,-17.8 -22.6,-30.7 -42.5,-30.7c-24.6,0 -44.5,19.9 -44.5,44.5c0,1.8 0,4.7 0,4.3c0,-33.2 -23.9,-61.9 -58.3,-74.8c-0.7,-41.3 -34.3,-74.5 -75.9,-74.5c-12.2,0 -23.5,2.9 -33.7,7.9c-12.2,-37.3 -47.2,-64.4 -88.5,-64.4c-51.5,0 -93.1,41.6 -93.1,93.1c0,3.8 0.2,7.7 0.7,11.5c-32.3,14.2 -55.6,40.4 -61,71.6c-6.8,-17.2 -23.5,-29.1 -43.1,-29.1c-25.5,0 -46.3,20.8 -46.3,46.3c0,2 0.2,3.8 0.5,5.6c-18.5,8.1 -31.2,24.2 -31.2,42.9c0,26.9 26.2,48.6 58.7,48.6c21.9,0 76.1,0 96.5,0c10.2,0 19.7,-2.5 27.3,-6.8c3.8,30 26.2,58.1 59.4,69.8c10.6,3.6 21.2,5.4 31.6,5.4c24.6,0 47.4,-9.9 62.6,-26.9c7.5,26.2 31.6,45.4 60.1,45.4c31.4,0 57.4,-23 61.9,-53.3c13.1,26.4 40.4,44.5 72.1,44.5c43.1,0 78.6,-34.1 80.2,-77c1.4,0.9 2.5,1.8 3.6,2.9c14.2,0 27.6,0 35.5,0c26.4,0 47.7,-17.6 47.7,-39.3c-0.1,-15.5 -11.4,-29.3 -27.9,-35.6z" fill="#82D8F9"/>
    <path id="svg_17" d="m946.097755,282.096521c-12.4,-13.3 -30,-21.2 -48.3,-21.2c-16.7,0 -32.5,6.1 -44.7,17.4l-1.8,1.8l-1.6,-1.8c-5.6,-6.8 -14.7,-9.7 -23.7,-7.5l-1.8,0.5l-0.9,-1.6c-6.6,-10.8 -18.3,-17.4 -30.9,-17.4c-11.5,0 -22.4,5.4 -29.1,14.9l-3.8,-2.9c7.7,-10.6 20.1,-16.7 33,-16.7c13.8,0 26.4,6.8 34.1,18.3c9.5,-2 18.7,1.1 25.3,7.5c12.9,-11.1 29.1,-17.2 46.3,-17.2c19.7,0 38.6,8.4 52,22.6l-4.1,3.3z" fill="#008CDB"/>
    <g id="svg_18">
     <g id="svg_19">
      <path id="svg_20" d="m348.697755,243.196521l-148.7,0c-5.9,0 -10.6,4.7 -10.6,10.6l0,190.9c0,5.9 4.7,10.6 10.6,10.6l148.6,0c5.9,0 10.6,-4.7 10.6,-10.6l0,-190.9c0.1,-5.8 -4.7,-10.6 -10.5,-10.6z" fill="#004999"/>
      <path id="svg_21" d="m348.697755,243.196521c5.9,0 10.6,4.7 10.6,10.6l0,190.9c0,5.9 -4.7,10.6 -10.6,10.6l-148.7,0c-5.9,0 -10.6,-4.7 -10.6,-10.6l0,-190.9c0,-5.9 4.7,-10.6 10.6,-10.6l148.7,0m0,-7.7l-148.7,0c-10.2,0 -18.3,8.1 -18.3,18.3l0,190.9c0,10.2 8.1,18.3 18.3,18.3l148.6,0c10.2,0 18.3,-8.1 18.3,-18.3l0,-190.9c0.1,-10.1 -8.1,-18.3 -18.2,-18.3l0,0z" fill="#008CDB"/>
     </g>
     <g id="svg_22">
      <circle id="svg_23" r="9" cy="410.396521" cx="274.297755" fill="#2AB6F4"/>
     </g>
     <g id="svg_24">
      <rect id="svg_25" height="16.9" width="113.6" fill="#2AB6F4" y="301.296521" x="217.697755"/>
     </g>
     <g id="svg_26">
      <rect id="svg_27" height="16.9" width="113.6" fill="#2AB6F4" y="272.996521" x="217.697755"/>
     </g>
     <g id="svg_28">
      <g id="svg_29">
       <path id="svg_30" d="m241.397755,309.596521l-164.9,0c-6.6,0 -11.7,5.2 -11.7,11.7l0,211.9c0,6.6 5.2,11.7 11.7,11.7l164.9,0c6.6,0 11.7,-5.2 11.7,-11.7l0,-211.8c0,-6.6 -5.2,-11.8 -11.7,-11.8z" fill="#004999"/>
       <path id="svg_31" d="m241.397755,309.596521c6.6,0 11.7,5.2 11.7,11.7l0,211.9c0,6.6 -5.2,11.7 -11.7,11.7l-164.9,0c-6.6,0 -11.7,-5.2 -11.7,-11.7l0,-211.8c0,-6.6 5.2,-11.7 11.7,-11.7l164.9,0m0,-8.7l-164.9,0c-11.1,0 -20.3,9 -20.3,20.3l0,211.9c0,11.1 9,20.3 20.3,20.3l164.9,0c11.1,0 20.3,-9 20.3,-20.3l0,-211.8c0,-11.1 -9,-20.4 -20.3,-20.4l0,0z" fill="#008CDB"/>
      </g>
      <g id="svg_32">
       <circle id="svg_33" r="9.9" cy="495.096521" cx="158.897755" fill="#2AB6F4"/>
      </g>
      <g id="svg_34">
       <rect id="svg_35" height="18.7" width="126" fill="#2AB6F4" y="374.196521" x="95.897755"/>
      </g>
      <g id="svg_36">
       <rect id="svg_37" height="18.7" width="126" fill="#2AB6F4" y="342.796521" x="95.897755"/>
      </g>
     </g>
     <g id="svg_38">
      <g id="svg_39">
       <path id="svg_40" d="m354.497755,282.096521l0,157c0,4.7 3.8,8.8 8.8,8.8l122,0c4.7,0 8.8,-3.8 8.8,-8.8l0,-157c0,-4.7 -3.8,-8.8 -8.8,-8.8l-122,0c-4.9,0 -8.8,4 -8.8,8.8z" fill="#004999"/>
       <path id="svg_41" d="m485.297755,450.796521l-122,0c-6.6,0 -12,-5.4 -12,-12l0,-156.7c0,-6.6 5.4,-12 12,-12l122,0c6.6,0 12,5.4 12,12l0,157c-0.2,6.5 -5.4,11.7 -12,11.7zm-122.2,-174.4c-3.2,0 -5.6,2.5 -5.6,5.6l0,157c0,3.2 2.5,5.6 5.6,5.6l122,0c3.2,0 5.6,-2.5 5.6,-5.6l0,-157c0,-3.2 -2.5,-5.6 -5.6,-5.6l-122,0z" fill="#008CDB"/>
      </g>
      <g id="svg_42">
       <circle id="svg_43" r="7.5" cy="410.796521" cx="423.897755" fill="#2AB6F4"/>
      </g>
      <g id="svg_44">
       <rect id="svg_45" height="14" width="93.3" fill="#2AB6F4" y="321.196521" x="377.097755"/>
      </g>
      <g id="svg_46">
       <rect id="svg_47" height="14" width="93.3" fill="#2AB6F4" y="297.896521" x="377.097755"/>
      </g>
     </g>
    </g>
    <g id="svg_48">
     <path id="svg_49" d="m877.897755,373.596521l-7.9,57.4c0,0.7 0.2,1.1 0.9,1.1l117,16.3c0.7,0 1.1,-0.2 1.1,-0.9l7.9,-57.4c0,-0.7 -0.2,-1.1 -0.9,-1.1l-117,-16.3c-0.4,-0.3 -0.9,0.2 -1.1,0.9zm17.9,56l-2.5,-0.5c-0.7,0 -1.1,-0.7 -0.9,-1.1l6.3,-45.6c0,-0.7 0.7,-1.1 1.1,-0.9l2.5,0.5c0.7,0 1.1,0.7 0.9,1.1l-6.3,45.6c0,0.7 -0.5,0.9 -1.1,0.9zm23.9,3.4l-2.5,-0.5c-0.7,0 -1.1,-0.7 -0.9,-1.1l6.3,-45.6c0,-0.7 0.7,-1.1 1.1,-0.9l2.5,0.5c0.7,0 1.1,0.7 0.9,1.1l-6.3,45.6c0,0.4 -0.7,0.9 -1.1,0.9zm23.7,3.4l-2.5,-0.5c-0.7,0 -1.1,-0.7 -0.9,-1.1l6.3,-45.6c0,-0.7 0.7,-1.1 1.1,-0.9l2.5,0.5c0.7,0 1.1,0.7 0.9,1.1l-6.3,45.6c0,0.4 -0.4,0.9 -1.1,0.9zm24,3.1l-2.5,-0.5c-0.7,0 -1.1,-0.7 -0.9,-1.1l6.3,-45.6c0,-0.7 0.7,-1.1 1.1,-0.9l2.5,0.5c0.7,0 1.1,0.7 0.9,1.1l-6.3,45.6c0,0.7 -0.5,1.1 -1.1,0.9z" fill="#004999"/>
     <path id="svg_50" d="m878.997755,372.696521l0,0l117.2,16.3c0.7,0 1.1,0.7 0.9,1.1l-7.9,57.4c0,0.5 -0.5,0.9 -1.1,0.9c0,0 0,0 -0.2,0l-117,-16.3c-0.7,0 -1.1,-0.7 -0.9,-1.1l7.9,-57.4c0.2,-0.7 0.7,-0.9 1.1,-0.9m17,56.9c0.5,0 0.9,-0.5 1.1,-0.9l6.3,-45.6c0,-0.7 -0.2,-1.1 -0.9,-1.1l-2.5,-0.5c0,0 0,0 -0.2,0c-0.5,0 -0.9,0.5 -1.1,0.9l-6.3,45.6c0,0.7 0.2,1.1 0.9,1.1l2.7,0.5c-0.2,0 0,0 0,0m23.7,3.4c0.5,0 0.9,-0.5 1.1,-0.9l6.3,-45.6c0,-0.7 -0.2,-1.1 -0.9,-1.1l-2.5,-0.5c0,0 0,0 -0.2,0c-0.5,0 -0.9,0.5 -1.1,0.9l-6.3,45.6c0,0.7 0.2,1.1 0.9,1.1l2.7,0.5l0,0m23.9,3.4c0.5,0 0.9,-0.5 1.1,-0.9l6.3,-45.6c0,-0.7 -0.2,-1.1 -0.9,-1.1l-2.5,-0.5c0,0 0,0 -0.2,0c-0.5,0 -0.9,0.5 -1.1,0.9l-6.3,45.6c0,0.7 0.2,1.1 0.9,1.1l2.7,0.5l0,0m24,3.1c0.5,0 0.9,-0.5 1.1,-0.9l6.3,-45.6c0,-0.7 -0.2,-1.1 -0.9,-1.1l-2.5,-0.5c0,0 0,0 -0.2,0c-0.5,0 -0.9,0.5 -1.1,0.9l-6.3,45.6c0,0.7 0.2,1.1 0.9,1.1l2.7,0.5c-0.2,0 -0.2,0 0,0m-88.6,-72.7c-3.4,0 -6.6,2.5 -7,6.1l-7.9,57.4c-0.5,3.8 2,7.5 5.9,7.9l117,16.3c0.2,0 0.7,0 0.9,0c3.4,0 6.6,-2.5 7,-6.1l7.9,-57.4c0.5,-3.8 -2,-7.5 -5.9,-7.9l-117,-16.3c-0.2,0 -0.6,0 -0.9,0l0,0z" fill="#82D8F9"/>
    </g>
    <g id="svg_51">
     <path id="svg_52" d="m536.997755,444.896521l47.9,78.8c0.5,0.9 1.6,1.1 2.5,0.7l160.6,-97.8c0.9,-0.5 1.1,-1.6 0.7,-2.5l-48.1,-78.8c-0.5,-0.9 -1.6,-1.1 -2.5,-0.7l-160.4,97.8c-0.9,0.5 -1.1,1.6 -0.7,2.5zm78.4,51.1l-3.6,2.3c-0.9,0.5 -1.8,0.2 -2.5,-0.7l-37.7,-62.6c-0.5,-0.9 -0.2,-1.8 0.7,-2.5l3.6,-2.3c0.9,-0.5 1.8,-0.2 2.5,0.7l37.9,62.3c0.3,1.2 0,2.3 -0.9,2.8zm32.8,-19.9l-3.6,2.3c-0.9,0.5 -1.8,0.2 -2.5,-0.7l-37.9,-62.3c-0.5,-0.9 -0.2,-1.8 0.7,-2.5l3.6,-2.3c0.9,-0.5 1.8,-0.2 2.5,0.7l37.9,62.3c0.4,0.9 0.2,2.1 -0.7,2.5zm32.7,-19.9l-3.6,2.3c-0.9,0.5 -1.8,0.2 -2.5,-0.7l-37.9,-62.3c-0.5,-0.9 -0.2,-1.8 0.7,-2.5l3.6,-2.3c0.9,-0.5 1.8,-0.2 2.5,0.7l37.9,62.3c0.5,1 0.2,1.9 -0.7,2.5zm32.8,-20.1l-3.6,2.3c-0.9,0.5 -1.8,0.2 -2.5,-0.7l-37.9,-62.3c-0.5,-0.9 -0.2,-1.8 0.7,-2.5l3.6,-2.3c0.9,-0.5 1.8,-0.2 2.5,0.7l37.9,62.3c0.4,1.2 0,2.1 -0.7,2.5z" fill="#004999"/>
     <path id="svg_53" d="m536.997755,443.096521c0.2,-0.2 0.5,-0.5 0.7,-0.7l160.6,-97.8c0.9,-0.5 1.8,-0.2 2.5,0.7l47.9,78.8c0.5,0.7 0.2,1.4 0,1.8c-0.2,0.2 -0.5,0.5 -0.7,0.7l-160.6,97.6c-0.9,0.5 -1.8,0.2 -2.5,-0.7l-47.9,-78.8c-0.2,-0.4 -0.2,-1.1 0,-1.6m79.1,52.2c0.2,-0.5 0.5,-1.1 0,-1.8l-37.9,-62.3c-0.5,-0.9 -1.6,-1.1 -2.5,-0.7l-3.6,2.3c-0.2,0.2 -0.5,0.5 -0.7,0.7c-0.2,0.5 -0.5,1.1 0,1.8l37.9,62.3c0.5,0.9 1.6,1.1 2.5,0.7l3.6,-2.3c0.3,-0.2 0.5,-0.5 0.7,-0.7m32.8,-19.9c0.2,-0.5 0.5,-1.1 0,-1.8l-38,-62.3c-0.5,-0.9 -1.6,-1.1 -2.5,-0.7l-3.6,2.3c-0.2,0.2 -0.5,0.5 -0.7,0.7c-0.2,0.5 -0.5,1.1 0,1.8l37.9,62.3c0.5,0.9 1.6,1.1 2.5,0.7l3.6,-2.3c0.3,-0.2 0.5,-0.4 0.8,-0.7m32.7,-19.8c0.2,-0.5 0.5,-1.1 0,-1.8l-37.9,-62.3c-0.5,-0.9 -1.6,-1.1 -2.5,-0.7l-3.6,2.3c-0.2,0.2 -0.5,0.5 -0.7,0.7c-0.2,0.5 -0.5,1.1 0,1.8l37.9,62.3c0.5,0.9 1.6,1.1 2.5,0.7l3.6,-2.3c0.3,-0.3 0.5,-0.5 0.7,-0.7m32.5,-19.9c0.2,-0.5 0.5,-1.1 0,-1.8l-37.9,-62.3c-0.5,-0.9 -1.6,-1.1 -2.5,-0.7l-3.6,2.3c-0.2,0.2 -0.5,0.5 -0.7,0.7c-0.2,0.5 -0.5,1.1 0,1.8l37.9,62.3c0.5,0.9 1.6,1.1 2.5,0.7l3.6,-2.3c0.5,-0.3 0.7,-0.5 0.7,-0.7m-181.8,4.5c-1.4,2.3 -1.4,5.2 0,7.7l47.9,78.8c1.1,1.6 2.7,2.9 4.5,3.4c1.8,0.5 3.8,0.2 5.6,-0.9l160.6,-97.8c1.1,-0.7 1.8,-1.6 2.5,-2.5c1.4,-2.3 1.4,-5.2 0,-7.7l-47.9,-78.8c-2,-3.4 -6.6,-4.5 -10.2,-2.5l-160.6,97.8c-0.8,0.5 -1.7,1.4 -2.4,2.5l0,0z" fill="#2AB6F4"/>
    </g>
    <path id="svg_54" d="m693.397755,591.296521c-3.8,-45.2 -43.6,-78.6 -88.8,-74.8c-1.4,0 -2.5,0.2 -3.8,0.5c-12.2,-39.1 -48.6,-67.3 -91.7,-67.3c-16,0 -30.9,3.8 -44.3,10.8c-15.4,-35.7 -50.8,-60.8 -92.2,-60.8c-44.5,0 -82.2,28.9 -95.3,69.1c-10.8,-5.4 -23.3,-8.4 -36.1,-8.4c-44.5,0 -80.9,35.7 -81.5,80.2c-36.8,14 -62.6,44.7 -62.6,80.4c0,47.4 45.2,86.1 101.9,88.3c17.6,35.5 54,60.1 96.5,60.1c33.7,0 63.7,-15.6 83.4,-39.8c14.7,22.4 40,37 68.7,37c31.8,0 59.4,-18.1 73,-44.5c6.3,2 13.3,2.9 20.3,2.9c29.6,0 55.1,-18.5 65.1,-44.7c4.1,0.2 8.4,0.2 12.6,-0.2c45.2,-3.9 78.6,-43.6 74.8,-88.8z" fill="#B4E5F9"/>
    <g id="svg_55">
     <g id="svg_56">
      <g id="svg_57">
       <path id="svg_58" d="m815.597755,437.496521l-45.4,103.7l207.6,91l45.4,-103.7l-207.6,-91zm4.7,113.4l-8.4,-3.6l36.4,-82.9l8.4,3.6l-36.4,82.9zm41.6,18.3l-8.4,-3.6l36.4,-82.9l8.4,3.6l-36.4,82.9zm41.3,18.3l-8.4,-3.6l36.4,-82.9l8.4,3.6l-36.4,82.9zm41.6,18l-8.4,-3.6l36.4,-82.9l8.4,3.6l-36.4,82.9z" fill="#E0F4FC"/>
       <path id="svg_59" d="m815.597755,437.496521l207.6,91l-45.4,103.7l-207.6,-91l45.4,-103.7m4.7,113.4l36.4,-82.9l-8.4,-3.6l-36.4,82.9l8.4,3.6m41.6,18.3l36.4,-82.9l-8.4,-3.6l-36.4,82.9l8.4,3.6m41.3,18.3l36.4,-82.9l-8.4,-3.6l-36.4,82.9l8.4,3.6m41.6,18l36.4,-82.9l-8.4,-3.6l-36.4,82.9l8.4,3.6m-128.3,-173.9c-2.7,-0.5 -5.2,0.9 -6.3,3.6l-45.4,103.7c-0.7,1.4 -0.7,3.2 0,4.5c0.7,1.4 1.8,2.7 3.2,3.4l207.6,91c0.5,0.2 0.9,0.5 1.6,0.5c1.1,0.2 2,0 3.2,-0.5c1.6,-0.7 2.7,-1.8 3.4,-3.2l45.4,-103.7c1.4,-3.2 0,-6.6 -3.2,-7.9l-207.6,-91c-0.8,-0.2 -1.5,-0.4 -1.9,-0.4l0,0z" fill="#008CDB"/>
      </g>
     </g>
    </g>
    <g id="svg_60">
     <g id="svg_61">
      <path id="svg_62" d="m1194.097755,668.596521l-60.3,-60.3c-1.6,-1.6 -3.2,-2.7 -5,-3.6c22.4,-34.6 18.5,-81.5 -11.7,-112c-35,-35 -91.7,-35 -126.5,0c-35,35 -35,91.7 0,126.5c30.3,30.3 77.3,34.3 112,11.7c0.9,1.8 2,3.4 3.6,5l60.3,60.3c3.8,3.8 8.8,5.6 13.8,5.6c5,0 10.2,-1.8 13.8,-5.6c7.7,-7.5 7.7,-20 0,-27.6z" fill="#004999"/>
      <path id="svg_63" d="m1180.397755,705.396521c-6.1,0 -12,-2.5 -16.3,-6.8l-60.3,-60.3c-0.9,-0.9 -1.6,-1.8 -2.3,-2.7c-14.7,8.8 -31.2,13.1 -47.4,13.1c-23.9,0 -47.9,-9.3 -65.7,-27.1c-36.1,-36.1 -36.1,-95.1 0,-131.2c17.4,-17.4 40.9,-27.1 65.5,-27.1c24.8,0 48.1,9.7 65.5,27.1c30,30 35.7,77 14,113.2c0.9,0.7 1.8,1.4 2.7,2.3l60.3,60.3c4.3,4.3 6.8,10.2 6.8,16.3c0,6.1 -2.5,12 -6.8,16.3c-4.3,4.3 -9.9,6.6 -16,6.6zm-76.6,-78.9l1.6,3.2c0.7,1.6 1.8,2.9 2.9,4.1l60.3,60.3c3.2,3.2 7.2,4.7 11.5,4.7c4.3,0 8.6,-1.8 11.5,-4.7c3.2,-3.2 4.7,-7.2 4.7,-11.5s-1.8,-8.6 -4.7,-11.5l-60.3,-60.3c-1.1,-1.1 -2.5,-2.3 -4.1,-2.9l-3.2,-1.6l2,-2.9c21.9,-33.9 17.2,-79.3 -11.3,-108c-16.3,-16.3 -37.9,-25.3 -61,-25.3s-44.7,9 -61,25.3c-33.7,33.7 -33.7,88.3 0,122c28.7,28.7 73.9,33.4 108,11.3l3.1,-2.2z" fill="#008CDB"/>
     </g>
     <g id="svg_64">
      <ellipse id="svg_65" ry="71.2" rx="71.2" cy="424.999926" cx="1207.512101" fill="#82D8F9" transform="matrix(0.7071,-0.7071,0.7071,0.7071,-100.5843,1109.4332) "/>
      <path id="svg_66" d="m1103.597755,627.196521l21.5,-21.5c3.2,-3.2 16.3,9.7 13.1,13.1l-21.5,21.5c-3.4,3.2 -16.5,-9.9 -13.1,-13.1z" fill="#B4E5F9"/>
     </g>
     <g id="svg_67">
      <path id="svg_68" d="m1054.497755,580.896521c-2.7,0 -4.1,2 -4.1,5.9c0,3.8 1.4,5.9 4.1,5.9c2.7,0 4.1,-2 4.1,-5.9c0,-3.8 -1.3,-5.9 -4.1,-5.9z" fill="none"/>
      <path id="svg_69" d="m1020.397755,493.296521c0.2,0 0.5,-0.2 0.7,-0.2c-0.4,0 -0.4,0.2 -0.7,0.2z" fill="none"/>
      <path id="svg_70" d="m1043.697755,559.696521c2.7,0 4.1,-2 4.1,-5.9c0,-3.8 -1.4,-5.9 -4.1,-5.9c-2.7,0 -4.1,2 -4.1,5.9c0,3.9 1.4,5.9 4.1,5.9z" fill="none"/>
      <path id="svg_71" d="m991.797755,565.596521l-2,0c0,0 -4.3,-4.7 -4.3,-12.9s4.3,-12.9 4.3,-12.9l2,0c0,0 -3.8,4.5 -3.8,12.9s3.8,12.9 3.8,12.9zm62.7,-25.8l2.7,0l0,21.5l-2.7,0l0,-21.5zm-5.8,-26.4c1.1,0 1.6,0.7 1.6,1.6c0,0.9 -0.7,1.6 -1.6,1.6c-1.1,0 -1.6,-0.7 -1.6,-1.6c0,-0.9 0.4,-1.6 1.6,-1.6zm-1.2,12l2.7,0l-2,7.2l-1.8,0l1.1,-7.2zm-10.3,-18.6l2,0c0,0 4.3,4.7 4.3,12.9s-4.3,12.9 -4.3,12.9l-2,0c0,0 3.8,-4.5 3.8,-12.9c0,-8.4 -3.8,-12.9 -3.8,-12.9zm-5.2,0l2,0c0,0 -3.8,4.5 -3.8,12.9c0,8.4 3.8,12.9 3.8,12.9l-2,0c0,0 -4.3,-4.7 -4.3,-12.9c0,-8.1 4.3,-12.9 4.3,-12.9zm-17.2,6.8l2.7,0l0,-4.1l2.7,-0.9l0,5l4.3,0l0,2l-4.3,0l0,7.5c0,1.1 0,2 0.2,2.5s0.9,0.9 1.8,0.9c1.1,0 2,-0.5 2,-0.5l0.2,0l0,2c0,0 -1.1,0.2 -2.5,0.2c-1.8,0 -3.2,-0.5 -3.8,-1.6c-0.7,-0.9 -0.7,-2 -0.7,-3.8l0,-7.5l-2.7,0l0,-1.7l0.1,0zm-18.8,26.2l2.5,0l-0.9,7l-1.8,0l0,-7l0.2,0zm7.9,54l-0.2,2.3l-2,0l0.2,-2.3c-2.5,-0.2 -4.3,-0.7 -4.3,-0.7l0,-2l0.2,0c0,0 1.8,0.7 4.3,0.9l0.7,-6.3c-2.7,-0.9 -5.4,-2 -5.4,-5.2c0,-2.9 2.5,-4.5 6.3,-4.5l0.2,-2.3l2,0l-0.2,2.3c2.3,0.2 3.8,0.7 3.8,0.7l0,2l-0.2,0c0,0 -1.6,-0.7 -3.8,-0.9l-0.7,5.9c2.7,0.9 5.4,2 5.4,5.2c-0.2,3.3 -2.6,4.7 -6.3,4.9zm0.7,-32.3c-2.5,0 -3.8,-0.7 -3.8,-0.7l0,-2.3l0.2,0c0,0 2,0.9 3.8,0.9s2.7,-0.9 2.7,-2c0,-3.2 -6.8,-2.5 -6.8,-7.2c0,-2.5 2,-4.3 5.4,-4.3c2,0 3.4,0.5 3.4,0.5l0,2.3l-0.2,0c0,0 -1.8,-0.7 -3.4,-0.7c-1.8,0 -2.7,0.7 -2.7,1.8c0,2.9 6.8,2 6.8,7.2c0.5,3.1 -2,4.5 -5.4,4.5zm7,-33.2l-2.7,0l0,-21.5l2.7,0l0,21.5zm3.6,66.2c-1.1,0 -1.6,-0.7 -1.6,-1.6c0,-0.9 0.7,-1.6 1.6,-1.6c1.1,0 1.6,0.7 1.6,1.6c0,0.7 -0.7,1.6 -1.6,1.6zm-1.8,-40.7c0,-4.7 2.5,-7.7 7.2,-7.7c1.8,0 3.4,0.5 3.4,0.5l0,2.3l-0.2,0c0,0 -1.4,-0.7 -2.9,-0.7c-2.9,0 -4.5,2 -4.5,5.6s1.6,5.6 4.5,5.6c1.6,0 2.9,-0.7 2.9,-0.7l0.2,0l0,2.3c0,0 -1.4,0.5 -3.4,0.5c-4.7,0 -7.2,-2.9 -7.2,-7.7zm14.7,40.9c-2.3,0 -3.8,-0.9 -4.3,-2.7l0,7.9l-2.7,0l0,-20.3l2,0l0.7,2.7c0.5,-1.8 2.3,-2.9 4.5,-2.9c3.8,0 6.3,2.9 6.3,7.7c-0.2,4.4 -2.4,7.6 -6.5,7.6zm7,-46.1c0,0 -0.7,-0.2 -1.4,-0.2c-3.4,0 -3.4,2.7 -3.4,4.1l0,8.8l-2.7,0l0,-14.9l2,0l0.5,2.9c0.5,-2.5 2.5,-2.9 4.5,-2.9l0.5,0l0,2.2l0,0zm8.6,-2.7c4.3,0 7,2.7 7,7.7c0,5 -2.5,7.9 -7,7.9c-4.3,0 -7,-2.7 -7,-7.7c0,-5 2.5,-7.9 7,-7.9zm2.3,35.7c0,0 -0.7,-0.2 -1.4,-0.2c-3.4,0 -3.4,2.7 -3.4,4.1l0,8.8l-2.7,0l0,-14.9l2,0l0.5,2.9c0.5,-2.5 2.5,-2.9 4.5,-2.9l0.5,0l0,2.2l0,0zm8.5,13.1c-4.3,0 -7,-2.7 -7,-7.7c0,-5 2.5,-7.9 7,-7.9c4.3,0 7,2.7 7,7.7c0,5 -2.7,7.9 -7,7.9zm61.3,-48.6c1.8,0 3.4,0.5 3.4,0.5l0,2.3l-0.2,0c0,0 -1.4,-0.7 -2.9,-0.7c-2.9,0 -4.5,2 -4.5,5.6s1.6,5.6 4.5,5.6c1.6,0 2.9,-0.7 2.9,-0.7l0.2,0l0,2.3c0,0 -1.4,0.5 -3.4,0.5c-4.5,0 -7.2,-2.9 -7.2,-7.7c0.2,-4.7 2.6,-7.7 7.2,-7.7zm-12.5,-5.8c1.1,0 1.6,0.7 1.6,1.6c0,0.9 -0.7,1.6 -1.6,1.6c-1.1,0 -1.6,-0.7 -1.6,-1.6c0.1,-1 0.7,-1.6 1.6,-1.6zm1.4,6.1l0,14.9l-2.7,0l0,-14.9l2.7,0zm-33.9,11.7c1.1,0 1.6,0.7 1.6,1.6c0,0.9 -0.7,1.6 -1.6,1.6c-1.1,0 -1.6,-0.7 -1.6,-1.6c-0.2,-0.9 0.5,-1.6 1.6,-1.6zm-5.4,-65.7l2.7,0l-2,7.2l-1.8,0l1.1,-7.2zm-3.4,47.4l2.7,0l0,21.5l-2.7,0l0,-21.5zm11.7,54.4l-3.8,-6.1l-3.8,6.1l-2.7,0l5.2,-7.7l-5,-7.2l3.2,0l3.4,5.6l3.6,-5.6l2.7,0l-5,7.2l5.2,7.7l-3,0zm13.6,-0.2c-1.4,3.6 -2.3,5.9 -5.9,5.9c-1.1,0 -2,-0.2 -2,-0.2l0,-2l0.2,0c0,0 0.9,0.5 1.8,0.5c1.8,0 2.5,-1.6 3.4,-4.1l-5.9,-14.5l2.9,0l4.3,11.3l4.1,-11.3l2.5,0l-5.4,14.4zm6.8,-44.5c-0.5,-0.7 -1.4,-1.4 -2.7,-1.4c-2.9,0 -3.2,2.5 -3.2,3.8l0,9.3l-2.7,0l0,-8.8c0,-1.4 0,-2.3 -0.5,-2.9c-0.5,-0.7 -1.4,-1.4 -2.7,-1.4c-2.9,0 -3.2,2.5 -3.2,3.8l0,9.3l-2.7,0l0,-14.9l2,0l0.5,2.5c0.5,-1.6 1.6,-2.9 4.3,-2.9c2.7,0 3.8,1.1 4.5,3.2c0.7,-2 2,-3.2 4.5,-3.2c2.3,0 3.4,0.9 4.1,2c0.9,1.1 0.9,2.7 0.9,4.5l0,8.8l-2.7,0l0,-8.8c0.3,-1.3 0.3,-2.2 -0.4,-2.9zm8.1,49l-2,0c0,0 -4.3,-4.7 -4.3,-12.9s4.3,-12.9 4.3,-12.9l2,0c0,0 -3.8,4.5 -3.8,12.9s3.8,12.9 3.8,12.9zm11.3,-16.9l-4.3,0l0,7.5c0,1.1 0,2 0.2,2.5c0.2,0.7 0.9,0.9 1.8,0.9c1.1,0 2,-0.5 2,-0.5l0.2,0l0,2c0,0 -1.1,0.2 -2.5,0.2c-1.8,0 -3.2,-0.5 -3.8,-1.6c-0.7,-0.9 -0.7,-2 -0.7,-3.8l0,-7.5l-2.7,0l0,-2l2.7,0l0,-4.1l2.7,-0.9l0,5l4.3,0l0,2.3l0.1,0z" fill="none"/>
      <path id="svg_72" d="m1027.697755,581.096521c-2.9,0 -4.1,2.5 -4.1,5.9c0,3.4 1.1,5.6 4.1,5.6c2.9,0 4.1,-2.5 4.1,-5.9c-0.1,-3.3 -1.2,-5.6 -4.1,-5.6z" fill="none"/>
      <path id="svg_73" d="m999.697755,580.196521c0,1.6 1.4,2.3 3.2,2.9l0.5,-5.4c-2.4,0.3 -3.7,1 -3.7,2.5z" fill="none"/>
      <path id="svg_74" d="m1004.397755,586.096521l-0.5,5.6c2.7,0 3.6,-1.1 3.6,-2.5c0.1,-1.5 -1.3,-2.4 -3.1,-3.1z" fill="none"/>
      <path id="svg_75" d="m1025.197755,490.996521c-1.4,0.7 -2.9,1.4 -4.3,2c-0.2,0.2 -0.5,0.2 -0.7,0.2c-1.1,0.7 -2.3,1.4 -3.6,2c0.7,0.2 1.1,0.2 2,0.2c3.4,0.1 5.7,-1.4 6.6,-4.4z" fill="#008CDB"/>
      <path id="svg_76" d="m1041.697755,495.296521l0,-8.8c0,-0.2 0,-0.2 0,-0.5c-0.9,0.2 -1.8,0.2 -2.7,0.5l0,8.8l2.7,0z" fill="#008CDB"/>
      <path id="svg_77" d="m1032.197755,495.296521l0,-7c-0.9,0.2 -1.8,0.7 -2.7,0.9l0,6.1l2.7,0z" fill="#008CDB"/>
      <path id="svg_78" d="m1049.997755,499.596521l2,0c0,0 -3.8,-4.5 -3.8,-12.9c0,-0.5 0,-1.1 0,-1.6c-0.9,0 -1.8,0.2 -2.7,0.2c0,0.5 0,0.9 0,1.4c0.2,8.2 4.5,12.9 4.5,12.9z" fill="#008CDB"/>
      <path id="svg_79" d="m1055.197755,499.596521l2,0c0,0 4.3,-4.7 4.3,-12.9c0,-0.5 0,-0.9 0,-1.4c-0.9,0 -1.8,-0.2 -2.7,-0.2c0,0.5 0,0.9 0,1.6c0,8.4 -3.6,12.9 -3.6,12.9z" fill="#008CDB"/>
      <polygon id="svg_80" points="1068.0977783203125,492.3965759277344 1065.397705078125,492.3965759277344 1064.2978515625,499.5965270996094 1066.0977783203125,499.5965270996094 " fill="#008CDB"/>
      <path id="svg_81" d="m989.297755,526.296521l0,0c-0.2,0.7 -0.7,1.4 -0.9,2c0.5,0 0.9,-0.2 0.9,-0.2l0,-1.8z" fill="#008CDB"/>
      <path id="svg_82" d="m993.097755,526.696521c0.7,1.1 2,1.8 4.1,1.8c2.5,0 3.8,-1.1 4.3,-2.9l0.5,2.5l2,0l0,-14.9l-2.7,0l0,9.3c0,1.4 -0.2,3.8 -3.4,3.8c-1.4,0 -2.3,-0.5 -2.7,-1.4c-0.5,-0.7 -0.7,-1.6 -0.7,-2.9l0,-5.6c-0.9,1.4 -1.8,2.7 -2.7,4.3l0,1.4c0.4,1.9 0.4,3.5 1.3,4.6z" fill="#008CDB"/>
      <rect id="svg_83" height="21.5" width="2.7" fill="#008CDB" y="506.796521" x="1008.897755"/>
      <path id="svg_84" d="m1017.497755,523.096521c0,1.8 0,2.9 0.7,3.8c0.7,1.1 2,1.6 3.8,1.6c1.4,0 2.5,-0.2 2.5,-0.2l0,-2.3l-0.2,0c0,0 -0.9,0.5 -2,0.5c-0.9,0 -1.4,-0.2 -1.8,-0.9s-0.2,-1.4 -0.2,-2.5l0,-7.5l4.3,0l0,-2l-4.3,0l0,-5l-2.7,0.9l0,4.1l-2.7,0l0,2l2.7,0l0,7.5l-0.1,0z" fill="#008CDB"/>
      <path id="svg_85" d="m1033.997755,532.596521c0,0 -3.8,-4.5 -3.8,-12.9s3.8,-12.9 3.8,-12.9l-2,0c0,0 -4.3,4.7 -4.3,12.9s4.3,12.9 4.3,12.9l2,0z" fill="#008CDB"/>
      <path id="svg_86" d="m1039.197755,532.596521c0,0 4.3,-4.7 4.3,-12.9s-4.3,-12.9 -4.3,-12.9l-2,0c0,0 3.8,4.5 3.8,12.9s-3.8,12.9 -3.8,12.9l2,0z" fill="#008CDB"/>
      <path id="svg_87" d="m1048.697755,516.496521c1.1,0 1.6,-0.7 1.6,-1.6c0,-0.9 -0.7,-1.6 -1.6,-1.6c-1.1,0 -1.6,0.7 -1.6,1.6c0,1 0.4,1.6 1.6,1.6z" fill="#008CDB"/>
      <polygon id="svg_88" points="1049.997802734375,525.3965759277344 1047.497802734375,525.3965759277344 1046.19775390625,532.5965270996094 1047.997802734375,532.5965270996094 " fill="#008CDB"/>
      <path id="svg_89" d="m989.897755,539.796521c0,0 -4.3,4.7 -4.3,12.9c0,8.1 4.3,12.9 4.3,12.9l2,0c0,0 -3.8,-4.5 -3.8,-12.9c0,-8.4 3.8,-12.9 3.8,-12.9l-2,0z" fill="#008CDB"/>
      <polygon id="svg_90" points="998.4977416992188,539.7965087890625 995.9977416992188,539.7965087890625 995.9977416992188,546.7965393066406 997.7977905273438,546.7965393066406 " fill="#008CDB"/>
      <path id="svg_91" d="m1003.497755,549.996521c0,-1.1 0.9,-1.8 2.7,-1.8c1.6,0 3.4,0.7 3.4,0.7l0.2,0l0,-2.3c0,0 -1.6,-0.5 -3.4,-0.5c-3.4,0 -5.4,1.6 -5.4,4.3c0,4.7 6.8,3.8 6.8,7.2c0,1.1 -0.9,2 -2.7,2s-3.8,-0.9 -3.8,-0.9l-0.5,0l0,2.3c0,0 1.6,0.7 3.8,0.7c3.2,0 5.6,-1.4 5.6,-4.3c0.3,-5.4 -6.7,-4.5 -6.7,-7.4z" fill="#008CDB"/>
      <path id="svg_92" d="m1023.797755,558.796521l0,0c-0.2,0 -1.6,0.7 -3.2,0.7c-2.9,0 -4.5,-2.3 -4.5,-5.6c0,-3.4 1.6,-5.6 4.5,-5.6c1.6,0 2.9,0.7 2.9,0.7l0.2,0l0,-2.3c0,0 -1.4,-0.5 -3.4,-0.5c-4.5,0 -7.2,2.9 -7.2,7.7c0,4.7 2.5,7.7 7.2,7.7c2,0 3.4,-0.5 3.4,-0.5l0.1,-2.3l0,0z" fill="#008CDB"/>
      <path id="svg_93" d="m1030.197755,549.296521l-0.5,-2.9l-2,0l0,14.9l2.7,0l0,-8.8c0,-1.4 0,-4.1 3.4,-4.1c0.7,0 1.4,0.2 1.4,0.2l0,-2.5l-0.5,0c-2.1,0 -4.1,0.7 -4.5,3.2z" fill="#008CDB"/>
      <path id="svg_94" d="m1043.697755,561.696521c4.5,0 7,-2.9 7,-7.9c0,-5 -2.5,-7.7 -7,-7.7c-4.5,0 -7,2.9 -7,7.9c0,4.8 2.7,7.7 7,7.7zm0,-13.8c2.7,0 4.1,2 4.1,5.9c0,3.8 -1.4,5.9 -4.1,5.9c-2.7,0 -4.1,-2 -4.1,-5.9c0,-3.8 1.4,-5.9 4.1,-5.9z" fill="#008CDB"/>
      <rect id="svg_95" height="21.5" width="2.7" fill="#008CDB" y="539.796521" x="1054.497755"/>
      <rect id="svg_96" height="21.5" width="2.7" fill="#008CDB" y="539.796521" x="1061.997755"/>
      <path id="svg_97" d="m1070.797755,561.496521c1.1,0 1.6,-0.7 1.6,-1.6c0,-0.9 -0.7,-1.6 -1.6,-1.6c-1.1,0 -1.6,0.7 -1.6,1.6c-0.2,0.7 0.5,1.6 1.6,1.6z" fill="#008CDB"/>
      <path id="svg_98" d="m1097.497755,561.296521l0,-8.8c0,-1.8 0,-3.4 -0.9,-4.5c-0.7,-0.9 -1.8,-2 -4.1,-2c-2.5,0 -3.8,1.1 -4.5,3.2c-0.7,-1.8 -1.8,-3.2 -4.5,-3.2c-2.7,0 -3.8,1.4 -4.3,2.9l-0.5,-2.5l-2,0l0,14.9l2.7,0l0,-9.3c0,-1.4 0.2,-3.8 3.2,-3.8c1.4,0 2.3,0.5 2.7,1.4c0.5,0.9 0.5,1.6 0.5,2.9l0,8.8l2.7,0l0,-9.3c0,-1.4 0.2,-3.8 3.2,-3.8c1.4,0 2.3,0.5 2.7,1.4s0.5,1.6 0.5,2.9l0,8.8l2.6,0l0,0z" fill="#008CDB"/>
      <rect id="svg_99" height="14.9" width="2.7" fill="#008CDB" y="546.396521" x="1101.997755"/>
      <path id="svg_100" d="m1103.297755,543.596521c1.1,0 1.6,-0.7 1.6,-1.6c0,-0.9 -0.7,-1.6 -1.6,-1.6c-1.1,0 -1.6,0.7 -1.6,1.6c0.1,0.7 0.7,1.6 1.6,1.6z" fill="#008CDB"/>
      <path id="svg_101" d="m1115.797755,561.496521c2,0 3.4,-0.5 3.4,-0.5l0,-2.3l-0.2,0c0,0 -1.4,0.7 -2.9,0.7c-2.9,0 -4.5,-2.3 -4.5,-5.6c0,-3.4 1.6,-5.6 4.5,-5.6c1.6,0 2.9,0.7 2.9,0.7l0.2,0l0,-2.3c0,0 -1.4,-0.5 -3.4,-0.5c-4.5,0 -7.2,2.9 -7.2,7.7c0.2,4.8 2.6,7.7 7.2,7.7z" fill="#008CDB"/>
      <path id="svg_102" d="m1122.997755,561.296521l2,0c0.5,-5 0.2,-9.9 -0.5,-14.9l-1.4,0l0,14.9l-0.1,0z" fill="#008CDB"/>
      <path id="svg_103" d="m993.997755,572.796521l-2,0c0,0 -3.4,3.8 -4.1,10.2c0.7,1.8 1.6,3.8 2.5,5.6c0,-0.9 -0.2,-1.8 -0.2,-2.7c0.2,-8.6 3.8,-13.1 3.8,-13.1z" fill="#008CDB"/>
      <path id="svg_104" d="m1004.597755,583.896521l0.7,-5.9c2.3,0.2 3.8,0.9 3.8,0.9l0.2,0l0,-2c0,0 -1.6,-0.5 -3.8,-0.7l0.2,-2.3l-2,0l-0.2,2.3c-3.8,0 -6.3,1.6 -6.3,4.5c0,3.2 2.7,4.1 5.4,5.2l-0.7,6.3c-2.5,-0.2 -4.3,-0.9 -4.3,-0.9l-0.2,0l0,2c0,0 1.8,0.7 4.3,0.7l-0.2,2.3l2,0l0.2,-2.3c3.6,-0.2 6.3,-1.6 6.3,-4.7c0,-3.4 -2.7,-4.5 -5.4,-5.4zm-1.6,-0.7c-1.8,-0.7 -3.2,-1.4 -3.2,-2.9c0,-1.4 1.1,-2.3 3.6,-2.3l-0.4,5.2zm0.9,8.6l0.5,-5.6c1.8,0.7 3.2,1.6 3.2,3.2c0,1.2 -0.9,2.4 -3.7,2.4z" fill="#008CDB"/>
      <path id="svg_105" d="m1015.197755,591.096521c-1.1,0 -1.6,0.7 -1.6,1.6c0,0.9 0.7,1.6 1.6,1.6c1.1,0 1.6,-0.7 1.6,-1.6c0,-0.9 -0.7,-1.6 -1.6,-1.6z" fill="#008CDB"/>
      <path id="svg_106" d="m1028.297755,579.096521c-2.5,0 -4.1,1.1 -4.5,2.9l-0.7,-2.7l-2,0l0,20.3l2.7,0l0,-7.9c0.7,1.8 2,2.7 4.3,2.7c4.1,0 6.6,-3.2 6.6,-7.9c-0.3,-4.5 -2.5,-7.4 -6.4,-7.4zm-0.6,13.6c-2.9,0 -4.1,-2.5 -4.1,-5.6c0,-3.4 1.1,-5.9 4.1,-5.9c2.9,0 4.1,2.5 4.1,5.6c-0.1,3.4 -1.2,5.9 -4.1,5.9z" fill="#008CDB"/>
      <path id="svg_107" d="m1040.997755,582.296521l-0.5,-2.9l-2,0l0,14.9l2.7,0l0,-8.8c0,-1.4 0,-4.1 3.4,-4.1c0.7,0 1.4,0.2 1.4,0.2l0,-2.5l-0.5,0c-2,0 -4.1,0.7 -4.5,3.2z" fill="#008CDB"/>
      <path id="svg_108" d="m1054.497755,578.896521c-4.5,0 -7,2.9 -7,7.9c0,5 2.5,7.7 7,7.7s7,-2.9 7,-7.9c0,-4.8 -2.7,-7.7 -7,-7.7zm0,13.8c-2.7,0 -4.1,-2 -4.1,-5.9c0,-3.8 1.4,-5.9 4.1,-5.9c2.7,0 4.1,2 4.1,5.9c0,3.8 -1.3,5.9 -4.1,5.9z" fill="#008CDB"/>
      <polygon id="svg_109" points="1076.6978759765625,579.2965393066406 1073.6978759765625,579.2965393066406 1070.397705078125,584.9965515136719 1066.6978759765625,579.2965393066406 1063.59765625,579.2965393066406 1068.59765625,586.5965270996094 1063.397705078125,594.1965637207031 1066.0977783203125,594.1965637207031 1069.8978271484375,588.3965759277344 1073.6978759765625,594.1965637207031 1076.8978271484375,594.1965637207031 1071.6978759765625,586.5965270996094 " fill="#008CDB"/>
      <path id="svg_110" d="m1086.397755,590.596521l-4.3,-11.3l-2.9,0l5.9,14.5c-0.9,2.5 -1.8,4.1 -3.4,4.1c-0.9,0 -1.8,-0.5 -1.8,-0.5l-0.2,0l0,2c0,0 0.9,0.2 2,0.2c3.6,0 4.7,-2.3 5.9,-5.9l5.6,-14.7l-2.5,0l-4.3,11.6z" fill="#008CDB"/>
      <path id="svg_111" d="m1100.197755,572.796521c0,0 -4.3,4.7 -4.3,12.9c0,8.1 4.3,12.9 4.3,12.9l2,0c0,0 -3.8,-4.5 -3.8,-12.9c0,-8.4 3.8,-12.9 3.8,-12.9l-2,0z" fill="#008CDB"/>
      <path id="svg_112" d="m1109.197755,574.596521l-2.7,0.9l0,4.1l-2.7,0l0,2l2.7,0l0,7.5c0,1.8 0,2.9 0.7,3.8c0.7,1.1 2,1.6 3.8,1.6c1.4,0 2.5,-0.2 2.5,-0.2l0,-2l-0.2,0c0,0 -0.9,0.5 -2,0.5c-0.9,0 -1.4,-0.2 -1.8,-0.9c-0.2,-0.7 -0.2,-1.4 -0.2,-2.5l0,-7.5l4.3,0l0,-2l-4.3,0l0,-5.3l-0.1,0z" fill="#008CDB"/>
      <path id="svg_113" d="m1120.097755,581.796521l0,-9l-2.7,0l0,15.6c1.4,-2.7 2.7,-5.6 3.6,-8.6c-0.5,0.7 -0.9,1.3 -0.9,2z" fill="#008CDB"/>
     </g>
    </g>
   </g>
   <path id="svg_114" d="m610.497755,637.196521c0,0.9 -0.9,1.4 -1.6,1.4l-0.2,0c-0.9,-0.2 -1.6,-0.9 -1.4,-1.8c0.2,-2.3 0.5,-4.3 0.5,-6.6c0,-27.8 -22.6,-50.6 -50.6,-50.6c-11.1,0 -21.5,3.4 -30.3,9.9l-0.2,0c-0.2,0 -0.2,0.2 -0.5,0.2l0,0c0,0 0,0 -0.2,0c-0.5,0 -0.7,0 -0.9,-0.2l0,0c-0.2,0 -0.5,-0.2 -0.5,-0.5l0,0c-0.2,-0.2 -0.2,-0.5 -0.2,-0.7c-7.2,-29.6 -33.7,-50.4 -64.4,-50.4c-28,0 -52,17.4 -61.7,41.8c-0.5,0.9 -1.4,1.4 -2.3,0.9c-0.7,-0.5 -1.1,-1.4 -0.9,-2c10.2,-25.8 35.2,-44 64.6,-44c31.4,0 58.5,20.8 66.9,50.6c8.8,-5.9 19.2,-9.3 30.3,-9.3c29.6,0 53.8,24.2 53.8,53.8c0.2,2.9 0.2,5.2 -0.2,7.5z" fill="#006BBA"/>
  </g>
 </g>
</svg>