<?xml version="1.0" encoding="utf-8"?><!-- Generator: Adobe Illustrator 21.0.0, SVG Export Plug-In . SVG Version: 6.00 Build 0)  --><svg version="1.1" id="Layer_1" xmlns="http://www.w3.org/2000/svg" xmlns:xlink="http://www.w3.org/1999/xlink" x="0px" y="0px" width="1920px" height="1080px" viewBox="0 0 1920 1080" enable-background="new 0 0 1920 1080" xml:space="preserve"><g><g><path fill="#2AB6F4" d="M1579,672.7c-5.9-2.3-12-3.6-18.1-4.3c1.8-30.5-14.7-60.5-44-74.3c-27.6-13.1-59-8.4-81.3,9.7c-0.9-0.5-2-0.9-2.9-1.4c0.7-5,0.9-9.9,0.9-14.9c0-66.6-54-120.6-120.6-120.6c-53.5,0-98.9,35-114.7,83.4c-13.1-6.6-28-10.2-43.6-10.2c-45.2,0-83.1,30.5-94.6,72.1c-7.5-35-38.4-61.2-75.7-61.2c-34.3,0-63.5,22.4-73.4,53.3c-8.4-4.3-17.8-6.6-28-6.6c-34.3,0-62.3,27.6-63,61.9c-28.5,10.8-48.3,34.6-48.3,62.1c0,34.3,30.7,62.8,70.7,67.5c9,9.9,20.6,18.3,33.9,24.2c-0.5,3.4-0.7,6.6-0.7,10.2c0,44.7,36.4,81.1,81.1,81.1c35.9,0,66.6-23.5,77-56c8.8,4.3,18.7,6.8,29.4,6.8c21,0,39.8-9.7,51.7-25.1c13.8,24.2,39.8,40.7,69.6,40.7c25.5,0,48.3-12,63-30.7c11.5,0,23,0,34.1,0c9.9,24.2,33.9,41.3,61.7,41.3c14.2,0,27.3-4.3,37.9-12c9.3,12.4,21.5,22.8,36.4,30c48.3,22.8,105.9,2.3,128.8-46.1c4.7-10.2,7.7-20.8,8.8-31.4c29.8-1.4,57.6-20.3,68.7-50.1C1639.1,731.9,1618.8,687.6,1579,672.7z"/><path fill="#006BBA" d="M1264.6,761c-18.1-19.4-43.6-30.5-70-30.5c-23.9,0-47,9-64.6,25.3l-2.7,2.5l-2.3-2.7c-8.4-9.7-21.2-14.2-34.3-10.6l-2.5,0.7l-1.4-2.3c-9.5-15.8-26.2-25.3-44.7-25.3c-16.5,0-32.3,7.9-42.2,21.5l-5.6-4.1c11.1-15.1,29.1-24.2,47.9-24.2c20.1,0,38.4,9.9,49.5,26.4c13.6-2.7,27.1,1.6,36.6,10.8c18.5-16,42.2-24.8,66.9-24.8c28.5,0,55.8,12,75.2,32.8L1264.6,761z"/><path fill="#B4E5F9" d="M1434.4,466.7c0-33-26.7-59.6-59.6-59.6c-2,0-4.1,0-6.3,0.2c0-0.7,0-1.6,0-2.3c0-30.3-24.6-54.9-54.9-54.9c-23,0-42.9,14.2-50.8,34.3c-6.3-35-31.8-65.1-67.3-82.2c0.7-5.2,1.1-10.6,1.1-16c0-63.7-51.5-115.2-115.2-115.2c-51,0-94.2,33.2-109.3,79.3c-10.8-4.5-22.6-7.2-35.2-7.2c-47.2,0-85.8,36.6-89.4,82.7c-11.7,4.1-22.8,10.2-32.5,17.8c23,12.6,38.6,37,39.3,65.1c15.4,5.9,28.7,14.9,38.6,26c-1.8,8.6-2.9,17.6-2.9,26.9c0,48.8,27.8,91,68.4,111.8c11.1,50.4,55.8,88.1,109.3,88.1c58.1,0,105.7-44,111.4-100.7c1.8,0,3.4,0.2,5.2,0.2c8.1,0,15.8-1.1,23.3-3.2c0.5,0.2,0.9,0.2,1.4,0.5c0.2-0.2,0.2-0.7,0.5-0.9c14.5-4.3,27.3-12,37.7-22.1c15.1,16.3,36.8,26.4,60.8,26.4c28.2,0,53.1-14,68.2-35.5C1408.5,525.4,1434.4,499.2,1434.4,466.7z"/><g><g><path fill="#004999" d="M1535.2,416.5h-129.4c-5.2,0-9.3,4.1-9.3,9.3v166.5c0,5,4.1,9.3,9.3,9.3h129.4c5.2,0,9.3-4.1,9.3-9.3V425.8C1544.4,420.6,1540.1,416.5,1535.2,416.5z"/><path fill="#008CDB" d="M1535.2,416.5c5.2,0,9.3,4.1,9.3,9.3v166.5c0,5-4.1,9.3-9.3,9.3h-129.4c-5.2,0-9.3-4.1-9.3-9.3V425.8c0-5.2,4.1-9.3,9.3-9.3H1535.2 M1535.2,409.8h-129.4c-8.8,0-15.8,7.2-15.8,15.8V592c0,8.8,7.2,15.8,15.8,15.8h129.4c8.8,0,15.8-7.2,15.8-15.8V425.6C1551,417,1544,409.8,1535.2,409.8L1535.2,409.8z"/></g><g><circle fill="#2AB6F4" cx="1470.4" cy="562.2" r="7.9"/></g><g><rect x="1420.9" y="467.1" fill="#2AB6F4" width="98.9" height="14.7"/></g><g><rect x="1420.9" y="442.5" fill="#2AB6F4" width="98.9" height="14.7"/></g></g><path fill="#82D8F9" d="M1052,497.4c-0.2-19.9-16.5-35.7-36.4-35.7c-5.9,0-11.3,1.4-16,3.8c-5.9-17.8-22.6-30.7-42.5-30.7c-24.6,0-44.5,19.9-44.5,44.5c0,1.8,0,4.7,0,4.3c0-33.2-23.9-61.9-58.3-74.8c-0.7-41.3-34.3-74.5-75.9-74.5c-12.2,0-23.5,2.9-33.7,7.9c-12.2-37.3-47.2-64.4-88.5-64.4c-51.5,0-93.1,41.6-93.1,93.1c0,3.8,0.2,7.7,0.7,11.5c-32.3,14.2-55.6,40.4-61,71.6c-6.8-17.2-23.5-29.1-43.1-29.1c-25.5,0-46.3,20.8-46.3,46.3c0,2,0.2,3.8,0.5,5.6c-18.5,8.1-31.2,24.2-31.2,42.9c0,26.9,26.2,48.6,58.7,48.6c21.9,0,76.1,0,96.5,0c10.2,0,19.7-2.5,27.3-6.8c3.8,30,26.2,58.1,59.4,69.8c10.6,3.6,21.2,5.4,31.6,5.4c24.6,0,47.4-9.9,62.6-26.9c7.5,26.2,31.6,45.4,60.1,45.4c31.4,0,57.4-23,61.9-53.3c13.1,26.4,40.4,44.5,72.1,44.5c43.1,0,78.6-34.1,80.2-77c1.4,0.9,2.5,1.8,3.6,2.9c14.2,0,27.6,0,35.5,0c26.4,0,47.7-17.6,47.7-39.3C1079.8,517.5,1068.5,503.7,1052,497.4z"/><path fill="#008CDB" d="M1181.2,402.1c-12.4-13.3-30-21.2-48.3-21.2c-16.7,0-32.5,6.1-44.7,17.4l-1.8,1.8l-1.6-1.8c-5.6-6.8-14.7-9.7-23.7-7.5l-1.8,0.5l-0.9-1.6c-6.6-10.8-18.3-17.4-30.9-17.4c-11.5,0-22.4,5.4-29.1,14.9l-3.8-2.9c7.7-10.6,20.1-16.7,33-16.7c13.8,0,26.4,6.8,34.1,18.3c9.5-2,18.7,1.1,25.3,7.5c12.9-11.1,29.1-17.2,46.3-17.2c19.7,0,38.6,8.4,52,22.6L1181.2,402.1z"/><g><g><path fill="#004999" d="M583.8,363.2H435.1c-5.9,0-10.6,4.7-10.6,10.6v190.9c0,5.9,4.7,10.6,10.6,10.6h148.6c5.9,0,10.6-4.7,10.6-10.6V373.8C594.4,368,589.6,363.2,583.8,363.2z"/><path fill="#008CDB" d="M583.8,363.2c5.9,0,10.6,4.7,10.6,10.6v190.9c0,5.9-4.7,10.6-10.6,10.6H435.1c-5.9,0-10.6-4.7-10.6-10.6V373.8c0-5.9,4.7-10.6,10.6-10.6H583.8 M583.8,355.5H435.1c-10.2,0-18.3,8.1-18.3,18.3v190.9c0,10.2,8.1,18.3,18.3,18.3h148.6c10.2,0,18.3-8.1,18.3-18.3V373.8C602.1,363.7,593.9,355.5,583.8,355.5L583.8,355.5z"/></g><g><circle fill="#2AB6F4" cx="509.4" cy="530.4" r="9"/></g><g><rect x="452.8" y="421.3" fill="#2AB6F4" width="113.6" height="16.9"/></g><g><rect x="452.8" y="393" fill="#2AB6F4" width="113.6" height="16.9"/></g><g><g><path fill="#004999" d="M476.5,429.6H311.6c-6.6,0-11.7,5.2-11.7,11.7v211.9c0,6.6,5.2,11.7,11.7,11.7h164.9c6.6,0,11.7-5.2,11.7-11.7V441.4C488.2,434.8,483,429.6,476.5,429.6z"/><path fill="#008CDB" d="M476.5,429.6c6.6,0,11.7,5.2,11.7,11.7v211.9c0,6.6-5.2,11.7-11.7,11.7H311.6c-6.6,0-11.7-5.2-11.7-11.7V441.4c0-6.6,5.2-11.7,11.7-11.7H476.5 M476.5,421H311.6c-11.1,0-20.3,9-20.3,20.3v211.9c0,11.1,9,20.3,20.3,20.3h164.9c11.1,0,20.3-9,20.3-20.3V441.4C496.8,430.3,487.8,421,476.5,421L476.5,421z"/></g><g><circle fill="#2AB6F4" cx="394" cy="615.1" r="9.9"/></g><g><rect x="331" y="494.2" fill="#2AB6F4" width="126" height="18.7"/></g><g><rect x="331" y="462.8" fill="#2AB6F4" width="126" height="18.7"/></g></g><g><g><path fill="#004999" d="M589.6,402.1v157c0,4.7,3.8,8.8,8.8,8.8h122c4.7,0,8.8-3.8,8.8-8.8v-157c0-4.7-3.8-8.8-8.8-8.8h-122C593.5,393.3,589.6,397.3,589.6,402.1z"/><path fill="#008CDB" d="M720.4,570.8h-122c-6.6,0-12-5.4-12-12V402.1c0-6.6,5.4-12,12-12h122c6.6,0,12,5.4,12,12v157C732.2,565.6,727,570.8,720.4,570.8z M598.2,396.4c-3.2,0-5.6,2.5-5.6,5.6v157c0,3.2,2.5,5.6,5.6,5.6h122c3.2,0,5.6-2.5,5.6-5.6v-157c0-3.2-2.5-5.6-5.6-5.6H598.2z"/></g><g><circle fill="#2AB6F4" cx="659" cy="530.8" r="7.5"/></g><g><rect x="612.2" y="441.2" fill="#2AB6F4" width="93.3" height="14"/></g><g><rect x="612.2" y="417.9" fill="#2AB6F4" width="93.3" height="14"/></g></g></g><g><path fill="#004999" d="M1113,493.6l-7.9,57.4c0,0.7,0.2,1.1,0.9,1.1l117,16.3c0.7,0,1.1-0.2,1.1-0.9l7.9-57.4c0-0.7-0.2-1.1-0.9-1.1l-117-16.3C1113.7,492.4,1113.2,492.9,1113,493.6z M1130.9,549.6l-2.5-0.5c-0.7,0-1.1-0.7-0.9-1.1l6.3-45.6c0-0.7,0.7-1.1,1.1-0.9l2.5,0.5c0.7,0,1.1,0.7,0.9,1.1l-6.3,45.6C1132,549.4,1131.5,549.6,1130.9,549.6z M1154.8,553l-2.5-0.5c-0.7,0-1.1-0.7-0.9-1.1l6.3-45.6c0-0.7,0.7-1.1,1.1-0.9l2.5,0.5c0.7,0,1.1,0.7,0.9,1.1l-6.3,45.6C1155.9,552.5,1155.2,553,1154.8,553z M1178.5,556.4l-2.5-0.5c-0.7,0-1.1-0.7-0.9-1.1l6.3-45.6c0-0.7,0.7-1.1,1.1-0.9l2.5,0.5c0.7,0,1.1,0.7,0.9,1.1l-6.3,45.6C1179.6,555.9,1179.2,556.4,1178.5,556.4z M1202.5,559.5l-2.5-0.5c-0.7,0-1.1-0.7-0.9-1.1l6.3-45.6c0-0.7,0.7-1.1,1.1-0.9l2.5,0.5c0.7,0,1.1,0.7,0.9,1.1l-6.3,45.6C1203.6,559.3,1203.1,559.7,1202.5,559.5z"/><path fill="#82D8F9" d="M1114.1,492.7L1114.1,492.7l117.2,16.3c0.7,0,1.1,0.7,0.9,1.1l-7.9,57.4c0,0.5-0.5,0.9-1.1,0.9c0,0,0,0-0.2,0l-117-16.3c-0.7,0-1.1-0.7-0.9-1.1l7.9-57.4C1113.2,492.9,1113.7,492.7,1114.1,492.7 M1131.1,549.6c0.5,0,0.9-0.5,1.1-0.9l6.3-45.6c0-0.7-0.2-1.1-0.9-1.1l-2.5-0.5c0,0,0,0-0.2,0c-0.5,0-0.9,0.5-1.1,0.9l-6.3,45.6c0,0.7,0.2,1.1,0.9,1.1L1131.1,549.6C1130.9,549.6,1131.1,549.6,1131.1,549.6 M1154.8,553c0.5,0,0.9-0.5,1.1-0.9l6.3-45.6c0-0.7-0.2-1.1-0.9-1.1l-2.5-0.5c0,0,0,0-0.2,0c-0.5,0-0.9,0.5-1.1,0.9l-6.3,45.6c0,0.7,0.2,1.1,0.9,1.1L1154.8,553L1154.8,553 M1178.7,556.4c0.5,0,0.9-0.5,1.1-0.9l6.3-45.6c0-0.7-0.2-1.1-0.9-1.1l-2.5-0.5c0,0,0,0-0.2,0c-0.5,0-0.9,0.5-1.1,0.9l-6.3,45.6c0,0.7,0.2,1.1,0.9,1.1L1178.7,556.4L1178.7,556.4 M1202.7,559.5c0.5,0,0.9-0.5,1.1-0.9l6.3-45.6c0-0.7-0.2-1.1-0.9-1.1l-2.5-0.5c0,0,0,0-0.2,0c-0.5,0-0.9,0.5-1.1,0.9l-6.3,45.6c0,0.7,0.2,1.1,0.9,1.1L1202.7,559.5C1202.5,559.5,1202.5,559.5,1202.7,559.5 M1114.1,486.8c-3.4,0-6.6,2.5-7,6.1l-7.9,57.4c-0.5,3.8,2,7.5,5.9,7.9l117,16.3c0.2,0,0.7,0,0.9,0c3.4,0,6.6-2.5,7-6.1l7.9-57.4c0.5-3.8-2-7.5-5.9-7.9l-117-16.3C1114.8,486.8,1114.4,486.8,1114.1,486.8L1114.1,486.8z"/></g><g><path fill="#004999" d="M772.1,564.9l47.9,78.8c0.5,0.9,1.6,1.1,2.5,0.7l160.6-97.8c0.9-0.5,1.1-1.6,0.7-2.5l-48.1-78.8c-0.5-0.9-1.6-1.1-2.5-0.7l-160.4,97.8C771.9,562.9,771.7,564,772.1,564.9z M850.5,616l-3.6,2.3c-0.9,0.5-1.8,0.2-2.5-0.7L806.7,555c-0.5-0.9-0.2-1.8,0.7-2.5l3.6-2.3c0.9-0.5,1.8-0.2,2.5,0.7l37.9,62.3C851.7,614.4,851.4,615.5,850.5,616z M883.3,596.1l-3.6,2.3c-0.9,0.5-1.8,0.2-2.5-0.7l-37.9-62.3c-0.5-0.9-0.2-1.8,0.7-2.5l3.6-2.3c0.9-0.5,1.8-0.2,2.5,0.7l37.9,62.3C884.4,594.5,884.2,595.7,883.3,596.1z M916,576.2l-3.6,2.3c-0.9,0.5-1.8,0.2-2.5-0.7L872,515.5c-0.5-0.9-0.2-1.8,0.7-2.5l3.6-2.3c0.9-0.5,1.8-0.2,2.5,0.7l37.9,62.3C917.2,574.7,916.9,575.6,916,576.2z M948.8,556.1l-3.6,2.3c-0.9,0.5-1.8,0.2-2.5-0.7l-37.9-62.3c-0.5-0.9-0.2-1.8,0.7-2.5l3.6-2.3c0.9-0.5,1.8-0.2,2.5,0.7l37.9,62.3C949.9,554.8,949.5,555.7,948.8,556.1z"/><path fill="#2AB6F4" d="M772.1,563.1c0.2-0.2,0.5-0.5,0.7-0.7l160.6-97.8c0.9-0.5,1.8-0.2,2.5,0.7l47.9,78.8c0.5,0.7,0.2,1.4,0,1.8c-0.2,0.2-0.5,0.5-0.7,0.7l-160.6,97.6c-0.9,0.5-1.8,0.2-2.5-0.7l-47.9-78.8C771.9,564.3,771.9,563.6,772.1,563.1 M851.2,615.3c0.2-0.5,0.5-1.1,0-1.8l-37.9-62.3c-0.5-0.9-1.6-1.1-2.5-0.7l-3.6,2.3c-0.2,0.2-0.5,0.5-0.7,0.7c-0.2,0.5-0.5,1.1,0,1.8l37.9,62.3c0.5,0.9,1.6,1.1,2.5,0.7l3.6-2.3C850.8,615.8,851,615.5,851.2,615.3 M884,595.4c0.2-0.5,0.5-1.1,0-1.8L846,531.3c-0.5-0.9-1.6-1.1-2.5-0.7l-3.6,2.3c-0.2,0.2-0.5,0.5-0.7,0.7c-0.2,0.5-0.5,1.1,0,1.8l37.9,62.3c0.5,0.9,1.6,1.1,2.5,0.7l3.6-2.3C883.5,595.9,883.7,595.7,884,595.4 M916.7,575.6c0.2-0.5,0.5-1.1,0-1.8l-37.9-62.3c-0.5-0.9-1.6-1.1-2.5-0.7l-3.6,2.3c-0.2,0.2-0.5,0.5-0.7,0.7c-0.2,0.5-0.5,1.1,0,1.8l37.9,62.3c0.5,0.9,1.6,1.1,2.5,0.7l3.6-2.3C916.3,576,916.5,575.8,916.7,575.6 M949.2,555.7c0.2-0.5,0.5-1.1,0-1.8l-37.9-62.3c-0.5-0.9-1.6-1.1-2.5-0.7l-3.6,2.3c-0.2,0.2-0.5,0.5-0.7,0.7c-0.2,0.5-0.5,1.1,0,1.8l37.9,62.3c0.5,0.9,1.6,1.1,2.5,0.7l3.6-2.3C949,556.1,949.2,555.9,949.2,555.7 M767.4,560.2c-1.4,2.3-1.4,5.2,0,7.7l47.9,78.8c1.1,1.6,2.7,2.9,4.5,3.4c1.8,0.5,3.8,0.2,5.6-0.9l160.6-97.8c1.1-0.7,1.8-1.6,2.5-2.5c1.4-2.3,1.4-5.2,0-7.7l-47.9-78.8c-2-3.4-6.6-4.5-10.2-2.5l-160.6,97.8C769,558.2,768.1,559.1,767.4,560.2L767.4,560.2z"/></g><path fill="#B4E5F9" d="M928.5,711.3c-3.8-45.2-43.6-78.6-88.8-74.8c-1.4,0-2.5,0.2-3.8,0.5c-12.2-39.1-48.6-67.3-91.7-67.3c-16,0-30.9,3.8-44.3,10.8c-15.4-35.7-50.8-60.8-92.2-60.8c-44.5,0-82.2,28.9-95.3,69.1c-10.8-5.4-23.3-8.4-36.1-8.4c-44.5,0-80.9,35.7-81.5,80.2c-36.8,14-62.6,44.7-62.6,80.4c0,47.4,45.2,86.1,101.9,88.3c17.6,35.5,54,60.1,96.5,60.1c33.7,0,63.7-15.6,83.4-39.8c14.7,22.4,40,37,68.7,37c31.8,0,59.4-18.1,73-44.5c6.3,2,13.3,2.9,20.3,2.9c29.6,0,55.1-18.5,65.1-44.7c4.1,0.2,8.4,0.2,12.6-0.2C898.9,796.2,932.3,756.5,928.5,711.3z"/><g><g><g><path fill="#E0F4FC" d="M1050.7,557.5l-45.4,103.7l207.6,91l45.4-103.7L1050.7,557.5z M1055.4,670.9l-8.4-3.6l36.4-82.9l8.4,3.6L1055.4,670.9z M1097,689.2l-8.4-3.6l36.4-82.9l8.4,3.6L1097,689.2z M1138.3,707.5l-8.4-3.6l36.4-82.9l8.4,3.6L1138.3,707.5z M1179.9,725.5l-8.4-3.6l36.4-82.9l8.4,3.6L1179.9,725.5z"/><path fill="#008CDB" d="M1050.7,557.5l207.6,91l-45.4,103.7l-207.6-91L1050.7,557.5 M1055.4,670.9l36.4-82.9l-8.4-3.6l-36.4,82.9L1055.4,670.9 M1097,689.2l36.4-82.9l-8.4-3.6l-36.4,82.9L1097,689.2 M1138.3,707.5l36.4-82.9l-8.4-3.6l-36.4,82.9L1138.3,707.5 M1179.9,725.5l36.4-82.9l-8.4-3.6l-36.4,82.9L1179.9,725.5 M1051.6,551.6c-2.7-0.5-5.2,0.9-6.3,3.6l-45.4,103.7c-0.7,1.4-0.7,3.2,0,4.5c0.7,1.4,1.8,2.7,3.2,3.4l207.6,91c0.5,0.2,0.9,0.5,1.6,0.5c1.1,0.2,2,0,3.2-0.5c1.6-0.7,2.7-1.8,3.4-3.2l45.4-103.7c1.4-3.2,0-6.6-3.2-7.9l-207.6-91C1052.7,551.8,1052,551.6,1051.6,551.6L1051.6,551.6z"/></g></g></g><g><g><path fill="#004999" d="M1429.2,788.6l-60.3-60.3c-1.6-1.6-3.2-2.7-5-3.6c22.4-34.6,18.5-81.5-11.7-112c-35-35-91.7-35-126.5,0c-35,35-35,91.7,0,126.5c30.3,30.3,77.3,34.3,112,11.7c0.9,1.8,2,3.4,3.6,5l60.3,60.3c3.8,3.8,8.8,5.6,13.8,5.6c5,0,10.2-1.8,13.8-5.6C1436.9,808.7,1436.9,796.2,1429.2,788.6z"/><path fill="#008CDB" d="M1415.5,825.4c-6.1,0-12-2.5-16.3-6.8l-60.3-60.3c-0.9-0.9-1.6-1.8-2.3-2.7c-14.7,8.8-31.2,13.1-47.4,13.1c-23.9,0-47.9-9.3-65.7-27.1c-36.1-36.1-36.1-95.1,0-131.2c17.4-17.4,40.9-27.1,65.5-27.1c24.8,0,48.1,9.7,65.5,27.1c30,30,35.7,77,14,113.2c0.9,0.7,1.8,1.4,2.7,2.3l60.3,60.3c4.3,4.3,6.8,10.2,6.8,16.3c0,6.1-2.5,12-6.8,16.3C1427.2,823.1,1421.6,825.4,1415.5,825.4z M1338.9,746.5l1.6,3.2c0.7,1.6,1.8,2.9,2.9,4.1l60.3,60.3c3.2,3.2,7.2,4.7,11.5,4.7c4.3,0,8.6-1.8,11.5-4.7c3.2-3.2,4.7-7.2,4.7-11.5s-1.8-8.6-4.7-11.5l-60.3-60.3c-1.1-1.1-2.5-2.3-4.1-2.9l-3.2-1.6l2-2.9c21.9-33.9,17.2-79.3-11.3-108c-16.3-16.3-37.9-25.3-61-25.3s-44.7,9-61,25.3c-33.7,33.7-33.7,88.3,0,122c28.7,28.7,73.9,33.4,108,11.3L1338.9,746.5z"/></g><g><ellipse transform="matrix(0.7071 -0.7071 0.7071 0.7071 -100.5843 1109.4332)" fill="#82D8F9" cx="1288.9" cy="676.1" rx="71.2" ry="71.2"/><path fill="#B4E5F9" d="M1338.7,747.2l21.5-21.5c3.2-3.2,16.3,9.7,13.1,13.1l-21.5,21.5C1348.4,763.5,1335.3,750.4,1338.7,747.2z"/></g><g><path fill="none" d="M1289.6,700.9c-2.7,0-4.1,2-4.1,5.9c0,3.8,1.4,5.9,4.1,5.9c2.7,0,4.1-2,4.1-5.9C1293.7,703,1292.4,700.9,1289.6,700.9z"/><path fill="none" d="M1255.5,613.3c0.2,0,0.5-0.2,0.7-0.2C1255.8,613.1,1255.8,613.3,1255.5,613.3z"/><path fill="none" d="M1278.8,679.7c2.7,0,4.1-2,4.1-5.9c0-3.8-1.4-5.9-4.1-5.9c-2.7,0-4.1,2-4.1,5.9C1274.7,677.7,1276.1,679.7,1278.8,679.7z"/><path fill="none" d="M1226.9,685.6h-2c0,0-4.3-4.7-4.3-12.9s4.3-12.9,4.3-12.9h2c0,0-3.8,4.5-3.8,12.9S1226.9,685.6,1226.9,685.6z M1289.6,659.8h2.7v21.5h-2.7V659.8z M1283.8,633.4c1.1,0,1.6,0.7,1.6,1.6c0,0.9-0.7,1.6-1.6,1.6c-1.1,0-1.6-0.7-1.6-1.6C1282.2,634.1,1282.6,633.4,1283.8,633.4z M1282.6,645.4h2.7l-2,7.2h-1.8L1282.6,645.4z M1272.3,626.8h2c0,0,4.3,4.7,4.3,12.9s-4.3,12.9-4.3,12.9h-2c0,0,3.8-4.5,3.8-12.9C1276.1,631.3,1272.3,626.8,1272.3,626.8z M1267.1,626.8h2c0,0-3.8,4.5-3.8,12.9c0,8.4,3.8,12.9,3.8,12.9h-2c0,0-4.3-4.7-4.3-12.9C1262.8,631.6,1267.1,626.8,1267.1,626.8z M1249.9,633.6h2.7v-4.1l2.7-0.9v5h4.3v2h-4.3v7.5c0,1.1,0,2,0.2,2.5s0.9,0.9,1.8,0.9c1.1,0,2-0.5,2-0.5h0.2v2c0,0-1.1,0.2-2.5,0.2c-1.8,0-3.2-0.5-3.8-1.6c-0.7-0.9-0.7-2-0.7-3.8v-7.5h-2.7V633.6z M1231.1,659.8h2.5l-0.9,7h-1.8v-7H1231.1z M1239,713.8l-0.2,2.3h-2l0.2-2.3c-2.5-0.2-4.3-0.7-4.3-0.7v-2h0.2c0,0,1.8,0.7,4.3,0.9l0.7-6.3c-2.7-0.9-5.4-2-5.4-5.2c0-2.9,2.5-4.5,6.3-4.5l0.2-2.3h2l-0.2,2.3c2.3,0.2,3.8,0.7,3.8,0.7v2h-0.2c0,0-1.6-0.7-3.8-0.9l-0.7,5.9c2.7,0.9,5.4,2,5.4,5.2C1245.1,712.2,1242.7,713.6,1239,713.8z M1239.7,681.5c-2.5,0-3.8-0.7-3.8-0.7v-2.3h0.2c0,0,2,0.9,3.8,0.9s2.7-0.9,2.7-2c0-3.2-6.8-2.5-6.8-7.2c0-2.5,2-4.3,5.4-4.3c2,0,3.4,0.5,3.4,0.5v2.3h-0.2c0,0-1.8-0.7-3.4-0.7c-1.8,0-2.7,0.7-2.7,1.8c0,2.9,6.8,2,6.8,7.2C1245.6,680.1,1243.1,681.5,1239.7,681.5z M1246.7,648.3h-2.7v-21.5h2.7V648.3z M1250.3,714.5c-1.1,0-1.6-0.7-1.6-1.6c0-0.9,0.7-1.6,1.6-1.6c1.1,0,1.6,0.7,1.6,1.6C1251.9,713.6,1251.2,714.5,1250.3,714.5z M1248.5,673.8c0-4.7,2.5-7.7,7.2-7.7c1.8,0,3.4,0.5,3.4,0.5v2.3h-0.2c0,0-1.4-0.7-2.9-0.7c-2.9,0-4.5,2-4.5,5.6s1.6,5.6,4.5,5.6c1.6,0,2.9-0.7,2.9-0.7h0.2v2.3c0,0-1.4,0.5-3.4,0.5C1251,681.5,1248.5,678.6,1248.5,673.8z M1263.2,714.7c-2.3,0-3.8-0.9-4.3-2.7v7.9h-2.7v-20.3h2l0.7,2.7c0.5-1.8,2.3-2.9,4.5-2.9c3.8,0,6.3,2.9,6.3,7.7C1269.5,711.5,1267.3,714.7,1263.2,714.7z M1270.2,668.6c0,0-0.7-0.2-1.4-0.2c-3.4,0-3.4,2.7-3.4,4.1v8.8h-2.7v-14.9h2l0.5,2.9c0.5-2.5,2.5-2.9,4.5-2.9h0.5L1270.2,668.6L1270.2,668.6z M1278.8,665.9c4.3,0,7,2.7,7,7.7c0,5-2.5,7.9-7,7.9c-4.3,0-7-2.7-7-7.7C1271.8,668.8,1274.3,665.9,1278.8,665.9z M1281.1,701.6c0,0-0.7-0.2-1.4-0.2c-3.4,0-3.4,2.7-3.4,4.1v8.8h-2.7v-14.9h2l0.5,2.9c0.5-2.5,2.5-2.9,4.5-2.9h0.5L1281.1,701.6L1281.1,701.6z M1289.6,714.7c-4.3,0-7-2.7-7-7.7c0-5,2.5-7.9,7-7.9c4.3,0,7,2.7,7,7.7C1296.6,711.8,1293.9,714.7,1289.6,714.7z M1350.9,666.1c1.8,0,3.4,0.5,3.4,0.5v2.3h-0.2c0,0-1.4-0.7-2.9-0.7c-2.9,0-4.5,2-4.5,5.6s1.6,5.6,4.5,5.6c1.6,0,2.9-0.7,2.9-0.7h0.2v2.3c0,0-1.4,0.5-3.4,0.5c-4.5,0-7.2-2.9-7.2-7.7C1343.9,669.1,1346.3,666.1,1350.9,666.1z M1338.4,660.3c1.1,0,1.6,0.7,1.6,1.6c0,0.9-0.7,1.6-1.6,1.6c-1.1,0-1.6-0.7-1.6-1.6C1336.9,660.9,1337.5,660.3,1338.4,660.3z M1339.8,666.4v14.9h-2.7v-14.9H1339.8z M1305.9,678.1c1.1,0,1.6,0.7,1.6,1.6c0,0.9-0.7,1.6-1.6,1.6c-1.1,0-1.6-0.7-1.6-1.6C1304.1,678.8,1304.8,678.1,1305.9,678.1z M1300.5,612.4h2.7l-2,7.2h-1.8L1300.5,612.4z M1297.1,659.8h2.7v21.5h-2.7V659.8z M1308.8,714.2l-3.8-6.1l-3.8,6.1h-2.7l5.2-7.7l-5-7.2h3.2l3.4,5.6l3.6-5.6h2.7l-5,7.2l5.2,7.7H1308.8z M1322.4,714c-1.4,3.6-2.3,5.9-5.9,5.9c-1.1,0-2-0.2-2-0.2v-2h0.2c0,0,0.9,0.5,1.8,0.5c1.8,0,2.5-1.6,3.4-4.1l-5.9-14.5h2.9l4.3,11.3l4.1-11.3h2.5L1322.4,714z M1329.2,669.5c-0.5-0.7-1.4-1.4-2.7-1.4c-2.9,0-3.2,2.5-3.2,3.8v9.3h-2.7v-8.8c0-1.4,0-2.3-0.5-2.9c-0.5-0.7-1.4-1.4-2.7-1.4c-2.9,0-3.2,2.5-3.2,3.8v9.3h-2.7v-14.9h2l0.5,2.5c0.5-1.6,1.6-2.9,4.3-2.9c2.7,0,3.8,1.1,4.5,3.2c0.7-2,2-3.2,4.5-3.2c2.3,0,3.4,0.9,4.1,2c0.9,1.1,0.9,2.7,0.9,4.5v8.8h-2.7v-8.8C1329.9,671.1,1329.9,670.2,1329.2,669.5z M1337.3,718.5h-2c0,0-4.3-4.7-4.3-12.9s4.3-12.9,4.3-12.9h2c0,0-3.8,4.5-3.8,12.9S1337.3,718.5,1337.3,718.5z M1348.6,701.6h-4.3v7.5c0,1.1,0,2,0.2,2.5c0.2,0.7,0.9,0.9,1.8,0.9c1.1,0,2-0.5,2-0.5h0.2v2c0,0-1.1,0.2-2.5,0.2c-1.8,0-3.2-0.5-3.8-1.6c-0.7-0.9-0.7-2-0.7-3.8v-7.5h-2.7v-2h2.7v-4.1l2.7-0.9v5h4.3V701.6z"/><path fill="none" d="M1262.8,701.1c-2.9,0-4.1,2.5-4.1,5.9c0,3.4,1.1,5.6,4.1,5.6c2.9,0,4.1-2.5,4.1-5.9C1266.8,703.4,1265.7,701.1,1262.8,701.1z"/><path fill="none" d="M1234.8,700.2c0,1.6,1.4,2.3,3.2,2.9l0.5-5.4C1236.1,698,1234.8,698.7,1234.8,700.2z"/><path fill="none" d="M1239.5,706.1l-0.5,5.6c2.7,0,3.6-1.1,3.6-2.5C1242.7,707.7,1241.3,706.8,1239.5,706.1z"/><path fill="#008CDB" d="M1260.3,611c-1.4,0.7-2.9,1.4-4.3,2c-0.2,0.2-0.5,0.2-0.7,0.2c-1.1,0.7-2.3,1.4-3.6,2c0.7,0.2,1.1,0.2,2,0.2C1257.1,615.5,1259.4,614,1260.3,611z"/><path fill="#008CDB" d="M1276.8,615.3v-8.8c0-0.2,0-0.2,0-0.5c-0.9,0.2-1.8,0.2-2.7,0.5v8.8H1276.8z"/><path fill="#008CDB" d="M1267.3,615.3v-7c-0.9,0.2-1.8,0.7-2.7,0.9v6.1H1267.3z"/><path fill="#008CDB" d="M1285.1,619.6h2c0,0-3.8-4.5-3.8-12.9c0-0.5,0-1.1,0-1.6c-0.9,0-1.8,0.2-2.7,0.2c0,0.5,0,0.9,0,1.4C1280.8,614.9,1285.1,619.6,1285.1,619.6z"/><path fill="#008CDB" d="M1290.3,619.6h2c0,0,4.3-4.7,4.3-12.9c0-0.5,0-0.9,0-1.4c-0.9,0-1.8-0.2-2.7-0.2c0,0.5,0,0.9,0,1.6C1293.9,615.1,1290.3,619.6,1290.3,619.6z"/><polygon fill="#008CDB" points="1303.2,612.4 1300.5,612.4 1299.4,619.6 1301.2,619.6 "/><path fill="#008CDB" d="M1224.4,646.3L1224.4,646.3c-0.2,0.7-0.7,1.4-0.9,2c0.5,0,0.9-0.2,0.9-0.2V646.3z"/><path fill="#008CDB" d="M1228.2,646.7c0.7,1.1,2,1.8,4.1,1.8c2.5,0,3.8-1.1,4.3-2.9l0.5,2.5h2v-14.9h-2.7v9.3c0,1.4-0.2,3.8-3.4,3.8c-1.4,0-2.3-0.5-2.7-1.4c-0.5-0.7-0.7-1.6-0.7-2.9v-5.6c-0.9,1.4-1.8,2.7-2.7,4.3v1.4C1227.3,644,1227.3,645.6,1228.2,646.7z"/><rect x="1244" y="626.8" fill="#008CDB" width="2.7" height="21.5"/><path fill="#008CDB" d="M1252.6,643.1c0,1.8,0,2.9,0.7,3.8c0.7,1.1,2,1.6,3.8,1.6c1.4,0,2.5-0.2,2.5-0.2V646h-0.2c0,0-0.9,0.5-2,0.5c-0.9,0-1.4-0.2-1.8-0.9s-0.2-1.4-0.2-2.5v-7.5h4.3v-2h-4.3v-5l-2.7,0.9v4.1h-2.7v2h2.7V643.1z"/><path fill="#008CDB" d="M1269.1,652.6c0,0-3.8-4.5-3.8-12.9s3.8-12.9,3.8-12.9h-2c0,0-4.3,4.7-4.3,12.9s4.3,12.9,4.3,12.9H1269.1z"/><path fill="#008CDB" d="M1274.3,652.6c0,0,4.3-4.7,4.3-12.9s-4.3-12.9-4.3-12.9h-2c0,0,3.8,4.5,3.8,12.9s-3.8,12.9-3.8,12.9H1274.3z"/><path fill="#008CDB" d="M1283.8,636.5c1.1,0,1.6-0.7,1.6-1.6c0-0.9-0.7-1.6-1.6-1.6c-1.1,0-1.6,0.7-1.6,1.6C1282.2,635.9,1282.6,636.5,1283.8,636.5z"/><polygon fill="#008CDB" points="1285.1,645.4 1282.6,645.4 1281.3,652.6 1283.1,652.6 "/><path fill="#008CDB" d="M1225,659.8c0,0-4.3,4.7-4.3,12.9c0,8.1,4.3,12.9,4.3,12.9h2c0,0-3.8-4.5-3.8-12.9c0-8.4,3.8-12.9,3.8-12.9H1225z"/><polygon fill="#008CDB" points="1233.6,659.8 1231.1,659.8 1231.1,666.8 1232.9,666.8 "/><path fill="#008CDB" d="M1238.6,670c0-1.1,0.9-1.8,2.7-1.8c1.6,0,3.4,0.7,3.4,0.7h0.2v-2.3c0,0-1.6-0.5-3.4-0.5c-3.4,0-5.4,1.6-5.4,4.3c0,4.7,6.8,3.8,6.8,7.2c0,1.1-0.9,2-2.7,2s-3.8-0.9-3.8-0.9h-0.5v2.3c0,0,1.6,0.7,3.8,0.7c3.2,0,5.6-1.4,5.6-4.3C1245.6,672,1238.6,672.9,1238.6,670z"/><path fill="#008CDB" d="M1258.9,678.8L1258.9,678.8c-0.2,0-1.6,0.7-3.2,0.7c-2.9,0-4.5-2.3-4.5-5.6c0-3.4,1.6-5.6,4.5-5.6c1.6,0,2.9,0.7,2.9,0.7h0.2v-2.3c0,0-1.4-0.5-3.4-0.5c-4.5,0-7.2,2.9-7.2,7.7c0,4.7,2.5,7.7,7.2,7.7c2,0,3.4-0.5,3.4-0.5L1258.9,678.8L1258.9,678.8z"/><path fill="#008CDB" d="M1265.3,669.3l-0.5-2.9h-2v14.9h2.7v-8.8c0-1.4,0-4.1,3.4-4.1c0.7,0,1.4,0.2,1.4,0.2v-2.5h-0.5C1267.7,666.1,1265.7,666.8,1265.3,669.3z"/><path fill="#008CDB" d="M1278.8,681.7c4.5,0,7-2.9,7-7.9c0-5-2.5-7.7-7-7.7c-4.5,0-7,2.9-7,7.9C1271.8,678.8,1274.5,681.7,1278.8,681.7z M1278.8,667.9c2.7,0,4.1,2,4.1,5.9c0,3.8-1.4,5.9-4.1,5.9c-2.7,0-4.1-2-4.1-5.9C1274.7,670,1276.1,667.9,1278.8,667.9z"/><rect x="1289.6" y="659.8" fill="#008CDB" width="2.7" height="21.5"/><rect x="1297.1" y="659.8" fill="#008CDB" width="2.7" height="21.5"/><path fill="#008CDB" d="M1305.9,681.5c1.1,0,1.6-0.7,1.6-1.6c0-0.9-0.7-1.6-1.6-1.6c-1.1,0-1.6,0.7-1.6,1.6C1304.1,680.6,1304.8,681.5,1305.9,681.5z"/><path fill="#008CDB" d="M1332.6,681.3v-8.8c0-1.8,0-3.4-0.9-4.5c-0.7-0.9-1.8-2-4.1-2c-2.5,0-3.8,1.1-4.5,3.2c-0.7-1.8-1.8-3.2-4.5-3.2c-2.7,0-3.8,1.4-4.3,2.9l-0.5-2.5h-2v14.9h2.7V672c0-1.4,0.2-3.8,3.2-3.8c1.4,0,2.3,0.5,2.7,1.4c0.5,0.9,0.5,1.6,0.5,2.9v8.8h2.7V672c0-1.4,0.2-3.8,3.2-3.8c1.4,0,2.3,0.5,2.7,1.4s0.5,1.6,0.5,2.9v8.8L1332.6,681.3L1332.6,681.3z"/><rect x="1337.1" y="666.4" fill="#008CDB" width="2.7" height="14.9"/><path fill="#008CDB" d="M1338.4,663.6c1.1,0,1.6-0.7,1.6-1.6c0-0.9-0.7-1.6-1.6-1.6c-1.1,0-1.6,0.7-1.6,1.6C1336.9,662.7,1337.5,663.6,1338.4,663.6z"/><path fill="#008CDB" d="M1350.9,681.5c2,0,3.4-0.5,3.4-0.5v-2.3h-0.2c0,0-1.4,0.7-2.9,0.7c-2.9,0-4.5-2.3-4.5-5.6c0-3.4,1.6-5.6,4.5-5.6c1.6,0,2.9,0.7,2.9,0.7h0.2v-2.3c0,0-1.4-0.5-3.4-0.5c-4.5,0-7.2,2.9-7.2,7.7C1343.9,678.6,1346.3,681.5,1350.9,681.5z"/><path fill="#008CDB" d="M1358.1,681.3h2c0.5-5,0.2-9.9-0.5-14.9h-1.4v14.9H1358.1z"/><path fill="#008CDB" d="M1229.1,692.8h-2c0,0-3.4,3.8-4.1,10.2c0.7,1.8,1.6,3.8,2.5,5.6c0-0.9-0.2-1.8-0.2-2.7C1225.5,697.3,1229.1,692.8,1229.1,692.8z"/><path fill="#008CDB" d="M1239.7,703.9l0.7-5.9c2.3,0.2,3.8,0.9,3.8,0.9h0.2v-2c0,0-1.6-0.5-3.8-0.7l0.2-2.3h-2l-0.2,2.3c-3.8,0-6.3,1.6-6.3,4.5c0,3.2,2.7,4.1,5.4,5.2l-0.7,6.3c-2.5-0.2-4.3-0.9-4.3-0.9h-0.2v2c0,0,1.8,0.7,4.3,0.7l-0.2,2.3h2l0.2-2.3c3.6-0.2,6.3-1.6,6.3-4.7C1245.1,705.9,1242.4,704.8,1239.7,703.9z M1238.1,703.2c-1.8-0.7-3.2-1.4-3.2-2.9c0-1.4,1.1-2.3,3.6-2.3L1238.1,703.2z M1239,711.8l0.5-5.6c1.8,0.7,3.2,1.6,3.2,3.2C1242.7,710.6,1241.8,711.8,1239,711.8z"/><path fill="#008CDB" d="M1250.3,711.1c-1.1,0-1.6,0.7-1.6,1.6c0,0.9,0.7,1.6,1.6,1.6c1.1,0,1.6-0.7,1.6-1.6C1251.9,711.8,1251.2,711.1,1250.3,711.1z"/><path fill="#008CDB" d="M1263.4,699.1c-2.5,0-4.1,1.1-4.5,2.9l-0.7-2.7h-2v20.3h2.7v-7.9c0.7,1.8,2,2.7,4.3,2.7c4.1,0,6.6-3.2,6.6-7.9C1269.5,702,1267.3,699.1,1263.4,699.1z M1262.8,712.7c-2.9,0-4.1-2.5-4.1-5.6c0-3.4,1.1-5.9,4.1-5.9c2.9,0,4.1,2.5,4.1,5.6C1266.8,710.2,1265.7,712.7,1262.8,712.7z"/><path fill="#008CDB" d="M1276.1,702.3l-0.5-2.9h-2v14.9h2.7v-8.8c0-1.4,0-4.1,3.4-4.1c0.7,0,1.4,0.2,1.4,0.2v-2.5h-0.5C1278.6,699.1,1276.5,699.8,1276.1,702.3z"/><path fill="#008CDB" d="M1289.6,698.9c-4.5,0-7,2.9-7,7.9c0,5,2.5,7.7,7,7.7s7-2.9,7-7.9C1296.6,701.8,1293.9,698.9,1289.6,698.9z M1289.6,712.7c-2.7,0-4.1-2-4.1-5.9c0-3.8,1.4-5.9,4.1-5.9c2.7,0,4.1,2,4.1,5.9C1293.7,710.6,1292.4,712.7,1289.6,712.7z"/><polygon fill="#008CDB" points="1311.8,699.3 1308.8,699.3 1305.5,705 1301.8,699.3 1298.7,699.3 1303.7,706.6 1298.5,714.2 1301.2,714.2 1305,708.4 1308.8,714.2 1312,714.2 1306.8,706.6 "/><path fill="#008CDB" d="M1321.5,710.6l-4.3-11.3h-2.9l5.9,14.5c-0.9,2.5-1.8,4.1-3.4,4.1c-0.9,0-1.8-0.5-1.8-0.5h-0.2v2c0,0,0.9,0.2,2,0.2c3.6,0,4.7-2.3,5.9-5.9l5.6-14.7h-2.5L1321.5,710.6z"/><path fill="#008CDB" d="M1335.3,692.8c0,0-4.3,4.7-4.3,12.9c0,8.1,4.3,12.9,4.3,12.9h2c0,0-3.8-4.5-3.8-12.9c0-8.4,3.8-12.9,3.8-12.9H1335.3z"/><path fill="#008CDB" d="M1344.3,694.6l-2.7,0.9v4.1h-2.7v2h2.7v7.5c0,1.8,0,2.9,0.7,3.8c0.7,1.1,2,1.6,3.8,1.6c1.4,0,2.5-0.2,2.5-0.2v-2h-0.2c0,0-0.9,0.5-2,0.5c-0.9,0-1.4-0.2-1.8-0.9c-0.2-0.7-0.2-1.4-0.2-2.5v-7.5h4.3v-2h-4.3V694.6z"/><path fill="#008CDB" d="M1355.2,701.8v-9h-2.7v15.6c1.4-2.7,2.7-5.6,3.6-8.6C1355.6,700.5,1355.2,701.1,1355.2,701.8z"/></g></g></g><path fill="#006BBA" d="M845.6,757.2c0,0.9-0.9,1.4-1.6,1.4h-0.2c-0.9-0.2-1.6-0.9-1.4-1.8c0.2-2.3,0.5-4.3,0.5-6.6c0-27.8-22.6-50.6-50.6-50.6c-11.1,0-21.5,3.4-30.3,9.9h-0.2c-0.2,0-0.2,0.2-0.5,0.2l0,0c0,0,0,0-0.2,0c-0.5,0-0.7,0-0.9-0.2l0,0c-0.2,0-0.5-0.2-0.5-0.5l0,0c-0.2-0.2-0.2-0.5-0.2-0.7c-7.2-29.6-33.7-50.4-64.4-50.4c-28,0-52,17.4-61.7,41.8c-0.5,0.9-1.4,1.4-2.3,0.9c-0.7-0.5-1.1-1.4-0.9-2c10.2-25.8,35.2-44,64.6-44c31.4,0,58.5,20.8,66.9,50.6c8.8-5.9,19.2-9.3,30.3-9.3c29.6,0,53.8,24.2,53.8,53.8C846,752.6,846,754.9,845.6,757.2z"/></g></svg>