<?xml version="1.0" encoding="utf-8"?>
<!-- Generator: Adobe Illustrator 22.1.0, SVG Export Plug-In . SVG Version: 6.00 Build 0)  -->
<svg version="1.1" id="vectors" xmlns="http://www.w3.org/2000/svg" xmlns:xlink="http://www.w3.org/1999/xlink" x="0px" y="0px"
	 viewBox="0 0 612 792" style="enable-background:new 0 0 612 792;" xml:space="preserve">
<style type="text/css">
	.st0{fill:#005596;}
</style>
<path class="st0" d="M371.4,229.4c-17.2,18.1-41.6,29.3-68.5,29.3c-24,0-45.9-8.9-62.6-23.6l-0.4-39.3h32.3c0,0,10.2,11.5,32,10.9
	s30.1-14,30.1-14v36.7L371.4,229.4z"/>
<path class="st0" d="M369.9,97.1c17.1,17.1,27.7,40.8,27.7,66.9c0,21.9-7.4,42-19.9,58h-35.9v-41.8c0,0,6.8-11.4,2.6-26.1
	S333,133.7,333,133.7l36.8-0.3L369.9,97.1z"/>
<path class="st0" d="M227.3,107c17.3-22.9,44.7-37.6,75.6-37.6c22.7,0,43.5,8,59.8,21.3v35.2h-38.2c0,0-17.3-6.8-32.6-3.3
	c-16.2,3.8-27.4,18.6-27.4,18.6v-34.4L227.3,107z"/>
<polygon class="st0" points="266.3,188.8 233.5,188.8 233.5,227.7 211.8,203.8 247,167.8 "/>
<polygon class="st0" points="159.7,112.6 195.2,112.6 206.7,123.6 170.8,159.7 159.7,148.9 "/>
<path class="st0" d="M223.2,113c0,0-55,55.9-77.2,79.8c-19.4,20.9-64.1,17.5-72.4-13.6c-5.3-19.7-2.5-50.8,35.8-56.2
	c23.5-3.3,44.2,19,44.2,19v-35.7l35-0.1c-17.3-22.4-44.5-36.9-75-36.9c-52.3,0-94.7,42.4-94.7,94.7c0,52.3,42.4,94.7,94.7,94.7
	c19.6,0,39.7-3.7,53-16.2c19.9-18.6,92.4-93.8,92.4-93.8v-35.8L223.2,113z M57,104.5c0,0,16.3-20.8,50.1-24.3
	c33.8-3.4,57.1,17.8,57.1,17.8h-21v24.5c0,0-14.2-11.6-36-9.2c-21.9,2.4-30.8,13.5-30.8,13.5H57V104.5z M30.4,181.1
	c-7.2-49.7,20.4-72,20.4-72v23.7h20.1c-23.7,40.5,4.1,68.2,4.1,68.2v20.8H52.3C52.3,221.7,34,205.7,30.4,181.1z M163.6,233.5
	c0,0-14.3,16.3-53.2,16.3c-35.1,0-49.9-22.1-49.9-22.1h20.9l-0.3-21.9c0,0,28.5,21.6,62.9,1.8h19.6V233.5z M249.1,144.9l-78.9,82.8
	l0.5-26.5h-19.1l75.7-78.7h21.8V144.9z"/>
</svg>
