<?xml version="1.0" encoding="utf-8"?>
<!-- Generator: Adobe Illustrator 22.1.0, SVG Export Plug-In . SVG Version: 6.00 Build 0)  -->
<svg version="1.1" id="Layer_1" xmlns="http://www.w3.org/2000/svg" xmlns:xlink="http://www.w3.org/1999/xlink" x="0px" y="0px"
	 viewBox="0 0 250 60" style="enable-background:new 0 0 250 60;" xml:space="preserve">
<style type="text/css">
	.st0{fill:#002E6D;}
	.st1{fill:#005595;}
	.st2{fill:#CF3339;}
</style>
<g>
	<g>
		<g>
			<path class="st0" d="M51.1,32.7v-11H55c3.9,0,5.9,1.8,5.9,5.4c0,1.7-0.5,3.1-1.6,4.1c-1.1,1-2.5,1.5-4.3,1.5H51.1z M53.5,23.7v7
				h1.2c1.1,0,1.9-0.3,2.5-1c0.6-0.6,0.9-1.5,0.9-2.6c0-1-0.3-1.9-0.9-2.5c-0.6-0.6-1.5-0.9-2.5-0.9H53.5z"/>
			<path class="st0" d="M68,32.7h-5.5v-8.2h5.3v1.7H65v1.6h2.6v1.7H65V31h3V32.7z"/>
			<path class="st0" d="M77.4,24.4l-2.9,8.2h-2.9l-2.9-8.2h2.6l1.5,5.1c0,0.2,0.1,0.3,0.1,0.5c0,0.2,0.1,0.3,0.1,0.4h0
				c0-0.1,0-0.3,0.1-0.4c0-0.1,0.1-0.3,0.2-0.5l1.5-5.1H77.4z"/>
			<path class="st0" d="M83.3,32.8c-1.6,0-2.9-0.5-3.8-1.5c-1-1-1.5-2.4-1.5-4c0-1.7,0.5-3.1,1.5-4.2c1-1.1,2.3-1.6,4-1.6
				c1.6,0,2.8,0.5,3.8,1.5c1,1,1.5,2.4,1.5,4.1c0,1.7-0.5,3.1-1.5,4.2C86.2,32.3,84.9,32.8,83.3,32.8z M83.4,23.6
				c-0.9,0-1.6,0.3-2.1,1c-0.5,0.7-0.8,1.5-0.8,2.6c0,1.1,0.3,2,0.8,2.6c0.5,0.6,1.2,1,2,1c0.9,0,1.5-0.3,2-0.9
				c0.5-0.6,0.8-1.5,0.8-2.6c0-1.1-0.2-2-0.7-2.7C84.9,23.9,84.2,23.6,83.4,23.6z"/>
			<path class="st0" d="M92.9,29.9v2.8h-2.4v-8.2h3.2c2.3,0,3.4,0.9,3.4,2.6c0,0.4-0.1,0.8-0.2,1.2c-0.2,0.3-0.4,0.7-0.7,0.9
				c-0.3,0.2-0.6,0.4-1.1,0.6c-0.4,0.1-0.9,0.2-1.4,0.2H92.9z M92.9,26v2.3h0.6c0.8,0,1.1-0.4,1.1-1.2c0-0.7-0.4-1.1-1.1-1.1H92.9z"
				/>
			<path class="st0" d="M98.4,32.3v-2c0.4,0.3,0.8,0.5,1.2,0.6c0.4,0.1,0.9,0.2,1.3,0.2c0.5,0,0.8-0.1,1.1-0.2
				c0.2-0.1,0.3-0.3,0.3-0.5c0-0.1,0-0.2-0.1-0.3c-0.1-0.1-0.2-0.2-0.3-0.3c-0.1-0.1-0.3-0.2-0.6-0.3c-0.2-0.1-0.5-0.2-0.9-0.4
				c-0.7-0.3-1.2-0.6-1.5-1c-0.3-0.4-0.5-0.9-0.5-1.5c0-0.4,0.1-0.8,0.3-1.1c0.2-0.3,0.5-0.6,0.8-0.8c0.3-0.2,0.7-0.3,1.1-0.4
				c0.4-0.1,0.9-0.1,1.4-0.1c0.5,0,0.9,0,1.3,0.1c0.4,0.1,0.7,0.1,1,0.2v1.9c-0.2-0.1-0.3-0.2-0.5-0.3c-0.2-0.1-0.4-0.1-0.6-0.2
				c-0.2,0-0.4-0.1-0.6-0.1c-0.2,0-0.4,0-0.5,0c-0.4,0-0.8,0.1-1,0.2c-0.2,0.1-0.4,0.3-0.4,0.5c0,0.1,0,0.2,0.1,0.3
				c0.1,0.1,0.1,0.1,0.3,0.2c0.1,0.1,0.3,0.1,0.5,0.2c0.2,0.1,0.5,0.2,0.8,0.3c0.7,0.3,1.3,0.6,1.7,1c0.4,0.4,0.6,1,0.6,1.6
				c0,0.8-0.3,1.5-0.9,1.9c-0.6,0.4-1.5,0.6-2.7,0.6c-0.5,0-1,0-1.4-0.1C99.1,32.6,98.7,32.5,98.4,32.3z"/>
		</g>
	</g>
	<g>
		<path class="st1" d="M212,39.7c-3.3,3.4-7.8,5.5-12.9,5.5c-4.5,0-8.7-1.7-11.8-4.5l-0.1-7.4h6.1c0,0,1.9,2.2,6,2.1
			c4.1-0.1,5.7-2.6,5.7-2.6v6.9L212,39.7z"/>
		<path class="st1" d="M211.7,14.7c3.2,3.2,5.2,7.7,5.2,12.6c0,4.1-1.4,7.9-3.7,10.9h-6.8v-7.9c0,0,1.3-2.2,0.5-4.9
			s-2.2-3.9-2.2-3.9l6.9-0.1L211.7,14.7z"/>
		<path class="st1" d="M184.9,16.6c3.3-4.3,8.4-7.1,14.3-7.1c4.3,0,8.2,1.5,11.3,4v6.6h-7.2c0,0-3.3-1.3-6.1-0.6
			c-3.1,0.7-5.2,3.5-5.2,3.5v-6.5L184.9,16.6z"/>
		<polygon class="st1" points="192.2,32 186,32 186,39.4 181.9,34.9 188.6,28.1 		"/>
		<polygon class="st1" points="172.1,17.6 178.8,17.6 181,19.7 174.2,26.5 172.1,24.5 		"/>
		<path class="st1" d="M184.1,17.7c0,0-10.4,10.5-14.6,15c-3.7,4-12.1,3.3-13.7-2.6c-1-3.7-0.5-9.6,6.8-10.6
			c4.4-0.6,8.3,3.6,8.3,3.6v-6.7l6.6,0c-3.3-4.2-8.4-7-14.1-7c-9.9,0-17.9,8-17.9,17.9c0,9.9,8,17.9,17.9,17.9c3.7,0,7.5-0.7,10-3.1
			c3.8-3.5,17.4-17.7,17.4-17.7v-6.8L184.1,17.7z M152.7,16.1c0,0,3.1-3.9,9.4-4.6s10.8,3.4,10.8,3.4h-4v4.6c0,0-2.7-2.2-6.8-1.7
			c-4.1,0.5-5.8,2.5-5.8,2.5h-3.7V16.1z M147.7,30.6c-1.4-9.4,3.8-13.6,3.8-13.6v4.5h3.8c-4.5,7.6,0.8,12.9,0.8,12.9v3.9h-4.3
			C151.9,38.2,148.4,35.2,147.7,30.6z M172.8,40.5c0,0-2.7,3.1-10,3.1c-6.6,0-9.4-4.2-9.4-4.2h3.9l0-4.1c0,0,5.4,4.1,11.9,0.3h3.7
			V40.5z M189,23.7l-14.9,15.6l0.1-5h-3.6l14.3-14.8h4.1V23.7z"/>
	</g>
	<path class="st2" d="M201.1,54.5H198V54h3.1V54.5z M195,54.5h-3V54h3V54.5z M188.9,54.5h-3V54h3V54.5z M182.9,54.5h-3V54h3V54.5z
		 M176.9,54.5h-3V54h3V54.5z M170.8,54.5h-3V54h3V54.5z M164.8,54.5h-3V54h3V54.5z M158.8,54.5h-3V54h3V54.5z M152.7,54.5h-3V54h3
		V54.5z M146.7,54.5h-3V54h3V54.5z M140.7,54.5h-3V54h3V54.5z M134.7,54.5h-3V54h3V54.5z M128.6,54.5h-3V54h3V54.5z M122.6,54.5h-3
		V54h3V54.5z M116.6,54.5h-3V54h3V54.5z M110.5,54.5h-3V54h3V54.5z M104.5,54.5h-3V54h3V54.5z M98.5,54.5h-3V54h3V54.5z M92.4,54.5
		h-3V54h3V54.5z M86.4,54.5h-3V54h3V54.5z M80.4,54.5h-3V54h3V54.5z M74.3,54.5h-3V54h3V54.5z M68.3,54.5h-3V54h3V54.5z M62.3,54.5
		h-3V54h3V54.5z M56.2,54.5h-3V54h3V54.5z M50.2,54.5H49c-0.6,0-1.2,0-1.8-0.1l0-0.5c0.6,0,1.2,0.1,1.8,0.1h1.2V54.5z M204.1,54.3
		l-0.1-0.5c1-0.1,2-0.3,2.9-0.5l0.1,0.5C206.2,54,205.1,54.2,204.1,54.3z M44.2,54.1c-1-0.2-2-0.4-3-0.7l0.1-0.5
		c1,0.3,1.9,0.5,2.9,0.7L44.2,54.1z M210.1,52.9l-0.2-0.5c0.9-0.3,1.9-0.7,2.7-1.2l0.2,0.4C212,52.2,211,52.6,210.1,52.9z
		 M38.4,52.3c-0.9-0.4-1.8-0.9-2.7-1.4l0.3-0.4c0.9,0.5,1.8,0.9,2.7,1.3L38.4,52.3z M215.5,50.2l-0.3-0.4c0.8-0.5,1.6-1.1,2.4-1.8
		l0.3,0.4C217.2,49.1,216.3,49.7,215.5,50.2z M33.1,49.3c-0.8-0.6-1.6-1.3-2.3-1.9l0.3-0.4c0.7,0.7,1.5,1.3,2.3,1.9L33.1,49.3z
		 M220.2,46.4l-0.4-0.3c0.7-0.7,1.3-1.5,2-2.3l0.4,0.3C221.6,44.9,220.9,45.7,220.2,46.4z M28.6,45.1c-0.7-0.8-1.3-1.6-1.8-2.4
		l0.4-0.3c0.6,0.8,1.2,1.6,1.8,2.4L28.6,45.1z M223.9,41.6l-0.4-0.3c0.5-0.9,1-1.7,1.4-2.6l0.5,0.2
		C224.9,39.8,224.4,40.7,223.9,41.6z M25.3,40.1c-0.5-0.9-0.9-1.8-1.2-2.8l0.5-0.2c0.4,0.9,0.8,1.8,1.2,2.7L25.3,40.1z M226.4,36
		l-0.5-0.2c0.3-0.9,0.6-1.9,0.8-2.9l0.5,0.1C227,34.1,226.8,35.1,226.4,36z M23.1,34.4c-0.3-1-0.4-2-0.6-3l0.5-0.1
		c0.1,1,0.3,2,0.6,2.9L23.1,34.4z M227.6,30.1l-0.5,0c0.1-0.8,0.1-1.5,0.1-2.3c0-0.2,0-0.5,0-0.7l0.5,0c0,0.2,0,0.5,0,0.7
		C227.8,28.5,227.7,29.3,227.6,30.1z M22.3,28.4c0-0.2,0-0.4,0-0.6c0-0.8,0-1.6,0.1-2.4l0.5,0c-0.1,0.8-0.1,1.6-0.1,2.4
		c0,0.2,0,0.4,0,0.6L22.3,28.4z M227,24.1c-0.1-1-0.3-2-0.6-2.9l0.5-0.1c0.3,1,0.5,2,0.6,3L227,24.1z M23.3,22.4l-0.5-0.1
		c0.2-1,0.5-2,0.8-2.9l0.5,0.2C23.7,20.5,23.5,21.5,23.3,22.4z M225.5,18.3c-0.4-0.9-0.8-1.8-1.2-2.7l0.4-0.2
		c0.5,0.9,0.9,1.8,1.3,2.8L225.5,18.3z M25.1,16.8l-0.5-0.2c0.4-0.9,0.9-1.8,1.4-2.7l0.4,0.3C26,15,25.6,15.9,25.1,16.8z M222.7,13
		c-0.6-0.8-1.2-1.6-1.8-2.4l0.4-0.3c0.7,0.8,1.3,1.6,1.8,2.4L222.7,13z M28.2,11.7l-0.4-0.3c0.6-0.8,1.3-1.6,2-2.3l0.4,0.3
		C29.5,10.1,28.9,10.9,28.2,11.7z M218.9,8.5c-0.7-0.7-1.5-1.3-2.3-1.9l0.3-0.4c0.8,0.6,1.6,1.3,2.3,1.9L218.9,8.5z M32.4,7.4
		L32.1,7c0.8-0.6,1.6-1.2,2.5-1.8l0.3,0.4C34,6.2,33.2,6.8,32.4,7.4z M214.1,5c-0.9-0.5-1.8-0.9-2.7-1.3l0.2-0.5
		c0.9,0.4,1.8,0.9,2.7,1.4L214.1,5z M37.4,4.2l-0.2-0.4C38.1,3.3,39,2.9,40,2.6L40.2,3C39.2,3.4,38.3,3.7,37.4,4.2z M208.6,2.6
		c-0.9-0.3-1.9-0.5-2.9-0.7l0.1-0.5c1,0.2,2,0.4,3,0.7L208.6,2.6z M43,2.2l-0.1-0.5c1-0.2,2-0.4,3-0.5L46,1.7C45,1.8,44,2,43,2.2z
		 M202.7,1.6c-0.6,0-1.2-0.1-1.7-0.1h-1.3V1h1.3c0.6,0,1.2,0,1.8,0.1L202.7,1.6z M196.7,1.5h-3V1h3V1.5z M190.7,1.5h-3V1h3V1.5z
		 M184.7,1.5h-3V1h3V1.5z M178.6,1.5h-3V1h3V1.5z M172.6,1.5h-3V1h3V1.5z M166.6,1.5h-3V1h3V1.5z M160.5,1.5h-3V1h3V1.5z M154.5,1.5
		h-3V1h3V1.5z M148.5,1.5h-3V1h3V1.5z M142.4,1.5h-3V1h3V1.5z M136.4,1.5h-3V1h3V1.5z M130.4,1.5h-3V1h3V1.5z M124.3,1.5h-3V1h3V1.5
		z M118.3,1.5h-3V1h3V1.5z M112.3,1.5h-3V1h3V1.5z M106.2,1.5h-3V1h3V1.5z M100.2,1.5h-3V1h3V1.5z M94.2,1.5h-3V1h3V1.5z M88.2,1.5
		h-3V1h3V1.5z M82.1,1.5h-3V1h3V1.5z M76.1,1.5h-3V1h3V1.5z M70.1,1.5h-3V1h3V1.5z M64,1.5h-3V1h3V1.5z M58,1.5h-3V1h3V1.5z M52,1.5
		h-3L48.9,1h3V1.5z"/>
	<path class="st2" d="M21,28.3h-3v-0.5h3V28.3z M15,28.3h-3v-0.5h3V28.3z M9,28.3H6v-0.5h3V28.3z M3,28.3H0v-0.5h3V28.3z"/>
</g>
</svg>
