<?xml version="1.0" encoding="utf-8"?>
<!-- Generator: Adobe Illustrator 22.1.0, SVG Export Plug-In . SVG Version: 6.00 Build 0)  -->
<svg version="1.1" id="Layer_1" xmlns="http://www.w3.org/2000/svg" xmlns:xlink="http://www.w3.org/1999/xlink" x="0px" y="0px"
	 viewBox="0 0 307 162" style="enable-background:new 0 0 307 162;" xml:space="preserve">
<style type="text/css">
	.st0{fill:#D3C6DB;}
</style>
<g>
	<g>
		<path class="st0" d="M308.8,125.3c-1.2-11.1-16.7-20.2-27.7-22.3c-3.8-0.7-7.5-0.5-10.9,0.3c-3.9,0.6-7.4,2.3-10.3,4.7
			c0.1-0.8,0.1-1.7,0.1-2.5c0-16-13-29-29-29c-6.8,0-13,2.4-18,6.3c-4.3-18.8-21.1-32.8-41.2-32.8c-10.7,0-20.5,4-28,10.6
			c-7.5-6.6-17.2-10.6-28-10.6c-20.1,0-36.9,14-41.2,32.8c-4.9-3.9-11.2-6.3-18-6.3c-16,0-29,13-29,29c0,0.9,0.1,1.7,0.1,2.5
			c-3.8-3.1-8.6-5-13.8-5c-6.6,0-10.5,3-14.5,7.6v27.2l0.6,19v5.4h308.4c0.1-11.3,0.6-31.7,0.3-35.8
			C308.8,126,308.8,125.7,308.8,125.3z"/>
	</g>
</g>
</svg>
