<?xml version="1.0" encoding="utf-8"?>
<!-- Generator: Adobe Illustrator 22.1.0, SVG Export Plug-In . SVG Version: 6.00 Build 0)  -->
<svg version="1.1" id="Layer_1" xmlns="http://www.w3.org/2000/svg" xmlns:xlink="http://www.w3.org/1999/xlink" x="0px" y="0px"
	 viewBox="0 0 307 162" style="enable-background:new 0 0 307 162;" xml:space="preserve">
<style type="text/css">
	.st0{fill:url(#SVGID_1_);}
	.st1{fill:#D3C6DB;}
	.st2{fill:#E4D6EC;}
</style>
<g>
	<linearGradient id="SVGID_1_" gradientUnits="userSpaceOnUse" x1="151.7357" y1="36.5514" x2="154.6258" y2="160.8286">
		<stop  offset="0" style="stop-color:#C89DE9"/>
		<stop  offset="0.5511" style="stop-color:#BA91D8;stop-opacity:0.5591"/>
		<stop  offset="1" style="stop-color:#B38BCF;stop-opacity:0.2"/>
	</linearGradient>
	<path class="st0" d="M308.3,104.7c0-0.4-0.1-0.9-0.1-1.3c-1.4-12.8-4.6-25.3-19.6-26.4c-4.7-0.7-8.6,3.6-12,6.4
		c0.1-1,0.1-1.9,0.1-2.9c0-18.5-15-33.5-33.5-33.5c-7.9,0-15.1,2.7-20.8,7.3c-5-21.8-24.4-38-47.7-38c-12.4,0-23.7,4.6-32.4,12.3
		c-8.6-7.6-20-12.3-32.4-12.3c-23.3,0-42.7,16.3-47.7,38c-5.7-4.5-12.9-7.3-20.8-7.3c-18.5,0-33.5,15-33.5,33.5c0,1,0.1,2,0.1,2.9
		c-4.3-3.6-7.9-0.2-8.1,3.1V118l-0.5,32.3v12l307.4-0.4c0,0,0.9-13.7,1.6-43.4C308.7,111.3,308.8,112,308.3,104.7z"/>
	<g>
		<path class="st1" d="M308.8,125.3c-1.2-11.1-16.7-20.2-27.7-22.3c-3.8-0.7-7.5-0.5-10.9,0.3c-3.9,0.6-7.4,2.3-10.3,4.7
			c0.1-0.8,0.1-1.7,0.1-2.5c0-16-13-29-29-29c-6.8,0-13,2.4-18,6.3c-4.3-18.8-21.1-32.8-41.2-32.8c-10.7,0-20.5,4-28,10.6
			c-7.5-6.6-17.2-10.6-28-10.6c-20.1,0-36.9,14-41.2,32.8c-4.9-3.9-11.2-6.3-18-6.3c-16,0-29,13-29,29c0,0.9,0.1,1.7,0.1,2.5
			c-3.8-3.1-8.6-5-13.8-5c-6.6,0-9.5,3-13.5,7.6v27.2l-0.4,5v5.4h308.4c0.1-11.3,0.6-17.7,0.3-21.8
			C308.8,126,308.8,125.7,308.8,125.3z"/>
	</g>
	<path class="st2" d="M298.7,141.1c-3.8-0.7-7.5-5.6-17.7-4.4c-8.5,1.2-15.6,5.5-18.5,7.9c0.1-0.8,0.1-1.7,0.1-2.5c0-16-13-29-29-29
		c-6.8,0-13,2.4-18,6.3c-4.3-18.8-21.1-32.8-41.2-32.8c-10.7,0-20.5,4-28,10.6c-7.5-6.6-17.2-10.6-28-10.6
		c-20.1,0-36.9,14-41.2,32.8c-4.9-3.9-11.2-6.3-18-6.3c-16,0-29,13-29,29c0,0.9,0.1,1.7,0.1,2.5c-3.8-3.1-8.6-5-13.8-5
		c-6.6,0-12.5,3-16.5,7.6v14.4l307.2,0.3C306.2,150.8,309.7,143.1,298.7,141.1z"/>
</g>
</svg>
