<?xml version="1.0" encoding="utf-8"?>
<!-- Generator: Adobe Illustrator 22.1.0, SVG Export Plug-In . SVG Version: 6.00 Build 0)  -->
<svg version="1.1" id="Layer_1" xmlns="http://www.w3.org/2000/svg" xmlns:xlink="http://www.w3.org/1999/xlink" x="0px" y="0px"
	 viewBox="0 0 307 162" style="enable-background:new 0 0 307 162;" xml:space="preserve">
<style type="text/css">
	.st0{fill:url(#SVGID_1_);}
</style>
<g>
	<linearGradient id="SVGID_1_" gradientUnits="userSpaceOnUse" x1="151.7357" y1="36.5514" x2="154.6258" y2="160.8286">
		<stop  offset="0" style="stop-color:#C89DE9"/>
		<stop  offset="0.5511" style="stop-color:#BA91D8;stop-opacity:0.5591"/>
		<stop  offset="1" style="stop-color:#B38BCF;stop-opacity:0.2"/>
	</linearGradient>
	<path class="st0" d="M308.3,104.7c0-0.4-0.1-0.9-0.1-1.3c-1.4-12.8-4.6-25.3-19.6-26.4c-4.7-0.7-8.6,3.6-12,6.4
		c0.1-1,0.1-1.9,0.1-2.9c0-18.5-15-33.5-33.5-33.5c-7.9,0-15.1,2.7-20.8,7.3c-5-21.8-24.4-38-47.7-38c-12.4,0-23.7,4.6-32.4,12.3
		c-8.6-7.6-20-12.3-32.4-12.3c-23.3,0-42.7,16.3-47.7,38c-5.7-4.5-12.9-7.3-20.8-7.3c-18.5,0-33.5,15-33.5,33.5c0,1,0.1,2,0.1,2.9
		c-4.3-3.6-7.9-0.2-8.1,3.1V118l-0.5,32.3v12l307.4-0.4c0,0,0.9-13.7,1.6-43.4C308.7,111.3,308.8,112,308.3,104.7z"/>
</g>
</svg>
