<?xml version="1.0" encoding="UTF-8" standalone="no"?>
<!-- Generator: Adobe Illustrator 22.1.0, SVG Export Plug-In . SVG Version: 6.00 Build 0)  -->

<svg
   xmlns:dc="http://purl.org/dc/elements/1.1/"
   xmlns:cc="http://creativecommons.org/ns#"
   xmlns:rdf="http://www.w3.org/1999/02/22-rdf-syntax-ns#"
   xmlns:svg="http://www.w3.org/2000/svg"
   xmlns="http://www.w3.org/2000/svg"
   xmlns:xlink="http://www.w3.org/1999/xlink"
   xmlns:sodipodi="http://sodipodi.sourceforge.net/DTD/sodipodi-0.dtd"
   xmlns:inkscape="http://www.inkscape.org/namespaces/inkscape"
   version="1.1"
   id="Layer_1"
   x="0px"
   y="0px"
   viewBox="0 0 320 1600"
   xml:space="preserve"
   inkscape:version="0.91 r13725"
   sodipodi:docname="roketBig.svg"
   width="320"
   height="1600"><metadata
     id="metadata6461"><rdf:RDF><cc:Work
         rdf:about=""><dc:format>image/svg+xml</dc:format><dc:type
           rdf:resource="http://purl.org/dc/dcmitype/StillImage" /><dc:title></dc:title></cc:Work></rdf:RDF></metadata><defs
     id="defs6459" /><sodipodi:namedview
     pagecolor="#ffffff"
     bordercolor="#666666"
     borderopacity="1"
     objecttolerance="10"
     gridtolerance="10"
     guidetolerance="10"
     inkscape:pageopacity="0"
     inkscape:pageshadow="2"
     inkscape:window-width="1366"
     inkscape:window-height="742"
     id="namedview6457"
     showgrid="false"
     inkscape:zoom="0.13785047"
     inkscape:cx="-354.29398"
     inkscape:cy="1035.35"
     inkscape:window-x="0"
     inkscape:window-y="0"
     inkscape:window-maximized="1"
     inkscape:current-layer="Layer_1" /><style
     type="text/css"
     id="style6365">
	.st0{opacity:0.85;}
	.st1{opacity:0.5;fill:url(#SVGID_1_);}
	.st2{fill:url(#SVGID_2_);}
	.st3{fill:#FFE362;}
	.st4{fill:#FFF6C1;}
	.st5{fill:#F9FAFF;}
	.st6{fill:none;stroke:#1E120D;stroke-miterlimit:10;}
	.st7{fill:#2A184D;}
	.st8{fill:#DDDEE2;}
	.st9{fill:#FF3746;}
	.st10{opacity:0.69;}
	.st11{clip-path:url(#SVGID_4_);}
	.st12{opacity:0.5;fill:#DDDEE2;}
	.st13{opacity:0.5;}
	.st14{opacity:0.5;fill:#FF3746;}
	.st15{fill:#FFE045;}
	.st16{opacity:0.8;}
</style><g
     id="g6367"
     transform="matrix(3.6201564,0,0,3.6201564,6.0076973,26.37255)"><g
       id="g6369"><g
         class="st0"
         id="g6371"
         style="opacity:0.85"><linearGradient
           id="SVGID_1_"
           gradientUnits="userSpaceOnUse"
           x1="43.263802"
           y1="246.6347"
           x2="43.263802"
           y2="402.22739"><stop
             offset="3.968250e-02"
             style="stop-color:#FEFEFE"
             id="stop6374" /><stop
             offset="0.9021"
             style="stop-color:#FEFEFE;stop-opacity:0"
             id="stop6376" /></linearGradient><rect
           x="22.1"
           y="149.3"
           class="st1"
           width="42.299999"
           height="275.60001"
           id="rect6378"
           style="opacity:0.5;fill:url(#SVGID_1_)" /><linearGradient
           id="SVGID_2_"
           gradientUnits="userSpaceOnUse"
           x1="44.044102"
           y1="229.7924"
           x2="44.044102"
           y2="418.534"><stop
             offset="3.968250e-02"
             style="stop-color:#FEFEFE"
             id="stop6381" /><stop
             offset="1"
             style="stop-color:#FEFEFE;stop-opacity:0"
             id="stop6383" /></linearGradient><rect
           x="35.599998"
           y="149.3"
           class="st2"
           width="17"
           height="276.20001"
           id="rect6385"
           style="fill:url(#SVGID_2_)" /><g
           id="g6387"><path
             class="st3"
             d="m 44.2,144 0,0 0,0 c -24.6,24.6 -24.6,64.5 0,89 l 0,0 0,0 c 24.6,-24.6 24.6,-64.5 0,-89 z"
             id="path6389"
             inkscape:connector-curvature="0"
             style="fill:#ffe362" /><path
             class="st4"
             d="m 44.2,155.1 0,0 0,0 c -14.8,14.8 -14.8,38.9 0,53.7 l 0,0 0,0 C 59.1,194 59.1,170 44.2,155.1 Z"
             id="path6391"
             inkscape:connector-curvature="0"
             style="fill:#fff6c1" /><path
             class="st5"
             d="m 44.1,1.9 0,0 0,0.8 0,-0.8 0,0 C 9.7,41.2 0.8,96.8 21.3,144.8 l 3.6,8.6 c 2.8,1.7 9.7,5.4 19.2,5.4 9.5,0 16.4,-3.7 19.2,-5.4 1.2,-2.9 2.4,-5.7 3.6,-8.6 C 87.4,96.8 78.5,41.2 44.1,1.9 Z"
             id="path6393"
             inkscape:connector-curvature="0"
             style="fill:#f9faff" /><rect
             x="39.099998"
             y="113.6"
             class="st6"
             width="0"
             height="0.69999999"
             id="rect6395"
             style="fill:none;stroke:#1e120d;stroke-miterlimit:10" /><g
             id="g6397"><path
               class="st7"
               d="M 65.3,34.5 C 59.9,22.8 52.8,11.8 44.1,1.9 l 0,0.8 0,-0.8 0,0 c -8.7,10 -15.8,21 -21.2,32.6 4.3,2.3 11.6,5.2 21,5.2 9.6,0.1 17,-2.9 21.4,-5.2 z"
               id="path6399"
               inkscape:connector-curvature="0"
               style="fill:#2a184d" /></g><g
             id="g6401"><path
               class="st8"
               d="m 44.1,1.9 0,0.8 0,-0.8 0,0 C 44,2 43.9,2.1 43.8,2.2 l 0,156.6 c 0.1,0 0.2,0 0.3,0 9.5,0 16.4,-3.7 19.2,-5.4 1.2,-2.9 2.4,-5.7 3.6,-8.6 C 87.4,96.8 78.5,41.2 44.1,1.9 Z"
               id="path6403"
               inkscape:connector-curvature="0"
               style="fill:#dddee2" /></g><path
             class="st7"
             d="M 44,183.6 36.6,132.5 C 35.4,124.3 38.2,116 44,110.2 l 0,0 0,0 c 5.9,5.9 8.6,14.2 7.4,22.4 l -7.4,51 z"
             id="path6405"
             inkscape:connector-curvature="0"
             style="fill:#2a184d" /><g
             id="g6407"><path
               class="st7"
               d="m 44.1,82.8 c -9.7,0 -17.5,-7.9 -17.5,-17.5 0,-9.6 7.9,-17.5 17.5,-17.5 9.6,0 17.5,7.9 17.5,17.5 0,9.6 -7.8,17.5 -17.5,17.5 z"
               id="path6409"
               inkscape:connector-curvature="0"
               style="fill:#2a184d" /><path
               class="st9"
               d="m 44.1,49.8 c 8.5,0 15.5,6.9 15.5,15.5 0,8.5 -6.9,15.5 -15.5,15.5 -8.6,0 -15.5,-6.9 -15.5,-15.5 0,-8.6 7,-15.5 15.5,-15.5 m 0,-4.2 c -10.8,0 -19.6,8.8 -19.6,19.6 0,10.8 8.8,19.6 19.6,19.6 10.8,0 19.6,-8.8 19.6,-19.6 0,-10.8 -8.8,-19.6 -19.6,-19.6 l 0,0 z"
               id="path6411"
               inkscape:connector-curvature="0"
               style="fill:#ff3746" /></g><g
             class="st10"
             id="g6413"
             style="opacity:0.68999999"><defs
               id="defs6415"><circle
                 id="SVGID_3_"
                 transform="matrix(0.2298,-0.9732,0.9732,0.2298,-29.5625,93.1871)"
                 class="st10"
                 cx="44.099998"
                 cy="65.300003"
                 r="15.5"
                 style="opacity:0.68999999" /></defs><clipPath
               id="SVGID_4_"><use
                 xlink:href="#SVGID_3_"
                 style="overflow:visible"
                 id="use6419"
                 x="0"
                 y="0"
                 width="100%"
                 height="100%" /></clipPath><g
               class="st11"
               id="g6421"
               clip-path="url(#SVGID_4_)"><rect
                 x="40.799999"
                 y="46.099998"
                 transform="matrix(0.7071,0.7071,-0.7071,0.7071,57.29,-12.2526)"
                 class="st12"
                 width="5.3000002"
                 height="33.900002"
                 id="rect6423"
                 style="opacity:0.5;fill:#dddee2" /><rect
                 x="47.299999"
                 y="50.900002"
                 transform="matrix(0.7071,0.7071,-0.7071,0.7071,62.3306,-14.8829)"
                 class="st12"
                 width="3.7"
                 height="33.900002"
                 id="rect6425"
                 style="opacity:0.5;fill:#dddee2" /></g></g><g
             class="st13"
             id="g6427"
             style="opacity:0.5"><path
               class="st9"
               d="m 44.1,110.1 0,0 0,0 c -0.1,0.1 -0.1,0.1 -0.2,0.2 l 0,72.7 0.1,0.5 7.5,-51 C 52.8,124.3 50,116 44.1,110.1 Z"
               id="path6429"
               inkscape:connector-curvature="0"
               style="fill:#ff3746" /></g><g
             id="g6431"><path
               class="st7"
               d="m 27.1,154.8 -9,-39.1 -6.7,12.4 C 6,138 4.5,149.6 7,160.6 l 5.1,22 15,-27.8 z"
               id="path6433"
               inkscape:connector-curvature="0"
               style="fill:#2a184d" /><path
               class="st14"
               d="m 27.1,154.8 -9,-39.1 c -2.7,6.9 -6.3,19.1 -5.2,34.3 0.7,9.2 3,16.8 5.1,22.3 3.1,-5.9 6.1,-11.7 9.1,-17.5 z"
               id="path6435"
               inkscape:connector-curvature="0"
               style="opacity:0.5;fill:#ff3746" /></g><g
             id="g6437"><path
               class="st7"
               d="m 59.4,154.8 9,-39.1 6.7,12.4 c 5.4,9.9 6.9,21.5 4.4,32.5 l -5.1,22 -15,-27.8 z"
               id="path6439"
               inkscape:connector-curvature="0"
               style="fill:#2a184d" /><path
               class="st14"
               d="m 59.4,154.8 9,-39.1 c 2.7,6.9 6.3,19.1 5.2,34.3 -0.7,9.2 -3,16.8 -5.1,22.3 -3.1,-5.9 -6.1,-11.7 -9.1,-17.5 z"
               id="path6441"
               inkscape:connector-curvature="0"
               style="opacity:0.5;fill:#ff3746" /></g></g></g><g
         id="g6443"><circle
           class="st15"
           cx="8.1999998"
           cy="224.5"
           r="3.8"
           id="circle6445"
           style="fill:#ffe045" /><path
           class="st15"
           d="m 25.2,281.7 c 0,2.1 -1.7,3.8 -3.8,3.8 -2.1,0 -3.8,-1.7 -3.8,-3.8 0,-2.1 1.7,-3.8 3.8,-3.8 2.1,0 3.8,1.7 3.8,3.8 z"
           id="path6447"
           inkscape:connector-curvature="0"
           style="fill:#ffe045" /></g><g
         class="st16"
         id="g6449"
         style="opacity:0.8"><path
           class="st15"
           d="m 69.7,195.6 c 0,2.6 2.1,4.8 4.8,4.8 2.6,0 4.8,-2.1 4.8,-4.8 0,-2.6 -2.1,-4.8 -4.8,-4.8 -2.7,0 -4.8,2.2 -4.8,4.8 z"
           id="path6451"
           inkscape:connector-curvature="0"
           style="fill:#ffe045" /><path
           class="st15"
           d="m 65.3,250.7 c 0,2.1 1.7,3.8 3.8,3.8 2.1,0 3.8,-1.7 3.8,-3.8 0,-2.1 -1.7,-3.8 -3.8,-3.8 -2.1,-0.1 -3.8,1.7 -3.8,3.8 z"
           id="path6453"
           inkscape:connector-curvature="0"
           style="fill:#ffe045" /><path
           class="st15"
           d="m 61.1,316.8 c 0,2.1 1.7,3.8 3.8,3.8 2.1,0 3.8,-1.7 3.8,-3.8 0,-2.1 -1.7,-3.8 -3.8,-3.8 -2.1,0 -3.8,1.7 -3.8,3.8 z"
           id="path6455"
           inkscape:connector-curvature="0"
           style="fill:#ffe045" /></g></g></g></svg>