<svg width="355" height="245.00000000000003" xmlns="http://www.w3.org/2000/svg">
 <metadata id="metadata8">image/svg+xml</metadata>

 <g>
  <title>background</title>
  <rect fill="none" id="canvas_background" height="247" width="357" y="-1" x="-1"/>
 </g>
 <g>
  <title>Layer 1</title>
  <g transform="matrix(1.25,0,0,-1.25,0,625) " id="g10">
   <g id="g3747">
    <path fill="#a3c7ff" fill-rule="nonzero" id="path16" d="m46.87299,444.80487c-4.876,-0.057 -4.922,-0.102 -4.978,-4.979c-0.056,4.877 -0.102,4.922 -4.978,4.979c4.876,0.056 4.922,0.101 4.978,4.978c0.056,-4.877 0.102,-4.922 4.978,-4.978"/>
    <path fill="#e4fafe" fill-rule="nonzero" id="path18" d="m59.16799,448.91687c-3.014,-0.034 -3.042,-0.063 -3.077,-3.077c-0.035,3.014 -0.063,3.043 -3.077,3.077c3.014,0.035 3.042,0.063 3.077,3.077c0.035,-3.014 0.063,-3.042 3.077,-3.077"/>
    <path fill="#e4fafe" fill-rule="nonzero" id="path20" d="m64.14699,427.51987c-1.863,-0.022 -1.881,-0.039 -1.902,-1.902c-0.022,1.863 -0.039,1.88 -1.902,1.902c1.863,0.021 1.88,0.038 1.902,1.901c0.021,-1.863 0.039,-1.88 1.902,-1.901"/>
    <path fill="#a3c7ff" fill-rule="nonzero" id="path22" d="m236.05799,454.77687c-7.74,-0.089 -7.812,-0.161 -7.901,-7.901c-0.089,7.74 -0.161,7.812 -7.901,7.901c7.74,0.09 7.812,0.162 7.901,7.902c0.089,-7.74 0.161,-7.812 7.901,-7.902"/>
    <path fill="#e4fafe" fill-rule="nonzero" id="path24" d="m252.38899,464.96487c-4.784,-0.055 -4.829,-0.1 -4.884,-4.884c-0.055,4.784 -0.099,4.829 -4.883,4.884c4.784,0.055 4.828,0.099 4.883,4.883c0.055,-4.784 0.1,-4.828 4.884,-4.883"/>
    <path fill="#e4fafe" fill-rule="nonzero" id="path26" d="m260.28999,431.00387c-2.957,-0.034 -2.984,-0.061 -3.018,-3.018c-0.034,2.957 -0.062,2.984 -3.018,3.018c2.956,0.035 2.984,0.062 3.018,3.019c0.034,-2.957 0.061,-2.984 3.018,-3.019"/>
    <path fill="#e4fafe" fill-rule="nonzero" id="path28" d="m229.17399,385.88687c0.035,-3.014 0.063,-3.042 3.077,-3.076c-3.014,-0.035 -3.042,-0.063 -3.077,-3.077c-0.035,3.014 -0.063,3.042 -3.077,3.077c3.014,0.034 3.042,0.062 3.077,3.076"/>
    <path fill="#e4fafe" fill-rule="nonzero" id="path30" d="m226.63199,393.48587c0.022,-1.863 0.039,-1.88 1.902,-1.902c-1.863,-0.021 -1.88,-0.038 -1.902,-1.901c-0.021,1.863 -0.039,1.88 -1.901,1.901c1.862,0.022 1.88,0.039 1.901,1.902"/>
    <path fill="#e4fafe" fill-rule="nonzero" id="path32" d="m239.85699,396.56287c0.013,-1.151 0.024,-1.162 1.175,-1.175c-1.151,-0.014 -1.162,-0.024 -1.175,-1.176c-0.013,1.152 -0.024,1.162 -1.175,1.176c1.151,0.013 1.162,0.024 1.175,1.175"/>
    <path fill="#e4fafe" fill-rule="nonzero" id="path34" d="m188.82899,385.59687c-0.022,1.863 -0.039,1.88 -1.902,1.902c1.863,0.021 1.88,0.038 1.902,1.901c0.021,-1.863 0.038,-1.88 1.901,-1.901c-1.863,-0.022 -1.88,-0.039 -1.901,-1.902"/>
    <path fill="#e4fafe" fill-rule="nonzero" id="path36" d="m209.03499,389.88787c-0.021,1.863 -0.038,1.88 -1.901,1.902c1.863,0.021 1.88,0.038 1.901,1.901c0.022,-1.863 0.039,-1.88 1.902,-1.901c-1.863,-0.022 -1.88,-0.039 -1.902,-1.902"/>
    <path fill="#e4fafe" fill-rule="nonzero" id="path38" d="m190.39999,380.90087c-0.014,1.151 -0.024,1.162 -1.176,1.175c1.152,0.013 1.162,0.024 1.176,1.175c0.013,-1.151 0.024,-1.162 1.175,-1.175c-1.151,-0.013 -1.162,-0.024 -1.175,-1.175"/>
    <path fill="#e4fafe" fill-rule="nonzero" id="path40" d="m256.40999,376.48987c-0.013,1.151 -0.024,1.162 -1.175,1.175c1.151,0.013 1.162,0.024 1.175,1.175c0.014,-1.151 0.024,-1.162 1.176,-1.175c-1.152,-0.013 -1.162,-0.024 -1.176,-1.175"/>
    <path fill="#e4fafe" fill-rule="nonzero" id="path42" d="m182.22599,378.99887c-0.008,0.711 -0.015,0.718 -0.726,0.726c0.711,0.008 0.718,0.015 0.726,0.727c0.008,-0.712 0.015,-0.719 0.727,-0.727c-0.712,-0.008 -0.719,-0.015 -0.727,-0.726"/>
    <path fill="#e4fafe" fill-rule="nonzero" id="path44" d="m266.09299,396.56287c-0.008,0.712 -0.015,0.718 -0.726,0.726c0.711,0.009 0.718,0.015 0.726,0.727c0.008,-0.712 0.015,-0.718 0.726,-0.727c-0.711,-0.008 -0.718,-0.014 -0.726,-0.726"/>
    <path fill="#e4fafe" fill-rule="nonzero" id="path46" d="m25.01199,393.73187c-0.021,1.863 -0.039,1.88 -1.901,1.901c1.862,0.022 1.88,0.039 1.901,1.902c0.022,-1.863 0.039,-1.88 1.902,-1.902c-1.863,-0.021 -1.88,-0.038 -1.902,-1.901"/>
    <path fill="#e4fafe" fill-rule="nonzero" id="path48" d="m45.21899,398.02287c-0.021,1.863 -0.039,1.88 -1.901,1.901c1.862,0.022 1.88,0.039 1.901,1.902c0.022,-1.863 0.039,-1.88 1.902,-1.902c-1.863,-0.021 -1.88,-0.038 -1.902,-1.901"/>
    <path fill="#e4fafe" fill-rule="nonzero" id="path50" d="m26.58299,389.03487c-0.013,1.152 -0.024,1.163 -1.175,1.176c1.151,0.013 1.162,0.024 1.175,1.175c0.014,-1.151 0.024,-1.162 1.176,-1.175c-1.152,-0.013 -1.162,-0.024 -1.176,-1.176"/>
    <path fill="#e4fafe" fill-rule="nonzero" id="path52" d="m92.59399,384.62487c-0.013,1.151 -0.024,1.162 -1.175,1.175c1.151,0.013 1.162,0.024 1.175,1.175c0.013,-1.151 0.024,-1.162 1.175,-1.175c-1.151,-0.013 -1.162,-0.024 -1.175,-1.175"/>
    <path fill="#e4fafe" fill-rule="nonzero" id="path54" d="m18.40999,387.13387c-0.008,0.711 -0.015,0.718 -0.727,0.726c0.712,0.008 0.719,0.015 0.727,0.727c0.008,-0.712 0.015,-0.719 0.726,-0.727c-0.711,-0.008 -0.718,-0.015 -0.726,-0.726"/>
    <path fill="#e4fafe" fill-rule="nonzero" id="path56" d="m102.27699,404.69787c-0.009,0.711 -0.015,0.718 -0.727,0.726c0.712,0.008 0.718,0.015 0.727,0.727c0.008,-0.712 0.014,-0.719 0.726,-0.727c-0.712,-0.008 -0.718,-0.015 -0.726,-0.726"/>
    <path fill="#e4fafe" fill-rule="nonzero" id="path58" d="m141.90699,403.04187c0.022,1.863 0.039,1.88 1.902,1.902c-1.863,0.021 -1.88,0.038 -1.902,1.901c-0.021,-1.863 -0.038,-1.88 -1.901,-1.901c1.863,-0.022 1.88,-0.039 1.901,-1.902"/>
    <path fill="#e4fafe" fill-rule="nonzero" id="path60" d="m121.69999,407.33287c0.022,1.863 0.039,1.88 1.902,1.902c-1.863,0.021 -1.88,0.038 -1.902,1.901c-0.021,-1.863 -0.038,-1.88 -1.901,-1.901c1.863,-0.022 1.88,-0.039 1.901,-1.902"/>
    <path fill="#e4fafe" fill-rule="nonzero" id="path62" d="m140.33599,398.34587c0.014,1.151 0.024,1.162 1.176,1.175c-1.152,0.013 -1.162,0.024 -1.176,1.175c-0.013,-1.151 -0.024,-1.162 -1.175,-1.175c1.151,-0.013 1.162,-0.024 1.175,-1.175"/>
    <path fill="#e4fafe" fill-rule="nonzero" id="path64" d="m74.32599,393.93487c0.013,1.151 0.024,1.162 1.175,1.175c-1.151,0.013 -1.162,0.024 -1.175,1.175c-0.014,-1.151 -0.024,-1.162 -1.176,-1.175c1.152,-0.013 1.162,-0.024 1.176,-1.175"/>
    <path fill="#e4fafe" fill-rule="nonzero" id="path66" d="m148.50999,396.44387c0.008,0.711 0.015,0.718 0.726,0.726c-0.711,0.009 -0.718,0.015 -0.726,0.727c-0.008,-0.712 -0.015,-0.718 -0.727,-0.727c0.712,-0.008 0.719,-0.015 0.727,-0.726"/>
    <path fill="#e4fafe" fill-rule="nonzero" id="path68" d="m64.64299,414.00787c0.008,0.712 0.015,0.718 0.726,0.726c-0.711,0.009 -0.718,0.015 -0.726,0.727c-0.008,-0.712 -0.015,-0.718 -0.726,-0.727c0.711,-0.008 0.718,-0.014 0.726,-0.726"/>
    <path fill="#e4fafe" fill-rule="nonzero" id="path70" d="m245.85699,423.96187c0.022,1.863 0.039,1.88 1.902,1.902c-1.863,0.021 -1.88,0.039 -1.902,1.902c-0.021,-1.863 -0.039,-1.881 -1.902,-1.902c1.863,-0.022 1.881,-0.039 1.902,-1.902"/>
    <path fill="#e4fafe" fill-rule="nonzero" id="path72" d="m225.64999,428.25287c0.022,1.863 0.039,1.88 1.902,1.902c-1.863,0.021 -1.88,0.039 -1.902,1.902c-0.021,-1.863 -0.039,-1.881 -1.901,-1.902c1.862,-0.022 1.88,-0.039 1.901,-1.902"/>
    <path fill="#e4fafe" fill-rule="nonzero" id="path74" d="m244.28599,419.26587c0.013,1.151 0.024,1.162 1.175,1.175c-1.151,0.013 -1.162,0.024 -1.175,1.175c-0.013,-1.151 -0.024,-1.162 -1.175,-1.175c1.151,-0.013 1.162,-0.024 1.175,-1.175"/>
    <path fill="#e4fafe" fill-rule="nonzero" id="path76" d="m178.27499,414.85487c0.014,1.151 0.024,1.162 1.176,1.175c-1.152,0.014 -1.162,0.024 -1.176,1.176c-0.013,-1.152 -0.024,-1.162 -1.175,-1.176c1.151,-0.013 1.162,-0.024 1.175,-1.175"/>
    <path fill="#e4fafe" fill-rule="nonzero" id="path78" d="m252.45999,417.36387c0.008,0.712 0.014,0.718 0.726,0.727c-0.712,0.008 -0.718,0.014 -0.726,0.726c-0.009,-0.712 -0.015,-0.718 -0.727,-0.726c0.712,-0.009 0.718,-0.015 0.727,-0.727"/>
    <path fill="#e4fafe" fill-rule="nonzero" id="path80" d="m168.59299,434.92787c0.008,0.712 0.015,0.718 0.726,0.727c-0.711,0.008 -0.718,0.014 -0.726,0.726c-0.008,-0.712 -0.015,-0.718 -0.727,-0.726c0.712,-0.009 0.719,-0.015 0.727,-0.727"/>
    <path fill="#e4fafe" fill-rule="nonzero" id="path82" d="m247.97199,356.22687c-7.74,-0.089 -7.813,-0.162 -7.902,-7.902c-0.089,7.74 -0.161,7.813 -7.901,7.902c7.74,0.089 7.812,0.161 7.901,7.901c0.089,-7.74 0.162,-7.812 7.902,-7.901"/>
    <path fill="#e4fafe" fill-rule="nonzero" id="path84" d="m267.48399,362.75387c-4.783,-0.055 -4.828,-0.1 -4.883,-4.883c-0.055,4.783 -0.1,4.828 -4.883,4.883c4.783,0.055 4.828,0.1 4.883,4.884c0.055,-4.784 0.1,-4.829 4.883,-4.884"/>
    <path fill="#e4fafe" fill-rule="nonzero" id="path86" d="m275.38599,328.79387c-2.957,-0.034 -2.984,-0.062 -3.018,-3.018c-0.034,2.956 -0.062,2.984 -3.018,3.018c2.956,0.034 2.984,0.061 3.018,3.018c0.034,-2.957 0.061,-2.984 3.018,-3.018"/>
    <path fill="#e4fafe" fill-rule="nonzero" id="path88" d="m64.18799,351.34287c-7.741,-0.089 -7.813,-0.161 -7.902,-7.901c-0.089,7.74 -0.161,7.812 -7.901,7.901c7.74,0.089 7.812,0.161 7.901,7.902c0.089,-7.741 0.161,-7.813 7.902,-7.902"/>
    <path fill="#e4fafe" fill-rule="nonzero" id="path90" d="m83.69999,357.87087c-4.783,-0.055 -4.828,-0.1 -4.883,-4.884c-0.055,4.784 -0.1,4.829 -4.883,4.884c4.783,0.055 4.828,0.099 4.883,4.883c0.055,-4.784 0.1,-4.828 4.883,-4.883"/>
    <path fill="#e4fafe" fill-rule="nonzero" id="path92" d="m91.60199,323.90987c-2.957,-0.034 -2.984,-0.061 -3.018,-3.018c-0.034,2.957 -0.062,2.984 -3.018,3.018c2.956,0.034 2.984,0.062 3.018,3.018c0.034,-2.956 0.061,-2.984 3.018,-3.018"/>
    <path fill="#e4fafe" fill-rule="nonzero" id="path94" d="m260.95299,321.75087c0.021,1.863 0.039,1.881 1.902,1.902c-1.863,0.022 -1.881,0.039 -1.902,1.902c-0.021,-1.863 -0.039,-1.88 -1.902,-1.902c1.863,-0.021 1.881,-0.039 1.902,-1.902"/>
    <path fill="#e4fafe" fill-rule="nonzero" id="path96" d="m240.74599,326.04187c0.022,1.863 0.039,1.881 1.902,1.902c-1.863,0.022 -1.88,0.039 -1.902,1.902c-0.021,-1.863 -0.039,-1.88 -1.902,-1.902c1.863,-0.021 1.881,-0.039 1.902,-1.902"/>
    <path fill="#e4fafe" fill-rule="nonzero" id="path98" d="m259.38199,317.05487c0.013,1.151 0.024,1.162 1.175,1.175c-1.151,0.014 -1.162,0.024 -1.175,1.176c-0.013,-1.152 -0.024,-1.162 -1.175,-1.176c1.151,-0.013 1.162,-0.024 1.175,-1.175"/>
    <path fill="#e4fafe" fill-rule="nonzero" id="path100" d="m193.37099,312.64387c0.013,1.152 0.024,1.162 1.176,1.176c-1.152,0.013 -1.163,0.024 -1.176,1.175c-0.013,-1.151 -0.024,-1.162 -1.175,-1.175c1.151,-0.014 1.162,-0.024 1.175,-1.176"/>
    <path fill="#e4fafe" fill-rule="nonzero" id="path102" d="m267.55599,315.15287c0.008,0.712 0.014,0.719 0.726,0.727c-0.712,0.008 -0.718,0.015 -0.726,0.726c-0.009,-0.711 -0.015,-0.718 -0.727,-0.726c0.712,-0.008 0.718,-0.015 0.727,-0.727"/>
    <path fill="#e4fafe" fill-rule="nonzero" id="path104" d="m183.68899,332.71787c0.008,0.711 0.015,0.718 0.726,0.726c-0.711,0.008 -0.718,0.015 -0.726,0.726c-0.009,-0.711 -0.015,-0.718 -0.727,-0.726c0.712,-0.008 0.718,-0.015 0.727,-0.726"/>
    <path fill="#e4fafe" fill-rule="nonzero" id="path106" d="m174.54499,439.57487c0.021,1.863 0.039,1.881 1.902,1.902c-1.863,0.021 -1.881,0.039 -1.902,1.902c-0.021,-1.863 -0.039,-1.881 -1.902,-1.902c1.863,-0.021 1.881,-0.039 1.902,-1.902"/>
    <path fill="#e4fafe" fill-rule="nonzero" id="path108" d="m154.33799,443.86587c0.021,1.863 0.039,1.881 1.902,1.902c-1.863,0.021 -1.881,0.039 -1.902,1.902c-0.021,-1.863 -0.039,-1.881 -1.902,-1.902c1.863,-0.021 1.881,-0.039 1.902,-1.902"/>
    <path fill="#e4fafe" fill-rule="nonzero" id="path110" d="m172.97399,434.87887c0.013,1.151 0.024,1.162 1.175,1.175c-1.151,0.014 -1.162,0.024 -1.175,1.176c-0.013,-1.152 -0.024,-1.162 -1.175,-1.176c1.151,-0.013 1.162,-0.024 1.175,-1.175"/>
    <path fill="#e4fafe" fill-rule="nonzero" id="path112" d="m106.96299,430.46787c0.013,1.151 0.024,1.162 1.175,1.176c-1.151,0.013 -1.162,0.023 -1.175,1.175c-0.013,-1.152 -0.024,-1.162 -1.175,-1.175c1.151,-0.014 1.162,-0.025 1.175,-1.176"/>
    <path fill="#e4fafe" fill-rule="nonzero" id="path114" d="m181.14699,432.97687c0.009,0.712 0.015,0.718 0.727,0.727c-0.712,0.008 -0.718,0.014 -0.727,0.726c-0.008,-0.712 -0.014,-0.718 -0.726,-0.726c0.712,-0.009 0.718,-0.015 0.726,-0.727"/>
    <path fill="#e4fafe" fill-rule="nonzero" id="path116" d="m97.28099,450.54087c0.008,0.712 0.014,0.719 0.726,0.727c-0.712,0.008 -0.718,0.015 -0.726,0.726c-0.009,-0.711 -0.015,-0.718 -0.727,-0.726c0.712,-0.008 0.718,-0.015 0.727,-0.727"/>
    <path fill="#e4fafe" fill-rule="nonzero" id="path118" d="m95.67399,470.86987c0.022,1.863 0.039,1.88 1.902,1.902c-1.863,0.021 -1.88,0.039 -1.902,1.901c-0.021,-1.862 -0.039,-1.88 -1.901,-1.901c1.862,-0.022 1.88,-0.039 1.901,-1.902"/>
    <path fill="#e4fafe" fill-rule="nonzero" id="path120" d="m75.46699,475.16087c0.022,1.863 0.039,1.88 1.902,1.902c-1.863,0.021 -1.88,0.039 -1.902,1.902c-0.021,-1.863 -0.039,-1.881 -1.901,-1.902c1.862,-0.022 1.88,-0.039 1.901,-1.902"/>
    <path fill="#e4fafe" fill-rule="nonzero" id="path122" d="m94.10299,466.17387c0.013,1.151 0.024,1.162 1.175,1.175c-1.151,0.013 -1.162,0.024 -1.175,1.175c-0.013,-1.151 -0.024,-1.162 -1.175,-1.175c1.151,-0.013 1.162,-0.024 1.175,-1.175"/>
    <path fill="#e4fafe" fill-rule="nonzero" id="path124" d="m28.09199,461.76287c0.014,1.151 0.024,1.162 1.176,1.175c-1.152,0.014 -1.162,0.024 -1.176,1.176c-0.013,-1.152 -0.024,-1.162 -1.175,-1.176c1.151,-0.013 1.162,-0.024 1.175,-1.175"/>
    <path fill="#e4fafe" fill-rule="nonzero" id="path126" d="m102.27699,464.27187c0.008,0.712 0.014,0.718 0.726,0.727c-0.712,0.008 -0.718,0.014 -0.726,0.726c-0.009,-0.712 -0.015,-0.718 -0.727,-0.726c0.712,-0.009 0.718,-0.015 0.727,-0.727"/>
    <path fill="#e4fafe" fill-rule="nonzero" id="path128" d="m18.40999,481.83587c0.008,0.712 0.015,0.718 0.726,0.727c-0.711,0.008 -0.718,0.014 -0.726,0.726c-0.008,-0.712 -0.015,-0.718 -0.727,-0.726c0.712,-0.009 0.719,-0.015 0.727,-0.727"/>
    <path fill="#7bc7ff" fill-rule="nonzero" id="path186" d="m140.74099,491.35487c-17.207,0.106 -34.344,-6.56 -46.541,-19.207c-11.205,-11.617 -17.555,-27.357 -17.555,-43.496c7.698,-5.149 17.347,-10.241 28.98,-13.725c11.958,-3.581 23.571,-4.718 34.4,-4.361c10.829,-0.357 22.442,0.78 34.4,4.361c11.633,3.484 21.282,8.576 28.98,13.725c0.877,0.586 -0.477,7.853 -0.636,8.963c-0.432,3.015 -1.084,5.999 -1.952,8.919c-1.697,5.709 -4.219,11.168 -7.46,16.165c-6.423,9.907 -15.643,17.916 -26.362,22.868c-8.312,3.841 -17.292,5.733 -26.254,5.788"/>
    <path fill="#3ca1ff" fill-rule="nonzero" id="path188" d="m271.72999,431.47787c0,0 -58.901,-32.677 -131.558,-32.677c-72.658,0 -131.558,32.677 -131.558,32.677c0,0 58.9,32.677 131.558,32.677c72.657,0 131.558,-32.677 131.558,-32.677"/>
    <path fill="#3ca1ff" fill-rule="nonzero" id="path190" d="m271.72999,431.47787c0,0 -58.901,32.677 -131.558,32.677c-72.658,0 -131.558,-32.677 -131.558,-32.677l6.407,-6.613l250.302,0l6.407,6.613"/>
    <path fill="#1f94ea" fill-rule="nonzero" id="path192" d="m8.61399,431.47787l6.407,-6.613l50.387,0c1.382,10.267 3.536,20.376 6.276,30.291c-37.823,-9.673 -63.07,-23.678 -63.07,-23.678"/>
    <path fill="#1f94ea" fill-rule="nonzero" id="path194" d="m271.72999,431.47787c0,0 -27.621,15.32 -68.361,24.981c2.419,-10.358 3.92,-20.967 5.204,-31.594l56.75,0l6.407,6.613"/>
    <path fill="#0065d0" fill-rule="nonzero" id="path196" d="m265.32299,424.86487c0,0 -56.032,-26.064 -125.151,-26.064c-69.119,0 -125.151,26.064 -125.151,26.064c0,0 56.032,26.065 125.151,26.065c69.119,0 125.151,-26.065 125.151,-26.065"/>
    <path fill="#004c91" fill-rule="nonzero" id="path198" d="m265.32299,424.86487c0,0 -33.411,15.538 -80.454,22.619c-13.577,-17.735 -28.296,-34.387 -45.01,-48.682c0.104,0 0.208,-0.001 0.313,-0.001c69.119,0 125.151,26.064 125.151,26.064"/>
    <path fill="#9fdeff" fill-rule="nonzero" id="path200" d="m124.12599,486.54487c7.181,2.161 14.833,3.272 22.201,1.873c0.863,-0.163 1.721,-0.365 2.571,-0.604c5.484,-1.542 4.132,-9.707 -1.549,-9.289c-9.285,0.684 -18.517,0.216 -27.086,-3.211c-4.412,-1.765 -8.494,-4.268 -12.863,-6.138c-1.991,-0.853 -10.5,-4.43 -12.115,-1.853c-1.536,2.45 3.528,6.144 4.987,7.251c7.087,5.382 15.347,9.411 23.854,11.971"/>
    <path fill="#004c91" fill-rule="nonzero" id="path202" d="m67.27799,426.78887c0,-2.281 -1.85,-4.131 -4.131,-4.131c-2.282,0 -4.131,1.85 -4.131,4.131c0,2.282 1.849,4.131 4.131,4.131c2.281,0 4.131,-1.849 4.131,-4.131"/>
    <path fill="#3ca1ff" fill-rule="nonzero" id="path204" d="m66.41899,425.52187c0,-1.808 -1.465,-3.273 -3.272,-3.273c-1.808,0 -3.273,1.465 -3.273,3.273c0,1.808 1.465,3.273 3.273,3.273c1.807,0 3.272,-1.465 3.272,-3.273"/>
    <path fill="#004c91" fill-rule="nonzero" id="path206" d="m140.90799,437.37987c0,-2.281 -1.85,-4.131 -4.131,-4.131c-2.282,0 -4.131,1.85 -4.131,4.131c0,2.282 1.849,4.131 4.131,4.131c2.281,0 4.131,-1.849 4.131,-4.131"/>
    <path fill="#3ca1ff" fill-rule="nonzero" id="path208" d="m140.04999,436.11287c0,-1.807 -1.466,-3.273 -3.273,-3.273c-1.808,0 -3.273,1.466 -3.273,3.273c0,1.808 1.465,3.273 3.273,3.273c1.807,0 3.273,-1.465 3.273,-3.273"/>
    <path fill="#004c91" fill-rule="nonzero" id="path210" d="m218.99399,423.34987c0,-2.281 -1.85,-4.131 -4.131,-4.131c-2.282,0 -4.131,1.85 -4.131,4.131c0,2.282 1.849,4.131 4.131,4.131c2.281,0 4.131,-1.849 4.131,-4.131"/>
    <path fill="#3ca1ff" fill-rule="nonzero" id="path212" d="m218.13599,422.08287c0,-1.808 -1.466,-3.273 -3.273,-3.273c-1.808,0 -3.273,1.465 -3.273,3.273c0,1.808 1.465,3.273 3.273,3.273c1.807,0 3.273,-1.465 3.273,-3.273"/>
    <path fill="#004c91" fill-rule="nonzero" id="path214" d="m139.45199,402.40487c0,-1.41 -1.143,-2.553 -2.553,-2.553c-1.41,0 -2.553,1.143 -2.553,2.553c0,1.41 1.143,2.553 2.553,2.553c1.41,0 2.553,-1.143 2.553,-2.553"/>
    <path fill="#3ca1ff" fill-rule="nonzero" id="path216" d="m138.92199,401.62187c0,-1.117 -0.906,-2.023 -2.023,-2.023c-1.117,0 -2.023,0.906 -2.023,2.023c0,1.117 0.906,2.022 2.023,2.022c1.117,0 2.023,-0.905 2.023,-2.022"/>
    <path fill="#004c91" fill-rule="nonzero" id="path218" d="m138.57999,401.84587c-28.64,0 -51.574,10.514 -52.536,10.962l-7.445,3.463l7.445,3.463c0.962,0.448 23.896,10.963 52.536,10.963c28.642,0 51.575,-10.515 52.537,-10.963l7.444,-3.463l-7.444,-3.463c-0.962,-0.448 -23.895,-10.962 -52.537,-10.962"/>
    <path fill="#0065d0" fill-rule="nonzero" id="path220" d="m138.57999,401.84587c-28.64,0 -51.574,10.514 -52.536,10.962l-7.445,3.463l7.445,3.463c0.962,0.448 23.896,10.963 52.536,10.963c28.642,0 51.575,-10.515 52.537,-10.963l7.444,-3.463l-7.444,-3.463c-0.962,-0.448 -23.895,-10.962 -52.537,-10.962"/>
    <path fill="#004c91" fill-rule="nonzero" id="path222" d="m189.50599,416.27187c0,0 -22.8,-10.607 -50.926,-10.607c-28.125,0 -50.925,10.607 -50.925,10.607c0,0 22.8,10.606 50.925,10.606c28.126,0 50.926,-10.606 50.926,-10.606"/>
    <path fill="#004c91" fill-rule="nonzero" id="path224" d="m189.50599,416.27187c0,0 -22.8,-10.607 -50.926,-10.607c-28.125,0 -50.925,10.607 -50.925,10.607c0,0 22.8,10.606 50.925,10.606c28.126,0 50.926,-10.606 50.926,-10.606"/>
    <path fill="#9fdeff" fill-rule="nonzero" id="path226" d="m270.08499,429.77987l1.645,1.698c0,0 -58.901,32.677 -131.558,32.677c-72.658,0 -131.558,-32.677 -131.558,-32.677l1.644,-1.698c21.913,11.671 69.141,33.049 132.46,32.465c60.448,-0.556 105.567,-20.852 127.367,-32.465"/>
   </g>
  </g>
 </g>
</svg>
