<?xml version="1.0" encoding="utf-8"?>
<!-- Generator: Adobe Illustrator 22.1.0, SVG Export Plug-In . SVG Version: 6.00 Build 0)  -->
<svg version="1.1" id="Layer_1" xmlns="http://www.w3.org/2000/svg" xmlns:xlink="http://www.w3.org/1999/xlink" x="0px" y="0px"
	 viewBox="0 0 307 162" style="enable-background:new 0 0 307 162;" xml:space="preserve">
<style type="text/css">
	.st0{fill:#E4D6EC;}
</style>
<g>
	<path class="st0" d="M298.7,141.1c-3.8-0.7-7.5-5.6-17.7-4.4c-8.5,1.2-15.6,5.5-18.5,7.9c0.1-0.8,0.1-1.7,0.1-2.5c0-16-13-29-29-29
		c-6.8,0-13,2.4-18,6.3c-4.3-18.8-21.1-32.8-41.2-32.8c-10.7,0-20.5,4-28,10.6c-7.5-6.6-17.2-10.6-28-10.6
		c-20.1,0-36.9,14-41.2,32.8c-4.9-3.9-11.2-6.3-18-6.3c-16,0-29,13-29,29c0,0.9,0.1,1.7,0.1,2.5c-3.8-3.1-8.6-5-13.8-5
		c-6.6,0-12.5,3-16.5,7.6v14.4l307.2,0.3C306.2,150.8,309.7,143.1,298.7,141.1z"/>
</g>
</svg>
