<?xml version="1.0" encoding="utf-8"?>
<!-- Generator: Adobe Illustrator 22.1.0, SVG Export Plug-In . SVG Version: 6.00 Build 0)  -->
<svg version="1.1" id="Layer_1" xmlns="http://www.w3.org/2000/svg" xmlns:xlink="http://www.w3.org/1999/xlink" x="0px" y="0px"
	 viewBox="0 0 85 428" style="enable-background:new 0 0 85 428;" xml:space="preserve">
<style type="text/css">
	.st0{opacity:0.85;}
	.st1{opacity:0.5;fill:url(#SVGID_1_);}
	.st2{fill:url(#SVGID_2_);}
	.st3{fill:#FFE362;}
	.st4{fill:#FFF6C1;}
	.st5{fill:#F9FAFF;}
	.st6{fill:none;stroke:#1E120D;stroke-miterlimit:10;}
	.st7{fill:#2A184D;}
	.st8{fill:#DDDEE2;}
	.st9{fill:#FF3746;}
	.st10{opacity:0.69;}
	.st11{clip-path:url(#SVGID_4_);}
	.st12{opacity:0.5;fill:#DDDEE2;}
	.st13{opacity:0.5;}
	.st14{opacity:0.5;fill:#FF3746;}
	.st15{fill:#FFE045;}
	.st16{opacity:0.8;}
</style>
<g>
	<g>
		<g class="st0">
			<linearGradient id="SVGID_1_" gradientUnits="userSpaceOnUse" x1="43.2638" y1="246.6347" x2="43.2638" y2="402.2274">
				<stop  offset="3.968250e-02" style="stop-color:#FEFEFE"/>
				<stop  offset="0.9021" style="stop-color:#FEFEFE;stop-opacity:0"/>
			</linearGradient>
			<rect x="22.1" y="149.3" class="st1" width="42.3" height="275.6"/>
			<linearGradient id="SVGID_2_" gradientUnits="userSpaceOnUse" x1="44.0441" y1="229.7924" x2="44.0441" y2="418.534">
				<stop  offset="3.968250e-02" style="stop-color:#FEFEFE"/>
				<stop  offset="1" style="stop-color:#FEFEFE;stop-opacity:0"/>
			</linearGradient>
			<rect x="35.6" y="149.3" class="st2" width="17" height="276.2"/>
			<g>
				<path class="st3" d="M44.2,144L44.2,144L44.2,144c-24.6,24.6-24.6,64.5,0,89l0,0l0,0C68.8,208.4,68.8,168.5,44.2,144z"/>
				<path class="st4" d="M44.2,155.1L44.2,155.1L44.2,155.1c-14.8,14.8-14.8,38.9,0,53.7l0,0l0,0C59.1,194,59.1,170,44.2,155.1z"/>
				<path class="st5" d="M44.1,1.9L44.1,1.9l0,0.8L44.1,1.9L44.1,1.9C9.7,41.2,0.8,96.8,21.3,144.8l3.6,8.6
					c2.8,1.7,9.7,5.4,19.2,5.4c9.5,0,16.4-3.7,19.2-5.4c1.2-2.9,2.4-5.7,3.6-8.6C87.4,96.8,78.5,41.2,44.1,1.9z"/>
				<rect x="39.1" y="113.6" class="st6" width="0" height="0.7"/>
				<g>
					<path class="st7" d="M65.3,34.5C59.9,22.8,52.8,11.8,44.1,1.9l0,0.8l0-0.8v0c-8.7,10-15.8,21-21.2,32.6
						c4.3,2.3,11.6,5.2,21,5.2C53.5,39.8,60.9,36.8,65.3,34.5z"/>
				</g>
				<g>
					<path class="st8" d="M44.1,1.9l0,0.8L44.1,1.9L44.1,1.9C44,2,43.9,2.1,43.8,2.2v156.6c0.1,0,0.2,0,0.3,0
						c9.5,0,16.4-3.7,19.2-5.4c1.2-2.9,2.4-5.7,3.6-8.6C87.4,96.8,78.5,41.2,44.1,1.9z"/>
				</g>
				<path class="st7" d="M44,183.6l-7.4-51.1c-1.2-8.2,1.6-16.5,7.4-22.3l0,0l0,0c5.9,5.9,8.6,14.2,7.4,22.4L44,183.6z"/>
				<g>
					<path class="st7" d="M44.1,82.8c-9.7,0-17.5-7.9-17.5-17.5s7.9-17.5,17.5-17.5s17.5,7.9,17.5,17.5S53.8,82.8,44.1,82.8z"/>
					<path class="st9" d="M44.1,49.8c8.5,0,15.5,6.9,15.5,15.5c0,8.5-6.9,15.5-15.5,15.5s-15.5-6.9-15.5-15.5
						C28.6,56.7,35.6,49.8,44.1,49.8 M44.1,45.6c-10.8,0-19.6,8.8-19.6,19.6s8.8,19.6,19.6,19.6s19.6-8.8,19.6-19.6
						S54.9,45.6,44.1,45.6L44.1,45.6z"/>
				</g>
				<g class="st10">
					<defs>
						
							<ellipse id="SVGID_3_" transform="matrix(0.2298 -0.9732 0.9732 0.2298 -29.5625 93.1871)" class="st10" cx="44.1" cy="65.3" rx="15.5" ry="15.5"/>
					</defs>
					<clipPath id="SVGID_4_">
						<use xlink:href="#SVGID_3_"  style="overflow:visible;"/>
					</clipPath>
					<g class="st11">
						
							<rect x="40.8" y="46.1" transform="matrix(0.7071 0.7071 -0.7071 0.7071 57.29 -12.2526)" class="st12" width="5.3" height="33.9"/>
						
							<rect x="47.3" y="50.9" transform="matrix(0.7071 0.7071 -0.7071 0.7071 62.3306 -14.8829)" class="st12" width="3.7" height="33.9"/>
					</g>
				</g>
				<g class="st13">
					<path class="st9" d="M44.1,110.1L44.1,110.1L44.1,110.1c-0.1,0.1-0.1,0.1-0.2,0.2v72.7l0.1,0.5l7.5-51
						C52.8,124.3,50,116,44.1,110.1z"/>
				</g>
				<g>
					<path class="st7" d="M27.1,154.8l-9-39.1l-6.7,12.4c-5.4,9.9-6.9,21.5-4.4,32.5l5.1,22L27.1,154.8z"/>
					<path class="st14" d="M27.1,154.8l-9-39.1c-2.7,6.9-6.3,19.1-5.2,34.3c0.7,9.2,3,16.8,5.1,22.3
						C21.1,166.4,24.1,160.6,27.1,154.8z"/>
				</g>
				<g>
					<path class="st7" d="M59.4,154.8l9-39.1l6.7,12.4c5.4,9.9,6.9,21.5,4.4,32.5l-5.1,22L59.4,154.8z"/>
					<path class="st14" d="M59.4,154.8l9-39.1c2.7,6.9,6.3,19.1,5.2,34.3c-0.7,9.2-3,16.8-5.1,22.3
						C65.4,166.4,62.4,160.6,59.4,154.8z"/>
				</g>
			</g>
		</g>
		<g>
			<circle class="st15" cx="8.2" cy="224.5" r="3.8"/>
			<path class="st15" d="M25.2,281.7c0,2.1-1.7,3.8-3.8,3.8s-3.8-1.7-3.8-3.8c0-2.1,1.7-3.8,3.8-3.8S25.2,279.6,25.2,281.7z"/>
		</g>
		<g class="st16">
			<path class="st15" d="M69.7,195.6c0,2.6,2.1,4.8,4.8,4.8c2.6,0,4.8-2.1,4.8-4.8c0-2.6-2.1-4.8-4.8-4.8
				C71.8,190.8,69.7,193,69.7,195.6z"/>
			<path class="st15" d="M65.3,250.7c0,2.1,1.7,3.8,3.8,3.8c2.1,0,3.8-1.7,3.8-3.8c0-2.1-1.7-3.8-3.8-3.8
				C67,246.8,65.3,248.6,65.3,250.7z"/>
			<path class="st15" d="M61.1,316.8c0,2.1,1.7,3.8,3.8,3.8s3.8-1.7,3.8-3.8c0-2.1-1.7-3.8-3.8-3.8S61.1,314.7,61.1,316.8z"/>
		</g>
	</g>
</g>
</svg>
