<?xml version="1.0" encoding="UTF-8" standalone="no"?>
<!-- Created with Inkscape (http://www.inkscape.org/) -->

<svg
   xmlns:dc="http://purl.org/dc/elements/1.1/"
   xmlns:cc="http://creativecommons.org/ns#"
   xmlns:rdf="http://www.w3.org/1999/02/22-rdf-syntax-ns#"
   xmlns:svg="http://www.w3.org/2000/svg"
   xmlns="http://www.w3.org/2000/svg"
   xmlns:sodipodi="http://sodipodi.sourceforge.net/DTD/sodipodi-0.dtd"
   xmlns:inkscape="http://www.inkscape.org/namespaces/inkscape"
   width="210mm"
   height="113mm"
   viewBox="0 0 744.09449 400.39346"
   id="svg7506"
   version="1.1"
   inkscape:version="0.91 r13725"
   sodipodi:docname="devOps.svg">
  <defs
     id="defs7508" />
  <sodipodi:namedview
     id="base"
     pagecolor="#ffffff"
     bordercolor="#666666"
     borderopacity="1.0"
     inkscape:pageopacity="0.0"
     inkscape:pageshadow="2"
     inkscape:zoom="0.35"
     inkscape:cx="-55"
     inkscape:cy="520"
     inkscape:document-units="px"
     inkscape:current-layer="layer1"
     showgrid="false"
     inkscape:window-width="1366"
     inkscape:window-height="742"
     inkscape:window-x="0"
     inkscape:window-y="0"
     inkscape:window-maximized="1" />
  <metadata
     id="metadata7511">
    <rdf:RDF>
      <cc:Work
         rdf:about="">
        <dc:format>image/svg+xml</dc:format>
        <dc:type
           rdf:resource="http://purl.org/dc/dcmitype/StillImage" />
        <dc:title></dc:title>
      </cc:Work>
    </rdf:RDF>
  </metadata>
  <g
     inkscape:label="Layer 1"
     inkscape:groupmode="layer"
     id="layer1"
     transform="translate(0,-651.96896)">
    <g
       id="g558"
       transform="matrix(10.271291,0,0,-10.271291,677.09244,974.34219)">
      <path
         d="m 0,0 c -3.101,-3.249 -7.473,-5.273 -12.318,-5.273 -4.315,0 -8.254,1.605 -11.254,4.251 l -0.073,7.074 5.809,0 c 0,0 1.843,-2.067 5.752,-1.955 3.909,0.111 5.418,2.513 5.418,2.513 l 0,-6.605 L 0,0 Z"
         style="fill:#005595;fill-opacity:1;fill-rule:nonzero;stroke:none"
         id="path560"
         inkscape:connector-curvature="0" />
    </g>
    <g
       id="g562"
       transform="matrix(10.271291,0,0,-10.271291,674.20252,730.01798)">
      <path
         d="m 0,0 c 3.081,-3.081 4.986,-7.336 4.986,-12.037 0,-3.931 -1.332,-7.551 -3.57,-10.433 l -6.464,0 0,7.52 c 0,0 1.231,2.05 0.469,4.685 -0.762,2.637 -2.05,3.691 -2.05,3.691 L -0.01,-6.516 0,0 Z"
         style="fill:#005595;fill-opacity:1;fill-rule:nonzero;stroke:none"
         id="path564"
         inkscape:connector-curvature="0" />
    </g>
    <g
       id="g566"
       transform="matrix(10.271291,0,0,-10.271291,410.98136,748.33376)">
      <path
         d="m 0,0 c 3.107,4.112 8.039,6.77 13.59,6.77 4.08,0 7.825,-1.436 10.758,-3.83 l 0,-6.325 -6.873,0 c 0,0 -3.105,1.23 -5.858,0.586 C 8.704,-3.481 6.696,-6.138 6.696,-6.138 l 0,6.193 L 0,0 Z"
         style="fill:#005595;fill-opacity:1;fill-rule:nonzero;stroke:none"
         id="path568"
         inkscape:connector-curvature="0" />
    </g>
    <g
       id="g570"
       transform="matrix(10.271291,0,0,-10.271291,482.94039,899.3638)">
      <path
         d="m 0,0 -5.903,0 0,-6.994 -3.903,4.288 L -3.473,3.77 0,0 Z"
         style="fill:#005595;fill-opacity:1;fill-rule:nonzero;stroke:none"
         id="path572"
         inkscape:connector-curvature="0" />
    </g>
    <g
       id="g574"
       transform="matrix(10.271291,0,0,-10.271291,286.14097,758.59988)">
      <path
         d="M 0,0 6.376,0 8.439,-1.975 1.997,-8.484 0,-6.531 0,0 Z"
         style="fill:#005595;fill-opacity:1;fill-rule:nonzero;stroke:none"
         id="path576"
         inkscape:connector-curvature="0" />
    </g>
    <g
       id="g578"
       transform="matrix(10.271291,0,0,-10.271291,451.20374,818.32234)">
      <path
         d="m 0,0 -14.191,-14.884 0.091,4.767 -3.432,0 L -3.916,4.028 0,4.028 0,0 Z m -15.381,-15.93 c 0,0 -2.563,-2.93 -9.567,-2.93 -6.318,0 -8.973,3.976 -8.973,3.976 l 3.754,0 -0.046,3.943 c 0,0 5.127,-3.891 11.307,-0.32 l 3.525,0 0,-4.669 z m -23.941,9.43 c -1.289,8.936 3.662,12.954 3.662,12.954 l 0,-4.257 3.616,0 c -4.266,-7.28 0.732,-12.268 0.732,-12.268 l 0,-3.745 -4.076,0 c 0,0 -3.294,2.875 -3.934,7.316 m 4.787,13.764 c 0,0 2.926,3.745 9.003,4.365 6.076,0.621 10.268,-3.199 10.268,-3.199 l -3.77,0 0,-4.402 c 0,0 -2.561,2.094 -6.471,1.662 -3.942,-0.435 -5.533,-2.419 -5.533,-2.419 l -3.497,0 0,3.993 z M -4.667,5.733 c 0,0 -9.891,-10.045 -13.879,-14.345 -3.492,-3.765 -11.534,-3.139 -13.025,2.441 -0.949,3.55 -0.444,9.14 6.435,10.102 4.22,0.59 7.949,-3.416 7.949,-3.416 l 0,6.42 6.3,0.015 c -3.112,4.034 -7.996,6.633 -13.485,6.633 -9.402,0 -17.024,-7.621 -17.024,-17.023 0,-9.401 7.622,-17.023 17.024,-17.023 3.529,0 7.129,0.671 9.526,2.914 3.575,3.344 16.613,16.862 16.613,16.862 l 0,6.437 -6.434,-0.017 z"
         style="fill:#005595;fill-opacity:1;fill-rule:nonzero;stroke:none"
         id="path580"
         inkscape:connector-curvature="0" />
    </g>
  </g>
</svg>
