<svg width="320" height="1600" xmlns="http://www.w3.org/2000/svg" xmlns:xlink="http://www.w3.org/1999/xlink">
 <metadata id="metadata6461">image/svg+xml</metadata>
 <defs>
  <linearGradient y2="0.91773" x2="0.50033" y1="0.35317" x1="0.50033" id="SVGID_1_">
   <stop stop-color="#FEFEFE" id="stop6374" offset="0.03968"/>
   <stop stop-color="#FEFEFE" stop-opacity="0" id="stop6376" offset="0.9021"/>
  </linearGradient>
  <linearGradient y2="0.97478" x2="0.49671" y1="0.29143" x1="0.49671" id="SVGID_2_">
   <stop stop-color="#FEFEFE" id="stop6381" offset="0.03968"/>
   <stop stop-color="#FEFEFE" stop-opacity="0" id="stop6383" offset="1"/>
  </linearGradient>
 </defs>
 <style type="text/css">.st0{opacity:0.85;}
	.st1{opacity:0.5;fill:url(#SVGID_1_);}
	.st2{fill:url(#SVGID_2_);}
	.st3{fill:#FFE362;}
	.st4{fill:#FFF6C1;}
	.st5{fill:#F9FAFF;}
	.st6{fill:none;stroke:#1E120D;stroke-miterlimit:10;}
	.st7{fill:#2A184D;}
	.st8{fill:#DDDEE2;}
	.st9{fill:#FF3746;}
	.st10{opacity:0.69;}
	.st11{clip-path:url(#SVGID_4_);}
	.st12{opacity:0.5;fill:#DDDEE2;}
	.st13{opacity:0.5;}
	.st14{opacity:0.5;fill:#FF3746;}
	.st15{fill:#FFE045;}
	.st16{opacity:0.8;}</style>
 <g>
  <title>RocketBig</title>
  <g transform="matrix(3.6201564,0,0,3.6201564,6.0076973,26.37255) " id="g6367">
   <g id="g6369">
    <g opacity="0.85" id="g6371" class="st0">
     <rect opacity="0.5" fill="url(#SVGID_1_)" id="rect6378" height="275.60001" width="42.3" class="st1" y="149.3" x="22.1"/>
     <rect fill="url(#SVGID_2_)" id="rect6385" height="276.20001" width="17" class="st2" y="149.3" x="35.6"/>
     <g id="g6387">
      <path fill="#ffe362" id="path6389" d="m44.2,144l0,0l0,0c-24.6,24.6 -24.6,64.5 0,89l0,0l0,0c24.6,-24.6 24.6,-64.5 0,-89z" class="st3"/>
      <path fill="#fff6c1" id="path6391" d="m44.2,155.1l0,0l0,0c-14.8,14.8 -14.8,38.9 0,53.7l0,0l0,0c14.9,-14.8 14.9,-38.8 0,-53.7z" class="st4"/>
      <path fill="#f9faff" id="path6393" d="m44.1,1.9l0,0l0,0.8l0,-0.8l0,0c-34.4,39.3 -43.3,94.9 -22.8,142.9l3.6,8.6c2.8,1.7 9.7,5.4 19.2,5.4c9.5,0 16.4,-3.7 19.2,-5.4c1.2,-2.9 2.4,-5.7 3.6,-8.6c20.5,-48 11.6,-103.6 -22.8,-142.9z" class="st5"/>
      <rect fill="none" stroke="#1e120d" stroke-miterlimit="10" id="rect6395" height="0.7" width="0" class="st6" y="113.6" x="39.1"/>
      <g id="g6397">
       <path fill="#2a184d" id="path6399" d="m65.3,34.5c-5.4,-11.7 -12.5,-22.7 -21.2,-32.6l0,0.8l0,-0.8l0,0c-8.7,10 -15.8,21 -21.2,32.6c4.3,2.3 11.6,5.2 21,5.2c9.6,0.1 17,-2.9 21.4,-5.2z" class="st7"/>
      </g>
      <g id="g6401">
       <path fill="#dddee2" id="path6403" d="m44.1,1.9l0,0.8l0,-0.8l0,0c-0.1,0.1 -0.2,0.2 -0.3,0.3l0,156.6c0.1,0 0.2,0 0.3,0c9.5,0 16.4,-3.7 19.2,-5.4c1.2,-2.9 2.4,-5.7 3.6,-8.6c20.5,-48 11.6,-103.6 -22.8,-142.9z" class="st8"/>
      </g>
      <path fill="#2a184d" id="path6405" d="m44,183.6l-7.4,-51.1c-1.2,-8.2 1.6,-16.5 7.4,-22.3l0,0l0,0c5.9,5.9 8.6,14.2 7.4,22.4l-7.4,51z" class="st7"/>
      <g id="g6407">
       <path fill="#2a184d" id="path6409" d="m44.1,82.8c-9.7,0 -17.5,-7.9 -17.5,-17.5c0,-9.6 7.9,-17.5 17.5,-17.5c9.6,0 17.5,7.9 17.5,17.5c0,9.6 -7.8,17.5 -17.5,17.5z" class="st7"/>
       <path fill="#ff3746" id="path6411" d="m44.1,49.8c8.5,0 15.5,6.9 15.5,15.5c0,8.5 -6.9,15.5 -15.5,15.5c-8.6,0 -15.5,-6.9 -15.5,-15.5c0,-8.6 7,-15.5 15.5,-15.5m0,-4.2c-10.8,0 -19.6,8.8 -19.6,19.6c0,10.8 8.8,19.6 19.6,19.6c10.8,0 19.6,-8.8 19.6,-19.6c0,-10.8 -8.8,-19.6 -19.6,-19.6l0,0z" class="st9"/>
      </g>
      <g opacity="0.69" id="g6413" class="st10">
       <defs>
        <circle opacity="0.69" r="15.5" cy="65.3" cx="44.1" class="st10" transform="matrix(0.2298,-0.9732,0.9732,0.2298,-29.5625,93.1871) " id="SVGID_3_"/>
       </defs>
       <clipPath id="SVGID_4_">
        <use height="100%" width="100%" y="0" x="0" id="use6419" xlink:href="#SVGID_3_"/>
       </clipPath>
       <g clip-path="url(#SVGID_4_)" id="g6421" class="st11">
        <rect opacity="0.5" fill="#dddee2" id="rect6423" height="33.9" width="5.3" class="st12" transform="matrix(0.7071,0.7071,-0.7071,0.7071,57.29,-12.2526) " y="46.1" x="40.8"/>
        <rect opacity="0.5" fill="#dddee2" id="rect6425" height="33.9" width="3.7" class="st12" transform="matrix(0.7071,0.7071,-0.7071,0.7071,62.3306,-14.8829) " y="50.9" x="47.3"/>
       </g>
      </g>
      <g opacity="0.5" id="g6427" class="st13">
       <path fill="#ff3746" id="path6429" d="m44.1,110.1l0,0l0,0c-0.1,0.1 -0.1,0.1 -0.2,0.2l0,72.7l0.1,0.5l7.5,-51c1.3,-8.2 -1.5,-16.5 -7.4,-22.4z" class="st9"/>
      </g>
      <g id="g6431">
       <path fill="#2a184d" id="path6433" d="m27.1,154.8l-9,-39.1l-6.7,12.4c-5.4,9.9 -6.9,21.5 -4.4,32.5l5.1,22l15,-27.8z" class="st7"/>
       <path opacity="0.5" fill="#ff3746" id="path6435" d="m27.1,154.8l-9,-39.1c-2.7,6.9 -6.3,19.1 -5.2,34.3c0.7,9.2 3,16.8 5.1,22.3c3.1,-5.9 6.1,-11.7 9.1,-17.5z" class="st14"/>
      </g>
      <g id="g6437">
       <path fill="#2a184d" id="path6439" d="m59.4,154.8l9,-39.1l6.7,12.4c5.4,9.9 6.9,21.5 4.4,32.5l-5.1,22l-15,-27.8z" class="st7"/>
       <path opacity="0.5" fill="#ff3746" id="path6441" d="m59.4,154.8l9,-39.1c2.7,6.9 6.3,19.1 5.2,34.3c-0.7,9.2 -3,16.8 -5.1,22.3c-3.1,-5.9 -6.1,-11.7 -9.1,-17.5z" class="st14"/>
      </g>
     </g>
    </g>
    <g id="g6443">
     <circle fill="#ffe045" id="circle6445" r="3.8" cy="224.5" cx="8.2" class="st15"/>
     <path fill="#ffe045" id="path6447" d="m25.2,281.7c0,2.1 -1.7,3.8 -3.8,3.8c-2.1,0 -3.8,-1.7 -3.8,-3.8c0,-2.1 1.7,-3.8 3.8,-3.8c2.1,0 3.8,1.7 3.8,3.8z" class="st15"/>
    </g>
    <g opacity="0.8" id="g6449" class="st16">
     <path fill="#ffe045" id="path6451" d="m69.7,195.6c0,2.6 2.1,4.8 4.8,4.8c2.6,0 4.8,-2.1 4.8,-4.8c0,-2.6 -2.1,-4.8 -4.8,-4.8c-2.7,0 -4.8,2.2 -4.8,4.8z" class="st15"/>
     <path fill="#ffe045" id="path6453" d="m65.3,250.7c0,2.1 1.7,3.8 3.8,3.8c2.1,0 3.8,-1.7 3.8,-3.8c0,-2.1 -1.7,-3.8 -3.8,-3.8c-2.1,-0.1 -3.8,1.7 -3.8,3.8z" class="st15"/>
     <path fill="#ffe045" id="path6455" d="m61.1,316.8c0,2.1 1.7,3.8 3.8,3.8c2.1,0 3.8,-1.7 3.8,-3.8c0,-2.1 -1.7,-3.8 -3.8,-3.8c-2.1,0 -3.8,1.7 -3.8,3.8z" class="st15"/>
    </g>
   </g>
  </g>
 </g>
</svg>
