<?xml version="1.0" encoding="UTF-8" standalone="no"?>
<!-- Created with Inkscape (http://www.inkscape.org/) -->

<svg
   xmlns:dc="http://purl.org/dc/elements/1.1/"
   xmlns:cc="http://creativecommons.org/ns#"
   xmlns:rdf="http://www.w3.org/1999/02/22-rdf-syntax-ns#"
   xmlns:svg="http://www.w3.org/2000/svg"
   xmlns="http://www.w3.org/2000/svg"
   xmlns:sodipodi="http://sodipodi.sourceforge.net/DTD/sodipodi-0.dtd"
   xmlns:inkscape="http://www.inkscape.org/namespaces/inkscape"
   width="330"
   height="250"
   viewBox="0 0 330 250"
   id="svg6984"
   version="1.1"
   inkscape:version="0.91 r13725"
   sodipodi:docname="azureCloudApps.svg">
  <defs
     id="defs6986" />
  <sodipodi:namedview
     id="base"
     pagecolor="#ffffff"
     bordercolor="#666666"
     borderopacity="1.0"
     inkscape:pageopacity="0.0"
     inkscape:pageshadow="2"
     inkscape:zoom="1.979899"
     inkscape:cx="150.54347"
     inkscape:cy="114.19426"
     inkscape:document-units="px"
     inkscape:current-layer="layer1"
     showgrid="false"
     units="px"
     inkscape:window-width="1366"
     inkscape:window-height="742"
     inkscape:window-x="0"
     inkscape:window-y="0"
     inkscape:window-maximized="1" />
  <metadata
     id="metadata6989">
    <rdf:RDF>
      <cc:Work
         rdf:about="">
        <dc:format>image/svg+xml</dc:format>
        <dc:type
           rdf:resource="http://purl.org/dc/dcmitype/StillImage" />
        <dc:title></dc:title>
      </cc:Work>
    </rdf:RDF>
  </metadata>
  <g
     inkscape:label="Layer 1"
     inkscape:groupmode="layer"
     id="layer1"
     transform="translate(0,-802.36216)">
    <g
       id="g5229"
       transform="matrix(3.049875,0,0,-3.049875,149.75446,909.9344)">
      <path
         d="M 0,0 C 2.027,-1.934 4.186,-3.354 6.309,-4.396 6.296,-4.511 6.29,-4.627 6.29,-4.743 c 0,-1.831 1.484,-3.316 3.315,-3.316 1.136,0.002 2.191,0.583 2.798,1.543 3.028,-0.671 5.519,-0.706 6.76,-0.663 -3.179,-3.141 -7.467,-4.909 -11.939,-4.923 -4.013,0 -7.897,1.415 -10.968,3.992 0.073,2.229 0.079,4.657 1.313,7.681 0.116,-0.009 0.231,-0.015 0.347,-0.017 C -1.366,-0.444 -0.656,-0.292 0,0 Z M 7.435,11.493 C 9.645,9.452 11.985,7.501 14.167,5.778 13.947,5.3 13.833,4.781 13.831,4.254 c 0,-2.023 1.64,-3.662 3.663,-3.662 0.876,0.001 1.722,0.317 2.386,0.889 2.014,-1.445 3.324,-2.315 3.324,-2.315 l 0.073,0.093 c -0.511,-1.432 -1.213,-2.788 -2.085,-4.033 -1.88,-0.261 -4.793,-0.34 -8.329,0.641 -0.294,1.568 -1.662,2.705 -3.258,2.706 C 8.914,-1.429 8.24,-1.646 7.678,-2.05 6.418,-1.383 5.115,-0.573 3.781,0.409 3.189,0.844 2.636,1.282 2.118,1.722 c 0.626,0.875 0.963,1.923 0.964,2.999 0,0.812 -0.192,1.612 -0.56,2.337 0.372,0.416 0.764,0.84 1.182,1.275 1.201,1.251 2.461,2.292 3.731,3.16 m -14.496,2.648 c -0.221,-1.383 -0.175,-3.45 1.011,-6.11 -0.776,-0.929 -1.201,-2.1 -1.201,-3.31 0.001,-1.358 0.536,-2.661 1.489,-3.627 -0.833,-2.546 -1.078,-4.609 -1.149,-5.665 -1.891,2.801 -2.903,6.1 -2.908,9.477 0.008,3.28 0.966,6.487 2.758,9.235 m 27.367,1.642 C 22.859,12.731 24.26,8.882 24.266,4.906 24.259,3.43 24.06,1.961 23.673,0.537 22.707,1.25 21.754,1.983 20.82,2.73 c 0.221,0.478 0.335,0.998 0.337,1.524 0,2.023 -1.64,3.663 -3.663,3.663 -0.72,-10e-4 -1.424,-0.214 -2.023,-0.612 -2.099,1.907 -4.041,3.8 -5.767,5.56 4.501,2.394 8.759,2.843 10.602,2.918 M -0.255,20.176 C 0.894,18.363 2.47,16.471 4.265,14.596 3.238,13.911 2.215,13.101 1.217,12.14 0.406,11.359 -0.324,10.563 -0.982,9.765 c -0.362,0.08 -0.732,0.121 -1.102,0.122 -0.64,0 -1.273,-0.118 -1.869,-0.35 -1.315,2.975 -1.447,5.474 -1.387,6.818 1.439,1.581 3.164,2.877 5.085,3.821 m 7.472,1.738 0.007,0 C 11.173,21.911 15,20.539 18.048,18.032 15.819,18.25 11.394,18.276 6.715,16.001 c -2.138,2.311 -3.714,4.155 -4.531,5.134 1.629,0.51 3.326,0.773 5.033,0.779 m 0.007,2.631 c -10.869,0 -19.68,-8.793 -19.68,-19.639 0,-10.846 8.811,-19.638 19.68,-19.638 10.868,0 19.678,8.792 19.678,19.638 0,10.846 -8.81,19.639 -19.678,19.639"
         style="fill:#005595;fill-opacity:1;fill-rule:nonzero;stroke:none"
         id="path5231"
         inkscape:connector-curvature="0" />
    </g>
    <g
       id="g5233"
       transform="matrix(3.049875,0,0,-3.049875,95.330699,1018.4402)">
      <path
         d="m 0,0 -0.752,2.354 c -0.056,0.175 -0.095,0.385 -0.117,0.629 l -0.039,0 C -0.925,2.778 -0.965,2.575 -1.03,2.373 L -1.792,0 0,0 Z m 2.578,-2.769 -1.719,0 -0.498,1.558 -2.49,0 -0.493,-1.558 -1.709,0 2.549,7.002 1.87,0 2.49,-7.002 z"
         style="fill:#002b66;fill-opacity:1;fill-rule:nonzero;stroke:none"
         id="path5235"
         inkscape:connector-curvature="0" />
    </g>
    <g
       id="g5237"
       transform="matrix(3.049875,0,0,-3.049875,118.44327,1026.8841)">
      <path
         d="m 0,0 -4.683,0 0,0.776 2.637,3.365 -2.422,0 0,1.108 4.458,0 0,-0.757 L -2.632,1.104 0,1.104 0,0 Z"
         style="fill:#002b66;fill-opacity:1;fill-rule:nonzero;stroke:none"
         id="path5239"
         inkscape:connector-curvature="0" />
    </g>
    <g
       id="g5241"
       transform="matrix(3.049875,0,0,-3.049875,136.00078,1019.9444)">
      <path
         d="m 0,0 c 0,-1.579 -0.812,-2.368 -2.437,-2.368 -1.579,0 -2.368,0.769 -2.368,2.309 l 0,3.033 1.558,0 0,-2.979 c 0,-0.83 0.285,-1.245 0.854,-1.245 0.56,0 0.84,0.4 0.84,1.201 l 0,3.023 L 0,2.974 0,0 Z"
         style="fill:#002b66;fill-opacity:1;fill-rule:nonzero;stroke:none"
         id="path5243"
         inkscape:connector-curvature="0" />
    </g>
    <g
       id="g5245"
       transform="matrix(3.049875,0,0,-3.049875,145.06989,1013.8684)">
      <path
         d="m 0,0 0,-1.313 0.259,0 c 0.227,0 0.411,0.065 0.55,0.195 0.137,0.13 0.207,0.306 0.207,0.527 0,0.228 -0.061,0.384 -0.184,0.466 C 0.711,-0.041 0.525,0 0.278,0 L 0,0 Z m 3.325,-4.268 -1.811,0 -0.699,1.236 c -0.078,0.136 -0.148,0.252 -0.21,0.346 -0.061,0.095 -0.122,0.169 -0.18,0.225 -0.059,0.056 -0.117,0.096 -0.176,0.119 -0.059,0.026 -0.124,0.037 -0.195,0.037 l -0.054,0 0,-1.963 -1.553,0 0,5.249 2.075,0 c 1.41,0 2.115,-0.475 2.115,-1.425 0,-0.183 -0.031,-0.349 -0.09,-0.498 C 2.486,-1.092 2.402,-1.228 2.295,-1.348 2.188,-1.468 2.059,-1.572 1.909,-1.66 1.76,-1.748 1.595,-1.818 1.416,-1.87 l 0,-0.015 c 0.198,-0.065 0.369,-0.167 0.513,-0.304 0.143,-0.139 0.286,-0.323 0.429,-0.55 l 0.967,-1.529 z"
         style="fill:#002b66;fill-opacity:1;fill-rule:nonzero;stroke:none"
         id="path5247"
         inkscape:connector-curvature="0" />
    </g>
    <g
       id="g5249"
       transform="matrix(3.049875,0,0,-3.049875,168.16752,1026.8841)">
      <path
         d="m 0,0 -3.486,0 0,5.249 3.354,0 0,-1.06 -1.802,0 0,-1.02 1.656,0 0,-1.06 -1.656,0 0,-1.054 L 0,1.055 0,0 Z"
         style="fill:#002b66;fill-opacity:1;fill-rule:nonzero;stroke:none"
         id="path5251"
         inkscape:connector-curvature="0" />
    </g>
    <g
       id="g5253"
       transform="matrix(3.049875,0,0,-3.049875,208.1523,1005.5289)">
      <path
         d="m 0,0 -1.851,-7.002 -1.748,0 -1.162,4.492 c -0.061,0.235 -0.099,0.496 -0.112,0.786 l -0.02,0 C -4.922,-2.043 -4.964,-2.305 -5.02,-2.51 l -1.191,-4.492 -1.821,0 -1.841,7.002 1.724,0 0.986,-4.663 c 0.042,-0.198 0.073,-0.466 0.093,-0.801 l 0.029,0 c 0.013,0.251 0.061,0.525 0.142,0.82 L -5.63,0 l 1.69,0 1.147,-4.702 c 0.042,-0.173 0.08,-0.423 0.112,-0.752 l 0.02,0 c 0.013,0.257 0.047,0.517 0.102,0.781 L -1.592,0 0,0 Z"
         style="fill:#002b66;fill-opacity:1;fill-rule:nonzero;stroke:none"
         id="path5255"
         inkscape:connector-curvature="0" />
    </g>
    <g
       id="g5257"
       transform="matrix(3.049875,0,0,-3.049875,221.37657,1026.8841)">
      <path
         d="m 0,0 -3.486,0 0,5.249 3.354,0 0,-1.06 -1.802,0 0,-1.02 1.656,0 0,-1.06 -1.656,0 0,-1.054 L 0,1.055 0,0 Z"
         style="fill:#002b66;fill-opacity:1;fill-rule:nonzero;stroke:none"
         id="path5259"
         inkscape:connector-curvature="0" />
    </g>
    <g
       id="g5261"
       transform="matrix(3.049875,0,0,-3.049875,229.62648,1020.153)">
      <path
         d="m 0,0 0,-1.24 0.479,0 c 0.241,0 0.419,0.047 0.537,0.138 0.117,0.094 0.175,0.252 0.175,0.477 0,0.208 -0.056,0.364 -0.17,0.469 C 0.906,-0.052 0.728,0 0.483,0 L 0,0 Z m 0,2.075 0,-1.098 0.352,0 c 0.407,0 0.61,0.205 0.61,0.615 C 0.962,1.689 0.95,1.77 0.928,1.831 0.905,1.893 0.867,1.941 0.812,1.978 0.76,2.014 0.69,2.039 0.605,2.053 0.521,2.068 0.417,2.075 0.293,2.075 L 0,2.075 Z m -1.553,-4.282 0,5.249 2.115,0 C 0.913,3.042 1.216,3.016 1.47,2.961 1.724,2.908 1.934,2.829 2.1,2.725 2.266,2.62 2.388,2.492 2.466,2.339 2.544,2.186 2.583,2.01 2.583,1.812 2.583,1.521 2.488,1.275 2.297,1.072 2.107,0.868 1.824,0.72 1.45,0.625 l 0,-0.015 C 1.682,0.584 1.883,0.533 2.053,0.457 2.225,0.38 2.365,0.285 2.479,0.174 2.59,0.061 2.674,-0.065 2.729,-0.205 2.785,-0.345 2.813,-0.49 2.813,-0.64 2.813,-0.881 2.763,-1.098 2.664,-1.291 2.564,-1.485 2.423,-1.649 2.238,-1.785 2.055,-1.92 1.831,-2.023 1.567,-2.098 1.304,-2.17 1.008,-2.207 0.679,-2.207 l -2.232,0 z"
         style="fill:#002b66;fill-opacity:1;fill-rule:nonzero;stroke:none"
         id="path5263"
         inkscape:connector-curvature="0" />
    </g>
    <g
       id="g5265"
       transform="matrix(3.049875,0,0,-3.049875,261.0188,1018.4402)">
      <path
         d="m 0,0 -0.752,2.354 c -0.056,0.175 -0.095,0.385 -0.117,0.629 l -0.039,0 C -0.925,2.778 -0.965,2.575 -1.03,2.373 L -1.792,0 0,0 Z m 2.578,-2.769 -1.719,0 -0.498,1.558 -2.49,0 -0.493,-1.558 -1.709,0 2.549,7.002 1.87,0 2.49,-7.002 z"
         style="fill:#002b66;fill-opacity:1;fill-rule:nonzero;stroke:none"
         id="path5267"
         inkscape:connector-curvature="0" />
    </g>
    <g
       id="g5269"
       transform="matrix(3.049875,0,0,-3.049875,276.16389,1013.9428)">
      <path
         d="m 0,0 0,-1.489 0.356,0 c 0.479,0 0.718,0.26 0.718,0.781 C 1.074,-0.236 0.835,0 0.356,0 L 0,0 Z m 0,-2.485 0,-1.758 -1.553,0 0,5.249 2.051,0 c 1.465,0 2.197,-0.557 2.197,-1.67 0,-0.273 -0.05,-0.522 -0.151,-0.745 C 2.443,-1.632 2.3,-1.823 2.114,-1.982 1.929,-2.142 1.706,-2.266 1.445,-2.354 1.185,-2.441 0.894,-2.485 0.571,-2.485 l -0.571,0 z"
         style="fill:#002b66;fill-opacity:1;fill-rule:nonzero;stroke:none"
         id="path5271"
         inkscape:connector-curvature="0" />
    </g>
    <g
       id="g5273"
       transform="matrix(3.049875,0,0,-3.049875,292.33676,1013.9428)">
      <path
         d="m 0,0 0,-1.489 0.356,0 c 0.479,0 0.718,0.26 0.718,0.781 C 1.074,-0.236 0.835,0 0.356,0 L 0,0 Z m 0,-2.485 0,-1.758 -1.553,0 0,5.249 2.051,0 c 1.465,0 2.197,-0.557 2.197,-1.67 0,-0.273 -0.05,-0.522 -0.151,-0.745 C 2.443,-1.632 2.3,-1.823 2.114,-1.982 1.929,-2.142 1.706,-2.266 1.445,-2.354 1.185,-2.441 0.894,-2.485 0.571,-2.485 l -0.571,0 z"
         style="fill:#002b66;fill-opacity:1;fill-rule:nonzero;stroke:none"
         id="path5275"
         inkscape:connector-curvature="0" />
    </g>
    <g
       id="g5277"
       transform="matrix(3.049875,0,0,-3.049875,302.86523,1026.2735)">
      <path
         d="M 0,0 0,1.27 C 0.237,1.091 0.493,0.957 0.767,0.869 1.04,0.781 1.318,0.737 1.602,0.737 1.901,0.737 2.124,0.778 2.271,0.862 2.417,0.944 2.49,1.057 2.49,1.196 2.49,1.274 2.471,1.342 2.432,1.399 2.393,1.456 2.327,1.511 2.233,1.562 2.142,1.614 2.018,1.672 1.862,1.733 1.708,1.795 1.514,1.87 1.279,1.958 0.833,2.131 0.505,2.351 0.293,2.62 0.081,2.888 -0.024,3.208 -0.024,3.579 c 0,0.274 0.06,0.509 0.183,0.705 C 0.28,4.481 0.446,4.644 0.657,4.771 0.866,4.897 1.109,4.99 1.384,5.049 1.659,5.107 1.951,5.137 2.261,5.137 2.566,5.137 2.835,5.12 3.066,5.088 3.298,5.056 3.513,5.005 3.711,4.937 l 0,-1.192 C 3.613,3.807 3.507,3.86 3.392,3.906 3.275,3.952 3.157,3.99 3.037,4.021 2.917,4.052 2.796,4.075 2.676,4.089 2.556,4.104 2.441,4.111 2.334,4.111 2.058,4.111 1.842,4.072 1.687,3.994 1.532,3.916 1.455,3.811 1.455,3.677 1.455,3.615 1.472,3.562 1.507,3.516 1.54,3.47 1.599,3.425 1.683,3.379 1.765,3.333 1.875,3.284 2.012,3.232 2.148,3.181 2.319,3.117 2.524,3.042 2.977,2.876 3.33,2.654 3.584,2.378 3.838,2.102 3.965,1.751 3.965,1.328 3.965,0.798 3.77,0.395 3.379,0.12 2.988,-0.155 2.415,-0.293 1.66,-0.293 1.338,-0.293 1.034,-0.269 0.749,-0.22 0.465,-0.171 0.215,-0.098 0,0"
         style="fill:#002b66;fill-opacity:1;fill-rule:nonzero;stroke:none"
         id="path5279"
         inkscape:connector-curvature="0" />
    </g>
    <g
       id="g5281"
       transform="matrix(3.049875,0,0,-3.049875,51.838872,988.30499)">
      <path
         d="m 0,0 -2.566,-7.233 4.92,-6.183 -9.545,-1.64 15.645,0 L 0,0 Z m -0.8,1.22 -6.013,-5.214 -5.131,-9.211 4.627,0 L -0.8,1.22 Z"
         style="fill:#0072c6;fill-opacity:1;fill-rule:nonzero;stroke:none"
         id="path5283"
         inkscape:connector-curvature="0" />
    </g>
  </g>
</svg>
