<?xml version="1.0" encoding="UTF-8" standalone="no"?>
<!-- Created with Inkscape (http://www.inkscape.org/) -->

<svg
   xmlns:dc="http://purl.org/dc/elements/1.1/"
   xmlns:cc="http://creativecommons.org/ns#"
   xmlns:rdf="http://www.w3.org/1999/02/22-rdf-syntax-ns#"
   xmlns:svg="http://www.w3.org/2000/svg"
   xmlns="http://www.w3.org/2000/svg"
   xmlns:sodipodi="http://sodipodi.sourceforge.net/DTD/sodipodi-0.dtd"
   xmlns:inkscape="http://www.inkscape.org/namespaces/inkscape"
   width="330"
   height="250"
   viewBox="0 0 330 250"
   id="svg6984"
   version="1.1"
   inkscape:version="0.91 r13725"
   sodipodi:docname="mobileApps.svg">
  <defs
     id="defs6986">
    <clipPath
       clipPathUnits="userSpaceOnUse"
       id="clipPath5381">
      <path
         d="m 175.406,165.326 34.065,0 0,-44.132 -34.065,0 0,44.132 z"
         id="path5383"
         inkscape:connector-curvature="0" />
    </clipPath>
  </defs>
  <sodipodi:namedview
     id="base"
     pagecolor="#ffffff"
     bordercolor="#666666"
     borderopacity="1.0"
     inkscape:pageopacity="0.0"
     inkscape:pageshadow="2"
     inkscape:zoom="1.979899"
     inkscape:cx="150.54347"
     inkscape:cy="114.19426"
     inkscape:document-units="px"
     inkscape:current-layer="layer1"
     showgrid="false"
     units="px"
     inkscape:window-width="1366"
     inkscape:window-height="742"
     inkscape:window-x="0"
     inkscape:window-y="0"
     inkscape:window-maximized="1"
     showguides="true"
     inkscape:guide-bbox="true">
    <sodipodi:guide
       position="217.1828,219.2031"
       orientation="0,1"
       id="guide7747" />
    <sodipodi:guide
       position="213.64726,24.748737"
       orientation="0,1"
       id="guide7749" />
  </sodipodi:namedview>
  <metadata
     id="metadata6989">
    <rdf:RDF>
      <cc:Work
         rdf:about="">
        <dc:format>image/svg+xml</dc:format>
        <dc:type
           rdf:resource="http://purl.org/dc/dcmitype/StillImage" />
        <dc:title></dc:title>
      </cc:Work>
    </rdf:RDF>
  </metadata>
  <g
     inkscape:label="Layer 1"
     inkscape:groupmode="layer"
     id="layer1"
     transform="translate(0,-802.36216)">
    <g
       id="g7855"
       transform="matrix(2.1083585,0,0,2.1083585,204.90307,-875.21663)">
      <g
         transform="matrix(1.25,0,0,-1.25,-44.1118,902.98557)"
         id="g5317">
        <path
           inkscape:connector-curvature="0"
           id="path5319"
           style="fill:#002b66;fill-opacity:1;fill-rule:nonzero;stroke:none"
           d="m 0,0 -1.558,0 0,4.189 c 0,0.453 0.02,0.953 0.059,1.499 l -0.039,0 C -1.619,5.259 -1.692,4.949 -1.758,4.761 L -3.398,0 -4.687,0 -6.357,4.712 c -0.046,0.127 -0.12,0.452 -0.22,0.976 l -0.044,0 c 0.042,-0.69 0.063,-1.295 0.063,-1.816 l 0,-3.872 -1.421,0 0,7.002 2.31,0 1.431,-4.15 C -4.124,2.52 -4.041,2.186 -3.989,1.851 l 0.029,0 c 0.088,0.387 0.181,0.724 0.278,1.01 L -2.251,7.002 0,7.002 0,0 Z" />
      </g>
      <g
         transform="matrix(1.25,0,0,-1.25,-39.1558,897.70607)"
         id="g5321">
        <path
           inkscape:connector-curvature="0"
           id="path5323"
           style="fill:#002b66;fill-opacity:1;fill-rule:nonzero;stroke:none"
           d="M 0,0 C -0.192,0 -0.363,-0.038 -0.513,-0.114 -0.662,-0.191 -0.789,-0.3 -0.891,-0.442 -0.994,-0.583 -1.072,-0.753 -1.125,-0.95 -1.18,-1.146 -1.206,-1.365 -1.206,-1.606 c 0,-0.245 0.026,-0.465 0.081,-0.663 0.053,-0.196 0.131,-0.364 0.234,-0.502 0.102,-0.138 0.225,-0.244 0.369,-0.318 0.143,-0.072 0.305,-0.109 0.488,-0.109 0.188,0 0.356,0.036 0.503,0.107 0.146,0.071 0.27,0.176 0.371,0.313 0.1,0.136 0.177,0.301 0.226,0.496 0.051,0.193 0.077,0.412 0.077,0.656 0,0.508 -0.098,0.906 -0.293,1.193 C 0.654,-0.144 0.371,0 0,0 m -0.059,-4.316 c -0.417,0 -0.795,0.064 -1.134,0.192 -0.341,0.129 -0.632,0.311 -0.875,0.545 -0.243,0.234 -0.43,0.514 -0.564,0.838 -0.134,0.323 -0.2,0.68 -0.2,1.071 0,0.413 0.067,0.791 0.203,1.133 0.135,0.342 0.326,0.635 0.576,0.879 0.248,0.244 0.55,0.433 0.903,0.569 0.353,0.135 0.748,0.202 1.184,0.202 0.41,0 0.783,-0.064 1.118,-0.192 C 1.487,0.792 1.775,0.61 2.014,0.376 2.254,0.142 2.439,-0.14 2.57,-0.469 2.703,-0.798 2.769,-1.162 2.769,-1.562 2.769,-1.973 2.701,-2.347 2.566,-2.686 2.431,-3.024 2.239,-3.313 1.992,-3.555 1.745,-3.796 1.447,-3.982 1.099,-4.116 0.75,-4.25 0.364,-4.316 -0.059,-4.316" />
      </g>
      <g
         transform="matrix(1.25,0,0,-1.25,-32.3748,900.22682)"
         id="g5325">
        <path
           inkscape:connector-curvature="0"
           id="path5327"
           style="fill:#002b66;fill-opacity:1;fill-rule:nonzero;stroke:none"
           d="m 0,0 0,-1.24 0.479,0 c 0.241,0 0.419,0.047 0.537,0.138 0.117,0.094 0.175,0.252 0.175,0.477 0,0.208 -0.056,0.364 -0.17,0.469 C 0.906,-0.052 0.728,0 0.483,0 L 0,0 Z m 0,2.075 0,-1.098 0.352,0 c 0.407,0 0.61,0.205 0.61,0.615 C 0.962,1.689 0.95,1.77 0.928,1.831 0.905,1.893 0.867,1.941 0.812,1.978 0.76,2.014 0.69,2.039 0.605,2.053 0.521,2.068 0.417,2.075 0.293,2.075 L 0,2.075 Z m -1.553,-4.282 0,5.249 2.115,0 C 0.913,3.042 1.216,3.016 1.47,2.961 1.724,2.908 1.934,2.829 2.1,2.725 2.266,2.62 2.388,2.492 2.466,2.339 2.544,2.186 2.583,2.01 2.583,1.812 2.583,1.521 2.488,1.275 2.297,1.072 2.107,0.868 1.824,0.72 1.45,0.625 l 0,-0.015 C 1.682,0.584 1.883,0.533 2.053,0.457 2.225,0.38 2.365,0.285 2.479,0.174 2.59,0.061 2.674,-0.065 2.729,-0.205 2.785,-0.345 2.813,-0.49 2.813,-0.64 2.813,-0.881 2.763,-1.098 2.664,-1.291 2.564,-1.485 2.423,-1.649 2.238,-1.785 2.055,-1.92 1.831,-2.023 1.567,-2.098 1.304,-2.17 1.008,-2.207 0.679,-2.207 l -2.232,0 z" />
      </g>
      <path
         inkscape:connector-curvature="0"
         id="path5329"
         style="fill:#002b66;fill-opacity:1;fill-rule:nonzero;stroke:none"
         d="m -25.53942,902.9852 -1.94125,0 0,-6.56125 1.94125,0 0,6.56125 z" />
      <g
         transform="matrix(1.25,0,0,-1.25,-19.30717,902.98557)"
         id="g5331">
        <path
           inkscape:connector-curvature="0"
           id="path5333"
           style="fill:#002b66;fill-opacity:1;fill-rule:nonzero;stroke:none"
           d="m 0,0 -3.462,0 0,5.249 1.553,0 0,-4.145 L 0,1.104 0,0 Z" />
      </g>
      <g
         transform="matrix(1.25,0,0,-1.25,-13.72242,902.98557)"
         id="g5335">
        <path
           inkscape:connector-curvature="0"
           id="path5337"
           style="fill:#002b66;fill-opacity:1;fill-rule:nonzero;stroke:none"
           d="m 0,0 -3.486,0 0,5.249 3.354,0 0,-1.06 -1.802,0 0,-1.02 1.656,0 0,-1.06 -1.656,0 0,-1.054 L 0,1.055 0,0 Z" />
      </g>
      <g
         transform="matrix(1.25,0,0,-1.25,-3.3769196,899.52482)"
         id="g5339">
        <path
           inkscape:connector-curvature="0"
           id="path5341"
           style="fill:#002b66;fill-opacity:1;fill-rule:nonzero;stroke:none"
           d="m 0,0 -0.752,2.354 c -0.056,0.175 -0.095,0.385 -0.117,0.629 l -0.039,0 C -0.925,2.778 -0.965,2.575 -1.03,2.373 L -1.792,0 0,0 Z m 2.578,-2.769 -1.719,0 -0.498,1.558 -2.49,0 -0.493,-1.558 -1.709,0 2.549,7.002 1.87,0 2.49,-7.002 z" />
      </g>
      <g
         transform="matrix(1.25,0,0,-1.25,2.8303304,897.68157)"
         id="g5343">
        <path
           inkscape:connector-curvature="0"
           id="path5345"
           style="fill:#002b66;fill-opacity:1;fill-rule:nonzero;stroke:none"
           d="m 0,0 0,-1.489 0.356,0 c 0.479,0 0.718,0.26 0.718,0.781 C 1.074,-0.236 0.835,0 0.356,0 L 0,0 Z m 0,-2.485 0,-1.758 -1.553,0 0,5.249 2.051,0 c 1.465,0 2.197,-0.557 2.197,-1.67 0,-0.273 -0.05,-0.522 -0.151,-0.745 C 2.443,-1.632 2.3,-1.823 2.114,-1.982 1.929,-2.142 1.706,-2.266 1.445,-2.354 1.185,-2.441 0.894,-2.485 0.571,-2.485 l -0.571,0 z" />
      </g>
      <g
         transform="matrix(1.25,0,0,-1.25,9.4587004,897.68157)"
         id="g5347">
        <path
           inkscape:connector-curvature="0"
           id="path5349"
           style="fill:#002b66;fill-opacity:1;fill-rule:nonzero;stroke:none"
           d="m 0,0 0,-1.489 0.356,0 c 0.479,0 0.718,0.26 0.718,0.781 C 1.074,-0.236 0.835,0 0.356,0 L 0,0 Z m 0,-2.485 0,-1.758 -1.553,0 0,5.249 2.051,0 c 1.465,0 2.197,-0.557 2.197,-1.67 0,-0.273 -0.05,-0.522 -0.151,-0.745 C 2.443,-1.632 2.3,-1.823 2.114,-1.982 1.929,-2.142 1.706,-2.266 1.445,-2.354 1.185,-2.441 0.894,-2.485 0.571,-2.485 l -0.571,0 z" />
      </g>
      <g
         transform="matrix(1.25,0,0,-1.25,13.77396,902.73532)"
         id="g5351">
        <path
           inkscape:connector-curvature="0"
           id="path5353"
           style="fill:#002b66;fill-opacity:1;fill-rule:nonzero;stroke:none"
           d="M 0,0 0,1.27 C 0.237,1.091 0.493,0.957 0.767,0.869 1.04,0.781 1.318,0.737 1.602,0.737 1.901,0.737 2.124,0.778 2.271,0.862 2.417,0.944 2.49,1.057 2.49,1.196 2.49,1.274 2.471,1.342 2.432,1.399 2.393,1.456 2.327,1.511 2.233,1.562 2.142,1.614 2.018,1.672 1.862,1.733 1.708,1.795 1.514,1.87 1.279,1.958 0.833,2.131 0.505,2.351 0.293,2.62 0.081,2.888 -0.024,3.208 -0.024,3.579 c 0,0.274 0.06,0.509 0.183,0.705 C 0.28,4.481 0.446,4.644 0.657,4.771 0.866,4.897 1.109,4.99 1.384,5.049 1.659,5.107 1.951,5.137 2.261,5.137 2.566,5.137 2.835,5.12 3.066,5.088 3.298,5.056 3.513,5.005 3.711,4.937 l 0,-1.192 C 3.613,3.807 3.507,3.86 3.392,3.906 3.275,3.952 3.157,3.99 3.037,4.021 2.917,4.052 2.796,4.075 2.676,4.089 2.556,4.104 2.441,4.111 2.334,4.111 2.058,4.111 1.842,4.072 1.687,3.994 1.532,3.916 1.455,3.811 1.455,3.677 1.455,3.615 1.472,3.562 1.507,3.516 1.54,3.47 1.599,3.425 1.683,3.379 1.765,3.333 1.875,3.284 2.012,3.232 2.148,3.181 2.319,3.117 2.524,3.042 2.977,2.876 3.33,2.654 3.584,2.378 3.838,2.102 3.965,1.751 3.965,1.328 3.965,0.798 3.77,0.395 3.379,0.12 2.988,-0.155 2.415,-0.293 1.66,-0.293 1.338,-0.293 1.034,-0.269 0.749,-0.22 0.465,-0.171 0.215,-0.098 0,0" />
      </g>
      <g
         transform="matrix(1.25,0,0,-1.25,-33.12305,881.61107)"
         id="g5355">
        <path
           inkscape:connector-curvature="0"
           id="path5357"
           style="fill:#002b66;fill-opacity:1;fill-rule:nonzero;stroke:none"
           d="m 0,0 25.602,0 c 3.232,0 5.852,2.62 5.852,5.853 l 0,45.836 c 0,3.232 -2.62,5.853 -5.852,5.853 L 0,57.542 c -3.232,0 -5.853,-2.621 -5.853,-5.853 l 0,-45.836 C -5.853,2.62 -3.232,0 0,0" />
      </g>
      <g
         transform="matrix(1.25,0,0,-1.25,-13.67242,877.53757)"
         id="g5359">
        <path
           inkscape:connector-curvature="0"
           id="path5361"
           style="fill:#0099df;fill-opacity:1;fill-rule:nonzero;stroke:none"
           d="m 0,0 c 0,1.201 -1.299,2.175 -2.901,2.175 -1.602,0 -2.901,-0.974 -2.901,-2.175 0,-1.201 1.299,-2.175 2.901,-2.175 C -1.299,-2.175 0,-1.201 0,0" />
      </g>
      <g
         transform="matrix(1.25,0,0,-1.25,-40.9978,830.45382)"
         id="g5363">
        <path
           inkscape:connector-curvature="0"
           id="path5365"
           style="fill:#2a184d;fill-opacity:1;fill-rule:nonzero;stroke:none"
           d="m 0,0 0.556,0 0,4.274 -0.556,0 c -0.244,0 -0.442,-0.197 -0.442,-0.441 l 0,-3.391 C -0.442,0.198 -0.244,0 0,0" />
      </g>
      <g
         transform="matrix(1.25,0,0,-1.25,-40.9978,837.11582)"
         id="g5367">
        <path
           inkscape:connector-curvature="0"
           id="path5369"
           style="fill:#2a184d;fill-opacity:1;fill-rule:nonzero;stroke:none"
           d="m 0,0 0.556,0 0,4.274 -0.556,0 c -0.244,0 -0.442,-0.197 -0.442,-0.441 l 0,-3.391 C -0.442,0.198 -0.244,0 0,0" />
      </g>
      <g
         transform="matrix(1.25,0,0,-1.25,-21.55442,814.53095)"
         id="g5371">
        <path
           inkscape:connector-curvature="0"
           id="path5373"
           style="fill:#0099df;fill-opacity:1;fill-rule:nonzero;stroke:none"
           d="m 0,0 6.81,0 c 0.273,0 0.495,0.167 0.495,0.372 0,0.205 -0.222,0.372 -0.495,0.372 L 0,0.744 C -0.274,0.744 -0.496,0.577 -0.496,0.372 -0.496,0.167 -0.274,0 0,0" />
      </g>
      <path
         inkscape:connector-curvature="0"
         id="path5375"
         style="fill:#4b94cf;fill-opacity:1;fill-rule:nonzero;stroke:none"
         d="m -38.19192,873.39645 42.5812504,0 0,-55.165 -42.5812504,0 0,55.165 z" />
      <g
         id="g5377"
         transform="matrix(1.25,0,0,-1.25,-257.44942,1024.8889)">
        <g
           id="g5379" />
        <g
           id="g5385">
          <g
             style="opacity:0.36000103"
             id="g5387"
             clip-path="url(#clipPath5381)">
            <g
               id="g5389"
               transform="translate(175.4064,121.1936)">
              <path
                 inkscape:connector-curvature="0"
                 id="path5391"
                 style="fill:#ffffff;fill-opacity:1;fill-rule:nonzero;stroke:none"
                 d="M 0,0 34.065,44.132 0,44.132 0,0 Z" />
            </g>
          </g>
        </g>
      </g>
      <g
         transform="matrix(1.25,0,0,-1.25,-32.01705,827.9307)"
         id="g5393">
        <path
           inkscape:connector-curvature="0"
           id="path5395"
           style="fill:#ffffff;fill-opacity:1;fill-rule:nonzero;stroke:none"
           d="m 0,0 c -0.004,-0.05 -0.008,-0.1 -0.008,-0.15 l 0,-8.486 c 0,-0.913 0.723,-1.648 1.619,-1.648 l 0.065,0 0,-3.357 c 0,-0.721 0.585,-1.305 1.305,-1.305 0.721,0 1.306,0.584 1.306,1.305 l 0,3.357 3.279,0 0,-3.357 c 0,-0.721 0.584,-1.305 1.306,-1.305 0.721,0 1.306,0.584 1.306,1.305 l 0,3.357 0.063,0 c 0.898,0 1.619,0.735 1.619,1.648 l 0,8.486 c 0,0.05 -0.002,0.101 -0.006,0.15 L 0,0 Z" />
      </g>
      <g
         transform="matrix(1.25,0,0,-1.25,-34.64892,828.87482)"
         id="g5397">
        <path
           inkscape:connector-curvature="0"
           id="path5399"
           style="fill:#ffffff;fill-opacity:1;fill-rule:nonzero;stroke:none"
           d="m 0,0 c -0.721,0 -1.306,-0.585 -1.306,-1.306 l 0,-5.601 c 0,-0.721 0.585,-1.305 1.306,-1.305 0.721,0 1.306,0.584 1.306,1.305 l 0,5.601 C 1.306,-0.584 0.721,0 0,0" />
      </g>
      <g
         transform="matrix(1.25,0,0,-1.25,-14.56842,828.87482)"
         id="g5401">
        <path
           inkscape:connector-curvature="0"
           id="path5403"
           style="fill:#ffffff;fill-opacity:1;fill-rule:nonzero;stroke:none"
           d="m 0,0 c -0.722,0 -1.306,-0.585 -1.306,-1.306 l 0,-5.601 c 0,-0.721 0.584,-1.305 1.306,-1.305 0.721,0 1.306,0.584 1.306,1.305 l 0,5.601 C 1.306,-0.584 0.721,0 0,0" />
      </g>
      <g
         transform="matrix(1.25,0,0,-1.25,-28.49055,824.31432)"
         id="g5405">
        <path
           inkscape:connector-curvature="0"
           id="path5407"
           style="fill:#ffffff;fill-opacity:1;fill-rule:nonzero;stroke:none"
           d="M 0,0 C -0.001,0.364 0.301,0.661 0.674,0.662 1.047,0.663 1.351,0.368 1.352,0.004 L 1.352,0 C 1.353,-0.364 1.051,-0.661 0.678,-0.662 0.305,-0.663 0.001,-0.368 0,-0.003 L 0,0 Z M 5.043,0 C 5.042,0.364 5.343,0.661 5.716,0.662 6.089,0.663 6.393,0.368 6.394,0.004 L 6.394,0 C 6.395,-0.364 6.093,-0.661 5.72,-0.662 5.347,-0.663 5.044,-0.368 5.043,-0.003 l 0,0.003 z m 3.95,-2.336 C 8.977,-1.17 8.495,-0.11 7.726,0.744 l 1.154,2 C 8.989,2.933 8.925,3.173 8.736,3.282 8.549,3.39 8.308,3.326 8.198,3.138 L 7.14,1.304 C 6.233,2.05 5.069,2.563 3.762,2.689 l -1.313,0 C 1.141,2.563 -0.023,2.05 -0.929,1.304 l -1.059,1.834 c -0.11,0.19 -0.35,0.254 -0.537,0.144 C -2.714,3.173 -2.779,2.933 -2.67,2.744 l 1.155,-2 c -0.77,-0.854 -1.252,-1.914 -1.267,-3.08 l 11.775,0 z" />
      </g>
      <g
         transform="matrix(1.25,0,0,-1.25,-7.8349196,850.61682)"
         id="g5409">
        <path
           inkscape:connector-curvature="0"
           id="path5411"
           style="fill:#ffffff;fill-opacity:1;fill-rule:nonzero;stroke:none"
           d="m 0,0 c 0.757,0 2.163,1.041 3.992,1.041 3.149,0 4.388,-2.241 4.388,-2.241 0,0 -2.423,-1.238 -2.423,-4.244 0,-3.391 3.019,-4.559 3.019,-4.559 0,0 -2.111,-5.939 -4.96,-5.939 -1.309,0 -2.327,0.882 -3.706,0.882 -1.406,0 -2.8,-0.915 -3.708,-0.915 -2.603,0 -5.89,5.633 -5.89,10.162 0,4.455 2.782,6.792 5.392,6.792 C -2.199,0.979 -0.882,0 0,0 m 0.788,4.479 c 1.473,1.939 3.519,1.949 3.519,1.949 0,0 0.304,-1.824 -1.158,-3.581 -1.561,-1.876 -3.336,-1.569 -3.336,-1.569 0,0 -0.334,1.475 0.975,3.201" />
      </g>
      <g
         transform="matrix(1.25,0,0,-1.25,-37.40167,873.39695)"
         id="g5413">
        <path
           inkscape:connector-curvature="0"
           id="path5415"
           style="fill:#005595;fill-opacity:1;fill-rule:nonzero;stroke:none"
           d="m 0,0 -0.632,0 0,0.818 33.434,43.314 0.632,0 0,-0.819 L 0,0 Z" />
      </g>
    </g>
  </g>
</svg>
