<svg width="744.09448819" height="722.3622" xmlns="http://www.w3.org/2000/svg">

 <metadata id="metadata8043">image/svg+xml</metadata>
 <g>
  <title>Backup</title>
  <g id="layer1">
   <path fill="#6495ed" fill-rule="nonzero" id="path1148-5" d="m113.945055,219.360709l-77.873021,0l78.751451,-37.16605l-0.87843,37.16605"/>
   <path fill="#6495ed" fill-rule="nonzero" id="path1232-4" d="m306.694995,235.344279l-246.56921,0l-0.516557,10.97594l247.601597,0l-0.51656,-10.97594l0.00073,0zm5.5423,119.05097l-257.653815,0l-0.552782,11.98116l258.758657,0l-0.55278,-11.98116l0.00072,0zm-4.47369,-96.05764l-248.706434,0l-0.525251,11.15706l249.756935,0l-0.52525,-11.15706zm1.08673,23.36462l-250.879891,0l-0.533945,11.38353l251.948506,0l-0.53395,-11.38353l-0.00072,0zm1.11389,23.79938l-253.098619,0l-0.543364,11.59175l254.176293,0l-0.53394,-11.59175l-0.00037,0zm1.12295,24.23401l-255.353576,0l-0.543364,11.79098l256.44936,0l-0.55278,-11.79098l0.00036,0zm-277.685808,71.46133l9.327737,-175.17135l77.873021,0l0.87843,-37.16605l200.6369,0l11.30196,212.3374l-300.018048,0"/>
   <path fill="#6495ed" fill-rule="nonzero" id="path1238-8" d="m198.050225,594.723169l-9.05605,0l0,-26.65197l9.05605,0l0,26.65197zm0,53.28582l-9.05605,0l0,-26.6429l9.05605,0l0,26.6429"/>
   <path fill="#6495ed" fill-rule="nonzero" id="path1240-2" d="m207.106285,692.773069l-18.11211,0l0,-18.11211l9.05605,0l0,9.05606l9.05606,0l0,9.05605"/>
   <path fill="#6495ed" fill-rule="nonzero" id="path1242-6" d="m258.861635,692.773069l-25.8822,0l0,-9.05605l25.8822,0l0,9.05605zm51.75535,0l-25.8822,0l0,-9.05605l25.8822,0l0,9.05605zm51.75536,0l-25.88221,0l0,-9.05605l25.88221,0l0,9.05605zm51.75535,0l-25.87315,0l0,-9.05605l25.87315,0l0,9.05605zm51.75536,0l-25.87315,0l0,-9.05605l25.87315,0l0,9.05605zm51.75535,0l-25.87315,0l0,-9.05605l25.87315,0l0,9.05605"/>
   <path fill="#6495ed" fill-rule="nonzero" id="path1244-0" d="m561.623675,692.773069l-18.11212,0l0,-9.05605l9.05605,0l0,-9.05606l9.05607,0l0,18.11211"/>
   <path fill="#6495ed" fill-rule="nonzero" id="path1246-6" d="m552.567605,652.165719l9.05607,0l0,-22.48799l-9.05607,0l0,22.48799z"/>
   <path fill="#6495ed" fill-rule="nonzero" id="path1248-6" d="m552.567605,607.202419l9.05607,0l0,-13.58409l-9.05607,0l0,13.58409z"/>
   <path fill="#6495ed" fill-rule="nonzero" id="path1250-4" d="m579.672385,600.220199l-22.56769,-39.10405l-22.5858,39.10405l45.15349,0"/>
   <path fill="#ffffff" fill-rule="nonzero" id="path1252-6" d="m552.567605,148.531349l9.05607,0l0,-13.58409l-9.05607,0l0,13.58409z"/>
   <path fill="#6495ed" fill-rule="nonzero" id="path1254-2" d="m552.567605,105.859219l9.05607,0l0,-29.08204l-9.05607,0l0,29.08204z"/>
   <path fill="#6495ed" fill-rule="nonzero" id="path1256-8" d="m561.623675,47.70123l-9.05607,0l0,-9.056055l-9.05605,0l0,-9.056055l18.11212,0l0,18.11211"/>
   <path fill="#6495ed" fill-rule="nonzero" id="path1258-9" d="m258.861635,38.645175l-25.8822,0l0,-9.056055l25.8822,0l0,9.056055zm51.75535,0l-25.8822,0l0,-9.056055l25.8822,0l0,9.056055zm51.75536,0l-25.88221,0l0,-9.056055l25.88221,0l0,9.056055zm51.75535,0l-25.87315,0l0,-9.056055l25.87315,0l0,9.056055zm51.75536,0l-25.87315,0l0,-9.056055l25.87315,0l0,9.056055zm51.75535,0l-25.87315,0l0,-9.056055l25.87315,0l0,9.056055"/>
   <path fill="#6495ed" fill-rule="nonzero" id="path1260-6" d="m198.050225,47.70123l-9.05605,0l0,-18.11211l18.11211,0l0,9.056055l-9.05606,0l0,9.056055"/>
   <path fill="#6495ed" fill-rule="nonzero" id="path1262-0" d="m188.994175,92.673599l9.05605,0l0,-22.484518l-9.05605,0l0,22.484518z"/>
   <path fill="#6495ed" fill-rule="nonzero" id="path1264-7" d="m188.994175,128.743869l9.05605,0l0,-13.58409l-9.05605,0l0,13.58409z"/>
   <path fill="#6495ed" fill-rule="nonzero" id="path1266-0" d="m170.945455,122.141999l22.56769,39.09499l22.5858,-39.09499l-45.15349,0"/>
   <path fill="#6495ed" fill-rule="nonzero" id="path1268-1" d="m402.400105,428.644179l0,50.15243c0,41.5039 69.25165,75.19243 154.71364,75.19243c85.44389,0 154.68649,-33.68853 154.68649,-75.19243l0,-50.15243l-309.40013,0"/>
   <path fill="#6495ed" fill-rule="nonzero" id="path1270-0" d="m711.800235,428.644179c0,41.53107 -69.2426,75.20148 -154.68649,75.20148c-85.46199,0 -154.71364,-33.67041 -154.71364,-75.20148c0,-41.53107 69.25165,-75.21959 154.71364,-75.21959c85.44389,0 154.68649,33.68852 154.68649,75.21959"/>
   <path fill="#ffffff" fill-rule="nonzero" id="path1272-1" d="m402.400105,367.896169l0,50.15243c0,41.51295 69.25165,75.19242 154.71364,75.19242c85.44389,0 154.68649,-33.67947 154.68649,-75.19242l0,-50.15243l-309.40013,0"/>
   <path fill="#6495ed" fill-rule="nonzero" id="path1274-3" d="m711.800235,367.896169c0,41.54012 -69.2426,75.21053 -154.68649,75.21053c-85.46199,0 -154.71364,-33.67041 -154.71364,-75.21053c0,-41.52202 69.25165,-75.21054 154.71364,-75.21054c85.44389,0 154.68649,33.68852 154.68649,75.21054"/>
   <path fill="#ffffff" fill-rule="nonzero" id="path1276-7" d="m402.400105,307.157199l0,50.15244c0,41.5039 69.25165,75.19242 154.71364,75.19242c85.44389,0 154.68649,-33.68852 154.68649,-75.19242l0,-50.15244l-309.40013,0"/>
   <path fill="#6495ed" fill-rule="nonzero" id="path1278-7" d="m711.800235,307.157199c0,41.54013 -69.2426,75.20149 -154.68649,75.20149c-85.46199,0 -154.71364,-33.66136 -154.71364,-75.20149c0,-41.53106 69.25165,-75.21053 154.71364,-75.21053c85.44389,0 154.68649,33.67947 154.68649,75.21053"/>
   <path fill="#ffffff" fill-rule="nonzero" id="path1280-2" d="m402.400105,246.418239l0,50.15244c0,41.5039 69.25165,75.19242 154.71364,75.19242c85.44389,0 154.68649,-33.68852 154.68649,-75.19242l0,-50.15244l-309.40013,0"/>
   <path fill="#6495ed" fill-rule="nonzero" id="path1282-6" d="m711.800235,246.418239c0,41.53107 -69.2426,75.20148 -154.68649,75.20148c-85.46199,0 -154.71364,-33.67041 -154.71364,-75.20148c0,-41.53106 69.25165,-75.21959 154.71364,-75.21959c85.44389,0 154.68649,33.68853 154.68649,75.21959"/>
   <path fill="#ffffff" fill-rule="nonzero" id="path1284-4" d="m402.400105,185.670229l0,50.15243c0,41.51296 69.25165,75.19242 154.71364,75.19242c85.44389,0 154.68649,-33.67946 154.68649,-75.19242l0,-50.15243l-309.40013,0"/>
   <path fill="#6495ed" fill-rule="nonzero" id="path1286-5" d="m711.800235,185.670229c0,41.54012 -69.2426,75.20148 -154.68649,75.20148c-85.46199,0 -154.71364,-33.66136 -154.71364,-75.20148c0,-41.52201 69.25165,-75.21054 154.71364,-75.21054c85.44389,0 154.68649,33.68853 154.68649,75.21054"/>
   <rect fill="#6495ed" y="415.731039" x="33.034953" height="21.485834" width="300.80167" id="rect7253"/>
   <rect fill="#6495ed" y="451.664299" x="33.034953" height="21.485834" width="300.80167" id="rect7253-2"/>
   <rect fill="#6495ed" y="485.745199" x="32.294284" height="21.485834" width="300.80167" id="rect7253-2-0"/>
   <rect fill="#6495ed" y="522.048579" x="33.034953" height="21.485834" width="300.80167" id="rect7253-2-2"/>
  </g>
 </g>
</svg>
