<svg width="744.09448819" height="842.3622" xmlns="http://www.w3.org/2000/svg">

 <metadata id="metadata8194">image/svg+xml</metadata>
 <g>
  <title>BigData</title>
  <g id="layer1">
   <path fill="#6495ed" fill-rule="nonzero" id="path578-9" d="m90.707703,129.37196l11.152227,-1.08786c5.40354,-0.51829 8.16471,-2.8143 7.56078,-9.04008l-3.71285,-38.086583c-0.52014,-5.30071 -3.11807,-8.003033 -8.656674,-7.470606l-12.103819,1.176735c-6.915174,0.681817 -7.764027,5.729201 -7.438362,9.03204l3.703614,38.036874c0.684588,7.01108 5.615934,7.82288 9.495084,7.43948zm-29.493474,-45.80091c-1.348851,-13.822219 6.289252,-21.98813 19.123022,-23.245703l18.874685,-1.836194c15.495624,-1.51635 21.287094,7.528348 22.361094,18.558259l4.20482,43.166668c1.33499,13.69528 -5.69336,21.28368 -18.4243,22.53322l-18.868958,1.83619c-12.942232,1.25767 -21.780259,-4.6782 -23.129111,-18.49128l-4.141252,-42.52116"/>
   <path fill="#6495ed" fill-rule="nonzero" id="path580-1" d="m190.7548,236.79395l11.13385,-1.24492c5.39541,-0.61345 8.12425,-2.94604 7.42561,-9.15787l-4.26366,-38.02773c-0.59128,-5.29147 -3.23013,-7.95795 -8.76061,-7.34939l-12.08543,1.36271c-6.90132,0.77605 -7.67737,5.83313 -7.30782,9.13477l4.25904,37.97461c0.78437,7.00987 5.72459,7.73622 9.59902,7.30782zm-30.15164,-45.37251c-1.54748,-13.79912 5.96821,-22.08162 18.78341,-23.52517l18.84355,-2.11105c15.47253,-1.73225 21.39103,7.21775 22.62791,18.24756l4.83065,43.08473c1.53362,13.67329 -5.38617,21.37837 -18.09402,22.79541l-18.84697,2.11566c-12.92033,1.44355 -21.84262,-4.35374 -23.38548,-18.14372l-4.75905,-42.46342"/>
   <path fill="#6495ed" fill-rule="nonzero" id="path582-4" d="m557.02347,98.863425l10.86361,2.733545c5.26376,1.33038 8.6382,0.0952 10.16258,-5.958963l9.34727,-37.11772c1.29915,-5.160928 -0.23466,-8.588489 -5.63451,-9.94196l-11.79201,-2.977175c-6.73502,-1.687265 -9.23409,2.769304 -10.04599,6.003961l-9.3334,37.049537c-1.7184,6.834336 2.65271,9.260699 6.43245,10.208775zm-12.32786,-53.06826c3.3871,-13.466621 13.33377,-18.581356 25.83947,-15.428646l18.38624,4.633213c15.09947,3.798219 17.50384,14.250711 14.7969,25.013808l-10.58756,42.04768c-3.36058,13.33488 -12.54035,18.11711 -24.94221,15.00015l-18.38734,-4.62859c-12.61195,-3.17581 -18.92781,-11.74702 -15.54062,-25.19969l10.43512,-41.437925"/>
   <path fill="#6495ed" fill-rule="nonzero" id="path584-9" d="m533.87246,223.90595l11.13838,-1.24492c5.3954,-0.60051 8.11971,-2.93218 7.42561,-9.14863l-4.26367,-38.03697c-0.59497,-5.27872 -3.23354,-7.95795 -8.76522,-7.33554l-12.07962,1.35347c-6.90704,0.77144 -7.68309,5.84118 -7.31354,9.14402l4.25904,37.96999c0.78529,7.00063 5.72911,7.74084 9.59902,7.29858zm-30.15173,-45.35865c-1.54748,-13.80374 5.97283,-22.08163 18.78461,-23.52517l18.84697,-2.11567c15.46911,-1.73226 21.39112,7.21774 22.62791,18.23832l4.82612,43.09859c1.53473,13.67329 -5.38617,21.37375 -18.09291,22.7942l-18.84346,2.11105c-12.92385,1.44355 -21.84724,-4.36178 -23.3901,-18.13901l-4.75914,-42.46231"/>
   <path fill="#6495ed" fill-rule="nonzero" id="path586-1" d="m668.66404,352.69357l11.13385,-1.24612c5.39541,-0.59959 8.11962,-2.94484 7.42561,-9.14743l-4.26366,-38.03808c-0.59128,-5.29147 -3.23013,-7.95804 -8.76061,-7.33443l-12.08543,1.35237c-6.90594,0.77143 -7.67737,5.82842 -7.30782,9.13588l4.25442,37.97803c0.78529,7.00183 5.7292,7.74093 9.60364,7.29978zm-30.15626,-45.37251c-1.54748,-13.80032 5.97283,-22.08282 18.78803,-23.51252l18.84355,-2.11104c15.47253,-1.73688 21.39106,7.21774 22.62794,18.23379l4.83064,43.09859c1.52901,13.67329 -5.39078,21.36452 -18.09866,22.79531l-18.84235,2.11567c-12.92375,1.44355 -21.84262,-4.3676 -23.3901,-18.15749l-4.75905,-42.46231"/>
   <path fill="#6495ed" fill-rule="nonzero" id="path588-0" d="m382.21442,817.44796l11.13837,-1.24491c5.39079,-0.61345 8.11972,-2.94595 7.4245,-9.16249l-4.26255,-38.02764c-0.5959,-5.28805 -3.23466,-7.95342 -8.76523,-7.34478l-12.08534,1.36271c-6.90132,0.77605 -7.67737,5.83305 -7.30782,9.13478l4.25905,37.97452c0.78436,7.00525 5.7291,7.73631 9.59902,7.30781zm-30.15174,-45.37241c-1.54748,-13.80383 5.96821,-22.08172 18.78461,-23.52527l18.84697,-2.11104c15.46791,-1.73226 21.39112,7.21774 22.62329,18.24303l4.83074,43.08935c1.53362,13.67329 -5.38617,21.37375 -18.09402,22.7942l-18.84235,2.11567c-12.92495,1.44355 -21.84723,-4.35725 -23.39472,-18.14372l-4.75452,-42.46222"/>
   <path fill="#6495ed" fill-rule="nonzero" id="path590-7" d="m289.90464,209.85387l9.52742,5.90003c4.61012,2.85134 8.20056,2.70232 11.48954,-2.61105l20.15997,-32.5295c2.80164,-4.52927 2.37786,-8.2606 -2.35467,-11.17884l-10.3347,-6.41055c-5.90584,-3.66315 -9.64059,-0.16168 -11.39594,2.66657l-20.12302,32.48903c-3.71286,5.99019 -0.28086,9.6175 3.0314,11.67431zm4.33878,-54.31327c7.31354,-11.80125 18.34226,-13.65943 29.30398,-6.87009l16.11924,9.98705c13.23446,8.20166 12.36029,18.89196 6.51791,28.31664l-22.8392,36.86357c-7.25007,11.69741 -17.44499,13.47466 -28.31664,6.74426l-16.11813,-9.98705c-11.05181,-6.85281 -14.48048,-16.92994 -7.17266,-28.72195l22.5055,-36.33243"/>
   <path fill="#6495ed" fill-rule="nonzero" id="path592-5" d="m472.86464,106.36988l10.57481,-3.69891c5.12869,-1.78658 7.26283,-4.673674 5.20491,-10.579519l-12.62128,-36.119847c-1.75536,-5.024749 -4.92193,-7.045717 -10.17755,-5.210632l-11.4803,4.006089c-6.55948,2.300439 -6.18532,7.402517 -5.08822,10.547189l12.59929,36.06561c2.32243,6.66342 7.30782,6.27078 10.98834,4.99002zm-39.499,-37.523024c-4.57889,-13.105111 0.90632,-22.85426 13.08202,-27.116723l17.9,-6.247678c14.69768,-5.137924 22.46161,2.278451 26.12014,12.73898l14.29921,40.937926c4.53852,12.991939 -0.49519,22.036629 -12.56695,26.250589l-17.9,6.26154c-12.27474,4.28103 -22.2676,0.60883 -26.84187,-12.48722l-14.09255,-40.337414"/>
   <path fill="#6495ed" fill-rule="nonzero" id="path594-8" d="m188.69346,93.95536l9.5228,5.900118c4.61474,2.865112 8.20629,2.702322 11.49407,-2.598387l20.16006,-32.543357c2.80164,-4.51542 2.37777,-8.245549 -2.35476,-11.177731l-10.33922,-6.410464c-5.90474,-3.663148 -9.6406,-0.153362 -11.39022,2.666477l-20.12884,32.483305c-3.71276,5.995923 -0.27901,9.622117 3.03611,11.680039zm4.33989,-54.305138c7.31244,-11.809381 18.34226,-13.673291 29.30398,-6.879328l16.11814,9.988154c13.23556,8.200556 12.35557,18.892054 6.5144,28.329396l-22.84041,36.850906c-7.24425,11.69731 -17.44379,13.47466 -28.31082,6.74426l-16.12275,-9.99167c-11.05292,-6.848191 -14.47706,-16.931135 -7.16804,-28.718528l22.5055,-36.32319"/>
   <path fill="#6495ed" fill-rule="nonzero" id="path596-7" d="m635.04327,216.26433l9.5228,5.90012c4.61473,2.86511 8.20166,2.70232 11.49406,-2.59839l20.15545,-32.54224c2.80626,-4.51653 2.37777,-8.24666 -2.35014,-11.17884l-10.33923,-6.41047c-5.90474,-3.66314 -9.64059,-0.1626 -11.39022,2.66648l-20.12884,32.48451c-3.71276,5.99472 -0.27901,9.62211 3.03612,11.67883zm4.33526,-54.30513c7.31706,-11.814 18.34688,-13.67209 29.30399,-6.87933l16.12275,9.98815c13.23559,8.20056 12.3556,18.89206 6.51329,28.31554l-22.83929,36.86476c-7.24426,11.69732 -17.4438,13.47466 -28.31203,6.74426l-16.12155,-9.99166c-11.05291,-6.8482 -14.47706,-16.92994 -7.16924,-28.71743l22.50208,-36.32429"/>
   <path fill="#6495ed" fill-rule="nonzero" id="path598-0" d="m386.19399,304.16724l9.52742,5.90003c4.61474,2.85596 8.20046,2.70232 11.49406,-2.60643l20.15545,-32.53411c2.80164,-4.52466 2.37666,-8.25599 -2.35014,-11.18808l-10.33923,-6.40132c-5.90584,-3.65853 -9.64059,-0.15706 -11.39595,2.67119l-20.12311,32.47517c-3.71276,5.9902 -0.28085,9.63136 3.0315,11.68355zm4.33868,-54.30865c7.31706,-11.80587 18.34235,-13.66405 29.30408,-6.8747l16.12266,9.99166c13.23103,8.19705 12.35678,18.89196 6.51449,28.31545l-22.83929,36.86014c-7.25008,11.70203 -17.44499,13.46662 -28.31203,6.73502l-16.12266,-9.98705c-11.0518,-6.85281 -14.47595,-16.92069 -7.17275,-28.72194l22.5055,-36.31858"/>
   <path fill="#6495ed" fill-rule="nonzero" id="path600-4" d="m493.19673,323.97504l11.07952,1.66066c5.36308,0.81208 8.60235,-0.74926 9.53084,-6.92904l5.69336,-37.84406c0.79453,-5.25452 -1.06938,-8.5216 -6.56752,-9.34154l-12.0265,-1.81421c-6.87129,-1.03704 -8.92348,3.66315 -9.42006,6.9429l-5.68412,37.78512c-1.0509,6.97412 3.53732,8.96275 7.39448,9.54017zm-17.43114,-51.62481c2.06596,-13.72641 11.46755,-19.78931 24.21577,-17.87228l18.75227,2.82825c15.39632,2.30967 18.8066,12.4826 17.15629,23.45357l-6.45093,42.87685c-2.04406,13.60631 -10.71921,19.26271 -23.3635,17.35954l-18.74765,-2.82012c-12.86149,-1.93892 -19.98453,-9.84726 -17.91848,-23.57026l6.35623,-42.25555"/>
   <path fill="#6495ed" fill-rule="nonzero" id="path602-8" d="m78.285056,291.83357l10.979099,-2.23697c5.319187,-1.07862 7.827497,-3.64929 6.577961,-9.77105l-7.646234,-37.51036c-1.064761,-5.20943 -3.934489,-7.63229 -9.383018,-6.52715l-11.914518,2.44022c-6.811239,1.38581 -7.127665,6.48788 -6.463587,9.74453l7.632284,37.45142c1.407794,6.90594 6.396698,7.19465 10.218013,6.40936zm-34.09084,-42.48541c-2.773923,-13.61435 3.973846,-22.53202 16.610092,-25.10851l18.581356,-3.78436c15.251909,-3.10883 21.951176,5.26376 24.164956,16.14465l8.66129,42.48531c2.75203,13.47466 -3.45528,21.77102 -15.981768,24.3198l-18.581356,3.78898c-12.739072,2.59839 -22.149807,-2.39052 -24.919111,-15.98297l-8.535459,-41.8629"/>
   <path fill="#6495ed" fill-rule="nonzero" id="path604-0" d="m140.17638,291.1984l12.85677,-13.9401l15.36056,-4.69558l24.75623,80.94265l-15.48177,4.73142l-20.05604,-65.57294l-14.34079,8.66129l-3.09496,-10.12674"/>
   <path fill="#6495ed" fill-rule="nonzero" id="path608-4" d="m275.27976,269.31421l18.15638,-5.48548l15.62266,3.74509l-19.76391,82.31349l-15.73925,-3.78445l16.00606,-66.68381l-16.74978,0.1857l2.46784,-10.29082"/>
   <path fill="#6495ed" fill-rule="nonzero" id="path610-2" d="m629.00226,41.720894l16.07767,-10.059847l16.05576,-0.48688l2.53945,84.605803l-16.18622,0.48226l-2.0521,-68.537375l-16.11813,4.574362l-0.31597,-10.578323"/>
   <path fill="#6495ed" fill-rule="nonzero" id="path614-9" d="m383.83923,153.56472l8.90039,-16.74516l13.66747,-8.44077l44.47053,72.0285l-13.77141,8.49961l-36.03097,-58.34245l-11.67431,12.00912l-5.5617,-9.00885"/>
   <path fill="#6495ed" fill-rule="nonzero" id="path618-6" d="m579.23684,269.31421l18.15637,-5.48548l15.61804,3.74509l-19.75929,82.31349l-15.74276,-3.78445l16.00948,-66.68381l-16.7544,0.1857l2.47256,-10.29082"/>
   <path fill="#6495ed" fill-rule="nonzero" id="path620-1" d="m732.43316,436.72075l-352.43373,271.67579l-352.432583,-271.67579l704.866313,0"/>
   <path fill="#6495ed" fill-rule="nonzero" id="path622-0" d="m329.38978,771.01079l101.21524,0l0,-123.91537l-101.21524,0l0,123.91537z"/>
   <path fill="#6495ed" fill-rule="nonzero" id="path624-4" d="m27.566847,436.72075l704.866313,0l0,-86.99632l-704.866313,0l0,86.99632z"/>
  </g>
 </g>
</svg>
