<svg width="744.0944881900001" height="812.3622" xmlns="http://www.w3.org/2000/svg">

 <metadata id="metadata8332">image/svg+xml</metadata>
 <g>
  <title>Data warehouse</title>
  <g id="layer1">
   <path fill="#6495ed" fill-rule="nonzero" id="path876-2" d="m365.241485,765.050138l13.61018,0l0,-284.46358l-13.61018,0l0,284.46358z"/>
   <path fill="#6495ed" fill-rule="nonzero" id="path878-2" d="m12.887576,771.855228l718.319309,0l0,-13.61018l-718.319309,0l0,13.61018z"/>
   <path fill="#6495ed" fill-rule="nonzero" id="path880-2" d="m399.824955,765.040668c0,-15.34412 -12.4397,-27.76891 -27.77838,-27.76891c-15.33867,0 -27.77837,12.42479 -27.77837,27.76891c0,15.33725 12.4397,27.77293 27.77837,27.77293c15.33868,0 27.77838,-12.43568 27.77838,-27.77293"/>
   <path fill="#6495ed" fill-rule="nonzero" id="path882-0" d="m167.295055,627.388798l408.75721,0l0,-607.840236l-408.75721,0l0,607.840236z"/>
   <path fill="#ffffff" fill-rule="nonzero" id="path884-5" d="m178.605115,165.527198l386.88021,0l0,-133.911307l-386.88021,0l0,133.911307z"/>
   <path fill="#6495ed" fill-rule="nonzero" id="path886-5" d="m285.567505,95.897526l45.50906,0l0,-45.524958l-45.50906,0l0,45.524958z"/>
   <path fill="#6495ed" fill-rule="nonzero" id="path888-2" d="m338.470265,95.897526l45.51429,0l0,-45.524958l-45.51429,0l0,45.524958z"/>
   <path fill="#6495ed" fill-rule="nonzero" id="path890-9" d="m391.359425,95.897526l45.53029,0l0,-45.524958l-45.53029,0l0,45.524958z"/>
   <path fill="#6495ed" fill-rule="nonzero" id="path892-0" d="m444.262185,95.897526l45.51429,0l0,-45.524958l-45.51429,0l0,45.524958z"/>
   <path fill="#6495ed" fill-rule="nonzero" id="path894-2" d="m497.164955,95.897526l45.51428,0l0,-45.524958l-45.51428,0l0,45.524958z"/>
   <path fill="#6495ed" fill-rule="nonzero" id="path896-8" d="m285.567505,149.141958l45.50906,0l0,-45.51439l-45.50906,0l0,45.51439z"/>
   <path fill="#6495ed" fill-rule="nonzero" id="path898-3" d="m338.470265,149.141958l45.51429,0l0,-45.51439l-45.51429,0l0,45.51439z"/>
   <path fill="#6495ed" fill-rule="nonzero" id="path900-8" d="m391.359425,149.141958l45.53029,0l0,-45.51439l-45.53029,0l0,45.51439z"/>
   <path fill="#6495ed" fill-rule="nonzero" id="path902-0" d="m444.262185,149.141958l45.51429,0l0,-45.51439l-45.51429,0l0,45.51439z"/>
   <path fill="#6495ed" fill-rule="nonzero" id="path904-4" d="m497.164955,149.141958l45.51428,0l0,-45.51439l-45.51428,0l0,45.51439z"/>
   <path fill="#6495ed" fill-rule="nonzero" id="path906-0" d="m251.487615,126.388468c0,11.63125 -9.43185,21.06855 -21.06855,21.06855c-11.65032,0 -21.08217,-9.4373 -21.08217,-21.06855c0,-11.63812 9.43185,-21.08631 21.08217,-21.08631c11.6367,0 21.06855,9.44819 21.06855,21.08631"/>
   <path fill="#6495ed" fill-rule="nonzero" id="path908-9" d="m251.487615,69.278739c0,11.636703 -9.43185,21.068557 -21.06855,21.068557c-11.65032,0 -21.08217,-9.431854 -21.08217,-21.068557c0,-11.654341 9.43185,-21.086195 21.08217,-21.086195c11.6367,0 21.06855,9.431854 21.06855,21.086195"/>
   <path fill="#ffffff" fill-rule="nonzero" id="path910-1" d="m178.605115,315.511368l386.88021,0l0,-133.90608l-386.88021,0l0,133.90608z"/>
   <path fill="#6495ed" fill-rule="nonzero" id="path912-9" d="m285.567505,245.880388l45.50906,0l0,-45.50906l-45.50906,0l0,45.50906z"/>
   <path fill="#6495ed" fill-rule="nonzero" id="path914-6" d="m338.470265,245.880388l45.51429,0l0,-45.50906l-45.51429,0l0,45.50906z"/>
   <path fill="#6495ed" fill-rule="nonzero" id="path916-2" d="m391.359425,245.880388l45.53029,0l0,-45.50906l-45.53029,0l0,45.50906z"/>
   <path fill="#6495ed" fill-rule="nonzero" id="path918-5" d="m444.262185,245.880388l45.51429,0l0,-45.50906l-45.51429,0l0,45.50906z"/>
   <path fill="#6495ed" fill-rule="nonzero" id="path920-4" d="m497.164955,245.880388l45.51428,0l0,-45.50906l-45.51428,0l0,45.50906z"/>
   <path fill="#6495ed" fill-rule="nonzero" id="path922-4" d="m285.567505,299.141048l45.50906,0l0,-45.5303l-45.50906,0l0,45.5303z"/>
   <path fill="#6495ed" fill-rule="nonzero" id="path924-9" d="m338.470265,299.141048l45.51429,0l0,-45.5303l-45.51429,0l0,45.5303z"/>
   <path fill="#6495ed" fill-rule="nonzero" id="path926-9" d="m391.359425,299.141048l45.53029,0l0,-45.5303l-45.53029,0l0,45.5303z"/>
   <path fill="#6495ed" fill-rule="nonzero" id="path928-3" d="m444.262185,299.141048l45.51429,0l0,-45.5303l-45.51429,0l0,45.5303z"/>
   <path fill="#6495ed" fill-rule="nonzero" id="path930-6" d="m497.164955,299.141048l45.51428,0l0,-45.5303l-45.51428,0l0,45.5303z"/>
   <path fill="#6495ed" fill-rule="nonzero" id="path932-0" d="m251.487615,276.371218c0,11.63812 -9.43185,21.07944 -21.06855,21.07944c-11.65032,0 -21.08217,-9.44132 -21.08217,-21.07944c0,-11.63801 9.43185,-21.06986 21.08217,-21.06986c11.6367,0 21.06855,9.43185 21.06855,21.06986"/>
   <path fill="#6495ed" fill-rule="nonzero" id="path934-5" d="m251.487615,219.261598c0,11.63801 -9.43185,21.07945 -21.06855,21.07945c-11.65032,0 -21.08217,-9.44144 -21.08217,-21.07945c0,-11.63812 9.43185,-21.06997 21.08217,-21.06997c11.6367,0 21.06855,9.43185 21.06855,21.06997"/>
   <path fill="#ffffff" fill-rule="nonzero" id="path936-0" d="m178.605115,465.510558l386.88021,0l0,-133.92198l-386.88021,0l0,133.92198z"/>
   <path fill="#6495ed" fill-rule="nonzero" id="path938-2" d="m285.567505,395.879468l45.50906,0l0,-45.52495l-45.50906,0l0,45.52495z"/>
   <path fill="#6495ed" fill-rule="nonzero" id="path940-9" d="m338.470265,395.879468l45.51429,0l0,-45.52495l-45.51429,0l0,45.52495z"/>
   <path fill="#6495ed" fill-rule="nonzero" id="path942-4" d="m391.359425,395.879468l45.53029,0l0,-45.52495l-45.53029,0l0,45.52495z"/>
   <path fill="#6495ed" fill-rule="nonzero" id="path944-3" d="m444.262185,395.879468l45.51429,0l0,-45.52495l-45.51429,0l0,45.52495z"/>
   <path fill="#6495ed" fill-rule="nonzero" id="path946-5" d="m497.164955,395.879468l45.51428,0l0,-45.52495l-45.51428,0l0,45.52495z"/>
   <path fill="#6495ed" fill-rule="nonzero" id="path948-1" d="m285.567505,449.123908l45.50906,0l0,-45.5144l-45.50906,0l0,45.5144z"/>
   <path fill="#6495ed" fill-rule="nonzero" id="path950-7" d="m338.470265,449.123908l45.51429,0l0,-45.5144l-45.51429,0l0,45.5144z"/>
   <path fill="#6495ed" fill-rule="nonzero" id="path952-4" d="m391.359425,449.123908l45.53029,0l0,-45.5144l-45.53029,0l0,45.5144z"/>
   <path fill="#6495ed" fill-rule="nonzero" id="path954-3" d="m444.262185,449.123908l45.51429,0l0,-45.5144l-45.51429,0l0,45.5144z"/>
   <path fill="#6495ed" fill-rule="nonzero" id="path956-1" d="m497.164955,449.123908l45.51428,0l0,-45.5144l-45.51428,0l0,45.5144z"/>
   <path fill="#6495ed" fill-rule="nonzero" id="path958-4" d="m251.487615,426.370408c0,11.63257 -9.43185,21.06311 -21.06855,21.06311c-11.65032,0 -21.08217,-9.43054 -21.08217,-21.06311c0,-11.63812 9.43185,-21.08489 21.08217,-21.08489c11.6367,0 21.06855,9.44677 21.06855,21.08489"/>
   <path fill="#6495ed" fill-rule="nonzero" id="path960-6" d="m251.487615,369.260688c0,11.63812 -9.43185,21.06855 -21.06855,21.06855c-11.65032,0 -21.08217,-9.43043 -21.08217,-21.06855c0,-11.65434 9.43185,-21.08489 21.08217,-21.08489c11.6367,0 21.06855,9.43055 21.06855,21.08489"/>
   <path fill="#ffffff" fill-rule="nonzero" id="path962-9" d="m178.605115,615.493318l386.88021,0l0,-133.91131l-386.88021,0l0,133.91131z"/>
   <path fill="#6495ed" fill-rule="nonzero" id="path964-4" d="m285.567505,545.863638l45.50906,0l0,-45.50906l-45.50906,0l0,45.50906z"/>
   <path fill="#6495ed" fill-rule="nonzero" id="path966-2" d="m338.470265,545.863638l45.51429,0l0,-45.50906l-45.51429,0l0,45.50906z"/>
   <path fill="#6495ed" fill-rule="nonzero" id="path968-2" d="m391.359425,545.863638l45.53029,0l0,-45.50906l-45.53029,0l0,45.50906z"/>
   <path fill="#6495ed" fill-rule="nonzero" id="path970-6" d="m444.262185,545.863638l45.51429,0l0,-45.50906l-45.51429,0l0,45.50906z"/>
   <path fill="#6495ed" fill-rule="nonzero" id="path972-4" d="m497.164955,545.863638l45.51428,0l0,-45.50906l-45.51428,0l0,45.50906z"/>
   <path fill="#6495ed" fill-rule="nonzero" id="path974-1" d="m285.567505,599.108078l45.50906,0l0,-45.5144l-45.50906,0l0,45.5144z"/>
   <path fill="#6495ed" fill-rule="nonzero" id="path976-2" d="m338.470265,599.108078l45.51429,0l0,-45.5144l-45.51429,0l0,45.5144z"/>
   <path fill="#6495ed" fill-rule="nonzero" id="path978-8" d="m391.359425,599.108078l45.53029,0l0,-45.5144l-45.53029,0l0,45.5144z"/>
   <path fill="#6495ed" fill-rule="nonzero" id="path980-8" d="m444.262185,599.108078l45.51429,0l0,-45.5144l-45.51429,0l0,45.5144z"/>
   <path fill="#6495ed" fill-rule="nonzero" id="path982-9" d="m497.164955,599.108078l45.51428,0l0,-45.5144l-45.51428,0l0,45.5144z"/>
   <path fill="#6495ed" fill-rule="nonzero" id="path984-2" d="m251.487615,576.353168c0,11.63811 -9.43185,21.07944 -21.06855,21.07944c-11.65032,0 -21.08217,-9.44133 -21.08217,-21.07944c0,-11.63801 9.43185,-21.06987 21.08217,-21.06987c11.6367,0 21.06855,9.43186 21.06855,21.06987"/>
   <path fill="#6495ed" fill-rule="nonzero" id="path986-8" d="m251.487615,519.243548c0,11.63801 -9.43185,21.06856 -21.06855,21.06856c-11.65032,0 -21.08217,-9.43055 -21.08217,-21.06856c0,-11.63812 9.43185,-21.06856 21.08217,-21.06856c11.6367,0 21.06855,9.43044 21.06855,21.06856"/>
  </g>
 </g>
</svg>
