<svg width="380" height="530" xmlns="http://www.w3.org/2000/svg">
 <metadata id="metadata7457">image/svg+xml</metadata>
 <g>
  <title>Development</title>
  <g fill="#6495ed" id="g7413">
   <path id="path7415" fill="#6495ed" d="m287.155005,344.543c-5.521,0 -10,4.477 -10,10l0,44.533l-244.025,0l0,-306.791l244.025,0l0,46.014c0,5.524 4.479,10 10,10c5.523,0 10,-4.476 10,-10l0,-108.299c0,-5.523 -4.477,-10 -10,-10l-264.025,0c-5.523,0 -10,4.477 -10,10l0,470c0,5.522 4.477,10 10,10l264.025,0c5.523,0 10,-4.478 10,-10l0,-145.457c0,-5.523 -4.476,-10 -10,-10zm-10,-304.543l0,32.285l-244.025,0l0,-32.285l244.025,0zm-244.025,450l0,-70.924l244.025,0l0,70.924l-244.025,0z"/>
   <ellipse id="ellipse7417" fill="#6495ed" ry="15.132" rx="15.115" cy="453.831" cx="155.220005"/>
   <path id="path7419" fill="#6495ed" d="m204.728005,269.128c-1.908,-5.188 -7.658,-7.845 -12.838,-5.931l-6.439,2.375c-0.936,-1.493 -1.953,-2.934 -3.043,-4.316l4.391,-5.279c3.535,-4.249 2.961,-10.562 -1.283,-14.1c-4.242,-3.536 -10.551,-2.957 -14.084,1.292l-4.379,5.263c-1.549,-0.822 -3.146,-1.57 -4.799,-2.227l1.162,-6.738c0.938,-5.45 -2.713,-10.627 -8.154,-11.565c-5.443,-0.938 -10.617,2.718 -11.557,8.168l-1.16,6.739c-1.777,0.064 -3.535,0.234 -5.27,0.491l-2.363,-6.425c-1.908,-5.188 -7.658,-7.844 -12.84,-5.932c-5.184,1.913 -7.838,7.668 -5.93,12.856l2.371,6.444c-1.492,0.938 -2.932,1.955 -4.313,3.049l-5.271,-4.394c-4.24,-3.538 -10.551,-2.959 -14.084,1.29c-3.535,4.25 -2.961,10.563 1.283,14.1l5.256,4.381c-0.822,1.551 -1.57,3.151 -2.225,4.807l-6.732,-1.161c-5.443,-0.938 -10.617,2.719 -11.555,8.168l0,0.001l0,0c-0.939,5.449 2.711,10.626 8.154,11.564l6.73,1.16c0.064,1.777 0.234,3.537 0.488,5.273l-6.418,2.368c-5.184,1.913 -7.838,7.668 -5.93,12.856s7.658,7.845 12.84,5.931l6.438,-2.375c0.936,1.492 1.951,2.934 3.043,4.315l-4.391,5.279c-3.533,4.25 -2.959,10.563 1.285,14.1c4.242,3.537 10.549,2.958 14.084,-1.291l4.377,-5.264c1.549,0.822 3.148,1.57 4.801,2.227l-1.162,6.74c-0.938,5.449 2.711,10.627 8.154,11.564c5.443,0.939 10.617,-2.719 11.555,-8.168l1.162,-6.739c1.777,-0.065 3.533,-0.235 5.268,-0.491l2.363,6.425c1.908,5.187 7.658,7.845 12.84,5.931c5.184,-1.912 7.838,-7.668 5.93,-12.855l-2.371,-6.445c1.492,-0.937 2.932,-1.955 4.313,-3.048l5.273,4.393c4.24,3.538 10.549,2.959 14.084,-1.291c3.533,-4.25 2.959,-10.563 -1.285,-14.1l-5.256,-4.38c0.822,-1.552 1.57,-3.151 2.227,-4.807l6.73,1.161c5.443,0.938 10.617,-2.719 11.557,-8.168l0,0l0,0c0.939,-5.45 -2.713,-10.627 -8.154,-11.565l-6.732,-1.159c-0.063,-1.779 -0.232,-3.538 -0.488,-5.275l6.42,-2.367c5.18,-1.912 7.835,-7.668 5.927,-12.855zm-32.245,27.145l0,0c-2.68,15.551 -17.498,26.025 -33.031,23.348c-15.533,-2.677 -25.99,-17.507 -23.311,-33.058l0,-0.001l0,0c2.68,-15.552 17.498,-26.025 33.033,-23.349c15.531,2.677 25.99,17.507 23.309,33.058l0,0.002z"/>
   <path id="path7421" fill="#6495ed" d="m356.870005,235.586l-11.1,0c-0.627,-3.686 -1.58,-7.259 -2.852,-10.682l9.615,-5.56c4.781,-2.765 6.418,-8.881 3.652,-13.662c-2.762,-4.78 -8.877,-6.417 -13.662,-3.652l-9.623,5.563c-2.354,-2.834 -4.963,-5.445 -7.795,-7.801l5.568,-9.658c2.76,-4.785 1.117,-10.9 -3.668,-13.658c-4.785,-2.761 -10.898,-1.117 -13.658,3.667l-5.547,9.619c-3.412,-1.269 -6.975,-2.222 -10.646,-2.847l0,-11.128c0,-5.523 -4.479,-10 -10,-10c-5.523,0 -10.002,4.477 -10.002,10l0,11.128c-3.672,0.625 -7.234,1.578 -10.646,2.847l-5.547,-9.619c-2.76,-4.784 -8.873,-6.428 -13.658,-3.667c-4.785,2.758 -6.428,8.873 -3.668,13.658l5.568,9.658c-2.832,2.355 -5.441,4.967 -7.795,7.801l-9.623,-5.563c-4.785,-2.765 -10.9,-1.128 -13.662,3.652c-2.766,4.781 -1.129,10.897 3.652,13.662l9.615,5.56c-1.271,3.423 -2.225,6.996 -2.852,10.682l-11.1,0c-5.523,0 -10,4.477 -10,10l0,0l0,0c0,5.523 4.477,10 10,10l11.1,0c0.627,3.686 1.58,7.259 2.852,10.682l-9.615,5.56c-4.781,2.765 -6.418,8.881 -3.652,13.662c2.762,4.78 8.877,6.417 13.662,3.652l9.623,-5.564c2.354,2.834 4.963,5.445 7.795,7.801l-5.568,9.658c-2.76,4.785 -1.117,10.9 3.668,13.658c4.785,2.761 10.898,1.117 13.658,-3.667l5.547,-9.619c3.412,1.268 6.975,2.222 10.646,2.847l0,11.128c0,5.522 4.479,10 10.002,10c5.521,0 10,-4.478 10,-10l0,-11.128c3.672,-0.625 7.234,-1.578 10.646,-2.847l5.547,9.619c2.76,4.784 8.873,6.428 13.658,3.667c4.785,-2.758 6.428,-8.873 3.668,-13.658l-5.568,-9.658c2.832,-2.355 5.441,-4.967 7.795,-7.801l9.623,5.564c4.785,2.765 10.9,1.128 13.662,-3.652c2.766,-4.781 1.129,-10.897 -3.652,-13.662l-9.615,-5.56c1.271,-3.423 2.225,-6.996 2.852,-10.682l11.1,0c5.523,0 10,-4.477 10,-10l0,0l0,0c0,-5.523 -4.477,-10 -10,-10zm-30.244,10l0,0c0,21.797 -17.707,39.529 -39.471,39.529c-21.766,0 -39.473,-17.732 -39.473,-39.529l0,0l0,0c0,-21.797 17.707,-39.529 39.473,-39.529c21.764,0 39.471,17.732 39.471,39.529l0,0z"/>
  </g>
 </g>
</svg>
