<svg width="744.09448819" height="652.3622" xmlns="http://www.w3.org/2000/svg">
<metadata id="metadata3486">image/svg+xml</metadata>

 <g>
  <title>e-commerce</title>
  <g id="layer1">
   <path fill="#6495ed" fill-rule="evenodd" id="path74" d="m389.262893,233.313058l1.54092,-39.62149l60.96044,0l-5.55342,39.62149l-56.94794,0zm-2.75128,70.3687l1.54092,-39.62149l53.86864,0l-5.53053,39.62149l-49.87903,0zm-2.58092,66.02055l1.37056,-35.28606l46.78448,0l-4.93298,35.28606l-43.22206,0zm-77.00025,-136.38925l-3.359,-39.62149l56.48516,0l-1.55109,39.62149l-51.57507,0zm5.97552,70.3687l-3.36917,-39.62149l47.75581,0l-1.53837,39.62149l-42.84827,0zm5.61444,66.02055l-3.00556,-35.28606l39.0392,0l-1.38327,35.28606l-34.65037,0zm-114.81382,-35.28606l5.28642,35.28606l-36.33623,0l-9.97784,-35.28606l41.02765,0zm-10.54997,-70.35598l5.94246,39.62149l-45.11388,0l-11.21363,-39.62149l50.38505,0zm-10.53217,-70.3687l5.92721,39.62149l-54.48655,0l-11.21362,-39.62149l59.77296,0zm37.01515,39.62149l-5.94246,-39.62149l59.0203,0l3.36918,39.62149l-56.44702,0zm10.53217,70.3687l-5.93992,-39.62149l54.46111,0l3.38189,39.62149l-51.90308,0zm9.89647,66.02055l-5.28643,-35.28606l49.90192,0l2.99285,35.28606l-47.60834,0zm-68.4896,-249.71556l6.42305,42.97032l-63.84394,0l-12.14683,-42.97032l69.56772,0zm94.88358,0l3.64634,42.97032l-61.01892,0l-6.45102,-42.97032l63.8236,0zm96.46772,0l-1.68331,42.97032l-60.29424,0l-3.64888,-42.97032l65.62643,0zm99.13763,0l-6.00094,42.97032l-64.06008,0l1.68332,-42.97032l68.3777,0zm74.20066,42.97032l-49.17469,0l6.00095,-42.97032l52.20567,0l-9.03193,42.97032zm-14.80403,70.35599l-44.20356,0l5.52799,-39.62149l47.01841,0l-8.34284,39.62149zm-14.79131,70.3687l-39.25787,0l5.54325,-39.62149l42.04475,0l-8.33013,39.62149zm-13.88099,66.02055l-34.61477,0l4.94569,-35.28606l37.08889,0l-7.41981,35.28606zm-334.64673,38.41622l346.27483,0c9.24806,4.46765 36.06669,21.13807 32.92636,62.748l-402.25142,0c-10.60591,0 -19.20302,8.59458 -19.20302,19.21065c0,10.60337 8.59711,19.19794 19.20302,19.19794l418.74131,0c9.01921,0 16.80518,-6.24251 18.75549,-15.05067c13.72589,-62.01061 -16.26866,-99.16815 -42.3982,-115.71397l57.63704,-274.0499l126.33259,-51.783574c9.80747,-4.017581 14.51414,-15.23121 10.48893,-25.053942c-4.02521,-9.810018 -15.24138,-14.514148 -25.06157,-10.488938l-135.75101,55.635872c-4.21846,1.724 -7.62578,4.86941 -9.70068,8.805622l-515.620961,0c-11.338224,0 -20.515092,8.604744 -20.515092,19.21319c0,10.59574 9.176868,19.19794 20.515092,19.19794l23.543535,0l77.592716,274.16432c2.35206,8.26147 9.89393,13.96746 18.49104,13.96746"/>
   <path fill="#6495ed" fill-rule="evenodd" id="path78" d="m448.186563,579.679418c0,31.46681 25.51927,56.98862 56.99372,56.98862c31.47444,0 56.98608,-25.52181 56.98608,-56.98862c0,-31.47953 -25.51164,-56.98863 -56.98608,-56.98863c-31.47445,0 -56.99372,25.5091 -56.99372,56.98863"/>
   <path fill="#6495ed" fill-rule="evenodd" id="path82" d="m144.177713,579.679418c0,31.46681 25.52181,56.98862 56.98355,56.98862c31.47444,0 56.99371,-25.52181 56.99371,-56.98862c0,-31.47953 -25.51927,-56.98863 -56.99371,-56.98863c-31.46174,0 -56.98355,25.5091 -56.98355,56.98863"/>
  </g>
 </g>
</svg>
