<svg width="604.09449" height="1052.3622047" xmlns="http://www.w3.org/2000/svg">

 <metadata id="metadata7107">image/svg+xml</metadata>
 <g>
  <title>mobile</title>
  <g id="layer1">
   <path fill="#6495ed" fill-rule="nonzero" id="path28-2" d="m529.189175,793.333679l-454.250923,0l0,-641.78766l454.250923,0l0,641.78766zm-227.09806,158.19042c-25.45537,0 -46.15944,-20.71503 -46.15944,-46.21424c0,-25.45537 20.70407,-46.10459 46.15944,-46.10459c25.38961,0 46.07723,20.64922 46.07723,46.10459c0,25.49921 -20.68762,46.21424 -46.07723,46.21424m-103.19152,-878.158121l206.394,0c5.20615,0 9.40944,7.776354 9.40944,17.394045c0,9.650571 -4.20329,17.465286 -9.40944,17.465286l-206.394,0c-5.24452,0 -9.40396,-7.814715 -9.40396,-17.465286c0,-9.617691 4.15944,-17.394045 9.40396,-17.394045m312.18859,-43.950928l-418.043466,0c-40.005208,0 -72.305304,32.420659 -72.305304,72.376546l0,848.850193c0,39.91757 32.300096,72.30537 72.305304,72.30537l418.043466,0c39.91753,0 72.26694,-32.3878 72.26694,-72.30537l0,-848.850193c0,-39.955887 -32.34941,-72.376546 -72.26694,-72.376546"/>
  </g>
 </g>
</svg>
