<svg width="744.09448819" height="682.3622" xmlns="http://www.w3.org/2000/svg">

 <metadata id="metadata7045">image/svg+xml</metadata>
 <g>
  <title>Mobile</title>
  <g id="layer1">
   <g transform="matrix(0.38618536,0,0,-0.38618536,-3033.3592,1354.8018) " id="g6911">
    <path fill="#6495ed" id="rect6816" d="m7921.052241,2620.41521l0,-736.3124l466.328,0l0,736.3124l-466.328,0zm90.8125,-95.7188l276.5312,0l0,-518.6874l-276.5312,0l0,518.6874zm139.9062,-539.1405a35.99713,35.99713 0 0 0 36,-36a35.99713,35.99713 0 0 0 -36,-36a35.99713,35.99713 0 0 0 -36,36a35.99713,35.99713 0 0 0 36,36z"/>
   </g>
   <g id="g6916" transform="matrix(0.38618536,0,0,-0.38618536,-2981.4524,1537.1017) ">
    <path fill="#6495ed" id="rect6837" d="m8082.484041,3478.66233l0,-338.98432l137.688,0l0,207.09376l441.9688,0l0,-615.51568l-327.4224,0l0,-178.17184l325.7504,0a145.78096,-152.72288 0 0 1 -1.4376,12.32808a145.78096,-152.72288 0 0 1 -0.36,10.79688a145.78096,-152.72288 0 0 1 0.72,15.25a145.78096,-152.72288 0 0 1 2.188,15.09376a145.78096,-152.72288 0 0 1 3.5936,14.79688a145.78096,-152.72288 0 0 1 5,14.34376a145.78096,-152.72288 0 0 1 6.344,13.75a145.78096,-152.72288 0 0 1 7.6088,13a145.78096,-152.72288 0 0 1 8.828,12.15624a145.78096,-152.72288 0 0 1 9.9224,11.17192a145.78096,-152.72288 0 0 1 10.9528,10.07808a145.78096,-152.72288 0 0 1 11.8592,8.87504a145.78096,-152.72288 0 0 1 12.6408,7.59368a145.78096,-152.72288 0 0 1 13.2968,6.2344a145.78096,-152.72288 0 0 1 13.828,4.82816a145.78096,-152.72288 0 0 1 14.2192,3.34376a145.78096,-152.72288 0 0 1 13.2032,1.67184l0,750.2656l-710.3912,0l-0.0008,0zm363.2976,-806.2812a35.99712,-35.99712 0 0 1 36,-36a35.99712,-35.99712 0 0 1 -36,-36a35.99712,-35.99712 0 0 1 -36,36a35.99712,-35.99712 0 0 1 36,36z"/>
   </g>
   <path fill="#6495ed" id="path6998" d="m650.590614,354.044487a7.19937,7.19937 0 0 1 7.20498,7.19874a7.19937,7.19937 0 0 1 -7.20498,7.19874a7.19937,7.19937 0 0 1 -7.1985,-7.19874a7.19937,7.19937 0 0 1 7.1985,-7.19874z"/>
   <path fill="#6495ed" id="rect6894" d="m219.420804,23.005197l0,136.72773l53.61334,0l0,-81.32221l386.04668,0l0,260.94062l-229.65981,0l0,48.25507l283.27933,0l0,-364.60121l-493.27954,0zm408.38487,330.59277a7.19937,7.19937 0 0 1 7.1988,7.19874a7.19937,7.19937 0 0 1 -7.1988,7.19874a7.19937,7.19937 0 0 1 -7.19849,-7.19874a7.19937,7.19937 0 0 1 7.19849,-7.19874z"/>
   <path fill="#6495ed" fill-rule="evenodd" stroke-width="8px" id="path6955" d="m448.633584,399.224097l192.57643,-1.3405l-59.87294,54.95804l-133.15054,-1.3404l0.44705,-52.27714z"/>
   <path fill="#6495ed" fill-rule="evenodd" stroke-width="8px" id="path7000" d="m659.082364,430.500967c0,0 23.23446,-16.9789 48.25587,5.36177c25.02172,22.34067 0,48.25581 0,48.25581l-160.85269,158.17188c0,0 -29.48973,33.06417 -58.97947,7.14903c-29.48942,-25.9152 -90.25615,-89.36267 -90.25615,-89.36267c0,0 -9.82981,-20.5534 8.93633,-40.21317c18.76614,-19.65977 43.78755,-6.2554 43.78755,-6.2554l62.554,61.66024l146.55456,-144.76749z"/>
  </g>
 </g>
</svg>
