<svg width="744.09448819" height="732.3622" xmlns="http://www.w3.org/2000/svg">

 <metadata id="metadata8581">image/svg+xml</metadata>
 <g>
  <title>disaster recovery</title>
  <g id="layer1">
   <path fill="#6495ed" fill-rule="nonzero" id="path924-94" d="m372.035875,276.656081l0,28.81495c51.81227,0 93.92467,42.14656 93.92467,93.92466l0,83.34818l28.41648,0l0,-83.74665c0,-67.45498 -54.86339,-122.34114 -122.34115,-122.34114"/>
   <path fill="#6495ed" fill-rule="nonzero" id="path926-5" d="m372.035875,305.471031l0,25.82074c37.33079,0 67.68269,30.37467 67.68269,67.70545l0,83.74665l26.24198,0l0,-83.34818c0,-51.7781 -42.1124,-93.92466 -93.92467,-93.92466"/>
   <path fill="#6495ed" fill-rule="nonzero" id="path928-1" d="m372.035875,705.875861l145.73465,0l0,-223.13317l-145.73465,0l0,223.13317z"/>
   <path fill="#6495ed" fill-opacity="0.784314" fill-rule="nonzero" id="path930-0" d="m226.310335,705.875861l145.72554,0l0,-223.13317l-145.72554,0l0,223.13317z"/>
   <path fill="#ffffff" fill-rule="nonzero" id="path932-3" d="m406.611545,577.089781c0,-19.09233 -15.47196,-34.57566 -34.57567,-34.57566c-19.1037,0 -34.57566,15.48333 -34.57566,34.57566c0,12.82949 6.97889,23.96502 17.33906,29.95115l0,27.81312c0,9.52107 7.7189,17.23769 17.2366,17.23769c9.5177,0 17.24799,-7.71662 17.24799,-17.23769l0,-27.81312c10.36017,-5.98613 17.32768,-17.12166 17.32768,-29.95115"/>
   <path fill="#6495ed" fill-rule="nonzero" id="path934-7" d="m581.652925,176.287611l-4.34896,0l0,0c0,-82.74478 -67.04513,-149.801304 -149.78992,-149.801304c-50.45747,0 -95.04037,24.944114 -122.18176,63.1743c-16.1095,-13.570691 -36.92093,-21.790523 -59.64501,-21.790523c-51.1064,0 -92.52433,41.440697 -92.52433,92.558487c0,5.49886 0.51277,10.87249 1.43449,16.12089c-65.81558,4.05299 -117.946616,58.68869 -117.946616,125.50612c0,69.45872 56.297876,125.76798 125.779356,125.76798l419.22275,0c69.4701,0 125.79075,-56.30926 125.79075,-125.76798c0,-69.47009 -56.32065,-125.76797 -125.79075,-125.76797"/>
   <path fill="#ffffff" fill-rule="nonzero" id="path936-8" d="m372.035875,305.471031l0,-28.81495c-67.45498,0 -122.32976,54.88616 -122.32976,122.34114l0,83.74665l28.4051,0l0,-83.34818c0,-51.7781 42.13517,-93.92466 93.92466,-93.92466"/>
   <path fill="#6495ed" fill-rule="nonzero" id="path938-8" d="m278.111215,399.395691l0,83.34818l26.24198,0l0,-83.74665c0,-37.33078 30.37467,-67.70545 67.68268,-67.70545l0,-25.82074c-51.78949,0 -93.92466,42.14656 -93.92466,93.92466"/>
  </g>
 </g>
</svg>
