<svg width="744.09448819" height="702.3622" xmlns="http://www.w3.org/2000/svg">

 <metadata id="metadata8743">image/svg+xml</metadata>
 <g>
  <title>sharepoint ico</title>
  <g id="layer1">
   <path fill="#6495ed" class="st0" d="m21.755435,89.883263c128.436115,-22.975377 257.060565,-45.950754 385.496685,-68.926131c0.18833,220.149311 0,440.298601 0,660.447931c-128.43612,-22.78707 -256.87225,-45.95075 -385.496685,-68.73782c0,-174.38688 0,-348.58544 0,-522.78398m128.436115,149.15163c-15.81911,18.64395 -20.7155,44.44417 -17.70234,68.17284c2.4482,20.71551 13.93589,39.54778 29.56667,52.73038c14.31253,12.24098 32.57984,19.58556 45.38579,33.89809c9.60446,10.73438 12.05266,28.62504 2.4482,40.11275c-7.72124,9.22782 -20.90383,9.98111 -31.82655,8.09788c-18.26731,-2.63652 -33.70978,-13.93588 -45.76243,-27.49512c0.18832,19.0206 0,38.0412 0.18832,57.06179c17.70234,13.55924 40.67772,18.26731 62.71148,18.07899c15.44247,-0.37665 31.26158,-3.95478 43.8792,-13.37092c15.81912,-11.48769 24.85861,-30.31996 27.11848,-49.34056c3.20149,-22.22209 -0.56497,-46.13908 -14.31253,-64.40639c-12.05265,-15.25414 -28.24841,-26.36518 -44.63249,-36.15797c-8.85117,-5.46136 -17.70234,-11.29936 -23.72867,-19.96221c-6.96794,-11.86433 -6.77962,-28.81338 3.57813,-38.60617c8.66285,-8.2862 21.65712,-9.03949 32.95649,-7.72123c13.74756,1.50658 26.74183,7.72123 37.47623,16.19576c0,-18.83228 0,-37.85288 0,-56.68515c-17.89067,-7.34459 -37.66456,-8.09788 -56.68516,-6.5913c-19.58556,2.25987 -38.41784,10.92272 -50.65882,25.98854z" id="svg_12"/>
   <path fill="#6495ed" class="st0" d="m444.54003,131.690913c13.18259,-12.99427 31.63822,-20.90382 50.28218,-19.20892c26.55351,1.50658 50.09385,22.22209 56.68515,47.83399c2.63652,9.60446 2.82484,19.77389 1.12994,29.56667c42.93759,17.70234 77.7773,53.86029 94.3497,97.36285c18.83228,-3.57813 39.17114,1.88323 53.29534,14.8775c22.41049,19.20892 28.43682,54.04863 14.8775,80.2255c-12.24098,24.67028 -41.24268,39.35945 -68.36116,33.70977c-16.5724,43.31424 -51.03547,79.47223 -93.97306,96.98622c3.76645,21.28049 -2.82484,44.25585 -18.26731,59.51002c-16.00743,16.5724 -41.61933,22.59873 -63.65309,15.25414c-9.98111,-3.38981 -19.20892,-9.03949 -26.17687,-16.94905c0,-30.31996 0,-60.63993 0,-90.95989c12.42931,-12.99427 30.13164,-20.90383 48.21063,-19.96222c17.13737,0.37665 32.95648,9.0395 44.44417,21.09215c36.15797,-14.31253 65.15968,-44.63249 78.34227,-81.16711c-10.7344,-11.11104 -18.45563,-25.42357 -19.96221,-40.86602c-2.63652,-20.5272 5.64968,-41.2427 19.96221,-55.74354c-13.18259,-36.72294 -42.37262,-67.23122 -78.71891,-81.54375c-10.35775,11.86433 -25.23525,19.77389 -40.86604,21.28047c-19.0206,2.07155 -38.22952,-6.02633 -51.60044,-19.58557c0,-30.50831 0,-61.01659 0,-91.71321z" id="svg_13"/>
  </g>
 </g>
</svg>
