<?xml version="1.0" encoding="utf-8"?>
<!-- Generator: Adobe Illustrator 22.1.0, SVG Export Plug-In . SVG Version: 6.00 Build 0)  -->
<svg version="1.1" id="Layer_1" xmlns="http://www.w3.org/2000/svg" xmlns:xlink="http://www.w3.org/1999/xlink" x="0px" y="0px"
	 viewBox="0 0 223 140" style="enable-background:new 0 0 223 140;" xml:space="preserve">
<style type="text/css">
	.st0{fill:#269AF2;}
	.st1{fill:#FFFFFF;}
</style>
<path class="st0" d="M194.9,60.3C193.4,27.9,165.2,2,130.5,2c-25.4,0-47.3,13.9-57.9,34c-3.5-1.3-7.2-2-11.1-2
	c-15.3,0-28.1,11-30.9,25.5C13.5,64.3,1,79.9,1,98.5v0C1,120.9,19.1,139,41.5,139h140c22.4,0,40.5-18.1,40.5-40.5v0
	C222,80.8,210.7,65.8,194.9,60.3z"/>
<g>
	<path class="st1" d="M57,60.4c0,2.4-1.1,3.5-3.4,3.5c-2.1,0-3.2-1.1-3.2-3.4v-5.1h1.4v4.9c0,1.6,0.6,2.5,1.9,2.5
		c1.2,0,1.9-0.8,1.9-2.4v-4.9H57V60.4z"/>
	<path class="st1" d="M66.1,63.8h-1.5l-4-6.2c-0.1-0.2-0.2-0.3-0.3-0.5h0c0,0.2,0,0.6,0,1.2v5.5H59v-8.4h1.6l3.9,6
		c0.2,0.3,0.3,0.4,0.3,0.5h0c0-0.2-0.1-0.6-0.1-1.1v-5.4h1.3V63.8z"/>
	<path class="st1" d="M72.8,63.8h-4.7v-8.4h1.4v7.2h3.3V63.8z"/>
	<path class="st1" d="M77.2,63.9c-1.2,0-2.2-0.4-2.9-1.2s-1.1-1.8-1.1-3.1c0-1.4,0.4-2.4,1.1-3.2s1.8-1.2,3-1.2
		c1.2,0,2.1,0.4,2.9,1.2s1.1,1.8,1.1,3.1c0,1.4-0.4,2.5-1.1,3.3S78.4,63.9,77.2,63.9z M77.2,56.4c-0.8,0-1.4,0.3-1.9,0.9
		s-0.7,1.3-0.7,2.3c0,0.9,0.2,1.7,0.7,2.3s1.1,0.9,1.8,0.9c0.8,0,1.4-0.3,1.9-0.8s0.7-1.3,0.7-2.3c0-1-0.2-1.8-0.7-2.3
		S78,56.4,77.2,56.4z"/>
	<path class="st1" d="M88.6,63.4c-0.6,0.3-1.4,0.5-2.4,0.5c-1.2,0-2.2-0.4-2.9-1.2s-1.1-1.8-1.1-3c0-1.3,0.4-2.4,1.2-3.3
		s1.9-1.2,3.1-1.2c0.8,0,1.5,0.1,2,0.3v1.4c-0.6-0.3-1.2-0.5-1.9-0.5c-0.9,0-1.6,0.3-2.2,0.9s-0.8,1.4-0.8,2.3
		c0,0.9,0.3,1.7,0.8,2.2s1.2,0.8,2.1,0.8c0.8,0,1.5-0.2,2.1-0.6V63.4z"/>
	<path class="st1" d="M96.6,63.8h-1.8l-2.9-3.8c-0.1-0.1-0.2-0.2-0.2-0.3h0v4.1h-1.4v-8.4h1.4v3.9h0c0-0.1,0.1-0.2,0.2-0.3l2.8-3.7
		h1.7l-3.3,4L96.6,63.8z"/>
	<path class="st1" d="M106.2,56.5h-2.4v7.2h-1.4v-7.2H100v-1.2h6.2V56.5z"/>
	<path class="st1" d="M114.2,63.8h-1.4v-3.6h-4v3.6h-1.4v-8.4h1.4v3.5h4v-3.5h1.4V63.8z"/>
	<path class="st1" d="M121,63.8h-4.7v-8.4h4.5v1.2h-3.1v2.4h2.9v1.2h-2.9v2.5h3.3V63.8z"/>
	<path class="st1" d="M132.4,55.3l-3,8.4h-1.6l-3-8.4h1.5l2.1,6.4c0.1,0.2,0.1,0.4,0.2,0.7h0c0-0.2,0.1-0.5,0.2-0.7l2.1-6.4H132.4z"
		/>
	<path class="st1" d="M139.7,63.8h-1.5l-0.8-2.1h-3.3l-0.7,2.1h-1.5l3.1-8.4h1.6L139.7,63.8z M137.1,60.5l-1.2-3.4
		c0-0.1-0.1-0.3-0.1-0.5h0c0,0.2-0.1,0.4-0.1,0.5l-1.2,3.4H137.1z"/>
	<path class="st1" d="M145.5,63.8h-4.7v-8.4h1.4v7.2h3.3V63.8z"/>
	<path class="st1" d="M153,60.4c0,2.4-1.1,3.5-3.4,3.5c-2.1,0-3.2-1.1-3.2-3.4v-5.1h1.4v4.9c0,1.6,0.6,2.5,1.9,2.5
		c1.2,0,1.9-0.8,1.9-2.4v-4.9h1.4V60.4z"/>
	<path class="st1" d="M159.7,63.8H155v-8.4h4.5v1.2h-3.1v2.4h2.9v1.2h-2.9v2.5h3.3V63.8z"/>
	<path class="st1" d="M168,63.9c-1.2,0-2.2-0.4-2.9-1.2s-1.1-1.8-1.1-3.1c0-1.4,0.4-2.4,1.1-3.2s1.8-1.2,3-1.2
		c1.2,0,2.1,0.4,2.9,1.2s1.1,1.8,1.1,3.1c0,1.4-0.4,2.5-1.1,3.3S169.2,63.9,168,63.9z M168,56.4c-0.8,0-1.4,0.3-1.9,0.9
		s-0.7,1.3-0.7,2.3c0,0.9,0.2,1.7,0.7,2.3s1.1,0.9,1.8,0.9c0.8,0,1.4-0.3,1.9-0.8s0.7-1.3,0.7-2.3c0-1-0.2-1.8-0.7-2.3
		S168.8,56.4,168,56.4z"/>
	<path class="st1" d="M178.1,56.5H175v2.5h2.9v1.2H175v3.5h-1.4v-8.4h4.5V56.5z"/>
</g>
<g>
	<g>
		<path class="st1" d="M43.1,79.9h-6.3V98h-5V79.9h-6.3v-4.1h17.6V79.9z"/>
		<path class="st1" d="M65.3,98h-5v-9h-9.2v9h-5V75.8h5v8.8h9.2v-8.8h5V98z"/>
		<path class="st1" d="M83.7,98H70.4V75.8h12.8v4.1h-7.8v4.9h7.3v4.1h-7.3v5.1h8.3V98z"/>
		<path class="st1" d="M111.9,97.2c-1.6,0.8-3.7,1.2-6.3,1.2c-3.4,0-6.1-1-8-3s-2.9-4.7-2.9-8c0-3.5,1.1-6.4,3.3-8.6s5-3.3,8.5-3.3
			c2.2,0,4,0.3,5.5,0.8v4.8c-1.5-0.9-3.2-1.3-5.1-1.3c-2.1,0-3.8,0.7-5,2c-1.3,1.3-1.9,3.1-1.9,5.3c0,2.1,0.6,3.9,1.8,5.1
			c1.2,1.3,2.8,1.9,4.9,1.9c1.9,0,3.7-0.5,5.4-1.4V97.2z"/>
		<path class="st1" d="M128.9,98h-13.2V75.8h5v18.1h8.2V98z"/>
		<path class="st1" d="M140.5,98.4c-3.2,0-5.8-1-7.8-3.1c-2-2.1-3-4.8-3-8.1c0-3.5,1-6.3,3-8.5c2-2.2,4.7-3.2,8.1-3.2
			c3.2,0,5.7,1,7.7,3.1c2,2.1,2.9,4.8,2.9,8.2c0,3.5-1,6.3-3,8.4C146.4,97.3,143.8,98.4,140.5,98.4z M140.7,79.7
			c-1.8,0-3.1,0.7-4.2,2c-1,1.3-1.5,3.1-1.5,5.2c0,2.2,0.5,3.9,1.5,5.2c1,1.3,2.4,1.9,4.1,1.9c1.7,0,3.1-0.6,4.1-1.9s1.5-3,1.5-5.2
			c0-2.3-0.5-4.1-1.5-5.4C143.8,80.4,142.4,79.7,140.7,79.7z"/>
		<path class="st1" d="M173.2,88.4c0,6.7-3.1,10-9.3,10c-6,0-9-3.3-9-9.8V75.8h5v12.9c0,3.6,1.4,5.4,4.2,5.4c2.8,0,4.1-1.7,4.1-5.2
			v-13h5V88.4z"/>
		<path class="st1" d="M178,98V75.8h7.9c7.9,0,11.8,3.6,11.8,10.8c0,3.5-1.1,6.2-3.2,8.3c-2.1,2.1-5,3.1-8.6,3.1H178z M183,79.9
			v14.1h2.5c2.2,0,3.9-0.6,5.1-1.9s1.8-3.1,1.8-5.3c0-2.1-0.6-3.8-1.8-5c-1.2-1.2-2.9-1.8-5.1-1.8H183z"/>
	</g>
</g>
<g>
	<g>
		<path class="st1" d="M32.2,110l-2.5,8.9h-1.7l-1.7-6.3c-0.1-0.3-0.1-0.6-0.1-0.9h0c0,0.3-0.1,0.6-0.1,0.9l-1.7,6.3h-1.7l-2.5-8.9
			h1.6l1.6,6.5c0.1,0.3,0.1,0.6,0.1,0.9h0c0-0.2,0.1-0.5,0.2-0.9l1.8-6.5h1.5l1.7,6.6c0.1,0.2,0.1,0.5,0.1,0.8h0
			c0-0.2,0.1-0.5,0.1-0.8l1.6-6.6H32.2z"/>
		<path class="st1" d="M35,119h-1.5V110H35V119z"/>
		<path class="st1" d="M42.9,111.3h-2.6v7.7h-1.5v-7.7h-2.6V110h6.6V111.3z"/>
		<path class="st1" d="M51.4,119h-1.5v-3.9h-4.2v3.9h-1.5V110h1.5v3.8h4.2V110h1.5V119z"/>
		<path class="st1" d="M58.6,119h-1.5V110h1.5V119z"/>
		<path class="st1" d="M68.4,119h-1.6l-4.3-6.6c-0.1-0.2-0.2-0.3-0.3-0.5h0c0,0.2,0,0.6,0,1.2v5.9h-1.4V110h1.7l4.1,6.4
			c0.2,0.3,0.3,0.4,0.3,0.5h0c0-0.2-0.1-0.6-0.1-1.2V110h1.4V119z"/>
		<path class="st1" d="M78.2,119h-1.6l-4.3-6.6c-0.1-0.2-0.2-0.3-0.3-0.5h0c0,0.2,0,0.6,0,1.2v5.9h-1.4V110h1.7l4.1,6.4
			c0.2,0.3,0.3,0.4,0.3,0.5h0c0-0.2-0.1-0.6-0.1-1.2V110h1.4V119z"/>
		<path class="st1" d="M84.1,119.1c-1.3,0-2.3-0.4-3.1-1.3c-0.8-0.8-1.2-1.9-1.2-3.3c0-1.4,0.4-2.6,1.2-3.4c0.8-0.9,1.9-1.3,3.2-1.3
			c1.3,0,2.3,0.4,3,1.2c0.8,0.8,1.2,1.9,1.2,3.3c0,1.5-0.4,2.6-1.2,3.5C86.5,118.7,85.4,119.1,84.1,119.1z M84.2,111.2
			c-0.8,0-1.5,0.3-2,0.9c-0.5,0.6-0.8,1.4-0.8,2.4c0,1,0.2,1.8,0.7,2.4c0.5,0.6,1.2,0.9,2,0.9c0.9,0,1.5-0.3,2-0.9
			c0.5-0.6,0.7-1.4,0.7-2.4c0-1.1-0.2-1.9-0.7-2.5C85.7,111.5,85,111.2,84.2,111.2z"/>
		<path class="st1" d="M97.1,110l-3.2,8.9h-1.7l-3.2-8.9h1.6l2.2,6.8c0.1,0.2,0.1,0.5,0.2,0.8h0c0-0.2,0.1-0.5,0.2-0.8l2.3-6.8H97.1
			z"/>
		<path class="st1" d="M104.9,119h-1.6l-0.8-2.3H99l-0.8,2.3h-1.6l3.3-8.9h1.7L104.9,119z M102.1,115.5l-1.2-3.6
			c0-0.1-0.1-0.3-0.1-0.6h0c0,0.2-0.1,0.4-0.1,0.6l-1.2,3.6H102.1z"/>
		<path class="st1" d="M111,111.3h-2.6v7.7h-1.5v-7.7h-2.6V110h6.6V111.3z"/>
		<path class="st1" d="M113.8,119h-1.5V110h1.5V119z"/>
		<path class="st1" d="M123,110l-3.2,8.9h-1.7L115,110h1.6l2.2,6.8c0.1,0.2,0.1,0.5,0.2,0.8h0c0-0.2,0.1-0.5,0.2-0.8l2.3-6.8H123z"
			/>
		<path class="st1" d="M129.2,119h-5V110h4.8v1.3h-3.3v2.5h3.1v1.3h-3.1v2.6h3.5V119z"/>
		<path class="st1" d="M133.9,118.6v-1.5c0.1,0.1,0.3,0.2,0.5,0.3c0.2,0.1,0.4,0.2,0.6,0.3s0.4,0.1,0.6,0.2s0.4,0.1,0.6,0.1
			c0.6,0,1.1-0.1,1.4-0.3c0.3-0.2,0.5-0.5,0.5-0.9c0-0.2-0.1-0.4-0.2-0.6c-0.1-0.2-0.2-0.3-0.4-0.4c-0.2-0.1-0.4-0.3-0.6-0.4
			c-0.2-0.1-0.5-0.2-0.8-0.4c-0.3-0.2-0.6-0.3-0.8-0.5c-0.3-0.2-0.5-0.4-0.7-0.6c-0.2-0.2-0.3-0.4-0.5-0.7c-0.1-0.3-0.2-0.6-0.2-0.9
			c0-0.4,0.1-0.8,0.3-1.1c0.2-0.3,0.4-0.6,0.7-0.8c0.3-0.2,0.7-0.4,1.1-0.4c0.4-0.1,0.8-0.1,1.2-0.1c0.9,0,1.6,0.1,2,0.3v1.5
			c-0.5-0.4-1.2-0.5-2-0.5c-0.2,0-0.4,0-0.7,0.1c-0.2,0-0.4,0.1-0.6,0.2s-0.3,0.2-0.4,0.4c-0.1,0.1-0.2,0.3-0.2,0.5
			c0,0.2,0,0.4,0.1,0.5c0.1,0.1,0.2,0.3,0.4,0.4c0.2,0.1,0.4,0.2,0.6,0.4c0.2,0.1,0.5,0.2,0.8,0.4c0.3,0.2,0.6,0.3,0.9,0.5
			s0.5,0.4,0.7,0.6s0.4,0.5,0.5,0.7c0.1,0.3,0.2,0.6,0.2,0.9c0,0.5-0.1,0.8-0.3,1.1c-0.2,0.3-0.4,0.6-0.7,0.8
			c-0.3,0.2-0.7,0.3-1.1,0.4c-0.4,0.1-0.8,0.1-1.3,0.1c-0.1,0-0.3,0-0.6,0s-0.4-0.1-0.7-0.1c-0.2,0-0.4-0.1-0.6-0.2
			S134,118.7,133.9,118.6z"/>
		<path class="st1" d="M145,119.1c-1.3,0-2.3-0.4-3.1-1.3c-0.8-0.8-1.2-1.9-1.2-3.3c0-1.4,0.4-2.6,1.2-3.4c0.8-0.9,1.9-1.3,3.2-1.3
			c1.3,0,2.3,0.4,3,1.2c0.8,0.8,1.2,1.9,1.2,3.3c0,1.5-0.4,2.6-1.2,3.5C147.3,118.7,146.3,119.1,145,119.1z M145,111.2
			c-0.8,0-1.5,0.3-2,0.9c-0.5,0.6-0.8,1.4-0.8,2.4c0,1,0.2,1.8,0.7,2.4c0.5,0.6,1.2,0.9,2,0.9c0.9,0,1.5-0.3,2-0.9
			c0.5-0.6,0.7-1.4,0.7-2.4c0-1.1-0.2-1.9-0.7-2.5C146.5,111.5,145.9,111.2,145,111.2z"/>
		<path class="st1" d="M155.9,119h-5V110h1.5v7.7h3.5V119z"/>
		<path class="st1" d="M163.8,115.4c0,2.5-1.2,3.8-3.6,3.8c-2.3,0-3.4-1.2-3.4-3.6V110h1.5v5.2c0,1.8,0.7,2.6,2,2.6
			c1.3,0,2-0.8,2-2.5V110h1.5V115.4z"/>
		<path class="st1" d="M171.7,111.3h-2.6v7.7h-1.5v-7.7h-2.6V110h6.6V111.3z"/>
		<path class="st1" d="M174.5,119H173V110h1.5V119z"/>
		<path class="st1" d="M180.4,119.1c-1.3,0-2.3-0.4-3.1-1.3c-0.8-0.8-1.2-1.9-1.2-3.3c0-1.4,0.4-2.6,1.2-3.4
			c0.8-0.9,1.9-1.3,3.2-1.3c1.3,0,2.3,0.4,3,1.2c0.8,0.8,1.2,1.9,1.2,3.3c0,1.5-0.4,2.6-1.2,3.5
			C182.8,118.7,181.7,119.1,180.4,119.1z M180.5,111.2c-0.8,0-1.5,0.3-2,0.9c-0.5,0.6-0.8,1.4-0.8,2.4c0,1,0.2,1.8,0.7,2.4
			c0.5,0.6,1.2,0.9,2,0.9c0.9,0,1.5-0.3,2-0.9c0.5-0.6,0.7-1.4,0.7-2.4c0-1.1-0.2-1.9-0.7-2.5C182,111.5,181.3,111.2,180.5,111.2z"
			/>
		<path class="st1" d="M193.9,119h-1.6l-4.3-6.6c-0.1-0.2-0.2-0.3-0.3-0.5h0c0,0.2,0,0.6,0,1.2v5.9h-1.4V110h1.7l4.1,6.4
			c0.2,0.3,0.3,0.4,0.3,0.5h0c0-0.2-0.1-0.6-0.1-1.2V110h1.4V119z"/>
		<path class="st1" d="M195.7,118.6v-1.5c0.1,0.1,0.3,0.2,0.5,0.3c0.2,0.1,0.4,0.2,0.6,0.3s0.4,0.1,0.6,0.2s0.4,0.1,0.6,0.1
			c0.6,0,1.1-0.1,1.4-0.3c0.3-0.2,0.5-0.5,0.5-0.9c0-0.2-0.1-0.4-0.2-0.6c-0.1-0.2-0.2-0.3-0.4-0.4c-0.2-0.1-0.4-0.3-0.6-0.4
			c-0.2-0.1-0.5-0.2-0.8-0.4c-0.3-0.2-0.6-0.3-0.8-0.5c-0.3-0.2-0.5-0.4-0.7-0.6c-0.2-0.2-0.3-0.4-0.5-0.7c-0.1-0.3-0.2-0.6-0.2-0.9
			c0-0.4,0.1-0.8,0.3-1.1c0.2-0.3,0.4-0.6,0.7-0.8c0.3-0.2,0.7-0.4,1.1-0.4c0.4-0.1,0.8-0.1,1.2-0.1c0.9,0,1.6,0.1,2,0.3v1.5
			c-0.5-0.4-1.2-0.5-2-0.5c-0.2,0-0.4,0-0.7,0.1c-0.2,0-0.4,0.1-0.6,0.2s-0.3,0.2-0.4,0.4c-0.1,0.1-0.2,0.3-0.2,0.5
			c0,0.2,0,0.4,0.1,0.5c0.1,0.1,0.2,0.3,0.4,0.4c0.2,0.1,0.4,0.2,0.6,0.4c0.2,0.1,0.5,0.2,0.8,0.4c0.3,0.2,0.6,0.3,0.9,0.5
			s0.5,0.4,0.7,0.6s0.4,0.5,0.5,0.7c0.1,0.3,0.2,0.6,0.2,0.9c0,0.5-0.1,0.8-0.3,1.1c-0.2,0.3-0.4,0.6-0.7,0.8
			c-0.3,0.2-0.7,0.3-1.1,0.4c-0.4,0.1-0.8,0.1-1.3,0.1c-0.1,0-0.3,0-0.6,0s-0.4-0.1-0.7-0.1c-0.2,0-0.4-0.1-0.6-0.2
			S195.9,118.7,195.7,118.6z"/>
	</g>
</g>
</svg>
