<?xml version="1.0" encoding="utf-8"?>
<!-- Generator: Adobe Illustrator 22.1.0, SVG Export Plug-In . SVG Version: 6.00 Build 0)  -->
<svg version="1.1" id="Layer_1" xmlns="http://www.w3.org/2000/svg" xmlns:xlink="http://www.w3.org/1999/xlink" x="0px" y="0px"
	 viewBox="0 0 1790 516.3" style="enable-background:new 0 0 1790 516.3;" xml:space="preserve">
<style type="text/css">
	.st0{fill:#009DDC;}
	.st1{fill:#005596;}
	.st2{fill:#E31B23;}
	.st3{fill:#B30838;}
</style>
<g>
	<g>
		<path class="st0" d="M879.7,35.8c0,0-77.6-34.3-143.8,51.5c-22.5,29.2-69.9,90.6-115.7,150L431.9,481.4c0,0,77.6,34.3,143.8-51.5
			c9.3-12,22.7-29.5,38.5-50L879.7,35.8z"/>
		<path class="st1" d="M644.9,205.2c-8,10.4-13.9,17.8-22,28.3l-37.3,48.3L570.7,436l250.8-324.9L644.9,205.2z"/>
		<path class="st2" d="M674.9,237.3c-45.8-59.4-93.2-120.8-115.7-150C493,1.4,415.5,35.8,415.5,35.8L681,380
			c15.8,20.5,29.3,38,38.5,50c66.2,85.9,143.8,51.5,143.8,51.5L674.9,237.3z"/>
		<path class="st3" d="M519.8,170.9c0,0,148.9,193,199.8,259c66.2,85.9,143.8,51.5,143.8,51.5l-80.5-104.3L519.8,170.9z"/>
	</g>
	<path class="st1" d="M298.5,168.1c0-37.7-18-66.8-90.8-66.8c-76.2,0-135.3,28.3-135.3,94.2c-20.6-28.3-28.3-52.2-28.3-72.8
		c0-66.8,87.3-92.5,163.6-92.5c117.3,0,180.7,52.2,180.7,142.2v309.1c-21.4-9.4-42-12-61.7-12c-41.1,0-80.5,15.4-128.5,15.4
		c-83.1,0-166.1-32.5-166.1-130.2C32.2,192,266,242.6,298.5,168.1z M301.1,245.1c-18,51.4-179.8,20.5-179.8,109.6
		c0,37.7,28.3,64.2,89.9,64.2c54,0,89.9-19.7,89.9-19.7V245.1z"/>
	<path class="st1" d="M1252.7,390c0,61.1-75.7,97.3-167.8,97.3c-119.6,0-191.9-54.2-191.9-144.6V174.8c0-90.4,62.8-144.6,179-144.6
		s175.6,54.2,175.6,136c0,71.4-45.6,134.3-176.4,134.3c-28.4,0-64.6-5.2-87.8-18.1v47.3c0,55.9,29.3,84.3,101.6,84.3
		c82.6,0,142.9-33.6,143.7-89.5C1244.9,348.7,1252.7,370.2,1252.7,390z M983.3,215.2c4.3,1.7,45.6,12.1,76.6,12.1
		c72.3,0,97.3-22.4,97.3-61.1c0-39.6-23.2-67.1-86.9-67.1c-68.8,0-86.9,32.7-86.9,88.6v27.5H983.3z"/>
	<path class="st1" d="M1579.4,177.2c0-49.4-25.2-78.1-94.6-78.1c-53.8,0-92.8,14.7-92.8,14.7v370.4c0,0-91.1,0-91.1-49.5V29.8
		c9.5,5.2,36.4,16.5,66.8,16.5c42.5,0,81.5-18.2,129.3-18.2c84.1,0,173.5,28.6,173.5,136.2v320.1c0,0-91.1-1.7-91.1-49.4
		L1579.4,177.2L1579.4,177.2z"/>
	<g>
		<path class="st1" d="M1688.6,437.7c0-19.1,15.7-34.7,34.7-34.7c19.1,0,34.7,15.7,34.7,34.7c0,19.2-15.5,34.7-34.7,34.7
			C1704.2,472.4,1688.6,456.9,1688.6,437.7z M1723.3,467.2c16.2,0,29.5-13.3,29.5-29.5c0-16.3-13.3-29.6-29.5-29.6
			s-29.5,13.3-29.5,29.6C1693.8,453.9,1707,467.2,1723.3,467.2z M1710.1,418.5h12.3c6.9,0,14.9,1.2,14.9,11.8c0,6.5-4,7.8-6.4,9
			l6.8,15.8h-7.4l-5.6-14.8h-8v14.8h-6.6L1710.1,418.5L1710.1,418.5z M1716.8,434.4h8c3.1,0,5.6-1.5,5.6-4.7s-2.2-4.9-6.2-4.9h-7.4
			V434.4z"/>
	</g>
</g>
</svg>
