<svg width="485" height="90" xmlns="http://www.w3.org/2000/svg">
 <defs>
  <style type="text/css">.fil1 {fill:black}
    .fil0 {fill:#2049A3}
    .fil2 {fill:white}</style>
  <style type="text/css">.fil1 {fill:black}
    .fil0 {fill:#2049A3}
    .fil2 {fill:white}</style>
 </defs>
 <g>
  <title>Azure Cloud</title>
  <path fill="#035bda" fill-rule="evenodd" stroke-width="1px" id="path7291" d="m73.39029,16.39583l-15.53091,31.2793l27.34331,31.69125l-50.74916,5.76134l78.7484,0.82392l-39.81164,-69.55581z"/>
  <path fill="#035bda" fill-rule="evenodd" stroke-width="1px" id="path7293" d="m70.32771,4.04837l-35.65522,29.83918l-26.46842,44.65578l22.53095,-2.26402l39.59269,-72.23094z"/>
  <path stroke-width="1px" fill="#035bda" id="path4499" d="m145.94,41.48411l-7.91466,21.46202l15.85821,0l-7.94355,-21.46202zm-3.29296,-5.74824l6.61481,0l16.43592,43.12624l-6.06598,0l-3.92844,-11.0632l-19.44003,0l-3.92845,11.0632l-6.15263,0l16.4648,-43.12624z"/>
  <path stroke-width="1px" fill="#035bda" id="path4501" d="m169.42402,46.51021l25.24604,0l0,4.85278l-19.98886,23.25293l19.98886,0l0,4.24619l-25.96818,0l0,-4.85279l19.98885,-23.25292l-19.26671,0l0,-4.24619z"/>
  <path stroke-width="1px" fill="#035bda" id="path4503" d="m202.26698,66.09466l0,-19.58445l5.31495,0l0,19.38225q0,4.59282 1.79091,6.90367q1.79091,2.28196 5.37273,2.28196q4.30396,0 6.78812,-2.74413q2.51305,-2.74414 2.51305,-7.48138l0,-18.34237l5.31495,0l0,32.3519l-5.31495,0l0,-4.96833q-1.93534,2.94633 -4.50616,4.39062q-2.54193,1.41539 -5.92155,1.41539q-5.57493,0 -8.46349,-3.46627q-2.88856,-3.46628 -2.88856,-10.13886zm13.37404,-20.36436l0,0z"/>
  <path stroke-width="1px" fill="#035bda" id="path4505" d="m259.11388,51.47854q-0.89545,-0.51995 -1.96422,-0.75103q-1.03988,-0.25997 -2.31085,-0.25997q-4.50616,0 -6.93255,2.94633q-2.39751,2.91745 -2.39751,8.40572l0,17.04252l-5.34384,0l0,-32.3519l5.34384,0l0,5.0261q1.67537,-2.94634 4.36173,-4.36173q2.68637,-1.44428 6.52815,-1.44428q0.54883,0 1.2132,0.08666q0.66437,0.05777 1.47317,0.2022l0.0289,5.45938l-0.00002,0z"/>
  <path stroke-width="1px" fill="#035bda" id="path4507" d="m291.14804,61.35742l0,2.59971l-24.43724,0q0.34663,5.48827 3.29296,8.37683q2.97522,2.85967 8.26129,2.85967q3.06188,0 5.92155,-0.75102q2.88857,-0.75103 5.71936,-2.25308l0,5.0261q-2.85968,1.2132 -5.86378,1.84868q-3.00411,0.63548 -6.09487,0.63548q-7.74135,0 -12.27639,-4.50615q-4.50616,-4.50616 -4.50616,-12.18974q0,-7.94355 4.27507,-12.59413q4.30396,-4.67947 11.58314,-4.67947q6.52815,0 10.31217,4.2173q3.8129,4.18841 3.8129,11.40982zm-5.31496,-1.55982q-0.0578,-4.36173 -2.45527,-6.96144q-2.36863,-2.59971 -6.29707,-2.59971q-4.44839,0 -7.13475,2.51305q-2.65748,2.51305 -3.06188,7.07698l18.94897,-0.02888z"/>
  <path stroke-width="1px" fill="#035bda" id="path4509" d="m351.23015,39.05772l0,6.15264q-2.94634,-2.74414 -6.29707,-4.10176q-3.32184,-1.35763 -7.07698,-1.35763q-7.39472,0 -11.32316,4.53505q-3.92845,4.50615 -3.92845,13.0563q0,8.52126 3.92845,13.0563q3.92844,4.50616 11.32316,4.50616q3.75514,0 7.07698,-1.35763q3.35073,-1.35762 6.29707,-4.10175l0,6.09486q-3.06188,2.07977 -6.49927,3.11965q-3.4085,1.03988 -7.2214,1.03988q-9.79223,0 -15.42493,-5.97932q-5.63269,-6.00821 -5.63269,-16.37815q0,-10.39883 5.63269,-16.37815q5.6327,-6.00821 15.42493,-6.00821q3.87067,0 7.27917,1.03988q3.43739,1.011 6.4415,3.06188z"/>
  <path stroke-width="1px" fill="#035bda" id="path4511" d="m360.06915,33.91608l5.31495,0l0,44.94603l-5.31495,0l0,-44.94603z"/>
  <path stroke-width="1px" fill="#035bda" id="path4513" d="m389.01254,50.23645q-4.27508,0 -6.75924,3.35074q-2.48416,3.32184 -2.48416,9.12785q0,5.80602 2.45527,9.15675q2.48417,3.32185 6.78813,3.32185q4.24618,0 6.73035,-3.35074q2.48416,-3.35073 2.48416,-9.12786q0,-5.74823 -2.48416,-9.09897q-2.48417,-3.37962 -6.73035,-3.37962zm0,-4.50615q6.93255,0 10.88988,4.50615q3.95733,4.50616 3.95733,12.47859q0,7.94355 -3.95733,12.4786q-3.95733,4.50615 -10.88988,4.50615q-6.96144,0 -10.91877,-4.50615q-3.92845,-4.53505 -3.92845,-12.4786q0,-7.97243 3.92845,-12.47859q3.95733,-4.50615 10.91877,-4.50615z"/>
  <path stroke-width="1px" fill="#035bda" id="path4515" d="m412.09214,66.09466l0,-19.58445l5.31496,0l0,19.38225q0,4.59282 1.79091,6.90367q1.79091,2.28196 5.37272,2.28196q4.30396,0 6.78813,-2.74413q2.51304,-2.74414 2.51304,-7.48138l0,-18.34237l5.31496,0l0,32.3519l-5.31496,0l0,-4.96833q-1.93533,2.94633 -4.50615,4.39062q-2.54194,1.41539 -5.92156,1.41539q-5.57492,0 -8.46348,-3.46627q-2.88857,-3.46628 -2.88857,-10.13886zm13.37405,-20.36436l0,0z"/>
  <path stroke-width="1px" fill="#035bda" id="path4517" d="m471.48101,51.42076l0,-17.50468l5.31495,0l0,44.94603l-5.31495,0l0,-4.85279q-1.67537,2.88857 -4.24619,4.30396q-2.54194,1.38651 -6.12375,1.38651q-5.86379,0 -9.56115,-4.67947q-3.66847,-4.67947 -3.66847,-12.30528q0,-7.6258 3.66847,-12.30527q3.69736,-4.67947 9.56115,-4.67947q3.58181,0 6.12375,1.41539q2.57082,1.38651 4.24619,4.27507zm-18.11129,11.29428q0,5.86379 2.39751,9.21452q2.42639,3.32185 6.64369,3.32185q4.2173,0 6.64369,-3.32185q2.4264,-3.35073 2.4264,-9.21452q0,-5.86378 -2.4264,-9.18562q-2.42639,-3.35074 -6.64369,-3.35074q-4.2173,0 -6.64369,3.35074q-2.39751,3.32184 -2.39751,9.18562z"/>
 </g>
</svg>
