<?xml version="1.0" encoding="UTF-8" standalone="no"?>
<!-- Created with Inkscape (http://www.inkscape.org/) -->

<svg
   xmlns:dc="http://purl.org/dc/elements/1.1/"
   xmlns:cc="http://creativecommons.org/ns#"
   xmlns:rdf="http://www.w3.org/1999/02/22-rdf-syntax-ns#"
   xmlns:svg="http://www.w3.org/2000/svg"
   xmlns="http://www.w3.org/2000/svg"
   xmlns:sodipodi="http://sodipodi.sourceforge.net/DTD/sodipodi-0.dtd"
   xmlns:inkscape="http://www.inkscape.org/namespaces/inkscape"
   width="210mm"
   height="70mm"
   viewBox="0 0 744.09449 248.0315"
   id="svg8368"
   version="1.1"
   inkscape:version="0.91 r13725"
   sodipodi:docname="MS_Partner.svg">
  <defs
     id="defs8370" />
  <sodipodi:namedview
     id="base"
     pagecolor="#ffffff"
     bordercolor="#666666"
     borderopacity="1.0"
     inkscape:pageopacity="0.0"
     inkscape:pageshadow="2"
     inkscape:zoom="0.35"
     inkscape:cx="-55"
     inkscape:cy="520"
     inkscape:document-units="px"
     inkscape:current-layer="layer1"
     showgrid="false"
     inkscape:window-width="1366"
     inkscape:window-height="742"
     inkscape:window-x="0"
     inkscape:window-y="0"
     inkscape:window-maximized="1" />
  <metadata
     id="metadata8373">
    <rdf:RDF>
      <cc:Work
         rdf:about="">
        <dc:format>image/svg+xml</dc:format>
        <dc:type
           rdf:resource="http://purl.org/dc/dcmitype/StillImage" />
        <dc:title></dc:title>
      </cc:Work>
    </rdf:RDF>
  </metadata>
  <g
     inkscape:label="Layer 1"
     inkscape:groupmode="layer"
     id="layer1"
     transform="translate(0,-804.33074)">
    <g
       id="g9438"
       transform="matrix(1.0800949,0,0,1.0800949,6.6984432,-67.961323)">
      <g
         transform="matrix(4.5342773,0,0,-4.5342773,75.232327,917.42077)"
         id="g766">
        <path
           inkscape:connector-curvature="0"
           id="path768"
           style="fill:#090a0a;fill-opacity:1;fill-rule:nonzero;stroke:none"
           d="m 0,0 c 0.276,-0.073 0.625,-0.103 1.048,-0.103 1.529,0 2.461,0.744 2.461,2.097 0,1.296 -0.918,1.923 -2.316,1.923 C 0.64,3.917 0.218,3.873 0,3.814 L 0,0 Z M -1.268,4.732 C -0.656,4.834 0.145,4.921 1.165,4.921 2.417,4.921 3.334,4.63 3.916,4.105 4.455,3.64 4.775,2.926 4.775,2.053 4.775,1.164 4.513,0.466 4.018,-0.044 3.349,-0.757 2.256,-1.121 1.019,-1.121 0.64,-1.121 0.291,-1.106 0,-1.034 l 0,-3.931 -1.268,0 0,9.697 z" />
      </g>
      <g
         transform="matrix(4.5342773,0,0,-4.5342773,119.52995,923.6291)"
         id="g770">
        <path
           inkscape:connector-curvature="0"
           id="path772"
           style="fill:#090a0a;fill-opacity:1;fill-rule:nonzero;stroke:none"
           d="m 0,0 c -1.398,0.029 -2.984,-0.218 -2.984,-1.587 0,-0.829 0.553,-1.223 1.208,-1.223 0.917,0 1.499,0.582 1.704,1.179 C -0.029,-1.499 0,-1.354 0,-1.223 L 0,0 Z m 1.237,-1.906 c 0,-0.613 0.03,-1.209 0.117,-1.69 l -1.165,0 -0.102,0.888 -0.043,0 c -0.394,-0.553 -1.15,-1.049 -2.155,-1.049 -1.428,0 -2.155,1.006 -2.155,2.025 0,1.703 1.515,2.634 4.237,2.621 l 0,0.145 c 0,0.582 -0.16,1.631 -1.602,1.631 -0.655,0 -1.339,-0.204 -1.834,-0.524 l -0.292,0.844 c 0.583,0.378 1.427,0.626 2.315,0.626 2.155,0 2.679,-1.47 2.679,-2.882 l 0,-2.635 z" />
      </g>
      <g
         transform="matrix(4.5342773,0,0,-4.5342773,134.51437,917.95219)"
         id="g774">
        <path
           inkscape:connector-curvature="0"
           id="path776"
           style="fill:#090a0a;fill-opacity:1;fill-rule:nonzero;stroke:none"
           d="m 0,0 c 0,0.83 -0.015,1.544 -0.059,2.199 l 1.122,0 0.043,-1.384 0.059,0 c 0.32,0.947 1.092,1.544 1.951,1.544 0.145,0 0.247,-0.014 0.363,-0.044 l 0,-1.208 C 3.349,1.137 3.217,1.15 3.043,1.15 2.14,1.15 1.5,0.466 1.325,-0.494 1.296,-0.669 1.267,-0.873 1.267,-1.091 l 0,-3.757 L 0,-4.848 0,0 Z" />
      </g>
      <g
         transform="matrix(4.5342773,0,0,-4.5342773,164.68455,900.32429)"
         id="g778">
        <path
           inkscape:connector-curvature="0"
           id="path780"
           style="fill:#090a0a;fill-opacity:1;fill-rule:nonzero;stroke:none"
           d="m 0,0 0,-1.688 1.834,0 0,-0.976 -1.834,0 0,-3.801 c 0,-0.873 0.248,-1.368 0.96,-1.368 0.35,0 0.554,0.029 0.743,0.088 l 0.058,-0.961 c -0.247,-0.102 -0.64,-0.19 -1.136,-0.19 -0.597,0 -1.076,0.205 -1.382,0.554 -0.365,0.378 -0.496,1.004 -0.496,1.834 l 0,3.844 -1.091,0 0,0.976 1.091,0 0,1.294 L 0,0 Z" />
      </g>
      <g
         transform="matrix(4.5342773,0,0,-4.5342773,179.53612,916.62817)"
         id="g782">
        <path
           inkscape:connector-curvature="0"
           id="path784"
           style="fill:#090a0a;fill-opacity:1;fill-rule:nonzero;stroke:none"
           d="m 0,0 c 0,0.729 -0.015,1.324 -0.059,1.907 l 1.137,0 0.072,-1.164 0.029,0 c 0.35,0.669 1.165,1.324 2.33,1.324 0.975,0 2.489,-0.583 2.489,-2.999 l 0,-4.208 -1.281,0 0,4.062 c 0,1.136 -0.422,2.082 -1.631,2.082 -0.844,0 -1.5,-0.597 -1.718,-1.311 C 1.311,-0.466 1.281,-0.685 1.281,-0.902 l 0,-4.238 L 0,-5.14 0,0 Z" />
      </g>
      <g
         transform="matrix(4.5342773,0,0,-4.5342773,236.4472,920.85278)"
         id="g786">
        <path
           inkscape:connector-curvature="0"
           id="path788"
           style="fill:#090a0a;fill-opacity:1;fill-rule:nonzero;stroke:none"
           d="M 0,0 C 0.014,0.815 -0.335,2.082 -1.776,2.082 -3.072,2.082 -3.64,0.888 -3.742,0 L 0,0 Z m -3.757,-0.917 c 0.029,-1.733 1.136,-2.446 2.417,-2.446 0.917,0 1.47,0.159 1.951,0.364 l 0.218,-0.918 c -0.451,-0.204 -1.223,-0.452 -2.344,-0.452 -2.169,0 -3.465,1.442 -3.465,3.568 0,2.125 1.252,3.8 3.305,3.8 2.3,0 2.912,-2.023 2.912,-3.319 0,-0.263 -0.029,-0.466 -0.044,-0.597 l -4.95,0 z" />
      </g>
      <g
         transform="matrix(4.5342773,0,0,-4.5342773,249.25063,917.95219)"
         id="g790">
        <path
           inkscape:connector-curvature="0"
           id="path792"
           style="fill:#090a0a;fill-opacity:1;fill-rule:nonzero;stroke:none"
           d="m 0,0 c 0,0.83 -0.015,1.544 -0.059,2.199 l 1.122,0 0.043,-1.384 0.059,0 c 0.32,0.947 1.092,1.544 1.951,1.544 0.146,0 0.247,-0.014 0.364,-0.044 l 0,-1.208 C 3.349,1.137 3.218,1.15 3.043,1.15 2.14,1.15 1.5,0.466 1.326,-0.494 1.296,-0.669 1.267,-0.873 1.267,-1.091 l 0,-3.757 L 0,-4.848 0,0 Z" />
      </g>
      <g
         transform="matrix(4.5342773,0,0,-4.5342773,54.870247,857.70027)"
         id="g794">
        <path
           inkscape:connector-curvature="0"
           id="path796"
           style="fill:#090a0a;fill-opacity:1;fill-rule:nonzero;stroke:none"
           d="m 0,0 c -0.07,1.368 -0.156,3.014 -0.142,4.237 l -0.042,0 C -0.51,3.087 -0.907,1.849 -1.389,0.51 l -1.687,-4.762 -0.935,0 -1.545,4.674 c -0.453,1.383 -0.837,2.65 -1.105,3.815 l -0.028,0 c -0.029,-1.223 -0.1,-2.869 -0.185,-4.339 l -0.255,-4.208 -1.177,0 0.667,9.814 1.573,0 1.63,-4.746 c 0.397,-1.209 0.723,-2.287 0.964,-3.306 l 0.042,0 c 0.241,0.989 0.581,2.068 1.006,3.306 l 1.701,4.746 1.574,0 0.595,-9.814 -1.205,0 L 0,0 Z" />
      </g>
      <path
         inkscape:connector-curvature="0"
         id="path798"
         style="fill:#090a0a;fill-opacity:1;fill-rule:nonzero;stroke:none"
         d="m 70.612805,845.28995 5.658778,0 0,31.95306 -5.658778,0 0,-31.95306 z m 6.293577,-8.9824 c 0.06801,1.98602 -1.34668,3.56848 -3.595682,3.56848 -1.990548,0 -3.405243,-1.58246 -3.405243,-3.56848 0,-2.04496 1.478175,-3.63195 3.532203,-3.63195 2.122042,0 3.468722,1.58699 3.468722,3.63195" />
      <g
         transform="matrix(4.5342773,0,0,-4.5342773,107.81564,876.05456)"
         id="g800">
        <path
           inkscape:connector-curvature="0"
           id="path802"
           style="fill:#090a0a;fill-opacity:1;fill-rule:nonzero;stroke:none"
           d="m 0,0 c -0.326,-0.175 -1.048,-0.423 -1.97,-0.423 -2.07,0 -3.416,1.457 -3.416,3.611 0,2.17 1.446,3.743 3.685,3.743 0.738,0 1.389,-0.19 1.729,-0.365 L -0.255,5.577 c -0.297,0.174 -0.765,0.334 -1.446,0.334 -1.572,0 -2.423,-1.193 -2.423,-2.664 0,-1.631 1.02,-2.635 2.381,-2.635 0.708,0 1.176,0.189 1.531,0.349 L 0,0 Z" />
      </g>
      <g
         transform="matrix(4.5342773,0,0,-4.5342773,114.43569,855.26036)"
         id="g804">
        <path
           inkscape:connector-curvature="0"
           id="path806"
           style="fill:#090a0a;fill-opacity:1;fill-rule:nonzero;stroke:none"
           d="m 0,0 c 0,0.83 -0.014,1.544 -0.057,2.199 l 1.092,0 0.043,-1.384 0.056,0 c 0.311,0.947 1.063,1.544 1.899,1.544 0.142,0 0.241,-0.014 0.354,-0.043 l 0,-1.209 C 3.26,1.137 3.132,1.151 2.962,1.151 2.084,1.151 1.46,0.466 1.29,-0.494 1.261,-0.669 1.233,-0.873 1.233,-1.091 l 0,-3.757 L 0,-4.848 0,0 Z" />
      </g>
      <g
         transform="matrix(4.5342773,0,0,-4.5342773,138.27828,861.33132)"
         id="g808">
        <path
           inkscape:connector-curvature="0"
           id="path810"
           style="fill:#090a0a;fill-opacity:1;fill-rule:nonzero;stroke:none"
           d="m 0,0 c 0,-1.544 0.864,-2.708 2.083,-2.708 1.19,0 2.084,1.149 2.084,2.737 0,1.194 -0.582,2.708 -2.056,2.708 C 0.637,2.737 0,1.339 0,0 m 5.442,0.072 c 0,-2.605 -1.758,-3.742 -3.416,-3.742 -1.857,0 -3.288,1.399 -3.288,3.626 0,2.359 1.502,3.742 3.402,3.742 1.97,0 3.302,-1.47 3.302,-3.626" />
      </g>
      <g
         transform="matrix(4.5342773,0,0,-4.5342773,169.31405,871.29857)"
         id="g812">
        <path
           inkscape:connector-curvature="0"
           id="path814"
           style="fill:#090a0a;fill-opacity:1;fill-rule:nonzero;stroke:none"
           d="m 0,0 c 0.368,-0.248 1.02,-0.51 1.644,-0.51 0.907,0 1.332,0.466 1.332,1.048 0,0.612 -0.355,0.946 -1.276,1.296 -1.232,0.451 -1.814,1.15 -1.814,1.995 0,1.136 0.893,2.067 2.367,2.067 0.695,0 1.304,-0.204 1.687,-0.436 L 3.628,4.528 C 3.358,4.702 2.862,4.936 2.225,4.936 1.488,4.936 1.077,4.499 1.077,3.975 1.077,3.393 1.488,3.13 2.381,2.78 3.571,2.314 4.18,1.703 4.18,0.654 c 0,-1.236 -0.935,-2.126 -2.565,-2.126 -0.751,0 -1.446,0.205 -1.927,0.496 L 0,0 Z" />
      </g>
      <g
         transform="matrix(4.5342773,0,0,-4.5342773,199.00178,861.33132)"
         id="g816">
        <path
           inkscape:connector-curvature="0"
           id="path818"
           style="fill:#090a0a;fill-opacity:1;fill-rule:nonzero;stroke:none"
           d="m 0,0 c 0,-1.544 0.864,-2.708 2.083,-2.708 1.19,0 2.084,1.149 2.084,2.737 0,1.194 -0.582,2.708 -2.056,2.708 C 0.638,2.737 0,1.339 0,0 m 5.443,0.072 c 0,-2.605 -1.758,-3.742 -3.417,-3.742 -1.856,0 -3.288,1.399 -3.288,3.626 0,2.359 1.502,3.742 3.402,3.742 1.97,0 3.303,-1.47 3.303,-3.626" />
      </g>
      <g
         transform="matrix(4.5342773,0,0,-4.5342773,231.39011,877.2412)"
         id="g820">
        <path
           inkscape:connector-curvature="0"
           id="path822"
           style="fill:#090a0a;fill-opacity:1;fill-rule:nonzero;stroke:none"
           d="m 0,0 0,6.071 -0.964,0 0,0.976 0.964,0 0,0.335 c 0,0.99 0.213,1.892 0.794,2.46 0.467,0.466 1.091,0.656 1.672,0.656 0.44,0 0.822,-0.102 1.063,-0.204 L 3.359,9.304 C 3.175,9.391 2.92,9.464 2.565,9.464 1.502,9.464 1.233,8.503 1.233,7.425 l 0,-0.378 1.659,0 0,-0.976 -1.659,0 L 1.233,0 0,0 Z" />
      </g>
      <g
         transform="matrix(4.5342773,0,0,-4.5342773,257.0904,837.63247)"
         id="g824">
        <path
           inkscape:connector-curvature="0"
           id="path826"
           style="fill:#090a0a;fill-opacity:1;fill-rule:nonzero;stroke:none"
           d="m 0,0 0,-1.688 1.786,0 0,-0.976 -1.786,0 0,-3.8 c 0,-0.874 0.241,-1.369 0.936,-1.369 0.34,0 0.538,0.029 0.722,0.087 l 0.057,-0.96 c -0.241,-0.102 -0.624,-0.19 -1.105,-0.19 -0.582,0 -1.049,0.205 -1.346,0.554 -0.355,0.378 -0.483,1.004 -0.483,1.834 l 0,3.844 -1.063,0 0,0.976 1.063,0 0,1.295 L 0,0 Z" />
      </g>
      <g
         transform="matrix(4.5342773,0,0,-4.5342773,160.42278,998.64826)"
         id="g828">
        <path
           inkscape:connector-curvature="0"
           id="path830"
           style="fill:#777674;fill-opacity:1;fill-rule:nonzero;stroke:none"
           d="m 0,0 c -0.036,0.691 -0.077,1.522 -0.071,2.14 l -0.021,0 C -0.252,1.559 -0.449,0.935 -0.687,0.257 l -0.834,-2.403 -0.463,0 -0.764,2.359 C -2.972,0.912 -3.161,1.552 -3.294,2.14 l -0.014,0 C -3.322,1.522 -3.357,0.691 -3.399,-0.051 l -0.126,-2.125 -0.582,0 0.329,4.955 0.778,0 0.806,-2.397 c 0.196,-0.61 0.358,-1.153 0.477,-1.668 l 0.021,0 c 0.118,0.5 0.287,1.044 0.497,1.668 l 0.841,2.397 0.778,0 0.294,-4.955 -0.596,0 L 0,0 Z" />
      </g>
      <path
         inkscape:connector-curvature="0"
         id="path832"
         style="fill:#777674;fill-opacity:1;fill-rule:nonzero;stroke:none"
         d="m 168.20406,992.3774 2.79765,0 0,16.1375 -2.79765,0 0,-16.1375 z m 3.11504,-4.53431 c 0.0272,1.00661 -0.67106,1.80461 -1.78197,1.80461 -0.98393,0 -1.68222,-0.798 -1.68222,-1.80461 0,-1.02476 0.72549,-1.83187 1.7457,-1.83187 1.04743,0 1.71849,0.80711 1.71849,1.83187" />
      <g
         transform="matrix(4.5342773,0,0,-4.5342773,186.60098,1007.9158)"
         id="g834">
        <path
           inkscape:connector-curvature="0"
           id="path836"
           style="fill:#777674;fill-opacity:1;fill-rule:nonzero;stroke:none"
           d="m 0,0 c -0.161,-0.088 -0.519,-0.213 -0.974,-0.213 -1.024,0 -1.69,0.734 -1.69,1.823 0,1.096 0.716,1.89 1.823,1.89 0.364,0 0.687,-0.096 0.855,-0.185 l -0.14,-0.5 c -0.147,0.088 -0.378,0.17 -0.715,0.17 -0.778,0 -1.199,-0.603 -1.199,-1.345 0,-0.824 0.505,-1.33 1.178,-1.33 0.35,0 0.581,0.094 0.757,0.175 L 0,0 Z" />
      </g>
      <g
         transform="matrix(4.5342773,0,0,-4.5342773,189.8711,997.41723)"
         id="g838">
        <path
           inkscape:connector-curvature="0"
           id="path840"
           style="fill:#777674;fill-opacity:1;fill-rule:nonzero;stroke:none"
           d="m 0,0 c 0,0.42 -0.008,0.78 -0.029,1.111 l 0.541,0 0.02,-0.699 0.028,0 C 0.714,0.89 1.085,1.191 1.5,1.191 1.569,1.191 1.619,1.185 1.674,1.17 l 0,-0.611 C 1.611,0.573 1.548,0.581 1.464,0.581 1.03,0.581 0.722,0.236 0.637,-0.249 0.624,-0.338 0.609,-0.44 0.609,-0.551 l 0,-1.896 L 0,-2.447 0,0 Z" />
      </g>
      <g
         transform="matrix(4.5342773,0,0,-4.5342773,201.65614,1000.4815)"
         id="g842">
        <path
           inkscape:connector-curvature="0"
           id="path844"
           style="fill:#777674;fill-opacity:1;fill-rule:nonzero;stroke:none"
           d="m 0,0 c 0,-0.779 0.427,-1.367 1.031,-1.367 0.588,0 1.03,0.58 1.03,1.382 0,0.602 -0.288,1.368 -1.017,1.368 C 0.315,1.383 0,0.676 0,0 m 2.691,0.037 c 0,-1.316 -0.869,-1.89 -1.689,-1.89 -0.918,0 -1.626,0.706 -1.626,1.832 0,1.19 0.743,1.888 1.682,1.888 0.974,0 1.633,-0.742 1.633,-1.83" />
      </g>
      <g
         transform="matrix(4.5342773,0,0,-4.5342773,217.0015,1005.5159)"
         id="g846">
        <path
           inkscape:connector-curvature="0"
           id="path848"
           style="fill:#777674;fill-opacity:1;fill-rule:nonzero;stroke:none"
           d="m 0,0 c 0.183,-0.125 0.504,-0.257 0.812,-0.257 0.449,0 0.66,0.235 0.66,0.529 0,0.309 -0.175,0.478 -0.631,0.655 -0.61,0.227 -0.897,0.581 -0.897,1.008 0,0.573 0.441,1.043 1.17,1.043 0.344,0 0.645,-0.103 0.834,-0.221 L 1.794,2.286 C 1.661,2.374 1.415,2.493 1.101,2.493 0.735,2.493 0.533,2.271 0.533,2.008 0.533,1.713 0.735,1.581 1.178,1.404 1.767,1.169 2.067,0.86 2.067,0.331 c 0,-0.625 -0.462,-1.073 -1.268,-1.073 -0.372,0 -0.715,0.102 -0.953,0.25 L 0,0 Z" />
      </g>
      <g
         transform="matrix(4.5342773,0,0,-4.5342773,231.68031,1000.4815)"
         id="g850">
        <path
           inkscape:connector-curvature="0"
           id="path852"
           style="fill:#777674;fill-opacity:1;fill-rule:nonzero;stroke:none"
           d="m 0,0 c 0,-0.779 0.428,-1.367 1.031,-1.367 0.588,0 1.03,0.58 1.03,1.382 0,0.602 -0.288,1.368 -1.016,1.368 C 0.316,1.383 0,0.676 0,0 m 2.691,0.037 c 0,-1.316 -0.868,-1.89 -1.689,-1.89 -0.918,0 -1.626,0.706 -1.626,1.832 0,1.19 0.744,1.888 1.683,1.888 0.974,0 1.632,-0.742 1.632,-1.83" />
      </g>
      <g
         transform="matrix(4.5342773,0,0,-4.5342773,247.69628,1008.514)"
         id="g854">
        <path
           inkscape:connector-curvature="0"
           id="path856"
           style="fill:#777674;fill-opacity:1;fill-rule:nonzero;stroke:none"
           d="m 0,0 0,3.065 -0.477,0 0,0.494 0.477,0 0,0.169 C 0,4.227 0.104,4.683 0.392,4.97 0.624,5.205 0.932,5.3 1.219,5.3 1.436,5.3 1.625,5.249 1.745,5.197 L 1.66,4.697 C 1.569,4.741 1.443,4.778 1.268,4.778 0.742,4.778 0.609,4.293 0.609,3.749 l 0,-0.19 0.82,0 0,-0.494 -0.82,0 L 0.609,0 0,0 Z" />
      </g>
      <g
         transform="matrix(4.5342773,0,0,-4.5342773,260.40496,988.51687)"
         id="g858">
        <path
           inkscape:connector-curvature="0"
           id="path860"
           style="fill:#777674;fill-opacity:1;fill-rule:nonzero;stroke:none"
           d="m 0,0 0,-0.852 0.882,0 0,-0.493 -0.882,0 0,-1.919 c 0,-0.441 0.119,-0.69 0.462,-0.69 0.168,0 0.267,0.015 0.358,0.044 L 0.848,-4.396 C 0.729,-4.447 0.54,-4.491 0.301,-4.491 c -0.287,0 -0.518,0.102 -0.666,0.279 -0.175,0.191 -0.238,0.507 -0.238,0.926 l 0,1.941 -0.525,0 0,0.493 0.525,0 0,0.654 L 0,0 Z" />
      </g>
      <g
         transform="matrix(4.5342773,0,0,-4.5342773,336.70596,874.67298)"
         id="g862">
        <path
           inkscape:connector-curvature="0"
           id="path864"
           style="fill:#846d2a;fill-opacity:1;fill-rule:nonzero;stroke:none"
           d="m 0,0 c -0.219,-0.082 -0.652,-0.218 -1.163,-0.218 -0.573,0 -1.045,0.154 -1.416,0.525 -0.326,0.329 -0.528,0.859 -0.528,1.477 0.006,1.184 0.781,2.05 2.05,2.05 0.439,0 0.782,-0.1 0.944,-0.183 L -0.231,3.233 c -0.202,0.095 -0.455,0.171 -0.836,0.171 -0.922,0 -1.523,-0.601 -1.523,-1.596 0,-1.007 0.579,-1.602 1.46,-1.602 0.321,0 0.54,0.047 0.652,0.106 l 0,1.184 -0.769,0 0,0.412 L 0,1.908 0,0 Z" />
      </g>
      <g
         transform="matrix(4.5342773,0,0,-4.5342773,341.5259,869.03596)"
         id="g866">
        <path
           inkscape:connector-curvature="0"
           id="path868"
           style="fill:#846d2a;fill-opacity:1;fill-rule:nonzero;stroke:none"
           d="m 0,0 c 0,-0.625 0.342,-1.096 0.826,-1.096 0.472,0 0.826,0.466 0.826,1.108 0,0.482 -0.231,1.094 -0.815,1.094 C 0.252,1.106 0,0.541 0,0 m 2.157,0.029 c 0,-1.054 -0.697,-1.514 -1.353,-1.514 -0.737,0 -1.304,0.566 -1.304,1.466 0,0.956 0.596,1.515 1.349,1.515 0.78,0 1.308,-0.596 1.308,-1.467" />
      </g>
      <path
         inkscape:connector-curvature="0"
         id="path870"
         style="fill:#846d2a;fill-opacity:1;fill-rule:nonzero;stroke:none"
         d="m 354.1457,856.50775 2.24446,0 0,18.96689 -2.24446,0 0,-18.96689 z" />
      <g
         transform="matrix(4.5342773,0,0,-4.5342773,368.56107,867.80943)"
         id="g872">
        <path
           inkscape:connector-curvature="0"
           id="path874"
           style="fill:#846d2a;fill-opacity:1;fill-rule:nonzero;stroke:none"
           d="m 0,0 c 0,0.065 -0.005,0.153 -0.022,0.218 -0.073,0.33 -0.343,0.601 -0.713,0.601 -0.511,0 -0.815,-0.471 -0.815,-1.101 0,-0.578 0.27,-1.055 0.804,-1.055 0.331,0 0.634,0.23 0.724,0.619 C -0.005,-0.647 0,-0.577 0,-0.494 L 0,0 Z m 0.495,2.492 0,-3.446 c 0,-0.253 0.006,-0.542 0.023,-0.736 l -0.444,0 -0.022,0.494 -0.012,0 c -0.152,-0.318 -0.484,-0.56 -0.927,-0.56 -0.657,0 -1.163,0.584 -1.163,1.449 -0.005,0.949 0.556,1.533 1.219,1.533 0.416,0 0.696,-0.207 0.82,-0.436 l 0.011,0 0,1.702 0.495,0 z" />
      </g>
      <g
         transform="matrix(4.5342773,0,0,-4.5342773,392.00964,874.88972)"
         id="g876">
        <path
           inkscape:connector-curvature="0"
           id="path878"
           style="fill:#846d2a;fill-opacity:1;fill-rule:nonzero;stroke:none"
           d="m 0,0 c -0.18,-0.093 -0.54,-0.194 -1,-0.194 -1.067,0 -1.871,0.713 -1.871,2.015 0,1.242 0.804,2.084 1.977,2.084 0.473,0 0.771,-0.106 0.899,-0.176 L -0.112,3.311 c -0.185,0.094 -0.45,0.165 -0.764,0.165 -0.888,0 -1.478,-0.595 -1.478,-1.637 0,-0.973 0.534,-1.597 1.455,-1.597 0.298,0 0.602,0.065 0.798,0.164 L 0,0 Z" />
      </g>
      <path
         inkscape:connector-curvature="0"
         id="path880"
         style="fill:#846d2a;fill-opacity:1;fill-rule:nonzero;stroke:none"
         d="m 394.71384,856.50775 2.24451,0 0,18.96689 -2.24451,0 0,-18.96689 z" />
      <g
         transform="matrix(4.5342773,0,0,-4.5342773,402.10523,869.03596)"
         id="g882">
        <path
           inkscape:connector-curvature="0"
           id="path884"
           style="fill:#846d2a;fill-opacity:1;fill-rule:nonzero;stroke:none"
           d="m 0,0 c 0,-0.625 0.343,-1.096 0.826,-1.096 0.472,0 0.826,0.466 0.826,1.108 0,0.482 -0.23,1.094 -0.816,1.094 C 0.253,1.106 0,0.541 0,0 m 2.157,0.029 c 0,-1.054 -0.697,-1.514 -1.353,-1.514 -0.737,0 -1.304,0.566 -1.304,1.466 0,0.956 0.596,1.515 1.349,1.515 0.78,0 1.308,-0.596 1.308,-1.467" />
      </g>
      <g
         transform="matrix(4.5342773,0,0,-4.5342773,425.04004,871.94969)"
         id="g886">
        <path
           inkscape:connector-curvature="0"
           id="path888"
           style="fill:#846d2a;fill-opacity:1;fill-rule:nonzero;stroke:none"
           d="m 0,0 c 0,-0.294 0.006,-0.554 0.022,-0.777 l -0.438,0 -0.028,0.465 -0.011,0 c -0.129,-0.23 -0.416,-0.531 -0.899,-0.531 -0.427,0 -0.938,0.248 -0.938,1.249 l 0,1.667 0.495,0 0,-1.578 c 0,-0.542 0.156,-0.907 0.606,-0.907 0.332,0 0.562,0.241 0.652,0.472 0.027,0.075 0.045,0.169 0.045,0.264 l 0,1.749 L 0,2.073 0,0 Z" />
      </g>
      <g
         transform="matrix(4.5342773,0,0,-4.5342773,437.16832,867.80943)"
         id="g890">
        <path
           inkscape:connector-curvature="0"
           id="path892"
           style="fill:#846d2a;fill-opacity:1;fill-rule:nonzero;stroke:none"
           d="m 0,0 c 0,0.065 -0.006,0.153 -0.022,0.218 -0.074,0.33 -0.343,0.601 -0.714,0.601 -0.511,0 -0.814,-0.471 -0.814,-1.101 0,-0.578 0.269,-1.055 0.803,-1.055 0.331,0 0.635,0.23 0.725,0.619 C -0.006,-0.647 0,-0.577 0,-0.494 L 0,0 Z m 0.494,2.492 0,-3.446 c 0,-0.253 0.006,-0.542 0.023,-0.736 l -0.444,0 -0.023,0.494 -0.011,0 c -0.151,-0.318 -0.482,-0.56 -0.926,-0.56 -0.657,0 -1.163,0.584 -1.163,1.449 -0.006,0.949 0.556,1.533 1.219,1.533 0.415,0 0.696,-0.207 0.82,-0.436 l 0.011,0 0,1.702 0.494,0 z" />
      </g>
      <g
         transform="matrix(4.5342773,0,0,-4.5342773,450.83321,866.36618)"
         id="g894">
        <path
           inkscape:connector-curvature="0"
           id="path896"
           style="fill:#846d2a;fill-opacity:1;fill-rule:nonzero;stroke:none"
           d="m 0,0 c 0.107,-0.029 0.242,-0.041 0.404,-0.041 0.591,0 0.95,0.3 0.95,0.848 C 1.354,1.331 1,1.584 0.461,1.584 0.248,1.584 0.084,1.566 0,1.542 L 0,0 Z M -0.489,1.914 C -0.252,1.955 0.057,1.99 0.449,1.99 0.933,1.99 1.287,1.873 1.511,1.661 1.72,1.472 1.843,1.184 1.843,0.83 1.843,0.472 1.742,0.187 1.551,-0.018 1.292,-0.307 0.871,-0.454 0.394,-0.454 0.248,-0.454 0.113,-0.448 0,-0.418 l 0,-1.591 -0.489,0 0,3.923 z" />
      </g>
      <g
         transform="matrix(4.5342773,0,0,-4.5342773,461.69107,866.58292)"
         id="g898">
        <path
           inkscape:connector-curvature="0"
           id="path900"
           style="fill:#846d2a;fill-opacity:1;fill-rule:nonzero;stroke:none"
           d="m 0,0 c 0,0.337 -0.005,0.625 -0.022,0.89 l 0.432,0 0.018,-0.56 0.022,0 c 0.123,0.384 0.422,0.625 0.753,0.625 0.055,0 0.095,-0.007 0.14,-0.018 l 0,-0.489 C 1.292,0.459 1.242,0.466 1.174,0.466 0.826,0.466 0.579,0.188 0.512,-0.2 0.5,-0.271 0.489,-0.354 0.489,-0.441 l 0,-1.52 L 0,-1.961 0,0 Z" />
      </g>
      <g
         transform="matrix(4.5342773,0,0,-4.5342773,471.1491,869.03596)"
         id="g902">
        <path
           inkscape:connector-curvature="0"
           id="path904"
           style="fill:#846d2a;fill-opacity:1;fill-rule:nonzero;stroke:none"
           d="m 0,0 c 0,-0.625 0.343,-1.096 0.825,-1.096 0.473,0 0.827,0.466 0.827,1.108 0,0.482 -0.231,1.094 -0.816,1.094 C 0.253,1.106 0,0.541 0,0 m 2.157,0.029 c 0,-1.054 -0.697,-1.514 -1.354,-1.514 -0.736,0 -1.303,0.566 -1.303,1.466 0,0.956 0.595,1.515 1.348,1.515 0.781,0 1.309,-0.596 1.309,-1.467" />
      </g>
      <g
         transform="matrix(4.5342773,0,0,-4.5342773,492.16634,867.80943)"
         id="g906">
        <path
           inkscape:connector-curvature="0"
           id="path908"
           style="fill:#846d2a;fill-opacity:1;fill-rule:nonzero;stroke:none"
           d="m 0,0 c 0,0.065 -0.005,0.153 -0.022,0.218 -0.073,0.33 -0.343,0.601 -0.714,0.601 -0.511,0 -0.814,-0.471 -0.814,-1.101 0,-0.578 0.27,-1.055 0.803,-1.055 0.331,0 0.635,0.23 0.725,0.619 C -0.005,-0.647 0,-0.577 0,-0.494 L 0,0 Z m 0.494,2.492 0,-3.446 c 0,-0.253 0.006,-0.542 0.023,-0.736 l -0.444,0 -0.022,0.494 -0.011,0 c -0.152,-0.318 -0.484,-0.56 -0.927,-0.56 -0.657,0 -1.163,0.584 -1.163,1.449 -0.006,0.949 0.556,1.533 1.219,1.533 0.415,0 0.696,-0.207 0.82,-0.436 l 0.011,0 0,1.702 0.494,0 z" />
      </g>
      <g
         transform="matrix(4.5342773,0,0,-4.5342773,508.45075,871.94969)"
         id="g910">
        <path
           inkscape:connector-curvature="0"
           id="path912"
           style="fill:#846d2a;fill-opacity:1;fill-rule:nonzero;stroke:none"
           d="m 0,0 c 0,-0.294 0.006,-0.554 0.022,-0.777 l -0.438,0 -0.028,0.465 -0.011,0 c -0.129,-0.23 -0.416,-0.531 -0.899,-0.531 -0.427,0 -0.938,0.248 -0.938,1.249 l 0,1.667 0.495,0 0,-1.578 c 0,-0.542 0.156,-0.907 0.606,-0.907 0.332,0 0.562,0.241 0.652,0.472 0.027,0.075 0.045,0.169 0.045,0.264 l 0,1.749 L 0,2.073 0,0 Z" />
      </g>
      <g
         transform="matrix(4.5342773,0,0,-4.5342773,520.96401,874.99172)"
         id="g914">
        <path
           inkscape:connector-curvature="0"
           id="path916"
           style="fill:#846d2a;fill-opacity:1;fill-rule:nonzero;stroke:none"
           d="m 0,0 c -0.129,-0.07 -0.415,-0.172 -0.78,-0.172 -0.82,0 -1.354,0.59 -1.354,1.461 0,0.878 0.572,1.514 1.46,1.514 0.293,0 0.55,-0.076 0.686,-0.147 L -0.101,2.255 c -0.118,0.071 -0.303,0.136 -0.573,0.136 -0.623,0 -0.96,-0.484 -0.96,-1.078 0,-0.66 0.405,-1.066 0.944,-1.066 0.28,0 0.465,0.076 0.606,0.141 L 0,0 Z" />
      </g>
      <g
         transform="matrix(4.5342773,0,0,-4.5342773,526.62548,859.4496)"
         id="g918">
        <path
           inkscape:connector-curvature="0"
           id="path920"
           style="fill:#846d2a;fill-opacity:1;fill-rule:nonzero;stroke:none"
           d="m 0,0 0,-0.684 0.708,0 0,-0.394 -0.708,0 0,-1.537 c 0,-0.354 0.095,-0.554 0.372,-0.554 0.134,0 0.212,0.012 0.286,0.035 L 0.681,-3.522 C 0.584,-3.563 0.433,-3.6 0.242,-3.6 c -0.23,0 -0.416,0.083 -0.534,0.224 -0.14,0.153 -0.19,0.407 -0.19,0.743 l 0,1.555 -0.422,0 0,0.394 0.422,0 0,0.525 L 0,0 Z" />
      </g>
      <path
         inkscape:connector-curvature="0"
         id="path922"
         style="fill:#846d2a;fill-opacity:1;fill-rule:nonzero;stroke:none"
         d="m 532.36547,862.54742 2.23993,0 0,12.92722 -2.23993,0 0,-12.92722 z m 2.49385,-3.63197 c 0.0218,0.79804 -0.53051,1.44191 -1.42376,1.44191 -0.78897,0 -1.35121,-0.64387 -1.35121,-1.44191 0,-0.82977 0.58945,-1.46909 1.40108,-1.46909 0.84338,0 1.37389,0.63932 1.37389,1.46909" />
      <g
         transform="matrix(4.5342773,0,0,-4.5342773,539.19177,862.54922)"
         id="g924">
        <path
           inkscape:connector-curvature="0"
           id="path926"
           style="fill:#846d2a;fill-opacity:1;fill-rule:nonzero;stroke:none"
           d="m 0,0 0.534,-1.603 c 0.09,-0.258 0.163,-0.494 0.219,-0.729 l 0.018,0 c 0.061,0.235 0.14,0.471 0.23,0.729 L 1.528,0 2.045,0 0.978,-2.851 0.506,-2.851 -0.527,0 0,0 Z" />
      </g>
      <path
         inkscape:connector-curvature="0"
         id="path928"
         style="fill:#846d2a;fill-opacity:1;fill-rule:nonzero;stroke:none"
         d="m 550.58419,862.54742 2.24448,0 0,12.92722 -2.24448,0 0,-12.92722 z m 2.49386,-3.63197 c 0.0254,0.79804 -0.53052,1.44191 -1.42377,1.44191 -0.7935,0 -1.35121,-0.64387 -1.35121,-1.44191 0,-0.82977 0.58945,-1.46909 1.40109,-1.46909 0.84337,0 1.37389,0.63932 1.37389,1.46909" />
      <g
         transform="matrix(4.5342773,0,0,-4.5342773,559.24644,859.4496)"
         id="g930">
        <path
           inkscape:connector-curvature="0"
           id="path932"
           style="fill:#846d2a;fill-opacity:1;fill-rule:nonzero;stroke:none"
           d="m 0,0 0,-0.684 0.708,0 0,-0.394 -0.708,0 0,-1.537 c 0,-0.354 0.095,-0.554 0.371,-0.554 0.135,0 0.213,0.012 0.286,0.035 L 0.68,-3.522 C 0.584,-3.563 0.433,-3.6 0.242,-3.6 c -0.23,0 -0.416,0.083 -0.534,0.224 -0.14,0.153 -0.19,0.407 -0.19,0.743 l 0,1.555 -0.422,0 0,0.394 0.422,0 0,0.525 L 0,0 Z" />
      </g>
      <g
         transform="matrix(4.5342773,0,0,-4.5342773,566.02791,862.54922)"
         id="g934">
        <path
           inkscape:connector-curvature="0"
           id="path936"
           style="fill:#846d2a;fill-opacity:1;fill-rule:nonzero;stroke:none"
           d="m 0,0 0.595,-1.684 c 0.063,-0.189 0.13,-0.413 0.175,-0.584 l 0.011,0 c 0.051,0.171 0.107,0.39 0.174,0.595 L 1.494,0 2.017,0 1.276,-2.031 C 0.922,-3.009 0.68,-3.51 0.343,-3.816 0.101,-4.04 -0.14,-4.129 -0.264,-4.152 l -0.124,0.435 c 0.124,0.042 0.287,0.124 0.433,0.254 0.135,0.111 0.304,0.312 0.415,0.576 0.023,0.054 0.04,0.095 0.04,0.124 0,0.03 -0.011,0.071 -0.033,0.136 L -0.539,0 0,0 Z" />
      </g>
      <g
         transform="matrix(4.5342773,0,0,-4.5342773,323.33122,978.98355)"
         id="g938">
        <path
           inkscape:connector-curvature="0"
           id="path940"
           style="fill:#696969;fill-opacity:1;fill-rule:nonzero;stroke:none"
           d="m 0,0 c 0.219,-0.142 0.54,-0.26 0.877,-0.26 0.5,0 0.791,0.278 0.791,0.678 0,0.371 -0.201,0.583 -0.713,0.789 -0.617,0.23 -1,0.565 -1,1.125 0,0.618 0.489,1.078 1.225,1.078 0.388,0 0.668,-0.095 0.837,-0.194 L 1.882,2.797 C 1.758,2.868 1.506,2.986 1.163,2.986 0.646,2.986 0.45,2.661 0.45,2.391 0.45,2.02 0.68,1.837 1.203,1.625 1.843,1.366 2.168,1.042 2.168,0.459 c 0,-0.612 -0.432,-1.148 -1.325,-1.148 -0.365,0 -0.764,0.118 -0.967,0.258 L 0,0 Z" />
      </g>
      <path
         inkscape:connector-curvature="0"
         id="path942"
         style="fill:#696969;fill-opacity:1;fill-rule:nonzero;stroke:none"
         d="m 336.12195,968.88982 2.24446,0 0,12.92722 -2.24446,0 0,-12.92722 z m 2.49839,-3.63196 c 0.0272,0.79803 -0.53505,1.4419 -1.42831,1.4419 -0.78443,0 -1.34668,-0.64387 -1.34668,-1.4419 0,-0.82977 0.58493,-1.46911 1.4011,-1.46911 0.83884,0 1.37389,0.63934 1.37389,1.46911" />
      <path
         inkscape:connector-curvature="0"
         id="path944"
         style="fill:#696969;fill-opacity:1;fill-rule:nonzero;stroke:none"
         d="m 342.08906,962.85016 2.23993,0 0,18.96688 -2.23993,0 0,-18.96688 z" />
      <g
         transform="matrix(4.5342773,0,0,-4.5342773,348.96712,968.89207)"
         id="g946">
        <path
           inkscape:connector-curvature="0"
           id="path948"
           style="fill:#696969;fill-opacity:1;fill-rule:nonzero;stroke:none"
           d="m 0,0 0.534,-1.602 c 0.09,-0.258 0.163,-0.495 0.219,-0.73 l 0.018,0 C 0.832,-2.097 0.911,-1.86 1,-1.602 L 1.528,0 2.045,0 0.978,-2.851 0.506,-2.851 -0.527,0 0,0 Z" />
      </g>
      <g
         transform="matrix(4.5342773,0,0,-4.5342773,367.92991,974.09923)"
         id="g950">
        <path
           inkscape:connector-curvature="0"
           id="path952"
           style="fill:#696969;fill-opacity:1;fill-rule:nonzero;stroke:none"
           d="M 0,0 C 0.005,0.331 -0.129,0.843 -0.686,0.843 -1.186,0.843 -1.405,0.36 -1.444,0 L 0,0 Z m -1.45,-0.371 c 0.012,-0.7 0.438,-0.989 0.933,-0.989 0.354,0 0.567,0.064 0.753,0.147 L 0.32,-1.584 c -0.174,-0.082 -0.472,-0.183 -0.905,-0.183 -0.836,0 -1.336,0.583 -1.336,1.444 0,0.859 0.483,1.537 1.275,1.537 0.887,0 1.123,-0.819 1.123,-1.343 0,-0.106 -0.011,-0.188 -0.017,-0.242 l -1.91,0 z" />
      </g>
      <g
         transform="matrix(4.5342773,0,0,-4.5342773,372.87408,972.92576)"
         id="g954">
        <path
           inkscape:connector-curvature="0"
           id="path956"
           style="fill:#696969;fill-opacity:1;fill-rule:nonzero;stroke:none"
           d="m 0,0 c 0,0.337 -0.005,0.625 -0.022,0.89 l 0.432,0 0.018,-0.56 0.022,0 c 0.123,0.384 0.421,0.625 0.753,0.625 0.055,0 0.095,-0.007 0.14,-0.018 l 0,-0.488 C 1.292,0.46 1.242,0.466 1.174,0.466 0.827,0.466 0.579,0.189 0.511,-0.199 0.5,-0.271 0.489,-0.353 0.489,-0.44 l 0,-1.521 L 0,-1.961 0,0 Z" />
      </g>
      <g
         transform="matrix(4.5342773,0,0,-4.5342773,398.68275,981.2285)"
         id="g958">
        <path
           inkscape:connector-curvature="0"
           id="path960"
           style="fill:#696969;fill-opacity:1;fill-rule:nonzero;stroke:none"
           d="m 0,0 c -0.18,-0.094 -0.539,-0.194 -1,-0.194 -1.067,0 -1.87,0.712 -1.87,2.014 0,1.243 0.803,2.085 1.978,2.085 0.471,0 0.769,-0.106 0.899,-0.177 L -0.112,3.31 c -0.185,0.094 -0.449,0.165 -0.763,0.165 -0.889,0 -1.478,-0.594 -1.478,-1.637 0,-0.973 0.534,-1.596 1.455,-1.596 0.297,0 0.601,0.064 0.797,0.164 L 0,0 Z" />
      </g>
      <g
         transform="matrix(4.5342773,0,0,-4.5342773,402.48832,975.37881)"
         id="g962">
        <path
           inkscape:connector-curvature="0"
           id="path964"
           style="fill:#696969;fill-opacity:1;fill-rule:nonzero;stroke:none"
           d="m 0,0 c 0,-0.624 0.343,-1.096 0.826,-1.096 0.472,0 0.826,0.466 0.826,1.108 0,0.482 -0.23,1.095 -0.816,1.095 C 0.253,1.107 0,0.541 0,0 m 2.157,0.029 c 0,-1.054 -0.697,-1.513 -1.353,-1.513 -0.737,0 -1.304,0.565 -1.304,1.465 0,0.956 0.595,1.515 1.349,1.515 0.78,0 1.308,-0.596 1.308,-1.467" />
      </g>
      <g
         transform="matrix(4.5342773,0,0,-4.5342773,415.10587,972.39028)"
         id="g966">
        <path
           inkscape:connector-curvature="0"
           id="path968"
           style="fill:#696969;fill-opacity:1;fill-rule:nonzero;stroke:none"
           d="m 0,0 c 0,0.295 -0.005,0.536 -0.022,0.771 l 0.432,0 0.023,-0.459 0.016,0 c 0.153,0.272 0.405,0.525 0.854,0.525 0.371,0 0.653,-0.235 0.77,-0.571 l 0.011,0 c 0.084,0.158 0.191,0.282 0.303,0.37 0.164,0.131 0.343,0.201 0.602,0.201 0.36,0 0.892,-0.248 0.892,-1.237 l 0,-1.679 -0.482,0 0,1.614 c 0,0.548 -0.191,0.877 -0.59,0.877 C 2.528,0.412 2.31,0.195 2.225,-0.059 2.202,-0.129 2.186,-0.224 2.186,-0.317 l 0,-1.762 -0.484,0 0,1.708 c 0,0.454 -0.19,0.783 -0.567,0.783 -0.309,0 -0.533,-0.259 -0.612,-0.518 -0.029,-0.076 -0.04,-0.165 -0.04,-0.253 l 0,-1.72 L 0,-2.079 0,0 Z" />
      </g>
      <g
         transform="matrix(4.5342773,0,0,-4.5342773,436.36028,972.39028)"
         id="g970">
        <path
           inkscape:connector-curvature="0"
           id="path972"
           style="fill:#696969;fill-opacity:1;fill-rule:nonzero;stroke:none"
           d="m 0,0 c 0,0.295 -0.005,0.536 -0.022,0.771 l 0.432,0 0.023,-0.459 0.017,0 c 0.151,0.272 0.404,0.525 0.853,0.525 0.371,0 0.653,-0.235 0.77,-0.571 l 0.012,0 c 0.083,0.158 0.19,0.282 0.303,0.37 0.163,0.131 0.342,0.201 0.601,0.201 0.36,0 0.893,-0.248 0.893,-1.237 l 0,-1.679 -0.483,0 0,1.614 C 3.399,0.083 3.208,0.412 2.81,0.412 2.528,0.412 2.309,0.195 2.225,-0.059 2.202,-0.129 2.186,-0.224 2.186,-0.317 l 0,-1.762 -0.484,0 0,1.708 c 0,0.454 -0.19,0.783 -0.567,0.783 -0.308,0 -0.534,-0.259 -0.612,-0.518 -0.028,-0.076 -0.04,-0.165 -0.04,-0.253 l 0,-1.72 L 0,-2.079 0,0 Z" />
      </g>
      <g
         transform="matrix(4.5342773,0,0,-4.5342773,467.93426,978.288)"
         id="g974">
        <path
           inkscape:connector-curvature="0"
           id="path976"
           style="fill:#696969;fill-opacity:1;fill-rule:nonzero;stroke:none"
           d="m 0,0 c 0,-0.295 0.005,-0.555 0.022,-0.778 l -0.438,0 -0.028,0.465 -0.011,0 c -0.129,-0.229 -0.417,-0.53 -0.899,-0.53 -0.427,0 -0.938,0.247 -0.938,1.249 l 0,1.666 0.494,0 0,-1.578 c 0,-0.542 0.157,-0.907 0.607,-0.907 0.332,0 0.562,0.241 0.651,0.472 0.028,0.076 0.045,0.17 0.045,0.264 l 0,1.749 L 0,2.072 0,0 Z" />
      </g>
      <g
         transform="matrix(4.5342773,0,0,-4.5342773,471.65603,972.39028)"
         id="g978">
        <path
           inkscape:connector-curvature="0"
           id="path980"
           style="fill:#696969;fill-opacity:1;fill-rule:nonzero;stroke:none"
           d="m 0,0 c 0,0.295 -0.005,0.536 -0.022,0.771 l 0.438,0 0.028,-0.47 0.011,0 c 0.135,0.271 0.449,0.536 0.899,0.536 0.376,0 0.961,-0.235 0.961,-1.214 l 0,-1.702 -0.495,0 0,1.643 C 1.82,0.024 1.657,0.406 1.191,0.406 0.865,0.406 0.613,0.165 0.528,-0.123 0.505,-0.188 0.494,-0.276 0.494,-0.364 l 0,-1.715 L 0,-2.079 0,0 Z" />
      </g>
      <path
         inkscape:connector-curvature="0"
         id="path982"
         style="fill:#696969;fill-opacity:1;fill-rule:nonzero;stroke:none"
         d="m 485.79841,968.88982 2.2445,0 0,12.92722 -2.2445,0 0,-12.92722 z m 2.49385,-3.63196 c 0.0327,0.79803 -0.53051,1.4419 -1.42376,1.4419 -0.78897,0 -1.34665,-0.64387 -1.34665,-1.4419 0,-0.82977 0.58492,-1.46911 1.40105,-1.46911 0.83885,0 1.36936,0.63934 1.36936,1.46911" />
      <g
         transform="matrix(4.5342773,0,0,-4.5342773,500.55113,981.3346)"
         id="g984">
        <path
           inkscape:connector-curvature="0"
           id="path986"
           style="fill:#696969;fill-opacity:1;fill-rule:nonzero;stroke:none"
           d="m 0,0 c -0.129,-0.07 -0.416,-0.171 -0.781,-0.171 -0.82,0 -1.353,0.59 -1.353,1.461 0,0.878 0.573,1.513 1.46,1.513 0.292,0 0.551,-0.076 0.685,-0.147 l -0.112,-0.4 c -0.118,0.07 -0.304,0.136 -0.573,0.136 -0.624,0 -0.961,-0.484 -0.961,-1.079 0,-0.66 0.405,-1.066 0.944,-1.066 0.281,0 0.466,0.077 0.607,0.142 L 0,0 Z" />
      </g>
      <g
         transform="matrix(4.5342773,0,0,-4.5342773,509.67907,975.21967)"
         id="g988">
        <path
           inkscape:connector-curvature="0"
           id="path990"
           style="fill:#696969;fill-opacity:1;fill-rule:nonzero;stroke:none"
           d="m 0,0 c -0.54,0.012 -1.152,-0.088 -1.152,-0.643 0,-0.335 0.214,-0.494 0.466,-0.494 0.355,0 0.58,0.237 0.657,0.478 C -0.011,-0.606 0,-0.548 0,-0.494 L 0,0 Z m 0.478,-0.771 c 0,-0.249 0.011,-0.49 0.044,-0.684 l -0.449,0 -0.039,0.359 -0.018,0 c -0.151,-0.223 -0.443,-0.424 -0.83,-0.424 -0.551,0 -0.832,0.407 -0.832,0.819 0,0.689 0.584,1.066 1.635,1.06 l 0,0.059 c 0,0.235 -0.063,0.659 -0.618,0.659 -0.253,0 -0.517,-0.081 -0.708,-0.212 l -0.112,0.343 c 0.224,0.153 0.55,0.253 0.893,0.253 0.831,0 1.034,-0.596 1.034,-1.167 l 0,-1.065 z" />
      </g>
      <g
         transform="matrix(4.5342773,0,0,-4.5342773,518.0616,965.79244)"
         id="g992">
        <path
           inkscape:connector-curvature="0"
           id="path994"
           style="fill:#696969;fill-opacity:1;fill-rule:nonzero;stroke:none"
           d="m 0,0 0,-0.684 0.708,0 0,-0.394 -0.708,0 0,-1.537 c 0,-0.354 0.097,-0.554 0.372,-0.554 0.134,0 0.212,0.012 0.286,0.036 L 0.68,-3.521 C 0.584,-3.563 0.433,-3.599 0.242,-3.599 c -0.23,0 -0.415,0.082 -0.534,0.224 -0.14,0.153 -0.19,0.406 -0.19,0.743 l 0,1.554 -0.422,0 0,0.394 0.422,0 0,0.525 L 0,0 Z" />
      </g>
      <path
         inkscape:connector-curvature="0"
         id="path996"
         style="fill:#696969;fill-opacity:1;fill-rule:nonzero;stroke:none"
         d="m 523.80018,968.88982 2.24447,0 0,12.92722 -2.24447,0 0,-12.92722 z m 2.49386,-3.63196 c 0.0327,0.79803 -0.53048,1.4419 -1.42373,1.4419 -0.78897,0 -1.34668,-0.64387 -1.34668,-1.4419 0,-0.82977 0.58488,-1.46911 1.40109,-1.46911 0.83884,0 1.36932,0.63934 1.36932,1.46911" />
      <g
         transform="matrix(4.5342773,0,0,-4.5342773,531.14161,975.37881)"
         id="g998">
        <path
           inkscape:connector-curvature="0"
           id="path1000"
           style="fill:#696969;fill-opacity:1;fill-rule:nonzero;stroke:none"
           d="m 0,0 c 0,-0.624 0.343,-1.096 0.825,-1.096 0.473,0 0.827,0.466 0.827,1.108 0,0.482 -0.231,1.095 -0.816,1.095 C 0.253,1.107 0,0.541 0,0 m 2.157,0.029 c 0,-1.054 -0.697,-1.513 -1.354,-1.513 -0.736,0 -1.303,0.565 -1.303,1.465 0,0.956 0.595,1.515 1.348,1.515 0.781,0 1.309,-0.596 1.309,-1.467" />
      </g>
      <g
         transform="matrix(4.5342773,0,0,-4.5342773,543.75506,972.39028)"
         id="g1002">
        <path
           inkscape:connector-curvature="0"
           id="path1004"
           style="fill:#696969;fill-opacity:1;fill-rule:nonzero;stroke:none"
           d="m 0,0 c 0,0.295 -0.005,0.536 -0.022,0.771 l 0.438,0 0.028,-0.47 0.011,0 c 0.135,0.271 0.449,0.536 0.899,0.536 0.376,0 0.961,-0.235 0.961,-1.214 l 0,-1.702 -0.495,0 0,1.643 C 1.82,0.024 1.657,0.406 1.191,0.406 0.865,0.406 0.613,0.165 0.528,-0.123 0.505,-0.188 0.494,-0.276 0.494,-0.364 l 0,-1.715 L 0,-2.079 0,0 Z" />
      </g>
      <g
         transform="matrix(4.5342773,0,0,-4.5342773,557.59459,979.41297)"
         id="g1006">
        <path
           inkscape:connector-curvature="0"
           id="path1008"
           style="fill:#696969;fill-opacity:1;fill-rule:nonzero;stroke:none"
           d="m 0,0 c 0.146,-0.1 0.404,-0.206 0.651,-0.206 0.36,0 0.529,0.188 0.529,0.425 0,0.246 -0.141,0.382 -0.506,0.523 -0.489,0.183 -0.719,0.465 -0.719,0.807 0,0.46 0.354,0.837 0.938,0.837 0.275,0 0.517,-0.083 0.668,-0.177 L 1.438,1.832 C 1.331,1.902 1.134,1.997 0.881,1.997 0.59,1.997 0.426,1.819 0.426,1.608 0.426,1.372 0.59,1.267 0.944,1.126 1.415,0.937 1.657,0.688 1.657,0.266 c 0,-0.501 -0.371,-0.861 -1.017,-0.861 -0.298,0 -0.573,0.082 -0.764,0.2 L 0,0 Z" />
      </g>
      <g
         transform="matrix(4.5342773,0,0,-4.5342773,323.33122,978.98355)"
         id="g1010">
        <path
           inkscape:connector-curvature="0"
           id="path1012"
           style="fill:#696969;fill-opacity:1;fill-rule:nonzero;stroke:none"
           d="m 0,0 c 0.219,-0.142 0.54,-0.26 0.877,-0.26 0.5,0 0.791,0.278 0.791,0.678 0,0.371 -0.201,0.583 -0.713,0.789 -0.617,0.23 -1,0.565 -1,1.125 0,0.618 0.489,1.078 1.225,1.078 0.388,0 0.668,-0.095 0.837,-0.194 L 1.882,2.797 C 1.758,2.868 1.506,2.986 1.163,2.986 0.646,2.986 0.45,2.661 0.45,2.391 0.45,2.02 0.68,1.837 1.203,1.625 1.843,1.366 2.168,1.042 2.168,0.459 c 0,-0.612 -0.432,-1.148 -1.325,-1.148 -0.365,0 -0.764,0.118 -0.967,0.258 L 0,0 Z" />
      </g>
      <path
         inkscape:connector-curvature="0"
         id="path1014"
         style="fill:#696969;fill-opacity:1;fill-rule:nonzero;stroke:none"
         d="m 336.12195,968.88982 2.24446,0 0,12.92722 -2.24446,0 0,-12.92722 z m 2.49839,-3.63196 c 0.0272,0.79803 -0.53505,1.4419 -1.42831,1.4419 -0.78443,0 -1.34668,-0.64387 -1.34668,-1.4419 0,-0.82977 0.58493,-1.46911 1.4011,-1.46911 0.83884,0 1.37389,0.63934 1.37389,1.46911" />
      <path
         inkscape:connector-curvature="0"
         id="path1016"
         style="fill:#696969;fill-opacity:1;fill-rule:nonzero;stroke:none"
         d="m 342.08906,962.85016 2.23993,0 0,18.96688 -2.23993,0 0,-18.96688 z" />
      <g
         transform="matrix(4.5342773,0,0,-4.5342773,348.96712,968.89207)"
         id="g1018">
        <path
           inkscape:connector-curvature="0"
           id="path1020"
           style="fill:#696969;fill-opacity:1;fill-rule:nonzero;stroke:none"
           d="m 0,0 0.534,-1.602 c 0.09,-0.258 0.163,-0.495 0.219,-0.73 l 0.018,0 C 0.832,-2.097 0.911,-1.86 1,-1.602 L 1.528,0 2.045,0 0.978,-2.851 0.506,-2.851 -0.527,0 0,0 Z" />
      </g>
      <g
         transform="matrix(4.5342773,0,0,-4.5342773,367.92991,974.09923)"
         id="g1022">
        <path
           inkscape:connector-curvature="0"
           id="path1024"
           style="fill:#696969;fill-opacity:1;fill-rule:nonzero;stroke:none"
           d="M 0,0 C 0.005,0.331 -0.129,0.843 -0.686,0.843 -1.186,0.843 -1.405,0.36 -1.444,0 L 0,0 Z m -1.45,-0.371 c 0.012,-0.7 0.438,-0.989 0.933,-0.989 0.354,0 0.567,0.064 0.753,0.147 L 0.32,-1.584 c -0.174,-0.082 -0.472,-0.183 -0.905,-0.183 -0.836,0 -1.336,0.583 -1.336,1.444 0,0.859 0.483,1.537 1.275,1.537 0.887,0 1.123,-0.819 1.123,-1.343 0,-0.106 -0.011,-0.188 -0.017,-0.242 l -1.91,0 z" />
      </g>
      <g
         transform="matrix(4.5342773,0,0,-4.5342773,372.87408,972.92576)"
         id="g1026">
        <path
           inkscape:connector-curvature="0"
           id="path1028"
           style="fill:#696969;fill-opacity:1;fill-rule:nonzero;stroke:none"
           d="m 0,0 c 0,0.337 -0.005,0.625 -0.022,0.89 l 0.432,0 0.018,-0.56 0.022,0 c 0.123,0.384 0.421,0.625 0.753,0.625 0.055,0 0.095,-0.007 0.14,-0.018 l 0,-0.488 C 1.292,0.46 1.242,0.466 1.174,0.466 0.827,0.466 0.579,0.189 0.511,-0.199 0.5,-0.271 0.489,-0.353 0.489,-0.44 l 0,-1.521 L 0,-1.961 0,0 Z" />
      </g>
      <g
         transform="matrix(4.5342773,0,0,-4.5342773,398.68275,981.2285)"
         id="g1030">
        <path
           inkscape:connector-curvature="0"
           id="path1032"
           style="fill:#696969;fill-opacity:1;fill-rule:nonzero;stroke:none"
           d="m 0,0 c -0.18,-0.094 -0.539,-0.194 -1,-0.194 -1.067,0 -1.87,0.712 -1.87,2.014 0,1.243 0.803,2.085 1.978,2.085 0.471,0 0.769,-0.106 0.899,-0.177 L -0.112,3.31 c -0.185,0.094 -0.449,0.165 -0.763,0.165 -0.889,0 -1.478,-0.594 -1.478,-1.637 0,-0.973 0.534,-1.596 1.455,-1.596 0.297,0 0.601,0.064 0.797,0.164 L 0,0 Z" />
      </g>
      <g
         transform="matrix(4.5342773,0,0,-4.5342773,402.48832,975.37881)"
         id="g1034">
        <path
           inkscape:connector-curvature="0"
           id="path1036"
           style="fill:#696969;fill-opacity:1;fill-rule:nonzero;stroke:none"
           d="m 0,0 c 0,-0.624 0.343,-1.096 0.826,-1.096 0.472,0 0.826,0.466 0.826,1.108 0,0.482 -0.23,1.095 -0.816,1.095 C 0.253,1.107 0,0.541 0,0 m 2.157,0.029 c 0,-1.054 -0.697,-1.513 -1.353,-1.513 -0.737,0 -1.304,0.565 -1.304,1.465 0,0.956 0.595,1.515 1.349,1.515 0.78,0 1.308,-0.596 1.308,-1.467" />
      </g>
      <g
         transform="matrix(4.5342773,0,0,-4.5342773,415.10587,972.39028)"
         id="g1038">
        <path
           inkscape:connector-curvature="0"
           id="path1040"
           style="fill:#696969;fill-opacity:1;fill-rule:nonzero;stroke:none"
           d="m 0,0 c 0,0.295 -0.005,0.536 -0.022,0.771 l 0.432,0 0.023,-0.459 0.016,0 c 0.153,0.272 0.405,0.525 0.854,0.525 0.371,0 0.653,-0.235 0.77,-0.571 l 0.011,0 c 0.084,0.158 0.191,0.282 0.303,0.37 0.164,0.131 0.343,0.201 0.602,0.201 0.36,0 0.892,-0.248 0.892,-1.237 l 0,-1.679 -0.482,0 0,1.614 c 0,0.548 -0.191,0.877 -0.59,0.877 C 2.528,0.412 2.31,0.195 2.225,-0.059 2.202,-0.129 2.186,-0.224 2.186,-0.317 l 0,-1.762 -0.484,0 0,1.708 c 0,0.454 -0.19,0.783 -0.567,0.783 -0.309,0 -0.533,-0.259 -0.612,-0.518 -0.029,-0.076 -0.04,-0.165 -0.04,-0.253 l 0,-1.72 L 0,-2.079 0,0 Z" />
      </g>
      <g
         transform="matrix(4.5342773,0,0,-4.5342773,436.36028,972.39028)"
         id="g1042">
        <path
           inkscape:connector-curvature="0"
           id="path1044"
           style="fill:#696969;fill-opacity:1;fill-rule:nonzero;stroke:none"
           d="m 0,0 c 0,0.295 -0.005,0.536 -0.022,0.771 l 0.432,0 0.023,-0.459 0.017,0 c 0.151,0.272 0.404,0.525 0.853,0.525 0.371,0 0.653,-0.235 0.77,-0.571 l 0.012,0 c 0.083,0.158 0.19,0.282 0.303,0.37 0.163,0.131 0.342,0.201 0.601,0.201 0.36,0 0.893,-0.248 0.893,-1.237 l 0,-1.679 -0.483,0 0,1.614 C 3.399,0.083 3.208,0.412 2.81,0.412 2.528,0.412 2.309,0.195 2.225,-0.059 2.202,-0.129 2.186,-0.224 2.186,-0.317 l 0,-1.762 -0.484,0 0,1.708 c 0,0.454 -0.19,0.783 -0.567,0.783 -0.308,0 -0.534,-0.259 -0.612,-0.518 -0.028,-0.076 -0.04,-0.165 -0.04,-0.253 l 0,-1.72 L 0,-2.079 0,0 Z" />
      </g>
      <g
         transform="matrix(4.5342773,0,0,-4.5342773,467.93426,978.288)"
         id="g1046">
        <path
           inkscape:connector-curvature="0"
           id="path1048"
           style="fill:#696969;fill-opacity:1;fill-rule:nonzero;stroke:none"
           d="m 0,0 c 0,-0.295 0.005,-0.555 0.022,-0.778 l -0.438,0 -0.028,0.465 -0.011,0 c -0.129,-0.229 -0.417,-0.53 -0.899,-0.53 -0.427,0 -0.938,0.247 -0.938,1.249 l 0,1.666 0.494,0 0,-1.578 c 0,-0.542 0.157,-0.907 0.607,-0.907 0.332,0 0.562,0.241 0.651,0.472 0.028,0.076 0.045,0.17 0.045,0.264 l 0,1.749 L 0,2.072 0,0 Z" />
      </g>
      <g
         transform="matrix(4.5342773,0,0,-4.5342773,471.65603,972.39028)"
         id="g1050">
        <path
           inkscape:connector-curvature="0"
           id="path1052"
           style="fill:#696969;fill-opacity:1;fill-rule:nonzero;stroke:none"
           d="m 0,0 c 0,0.295 -0.005,0.536 -0.022,0.771 l 0.438,0 0.028,-0.47 0.011,0 c 0.135,0.271 0.449,0.536 0.899,0.536 0.376,0 0.961,-0.235 0.961,-1.214 l 0,-1.702 -0.495,0 0,1.643 C 1.82,0.024 1.657,0.406 1.191,0.406 0.865,0.406 0.613,0.165 0.528,-0.123 0.505,-0.188 0.494,-0.276 0.494,-0.364 l 0,-1.715 L 0,-2.079 0,0 Z" />
      </g>
      <path
         inkscape:connector-curvature="0"
         id="path1054"
         style="fill:#696969;fill-opacity:1;fill-rule:nonzero;stroke:none"
         d="m 485.79841,968.88982 2.2445,0 0,12.92722 -2.2445,0 0,-12.92722 z m 2.49385,-3.63196 c 0.0327,0.79803 -0.53051,1.4419 -1.42376,1.4419 -0.78897,0 -1.34665,-0.64387 -1.34665,-1.4419 0,-0.82977 0.58492,-1.46911 1.40105,-1.46911 0.83885,0 1.36936,0.63934 1.36936,1.46911" />
      <g
         transform="matrix(4.5342773,0,0,-4.5342773,500.55113,981.3346)"
         id="g1056">
        <path
           inkscape:connector-curvature="0"
           id="path1058"
           style="fill:#696969;fill-opacity:1;fill-rule:nonzero;stroke:none"
           d="m 0,0 c -0.129,-0.07 -0.416,-0.171 -0.781,-0.171 -0.82,0 -1.353,0.59 -1.353,1.461 0,0.878 0.573,1.513 1.46,1.513 0.292,0 0.551,-0.076 0.685,-0.147 l -0.112,-0.4 c -0.118,0.07 -0.304,0.136 -0.573,0.136 -0.624,0 -0.961,-0.484 -0.961,-1.079 0,-0.66 0.405,-1.066 0.944,-1.066 0.281,0 0.466,0.077 0.607,0.142 L 0,0 Z" />
      </g>
      <g
         transform="matrix(4.5342773,0,0,-4.5342773,509.67907,975.21967)"
         id="g1060">
        <path
           inkscape:connector-curvature="0"
           id="path1062"
           style="fill:#696969;fill-opacity:1;fill-rule:nonzero;stroke:none"
           d="m 0,0 c -0.54,0.012 -1.152,-0.088 -1.152,-0.643 0,-0.335 0.214,-0.494 0.466,-0.494 0.355,0 0.58,0.237 0.657,0.478 C -0.011,-0.606 0,-0.548 0,-0.494 L 0,0 Z m 0.478,-0.771 c 0,-0.249 0.011,-0.49 0.044,-0.684 l -0.449,0 -0.039,0.359 -0.018,0 c -0.151,-0.223 -0.443,-0.424 -0.83,-0.424 -0.551,0 -0.832,0.407 -0.832,0.819 0,0.689 0.584,1.066 1.635,1.06 l 0,0.059 c 0,0.235 -0.063,0.659 -0.618,0.659 -0.253,0 -0.517,-0.081 -0.708,-0.212 l -0.112,0.343 c 0.224,0.153 0.55,0.253 0.893,0.253 0.831,0 1.034,-0.596 1.034,-1.167 l 0,-1.065 z" />
      </g>
      <g
         transform="matrix(4.5342773,0,0,-4.5342773,518.0616,965.79244)"
         id="g1064">
        <path
           inkscape:connector-curvature="0"
           id="path1066"
           style="fill:#696969;fill-opacity:1;fill-rule:nonzero;stroke:none"
           d="m 0,0 0,-0.684 0.708,0 0,-0.394 -0.708,0 0,-1.537 c 0,-0.354 0.097,-0.554 0.372,-0.554 0.134,0 0.212,0.012 0.286,0.036 L 0.68,-3.521 C 0.584,-3.563 0.433,-3.599 0.242,-3.599 c -0.23,0 -0.415,0.082 -0.534,0.224 -0.14,0.153 -0.19,0.406 -0.19,0.743 l 0,1.554 -0.422,0 0,0.394 0.422,0 0,0.525 L 0,0 Z" />
      </g>
      <path
         inkscape:connector-curvature="0"
         id="path1068"
         style="fill:#696969;fill-opacity:1;fill-rule:nonzero;stroke:none"
         d="m 523.80018,968.88982 2.24447,0 0,12.92722 -2.24447,0 0,-12.92722 z m 2.49386,-3.63196 c 0.0327,0.79803 -0.53048,1.4419 -1.42373,1.4419 -0.78897,0 -1.34668,-0.64387 -1.34668,-1.4419 0,-0.82977 0.58488,-1.46911 1.40109,-1.46911 0.83884,0 1.36932,0.63934 1.36932,1.46911" />
      <g
         transform="matrix(4.5342773,0,0,-4.5342773,531.14161,975.37881)"
         id="g1070">
        <path
           inkscape:connector-curvature="0"
           id="path1072"
           style="fill:#696969;fill-opacity:1;fill-rule:nonzero;stroke:none"
           d="m 0,0 c 0,-0.624 0.343,-1.096 0.825,-1.096 0.473,0 0.827,0.466 0.827,1.108 0,0.482 -0.231,1.095 -0.816,1.095 C 0.253,1.107 0,0.541 0,0 m 2.157,0.029 c 0,-1.054 -0.697,-1.513 -1.354,-1.513 -0.736,0 -1.303,0.565 -1.303,1.465 0,0.956 0.595,1.515 1.348,1.515 0.781,0 1.309,-0.596 1.309,-1.467" />
      </g>
      <g
         transform="matrix(4.5342773,0,0,-4.5342773,543.75506,972.39028)"
         id="g1074">
        <path
           inkscape:connector-curvature="0"
           id="path1076"
           style="fill:#696969;fill-opacity:1;fill-rule:nonzero;stroke:none"
           d="m 0,0 c 0,0.295 -0.005,0.536 -0.022,0.771 l 0.438,0 0.028,-0.47 0.011,0 c 0.135,0.271 0.449,0.536 0.899,0.536 0.376,0 0.961,-0.235 0.961,-1.214 l 0,-1.702 -0.495,0 0,1.643 C 1.82,0.024 1.657,0.406 1.191,0.406 0.865,0.406 0.613,0.165 0.528,-0.123 0.505,-0.188 0.494,-0.276 0.494,-0.364 l 0,-1.715 L 0,-2.079 0,0 Z" />
      </g>
      <g
         transform="matrix(4.5342773,0,0,-4.5342773,557.59459,979.41297)"
         id="g1078">
        <path
           inkscape:connector-curvature="0"
           id="path1080"
           style="fill:#696969;fill-opacity:1;fill-rule:nonzero;stroke:none"
           d="m 0,0 c 0.146,-0.1 0.404,-0.206 0.651,-0.206 0.36,0 0.529,0.188 0.529,0.425 0,0.246 -0.141,0.382 -0.506,0.523 -0.489,0.183 -0.719,0.465 -0.719,0.807 0,0.46 0.354,0.837 0.938,0.837 0.275,0 0.517,-0.083 0.668,-0.177 L 1.438,1.832 C 1.331,1.902 1.134,1.997 0.881,1.997 0.59,1.997 0.426,1.819 0.426,1.608 0.426,1.372 0.59,1.267 0.944,1.126 1.415,0.937 1.657,0.688 1.657,0.266 c 0,-0.501 -0.371,-0.861 -1.017,-0.861 -0.298,0 -0.573,0.082 -0.764,0.2 L 0,0 Z" />
      </g>
      <g
         transform="matrix(4.5342773,0,0,-4.5342773,336.70596,945.56956)"
         id="g1082">
        <path
           inkscape:connector-curvature="0"
           id="path1084"
           style="fill:#846d2a;fill-opacity:1;fill-rule:nonzero;stroke:none"
           d="m 0,0 c -0.219,-0.082 -0.652,-0.218 -1.163,-0.218 -0.573,0 -1.045,0.153 -1.416,0.525 -0.326,0.329 -0.528,0.859 -0.528,1.477 0.006,1.184 0.781,2.05 2.05,2.05 0.439,0 0.782,-0.1 0.944,-0.183 L -0.231,3.233 c -0.202,0.094 -0.455,0.17 -0.836,0.17 -0.922,0 -1.523,-0.6 -1.523,-1.595 0,-1.007 0.579,-1.602 1.46,-1.602 0.321,0 0.54,0.047 0.652,0.106 l 0,1.184 -0.769,0 0,0.412 L 0,1.908 0,0 Z" />
      </g>
      <g
         transform="matrix(4.5342773,0,0,-4.5342773,341.5259,939.93302)"
         id="g1086">
        <path
           inkscape:connector-curvature="0"
           id="path1088"
           style="fill:#846d2a;fill-opacity:1;fill-rule:nonzero;stroke:none"
           d="m 0,0 c 0,-0.625 0.342,-1.097 0.826,-1.097 0.472,0 0.826,0.467 0.826,1.109 0,0.482 -0.231,1.094 -0.815,1.094 C 0.252,1.106 0,0.541 0,0 m 2.157,0.029 c 0,-1.054 -0.697,-1.514 -1.353,-1.514 -0.737,0 -1.304,0.566 -1.304,1.466 0,0.956 0.596,1.515 1.349,1.515 0.78,0 1.308,-0.596 1.308,-1.467" />
      </g>
      <path
         inkscape:connector-curvature="0"
         id="path1090"
         style="fill:#846d2a;fill-opacity:1;fill-rule:nonzero;stroke:none"
         d="m 354.1457,927.40572 2.24446,0 0,18.96687 -2.24446,0 0,-18.96687 z" />
      <g
         transform="matrix(4.5342773,0,0,-4.5342773,368.56107,938.70648)"
         id="g1092">
        <path
           inkscape:connector-curvature="0"
           id="path1094"
           style="fill:#846d2a;fill-opacity:1;fill-rule:nonzero;stroke:none"
           d="m 0,0 c 0,0.064 -0.005,0.153 -0.022,0.218 -0.073,0.329 -0.343,0.6 -0.713,0.6 -0.511,0 -0.815,-0.47 -0.815,-1.1 0,-0.578 0.27,-1.056 0.804,-1.056 0.331,0 0.634,0.231 0.724,0.619 C -0.005,-0.647 0,-0.577 0,-0.494 L 0,0 Z m 0.495,2.492 0,-3.446 c 0,-0.253 0.006,-0.542 0.023,-0.736 l -0.444,0 -0.022,0.494 -0.012,0 c -0.152,-0.318 -0.484,-0.56 -0.927,-0.56 -0.657,0 -1.163,0.584 -1.163,1.449 -0.005,0.949 0.556,1.533 1.219,1.533 0.416,0 0.696,-0.207 0.82,-0.437 l 0.011,0 0,1.703 0.495,0 z" />
      </g>
      <g
         transform="matrix(4.5342773,0,0,-4.5342773,392.00964,945.78677)"
         id="g1096">
        <path
           inkscape:connector-curvature="0"
           id="path1098"
           style="fill:#846d2a;fill-opacity:1;fill-rule:nonzero;stroke:none"
           d="m 0,0 c -0.18,-0.093 -0.54,-0.194 -1,-0.194 -1.067,0 -1.871,0.713 -1.871,2.015 0,1.242 0.804,2.084 1.977,2.084 0.473,0 0.771,-0.106 0.899,-0.176 L -0.112,3.311 c -0.185,0.094 -0.45,0.165 -0.764,0.165 -0.888,0 -1.478,-0.595 -1.478,-1.638 0,-0.972 0.534,-1.596 1.455,-1.596 0.298,0 0.602,0.065 0.798,0.164 L 0,0 Z" />
      </g>
      <g
         transform="matrix(4.5342773,0,0,-4.5342773,395.81296,939.93302)"
         id="g1100">
        <path
           inkscape:connector-curvature="0"
           id="path1102"
           style="fill:#846d2a;fill-opacity:1;fill-rule:nonzero;stroke:none"
           d="m 0,0 c 0,-0.625 0.342,-1.097 0.826,-1.097 0.472,0 0.826,0.467 0.826,1.109 0,0.482 -0.231,1.094 -0.815,1.094 C 0.252,1.106 0,0.541 0,0 m 2.157,0.029 c 0,-1.054 -0.697,-1.514 -1.353,-1.514 -0.737,0 -1.304,0.566 -1.304,1.466 0,0.956 0.596,1.515 1.349,1.515 0.78,0 1.308,-0.596 1.308,-1.467" />
      </g>
      <path
         inkscape:connector-curvature="0"
         id="path1104"
         style="fill:#846d2a;fill-opacity:1;fill-rule:nonzero;stroke:none"
         d="m 408.4255,927.40572 2.2445,0 0,18.96687 -2.2445,0 0,-18.96687 z" />
      <path
         inkscape:connector-curvature="0"
         id="path1106"
         style="fill:#846d2a;fill-opacity:1;fill-rule:nonzero;stroke:none"
         d="m 414.43795,927.40572 2.24451,0 0,18.96687 -2.24451,0 0,-18.96687 z" />
      <g
         transform="matrix(4.5342773,0,0,-4.5342773,426.95299,939.77794)"
         id="g1108">
        <path
           inkscape:connector-curvature="0"
           id="path1110"
           style="fill:#846d2a;fill-opacity:1;fill-rule:nonzero;stroke:none"
           d="m 0,0 c -0.539,0.013 -1.152,-0.088 -1.152,-0.642 0,-0.336 0.214,-0.494 0.467,-0.494 0.354,0 0.579,0.236 0.657,0.477 C -0.011,-0.605 0,-0.547 0,-0.494 L 0,0 Z m 0.478,-0.771 c 0,-0.248 0.011,-0.489 0.045,-0.683 l -0.449,0 -0.04,0.359 -0.017,0 c -0.152,-0.223 -0.443,-0.425 -0.831,-0.425 -0.551,0 -0.832,0.407 -0.832,0.82 0,0.688 0.584,1.065 1.635,1.06 l 0,0.059 c 0,0.235 -0.062,0.659 -0.618,0.659 -0.253,0 -0.517,-0.082 -0.708,-0.212 l -0.112,0.342 c 0.225,0.153 0.551,0.254 0.893,0.254 0.831,0 1.034,-0.596 1.034,-1.167 l 0,-1.066 z" />
      </g>
      <g
         transform="matrix(4.5342773,0,0,-4.5342773,434.95468,941.19035)"
         id="g1112">
        <path
           inkscape:connector-curvature="0"
           id="path1114"
           style="fill:#846d2a;fill-opacity:1;fill-rule:nonzero;stroke:none"
           d="m 0,0 c 0,-0.065 0.011,-0.129 0.023,-0.188 0.096,-0.36 0.382,-0.607 0.741,-0.607 0.517,0 0.826,0.442 0.826,1.095 0,0.571 -0.281,1.06 -0.809,1.06 C 0.444,1.36 0.129,1.119 0.029,0.725 0.017,0.666 0,0.595 0,0.513 L 0,0 Z m -0.489,3.04 0.489,0 0,-1.792 0.011,0 c 0.175,0.318 0.489,0.525 0.927,0.525 0.675,0 1.152,-0.588 1.146,-1.455 0,-1.018 -0.612,-1.526 -1.219,-1.526 -0.392,0 -0.708,0.16 -0.91,0.537 l -0.016,0 -0.023,-0.472 -0.427,0 c 0.011,0.195 0.022,0.484 0.022,0.737 l 0,3.446 z" />
      </g>
      <g
         transform="matrix(4.5342773,0,0,-4.5342773,448.61686,939.93302)"
         id="g1116">
        <path
           inkscape:connector-curvature="0"
           id="path1118"
           style="fill:#846d2a;fill-opacity:1;fill-rule:nonzero;stroke:none"
           d="m 0,0 c 0,-0.625 0.343,-1.097 0.825,-1.097 0.473,0 0.827,0.467 0.827,1.109 0,0.482 -0.231,1.094 -0.816,1.094 C 0.253,1.106 0,0.541 0,0 m 2.157,0.029 c 0,-1.054 -0.697,-1.514 -1.354,-1.514 -0.736,0 -1.303,0.566 -1.303,1.466 0,0.956 0.595,1.515 1.348,1.515 0.781,0 1.309,-0.596 1.309,-1.467" />
      </g>
      <g
         transform="matrix(4.5342773,0,0,-4.5342773,461.23485,937.4795)"
         id="g1120">
        <path
           inkscape:connector-curvature="0"
           id="path1122"
           style="fill:#846d2a;fill-opacity:1;fill-rule:nonzero;stroke:none"
           d="m 0,0 c 0,0.337 -0.006,0.624 -0.022,0.89 l 0.432,0 0.017,-0.56 0.022,0 c 0.124,0.384 0.422,0.625 0.753,0.625 0.056,0 0.096,-0.007 0.141,-0.018 l 0,-0.489 C 1.292,0.459 1.242,0.466 1.174,0.466 0.825,0.466 0.579,0.188 0.512,-0.2 0.5,-0.271 0.489,-0.354 0.489,-0.441 l 0,-1.52 L 0,-1.961 0,0 Z" />
      </g>
      <g
         transform="matrix(4.5342773,0,0,-4.5342773,475.93588,939.77794)"
         id="g1124">
        <path
           inkscape:connector-curvature="0"
           id="path1126"
           style="fill:#846d2a;fill-opacity:1;fill-rule:nonzero;stroke:none"
           d="m 0,0 c -0.54,0.013 -1.152,-0.088 -1.152,-0.642 0,-0.336 0.214,-0.494 0.467,-0.494 0.354,0 0.579,0.236 0.656,0.477 C -0.011,-0.605 0,-0.547 0,-0.494 L 0,0 Z m 0.478,-0.771 c 0,-0.248 0.011,-0.489 0.044,-0.683 l -0.449,0 -0.039,0.359 -0.018,0 c -0.151,-0.223 -0.443,-0.425 -0.83,-0.425 -0.551,0 -0.832,0.407 -0.832,0.82 0,0.688 0.584,1.065 1.635,1.06 l 0,0.059 c 0,0.235 -0.063,0.659 -0.618,0.659 -0.253,0 -0.517,-0.082 -0.708,-0.212 l -0.112,0.342 c 0.224,0.153 0.55,0.254 0.893,0.254 0.831,0 1.034,-0.596 1.034,-1.167 l 0,-1.066 z" />
      </g>
      <g
         transform="matrix(4.5342773,0,0,-4.5342773,484.31794,930.34617)"
         id="g1128">
        <path
           inkscape:connector-curvature="0"
           id="path1130"
           style="fill:#846d2a;fill-opacity:1;fill-rule:nonzero;stroke:none"
           d="m 0,0 0,-0.684 0.708,0 0,-0.394 -0.708,0 0,-1.537 c 0,-0.355 0.097,-0.554 0.372,-0.554 0.134,0 0.212,0.012 0.286,0.035 L 0.68,-3.522 C 0.584,-3.563 0.433,-3.6 0.242,-3.6 c -0.23,0 -0.415,0.083 -0.534,0.224 -0.14,0.153 -0.19,0.406 -0.19,0.743 l 0,1.555 -0.422,0 0,0.394 0.422,0 0,0.525 L 0,0 Z" />
      </g>
      <path
         inkscape:connector-curvature="0"
         id="path1132"
         style="fill:#846d2a;fill-opacity:1;fill-rule:nonzero;stroke:none"
         d="m 490.06063,933.44538 2.23993,0 0,12.92721 -2.23993,0 0,-12.92721 z m 2.49385,-3.6365 c 0.0254,0.8071 -0.53501,1.44644 -1.4283,1.44644 -0.78896,0 -1.34668,-0.63934 -1.34668,-1.44644 0,-0.82523 0.58492,-1.46457 1.40109,-1.46457 0.83888,0 1.37389,0.63934 1.37389,1.46457" />
      <g
         transform="matrix(4.5342773,0,0,-4.5342773,497.39846,939.93302)"
         id="g1134">
        <path
           inkscape:connector-curvature="0"
           id="path1136"
           style="fill:#846d2a;fill-opacity:1;fill-rule:nonzero;stroke:none"
           d="m 0,0 c 0,-0.625 0.343,-1.097 0.825,-1.097 0.473,0 0.827,0.467 0.827,1.109 0,0.482 -0.231,1.094 -0.816,1.094 C 0.253,1.106 0,0.541 0,0 m 2.157,0.029 c 0,-1.054 -0.697,-1.514 -1.354,-1.514 -0.736,0 -1.303,0.566 -1.303,1.466 0,0.956 0.595,1.515 1.348,1.515 0.781,0 1.309,-0.596 1.309,-1.467" />
      </g>
      <g
         transform="matrix(4.5342773,0,0,-4.5342773,510.01145,936.94402)"
         id="g1138">
        <path
           inkscape:connector-curvature="0"
           id="path1140"
           style="fill:#846d2a;fill-opacity:1;fill-rule:nonzero;stroke:none"
           d="m 0,0 c 0,0.294 -0.005,0.535 -0.022,0.771 l 0.438,0 0.028,-0.471 0.011,0 c 0.135,0.271 0.449,0.537 0.899,0.537 0.376,0 0.961,-0.236 0.961,-1.214 l 0,-1.702 -0.495,0 0,1.643 C 1.82,0.023 1.657,0.406 1.191,0.406 0.865,0.406 0.613,0.165 0.528,-0.124 0.505,-0.188 0.494,-0.277 0.494,-0.365 l 0,-1.714 L 0,-2.079 0,0 Z" />
      </g>
      <g
         transform="matrix(4.5342773,0,0,-4.5342773,536.05677,939.77794)"
         id="g1142">
        <path
           inkscape:connector-curvature="0"
           id="path1144"
           style="fill:#846d2a;fill-opacity:1;fill-rule:nonzero;stroke:none"
           d="m 0,0 c -0.539,0.013 -1.152,-0.088 -1.152,-0.642 0,-0.336 0.214,-0.494 0.467,-0.494 0.354,0 0.579,0.236 0.657,0.477 C -0.011,-0.605 0,-0.547 0,-0.494 L 0,0 Z m 0.478,-0.771 c 0,-0.248 0.011,-0.489 0.045,-0.683 l -0.45,0 -0.039,0.359 -0.017,0 c -0.152,-0.223 -0.444,-0.425 -0.831,-0.425 -0.551,0 -0.832,0.407 -0.832,0.82 0,0.688 0.584,1.065 1.635,1.06 l 0,0.059 c 0,0.235 -0.062,0.659 -0.618,0.659 -0.253,0 -0.517,-0.082 -0.708,-0.212 l -0.112,0.342 c 0.224,0.153 0.55,0.254 0.893,0.254 0.831,0 1.034,-0.596 1.034,-1.167 l 0,-1.066 z" />
      </g>
      <g
         transform="matrix(4.5342773,0,0,-4.5342773,541.84208,936.94402)"
         id="g1146">
        <path
           inkscape:connector-curvature="0"
           id="path1148"
           style="fill:#846d2a;fill-opacity:1;fill-rule:nonzero;stroke:none"
           d="m 0,0 c 0,0.294 -0.005,0.535 -0.022,0.771 l 0.438,0 0.028,-0.471 0.011,0 c 0.135,0.271 0.449,0.537 0.899,0.537 0.376,0 0.961,-0.236 0.961,-1.214 l 0,-1.702 -0.495,0 0,1.643 C 1.82,0.023 1.657,0.406 1.191,0.406 0.865,0.406 0.613,0.165 0.528,-0.124 0.505,-0.188 0.494,-0.277 0.494,-0.365 l 0,-1.714 L 0,-2.079 0,0 Z" />
      </g>
      <g
         transform="matrix(4.5342773,0,0,-4.5342773,564.39376,938.70648)"
         id="g1150">
        <path
           inkscape:connector-curvature="0"
           id="path1152"
           style="fill:#846d2a;fill-opacity:1;fill-rule:nonzero;stroke:none"
           d="m 0,0 c 0,0.064 -0.005,0.153 -0.022,0.218 -0.073,0.329 -0.343,0.6 -0.713,0.6 -0.512,0 -0.815,-0.47 -0.815,-1.1 0,-0.578 0.27,-1.056 0.803,-1.056 0.331,0 0.635,0.231 0.725,0.619 C -0.005,-0.647 0,-0.577 0,-0.494 L 0,0 Z m 0.495,2.492 0,-3.446 c 0,-0.253 0.006,-0.542 0.022,-0.736 l -0.444,0 -0.022,0.494 -0.011,0 c -0.152,-0.318 -0.484,-0.56 -0.927,-0.56 -0.657,0 -1.163,0.584 -1.163,1.449 -0.005,0.949 0.556,1.533 1.219,1.533 0.415,0 0.696,-0.207 0.82,-0.437 l 0.011,0 0,1.703 0.495,0 z" />
      </g>
      <g
         transform="matrix(4.5342773,0,0,-4.5342773,587.83597,945.78677)"
         id="g1154">
        <path
           inkscape:connector-curvature="0"
           id="path1156"
           style="fill:#846d2a;fill-opacity:1;fill-rule:nonzero;stroke:none"
           d="m 0,0 c -0.18,-0.093 -0.539,-0.194 -1,-0.194 -1.067,0 -1.87,0.713 -1.87,2.015 0,1.242 0.803,2.084 1.978,2.084 0.471,0 0.769,-0.106 0.899,-0.176 L -0.112,3.311 c -0.185,0.094 -0.449,0.165 -0.763,0.165 -0.889,0 -1.478,-0.595 -1.478,-1.638 0,-0.972 0.534,-1.596 1.455,-1.596 0.297,0 0.601,0.065 0.797,0.164 L 0,0 Z" />
      </g>
      <g
         transform="matrix(4.5342773,0,0,-4.5342773,591.64157,939.93302)"
         id="g1158">
        <path
           inkscape:connector-curvature="0"
           id="path1160"
           style="fill:#846d2a;fill-opacity:1;fill-rule:nonzero;stroke:none"
           d="m 0,0 c 0,-0.625 0.343,-1.097 0.826,-1.097 0.472,0 0.826,0.467 0.826,1.109 0,0.482 -0.231,1.094 -0.816,1.094 C 0.253,1.106 0,0.541 0,0 m 2.157,0.029 c 0,-1.054 -0.697,-1.514 -1.354,-1.514 -0.736,0 -1.303,0.566 -1.303,1.466 0,0.956 0.595,1.515 1.349,1.515 0.78,0 1.308,-0.596 1.308,-1.467" />
      </g>
      <g
         transform="matrix(4.5342773,0,0,-4.5342773,604.25502,936.94402)"
         id="g1162">
        <path
           inkscape:connector-curvature="0"
           id="path1164"
           style="fill:#846d2a;fill-opacity:1;fill-rule:nonzero;stroke:none"
           d="m 0,0 c 0,0.294 -0.005,0.535 -0.022,0.771 l 0.438,0 0.028,-0.471 0.011,0 c 0.135,0.271 0.449,0.537 0.899,0.537 0.377,0 0.961,-0.236 0.961,-1.214 l 0,-1.702 -0.494,0 0,1.643 c 0,0.459 -0.164,0.842 -0.63,0.842 -0.326,0 -0.578,-0.241 -0.663,-0.53 C 0.505,-0.188 0.495,-0.277 0.495,-0.365 l 0,-1.714 L 0,-2.079 0,0 Z" />
      </g>
      <g
         transform="matrix(4.5342773,0,0,-4.5342773,620.99695,930.34617)"
         id="g1166">
        <path
           inkscape:connector-curvature="0"
           id="path1168"
           style="fill:#846d2a;fill-opacity:1;fill-rule:nonzero;stroke:none"
           d="m 0,0 0,-0.684 0.708,0 0,-0.394 -0.708,0 0,-1.537 c 0,-0.355 0.097,-0.554 0.372,-0.554 0.134,0 0.212,0.012 0.286,0.035 L 0.68,-3.522 C 0.584,-3.563 0.433,-3.6 0.242,-3.6 c -0.23,0 -0.415,0.083 -0.534,0.224 -0.14,0.153 -0.19,0.406 -0.19,0.743 l 0,1.555 -0.422,0 0,0.394 0.422,0 0,0.525 L 0,0 Z" />
      </g>
      <g
         transform="matrix(4.5342773,0,0,-4.5342773,634.40071,938.65298)"
         id="g1170">
        <path
           inkscape:connector-curvature="0"
           id="path1172"
           style="fill:#846d2a;fill-opacity:1;fill-rule:nonzero;stroke:none"
           d="M 0,0 C 0.006,0.33 -0.128,0.842 -0.685,0.842 -1.185,0.842 -1.404,0.359 -1.443,0 L 0,0 Z m -1.449,-0.371 c 0.011,-0.701 0.438,-0.99 0.933,-0.99 0.354,0 0.567,0.065 0.753,0.147 l 0.084,-0.371 c -0.174,-0.081 -0.472,-0.183 -0.904,-0.183 -0.837,0 -1.337,0.584 -1.337,1.444 0,0.859 0.482,1.538 1.274,1.538 0.888,0 1.124,-0.819 1.124,-1.343 0,-0.106 -0.011,-0.189 -0.017,-0.242 l -1.91,0 z" />
      </g>
      <g
         transform="matrix(4.5342773,0,0,-4.5342773,639.34898,936.94402)"
         id="g1174">
        <path
           inkscape:connector-curvature="0"
           id="path1176"
           style="fill:#846d2a;fill-opacity:1;fill-rule:nonzero;stroke:none"
           d="m 0,0 c 0,0.294 -0.005,0.535 -0.022,0.771 l 0.438,0 0.028,-0.471 0.011,0 c 0.135,0.271 0.45,0.537 0.899,0.537 0.377,0 0.961,-0.236 0.961,-1.214 l 0,-1.702 -0.494,0 0,1.643 c 0,0.459 -0.163,0.842 -0.63,0.842 -0.326,0 -0.578,-0.241 -0.663,-0.53 C 0.505,-0.188 0.495,-0.277 0.495,-0.365 l 0,-1.714 L 0,-2.079 0,0 Z" />
      </g>
      <g
         transform="matrix(4.5342773,0,0,-4.5342773,656.0936,930.34617)"
         id="g1178">
        <path
           inkscape:connector-curvature="0"
           id="path1180"
           style="fill:#846d2a;fill-opacity:1;fill-rule:nonzero;stroke:none"
           d="m 0,0 0,-0.684 0.708,0 0,-0.394 -0.708,0 0,-1.537 c 0,-0.355 0.095,-0.554 0.371,-0.554 0.135,0 0.213,0.012 0.287,0.035 L 0.68,-3.522 C 0.584,-3.563 0.433,-3.6 0.242,-3.6 c -0.23,0 -0.416,0.083 -0.534,0.224 -0.14,0.153 -0.19,0.406 -0.19,0.743 l 0,1.555 -0.422,0 0,0.394 0.422,0 0,0.525 L 0,0 Z" />
      </g>
      <g
         transform="matrix(4.5342773,0,0,-4.5342773,336.70596,910.11924)"
         id="g1182">
        <path
           inkscape:connector-curvature="0"
           id="path1184"
           style="fill:#846d2a;fill-opacity:1;fill-rule:nonzero;stroke:none"
           d="m 0,0 c -0.219,-0.083 -0.652,-0.219 -1.163,-0.219 -0.573,0 -1.045,0.154 -1.416,0.525 -0.326,0.33 -0.528,0.859 -0.528,1.477 0.006,1.185 0.781,2.05 2.05,2.05 0.439,0 0.782,-0.1 0.944,-0.182 L -0.231,3.232 c -0.202,0.095 -0.455,0.171 -0.836,0.171 -0.922,0 -1.523,-0.6 -1.523,-1.595 0,-1.007 0.579,-1.603 1.46,-1.603 0.321,0 0.54,0.048 0.652,0.107 l 0,1.184 -0.769,0 0,0.411 L 0,1.907 0,0 Z" />
      </g>
      <g
         transform="matrix(4.5342773,0,0,-4.5342773,341.5259,904.48676)"
         id="g1186">
        <path
           inkscape:connector-curvature="0"
           id="path1188"
           style="fill:#846d2a;fill-opacity:1;fill-rule:nonzero;stroke:none"
           d="m 0,0 c 0,-0.624 0.342,-1.096 0.826,-1.096 0.472,0 0.826,0.466 0.826,1.108 0,0.483 -0.231,1.095 -0.815,1.095 C 0.252,1.107 0,0.541 0,0 m 2.157,0.029 c 0,-1.054 -0.697,-1.513 -1.353,-1.513 -0.737,0 -1.304,0.565 -1.304,1.466 0,0.955 0.596,1.514 1.349,1.514 0.78,0 1.308,-0.595 1.308,-1.467" />
      </g>
      <path
         inkscape:connector-curvature="0"
         id="path1190"
         style="fill:#846d2a;fill-opacity:1;fill-rule:nonzero;stroke:none"
         d="m 354.1457,891.96127 2.24446,0 0,18.96688 -2.24446,0 0,-18.96688 z" />
      <g
         transform="matrix(4.5342773,0,0,-4.5342773,368.56107,903.26021)"
         id="g1192">
        <path
           inkscape:connector-curvature="0"
           id="path1194"
           style="fill:#846d2a;fill-opacity:1;fill-rule:nonzero;stroke:none"
           d="m 0,0 c 0,0.065 -0.005,0.153 -0.022,0.219 -0.073,0.329 -0.343,0.6 -0.713,0.6 -0.511,0 -0.815,-0.471 -0.815,-1.101 0,-0.578 0.27,-1.055 0.804,-1.055 0.331,0 0.634,0.231 0.724,0.619 C -0.005,-0.647 0,-0.576 0,-0.494 L 0,0 Z m 0.495,2.492 0,-3.445 c 0,-0.254 0.006,-0.542 0.023,-0.737 l -0.444,0 -0.022,0.495 -0.012,0 c -0.152,-0.318 -0.484,-0.56 -0.927,-0.56 -0.657,0 -1.163,0.583 -1.163,1.449 -0.005,0.949 0.556,1.532 1.219,1.532 0.416,0 0.696,-0.206 0.82,-0.436 l 0.011,0 0,1.702 0.495,0 z" />
      </g>
      <g
         transform="matrix(4.5342773,0,0,-4.5342773,388.4207,903.44613)"
         id="g1196">
        <path
           inkscape:connector-curvature="0"
           id="path1198"
           style="fill:#846d2a;fill-opacity:1;fill-rule:nonzero;stroke:none"
           d="m 0,0 -0.372,1.143 c -0.083,0.259 -0.14,0.495 -0.196,0.724 l -0.011,0 C -0.635,1.632 -0.697,1.391 -0.77,1.148 L -1.141,0 0,0 Z m -1.242,-0.4 -0.393,-1.249 -0.506,0 1.287,3.969 0.59,0 1.292,-3.969 -0.523,0 -0.404,1.249 -1.343,0 z" />
      </g>
      <g
         transform="matrix(4.5342773,0,0,-4.5342773,397.67295,905.66023)"
         id="g1200">
        <path
           inkscape:connector-curvature="0"
           id="path1202"
           style="fill:#846d2a;fill-opacity:1;fill-rule:nonzero;stroke:none"
           d="m 0,0 c 0,-0.076 0.011,-0.147 0.022,-0.212 0.09,-0.36 0.388,-0.607 0.742,-0.607 0.523,0 0.825,0.448 0.825,1.101 0,0.572 -0.286,1.06 -0.809,1.06 C 0.444,1.342 0.129,1.089 0.034,0.7 0.017,0.636 0,0.559 0,0.488 L 0,0 Z m -0.489,0.76 c 0,0.365 -0.011,0.659 -0.022,0.929 l 0.443,0 0.023,-0.488 0.011,0 c 0.203,0.348 0.523,0.554 0.967,0.554 0.656,0 1.151,-0.583 1.151,-1.449 0,-1.025 -0.595,-1.532 -1.236,-1.532 -0.359,0 -0.674,0.165 -0.837,0.448 l -0.011,0 0,-1.549 -0.489,0 0,3.087 z" />
      </g>
      <g
         transform="matrix(4.5342773,0,0,-4.5342773,412.17447,905.66023)"
         id="g1204">
        <path
           inkscape:connector-curvature="0"
           id="path1206"
           style="fill:#846d2a;fill-opacity:1;fill-rule:nonzero;stroke:none"
           d="m 0,0 c 0,-0.076 0.011,-0.147 0.023,-0.212 0.09,-0.36 0.387,-0.607 0.741,-0.607 0.523,0 0.825,0.448 0.825,1.101 0,0.572 -0.286,1.06 -0.809,1.06 C 0.444,1.342 0.129,1.089 0.034,0.7 0.017,0.636 0,0.559 0,0.488 L 0,0 Z m -0.489,0.76 c 0,0.365 -0.011,0.659 -0.022,0.929 l 0.444,0 0.022,-0.488 0.011,0 c 0.202,0.348 0.523,0.554 0.967,0.554 0.656,0 1.15,-0.583 1.15,-1.449 0,-1.025 -0.595,-1.532 -1.235,-1.532 -0.359,0 -0.674,0.165 -0.837,0.448 l -0.011,0 0,-1.549 -0.489,0 0,3.087 z" />
      </g>
      <path
         inkscape:connector-curvature="0"
         id="path1208"
         style="fill:#846d2a;fill-opacity:1;fill-rule:nonzero;stroke:none"
         d="m 424.4587,891.96127 2.24447,0 0,18.96688 -2.24447,0 0,-18.96688 z" />
      <path
         inkscape:connector-curvature="0"
         id="path1210"
         style="fill:#846d2a;fill-opacity:1;fill-rule:nonzero;stroke:none"
         d="m 430.47119,898.00092 2.23993,0 0,12.92723 -2.23993,0 0,-12.92723 z m 2.49839,-3.63648 c 0.0291,0.80256 -0.53505,1.4419 -1.4283,1.4419 -0.789,0 -1.34668,-0.63934 -1.34668,-1.4419 0,-0.82977 0.58492,-1.46911 1.40109,-1.46911 0.83884,0 1.37389,0.63934 1.37389,1.46911" />
      <g
         transform="matrix(4.5342773,0,0,-4.5342773,445.22297,910.44251)"
         id="g1212">
        <path
           inkscape:connector-curvature="0"
           id="path1214"
           style="fill:#846d2a;fill-opacity:1;fill-rule:nonzero;stroke:none"
           d="m 0,0 c -0.129,-0.07 -0.416,-0.171 -0.78,-0.171 -0.821,0 -1.354,0.59 -1.354,1.461 0,0.878 0.573,1.514 1.46,1.514 0.293,0 0.551,-0.076 0.685,-0.148 l -0.112,-0.4 c -0.118,0.07 -0.303,0.136 -0.573,0.136 -0.624,0 -0.96,-0.484 -0.96,-1.079 0,-0.66 0.404,-1.066 0.944,-1.066 0.28,0 0.465,0.077 0.606,0.142 L 0,0 Z" />
      </g>
      <g
         transform="matrix(4.5342773,0,0,-4.5342773,454.34688,904.32715)"
         id="g1216">
        <path
           inkscape:connector-curvature="0"
           id="path1218"
           style="fill:#846d2a;fill-opacity:1;fill-rule:nonzero;stroke:none"
           d="m 0,0 c -0.539,0.012 -1.152,-0.088 -1.152,-0.642 0,-0.336 0.214,-0.495 0.467,-0.495 0.354,0 0.579,0.237 0.657,0.478 C -0.011,-0.606 0,-0.548 0,-0.494 L 0,0 Z m 0.478,-0.771 c 0,-0.248 0.011,-0.489 0.045,-0.684 l -0.45,0 -0.039,0.36 -0.017,0 c -0.152,-0.224 -0.444,-0.425 -0.831,-0.425 -0.551,0 -0.832,0.407 -0.832,0.819 0,0.689 0.584,1.066 1.635,1.06 l 0,0.059 c 0,0.236 -0.062,0.66 -0.618,0.66 -0.253,0 -0.517,-0.082 -0.708,-0.212 l -0.112,0.342 c 0.225,0.153 0.55,0.253 0.893,0.253 0.831,0 1.034,-0.595 1.034,-1.167 l 0,-1.065 z" />
      </g>
      <g
         transform="matrix(4.5342773,0,0,-4.5342773,462.73569,894.89992)"
         id="g1220">
        <path
           inkscape:connector-curvature="0"
           id="path1222"
           style="fill:#846d2a;fill-opacity:1;fill-rule:nonzero;stroke:none"
           d="m 0,0 0,-0.684 0.708,0 0,-0.393 -0.708,0 0,-1.538 c 0,-0.354 0.096,-0.554 0.371,-0.554 0.135,0 0.213,0.012 0.287,0.036 L 0.68,-3.521 C 0.584,-3.563 0.433,-3.599 0.242,-3.599 c -0.23,0 -0.415,0.082 -0.534,0.224 -0.14,0.153 -0.19,0.406 -0.19,0.743 l 0,1.555 -0.422,0 0,0.393 0.422,0 0,0.526 L 0,0 Z" />
      </g>
      <path
         inkscape:connector-curvature="0"
         id="path1224"
         style="fill:#846d2a;fill-opacity:1;fill-rule:nonzero;stroke:none"
         d="m 468.46844,898.00092 2.23989,0 0,12.92723 -2.23989,0 0,-12.92723 z m 2.49838,-3.63648 c 0.0218,0.80256 -0.53508,1.4419 -1.42833,1.4419 -0.78444,0 -1.34664,-0.63934 -1.34664,-1.4419 0,-0.82977 0.58492,-1.46911 1.40108,-1.46911 0.83881,0 1.37389,0.63934 1.37389,1.46911" />
      <g
         transform="matrix(4.5342773,0,0,-4.5342773,475.80943,904.48676)"
         id="g1226">
        <path
           inkscape:connector-curvature="0"
           id="path1228"
           style="fill:#846d2a;fill-opacity:1;fill-rule:nonzero;stroke:none"
           d="m 0,0 c 0,-0.624 0.342,-1.096 0.826,-1.096 0.472,0 0.826,0.466 0.826,1.108 0,0.483 -0.231,1.095 -0.815,1.095 C 0.252,1.107 0,0.541 0,0 m 2.157,0.029 c 0,-1.054 -0.697,-1.513 -1.353,-1.513 -0.737,0 -1.304,0.565 -1.304,1.466 0,0.955 0.596,1.514 1.349,1.514 0.78,0 1.308,-0.595 1.308,-1.467" />
      </g>
      <g
         transform="matrix(4.5342773,0,0,-4.5342773,488.42285,901.49323)"
         id="g1230">
        <path
           inkscape:connector-curvature="0"
           id="path1232"
           style="fill:#846d2a;fill-opacity:1;fill-rule:nonzero;stroke:none"
           d="m 0,0 c 0,0.294 -0.005,0.535 -0.022,0.771 l 0.438,0 0.028,-0.471 0.011,0 c 0.135,0.271 0.449,0.536 0.899,0.536 0.377,0 0.961,-0.235 0.961,-1.213 l 0,-1.703 -0.494,0 0,1.643 c 0,0.46 -0.163,0.843 -0.63,0.843 -0.326,0 -0.578,-0.241 -0.663,-0.53 C 0.505,-0.189 0.495,-0.277 0.495,-0.365 l 0,-1.715 L 0,-2.08 0,0 Z" />
      </g>
      <g
         transform="matrix(4.5342773,0,0,-4.5342773,510.26399,909.08314)"
         id="g1234">
        <path
           inkscape:connector-curvature="0"
           id="path1236"
           style="fill:#846d2a;fill-opacity:1;fill-rule:nonzero;stroke:none"
           d="m 0,0 c 0.124,-0.023 0.304,-0.029 0.495,-0.029 1.045,0 1.612,0.613 1.612,1.685 C 2.112,2.593 1.607,3.187 0.573,3.187 0.321,3.187 0.129,3.164 0,3.135 L 0,0 Z m -0.488,3.512 c 0.298,0.047 0.652,0.081 1.039,0.081 0.702,0 1.202,-0.17 1.534,-0.494 C 2.421,2.775 2.619,2.315 2.619,1.674 2.619,1.025 2.427,0.496 2.073,0.13 1.72,-0.241 1.136,-0.441 0.399,-0.441 c -0.347,0 -0.64,0.018 -0.887,0.047 l 0,3.906 z" />
      </g>
      <g
         transform="matrix(4.5342773,0,0,-4.5342773,532.87099,903.20265)"
         id="g1238">
        <path
           inkscape:connector-curvature="0"
           id="path1240"
           style="fill:#846d2a;fill-opacity:1;fill-rule:nonzero;stroke:none"
           d="M 0,0 C 0.005,0.33 -0.129,0.842 -0.686,0.842 -1.186,0.842 -1.405,0.359 -1.444,0 L 0,0 Z m -1.45,-0.372 c 0.012,-0.7 0.438,-0.989 0.933,-0.989 0.354,0 0.567,0.064 0.753,0.147 L 0.32,-1.585 c -0.174,-0.082 -0.472,-0.183 -0.905,-0.183 -0.836,0 -1.336,0.583 -1.336,1.444 0,0.859 0.483,1.537 1.275,1.537 0.887,0 1.123,-0.819 1.123,-1.343 0,-0.106 -0.011,-0.188 -0.017,-0.242 l -1.91,0 z" />
      </g>
      <g
         transform="matrix(4.5342773,0,0,-4.5342773,538.68031,897.99955)"
         id="g1242">
        <path
           inkscape:connector-curvature="0"
           id="path1244"
           style="fill:#846d2a;fill-opacity:1;fill-rule:nonzero;stroke:none"
           d="m 0,0 0.534,-1.602 c 0.09,-0.258 0.163,-0.495 0.219,-0.73 l 0.017,0 c 0.062,0.235 0.141,0.472 0.231,0.73 L 1.528,0 2.045,0 0.978,-2.851 0.506,-2.851 -0.527,0 0,0 Z" />
      </g>
      <g
         transform="matrix(4.5342773,0,0,-4.5342773,557.6413,903.20265)"
         id="g1246">
        <path
           inkscape:connector-curvature="0"
           id="path1248"
           style="fill:#846d2a;fill-opacity:1;fill-rule:nonzero;stroke:none"
           d="M 0,0 C 0.005,0.33 -0.129,0.842 -0.686,0.842 -1.186,0.842 -1.405,0.359 -1.445,0 L 0,0 Z m -1.45,-0.372 c 0.012,-0.7 0.438,-0.989 0.932,-0.989 0.354,0 0.568,0.064 0.753,0.147 L 0.32,-1.585 c -0.174,-0.082 -0.472,-0.183 -0.905,-0.183 -0.837,0 -1.337,0.583 -1.337,1.444 0,0.859 0.484,1.537 1.275,1.537 0.888,0 1.124,-0.819 1.124,-1.343 0,-0.106 -0.011,-0.188 -0.017,-0.242 l -1.91,0 z" />
      </g>
      <path
         inkscape:connector-curvature="0"
         id="path1250"
         style="fill:#846d2a;fill-opacity:1;fill-rule:nonzero;stroke:none"
         d="m 562.59096,891.96127 2.2399,0 0,18.96688 -2.2399,0 0,-18.96688 z" />
      <g
         transform="matrix(4.5342773,0,0,-4.5342773,569.97998,904.48676)"
         id="g1252">
        <path
           inkscape:connector-curvature="0"
           id="path1254"
           style="fill:#846d2a;fill-opacity:1;fill-rule:nonzero;stroke:none"
           d="m 0,0 c 0,-0.624 0.342,-1.096 0.825,-1.096 0.473,0 0.827,0.466 0.827,1.108 0,0.483 -0.232,1.095 -0.815,1.095 C 0.252,1.107 0,0.541 0,0 m 2.157,0.029 c 0,-1.054 -0.697,-1.513 -1.354,-1.513 -0.736,0 -1.303,0.565 -1.303,1.466 0,0.955 0.595,1.514 1.348,1.514 0.781,0 1.309,-0.595 1.309,-1.467" />
      </g>
      <g
         transform="matrix(4.5342773,0,0,-4.5342773,584.80932,905.66023)"
         id="g1256">
        <path
           inkscape:connector-curvature="0"
           id="path1258"
           style="fill:#846d2a;fill-opacity:1;fill-rule:nonzero;stroke:none"
           d="m 0,0 c 0,-0.076 0.011,-0.147 0.023,-0.212 0.09,-0.36 0.387,-0.607 0.741,-0.607 0.523,0 0.825,0.448 0.825,1.101 0,0.572 -0.286,1.06 -0.809,1.06 C 0.444,1.342 0.129,1.089 0.034,0.7 0.017,0.636 0,0.559 0,0.488 L 0,0 Z m -0.489,0.76 c 0,0.365 -0.011,0.659 -0.022,0.929 l 0.444,0 0.022,-0.488 0.011,0 c 0.203,0.348 0.523,0.554 0.967,0.554 0.656,0 1.151,-0.583 1.151,-1.449 0,-1.025 -0.596,-1.532 -1.236,-1.532 -0.359,0 -0.674,0.165 -0.837,0.448 l -0.011,0 0,-1.549 -0.489,0 0,3.087 z" />
      </g>
      <g
         transform="matrix(4.5342773,0,0,-4.5342773,597.09496,901.49323)"
         id="g1260">
        <path
           inkscape:connector-curvature="0"
           id="path1262"
           style="fill:#846d2a;fill-opacity:1;fill-rule:nonzero;stroke:none"
           d="m 0,0 c 0,0.294 -0.006,0.535 -0.022,0.771 l 0.432,0 0.023,-0.459 0.016,0 c 0.152,0.271 0.405,0.524 0.854,0.524 0.371,0 0.652,-0.235 0.77,-0.571 l 0.011,0 c 0.084,0.158 0.191,0.282 0.303,0.37 0.163,0.131 0.343,0.201 0.602,0.201 0.359,0 0.893,-0.247 0.893,-1.237 l 0,-1.679 -0.483,0 0,1.614 c 0,0.548 -0.192,0.877 -0.59,0.877 C 2.527,0.411 2.308,0.194 2.225,-0.06 2.202,-0.13 2.186,-0.225 2.186,-0.318 l 0,-1.762 -0.484,0 0,1.708 C 1.702,0.082 1.511,0.411 1.134,0.411 0.826,0.411 0.601,0.152 0.522,-0.106 0.494,-0.183 0.483,-0.271 0.483,-0.36 l 0,-1.72 L 0,-2.08 0,0 Z" />
      </g>
      <g
         transform="matrix(4.5342773,0,0,-4.5342773,626.16694,903.20265)"
         id="g1264">
        <path
           inkscape:connector-curvature="0"
           id="path1266"
           style="fill:#846d2a;fill-opacity:1;fill-rule:nonzero;stroke:none"
           d="M 0,0 C 0.006,0.33 -0.128,0.842 -0.685,0.842 -1.185,0.842 -1.404,0.359 -1.443,0 L 0,0 Z m -1.449,-0.372 c 0.011,-0.7 0.438,-0.989 0.933,-0.989 0.354,0 0.567,0.064 0.753,0.147 l 0.084,-0.371 c -0.174,-0.082 -0.472,-0.183 -0.904,-0.183 -0.837,0 -1.337,0.583 -1.337,1.444 0,0.859 0.482,1.537 1.274,1.537 0.888,0 1.124,-0.819 1.124,-1.343 0,-0.106 -0.011,-0.188 -0.017,-0.242 l -1.91,0 z" />
      </g>
      <g
         transform="matrix(4.5342773,0,0,-4.5342773,631.11517,901.49323)"
         id="g1268">
        <path
           inkscape:connector-curvature="0"
           id="path1270"
           style="fill:#846d2a;fill-opacity:1;fill-rule:nonzero;stroke:none"
           d="m 0,0 c 0,0.294 -0.005,0.535 -0.022,0.771 l 0.438,0 0.028,-0.471 0.011,0 c 0.135,0.271 0.449,0.536 0.899,0.536 0.377,0 0.961,-0.235 0.961,-1.213 l 0,-1.703 -0.494,0 0,1.643 c 0,0.46 -0.163,0.843 -0.63,0.843 -0.326,0 -0.578,-0.241 -0.663,-0.53 C 0.505,-0.189 0.495,-0.277 0.495,-0.365 l 0,-1.715 L 0,-2.08 0,0 Z" />
      </g>
      <g
         transform="matrix(4.5342773,0,0,-4.5342773,647.85982,894.89992)"
         id="g1272">
        <path
           inkscape:connector-curvature="0"
           id="path1274"
           style="fill:#846d2a;fill-opacity:1;fill-rule:nonzero;stroke:none"
           d="m 0,0 0,-0.684 0.708,0 0,-0.393 -0.708,0 0,-1.538 c 0,-0.354 0.095,-0.554 0.371,-0.554 0.135,0 0.213,0.012 0.286,0.036 L 0.68,-3.521 C 0.584,-3.563 0.433,-3.599 0.242,-3.599 c -0.23,0 -0.416,0.082 -0.534,0.224 -0.14,0.153 -0.19,0.406 -0.19,0.743 l 0,1.555 -0.422,0 0,0.393 0.422,0 0,0.526 L 0,0 Z" />
      </g>
      <path
         inkscape:connector-curvature="0"
         id="path1276"
         style="fill:#e24f26;fill-opacity:1;fill-rule:nonzero;stroke:none"
         d="m 111.83392,995.70551 -16.736013,0 0,-16.73599 16.736013,0 0,16.73599 z" />
      <path
         inkscape:connector-curvature="0"
         id="path1278"
         style="fill:#6ebc45;fill-opacity:1;fill-rule:nonzero;stroke:none"
         d="m 131.26783,995.70551 -16.73601,0 0,-16.73599 16.73601,0 0,16.73599 z" />
      <path
         inkscape:connector-curvature="0"
         id="path1280"
         style="fill:#569bd4;fill-opacity:1;fill-rule:nonzero;stroke:none"
         d="m 111.83392,1015.212 -16.736013,0 0,-16.73146 16.736013,0 0,16.73146 z" />
      <path
         inkscape:connector-curvature="0"
         id="path1282"
         style="fill:#f0be1a;fill-opacity:1;fill-rule:nonzero;stroke:none"
         d="m 131.26783,1015.212 -16.73601,0 0,-16.73146 16.73601,0 0,16.73146 z" />
    </g>
  </g>
</svg>
