<svg width="524.09449" height="522.3622" xmlns="http://www.w3.org/2000/svg">
 <g>
  <title>AzureWebApps</title>
  <g id="layer1">
   <path fill="#00bef2" fill-rule="nonzero" stroke-linecap="round" stroke-linejoin="round" stroke-opacity="0.35294" id="path3351" d="m262.0473,5.83927a255.86331,255.34171 0 0 0 -255.8633,255.34179a255.86331,255.34171 0 0 0 255.8633,255.3418a255.86331,255.34171 0 0 0 255.8632,-255.3418a255.86331,255.34171 0 0 0 -255.8632,-255.34179zm-0.084,34.20703a221.58511,221.13338 0 0 1 0.084,0a221.58511,221.13338 0 0 1 140.7363,50.47265c-28.9829,-2.83941 -86.5132,-3.16915 -147.3398,26.4043c-27.8116,-30.03407 -48.2949,-54.01441 -58.9239,-66.74414a221.58511,221.13338 0 0 1 65.4434,-10.13281zm-97.1563,22.59765c14.9434,23.57135 35.4344,48.18091 58.7676,72.5586c-13.3506,8.90227 -26.6452,19.43683 -39.6192,31.92578c-10.5506,10.15628 -20.0444,20.4958 -28.5976,30.88477a67.17515,67.17515 0 0 0 -14.334,-1.58985a67.17515,67.17515 0 0 0 -24.2891,4.54688c-17.1033,-38.67412 -18.8241,-71.17269 -18.041,-88.64453a221.58511,221.13338 0 0 1 66.1133,-49.68165zm267.334,57.1211a221.58511,221.13338 0 0 1 51.4922,141.41601a221.58511,221.13338 0 0 1 -7.711,56.81055c-12.5681,-9.26476 -24.946,-18.80551 -37.0898,-28.51758a47.62271,47.62271 0 0 0 4.373,-19.8164a47.62271,47.62271 0 0 0 -47.623,-47.6211a47.62271,47.62271 0 0 0 -26.3027,7.95899c-27.2899,-24.79723 -52.5456,-49.41234 -74.9785,-72.29688c58.5121,-31.11913 113.8894,-36.95781 137.8398,-37.93359zm-355.8125,21.3457c-2.8814,17.97692 -2.2853,44.85436 13.1348,79.44922a67.17515,67.17515 0 0 0 -15.6153,43.03711a67.17515,67.17515 0 0 0 19.3672,47.15625c-10.8387,33.09776 -14.017,59.9249 -14.9414,73.65039a221.58511,221.13338 0 0 1 -37.8105,-123.22266a221.58511,221.13338 0 0 1 35.8652,-120.07031zm188.4668,34.43164c28.7348,26.54313 59.1606,51.89502 87.5371,74.29883a47.62271,47.62271 0 0 0 -4.373,19.81641a47.62271,47.62271 0 0 0 47.623,47.62304a47.62271,47.62271 0 0 0 31.0215,-11.5625c26.182,18.79228 43.2246,30.10547 43.2246,30.10547l0.9512,-1.21093a221.58511,221.13338 0 0 1 -27.1172,52.43554c-24.4476,3.38172 -62.3173,4.41103 -108.2949,-8.33203a43.11061,43.11061 0 0 0 -42.3477,-35.1875a43.11061,43.11061 0 0 0 -25.0586,8.09766c-16.3858,-8.67485 -33.3287,-19.20664 -50.6699,-31.96485c-7.6955,-5.66165 -14.8844,-11.36229 -21.627,-17.08008a67.17515,67.17515 0 0 0 12.5352,-38.98437a67.17515,67.17515 0 0 0 -7.2734,-30.39258c4.8266,-5.40719 9.9236,-10.92668 15.3535,-16.57812c15.6256,-16.26342 32.0076,-29.80384 48.5156,-41.08399zm-96.6699,149.42969c26.3546,25.13816 54.4326,43.6143 82.0332,57.15039a43.11061,43.11061 0 0 0 -0.25,4.51758a43.11061,43.11061 0 0 0 43.1113,43.11133a43.11061,43.11061 0 0 0 36.3672,-20.05469c39.3747,8.72072 71.7615,9.16667 87.8965,8.61914a221.58511,221.13338 0 0 1 -155.2363,63.99805a221.58511,221.13338 0 0 1 -142.5977,-51.88672c0.9514,-28.98953 1.0356,-60.55924 17.0781,-99.87891a67.17515,67.17515 0 0 0 4.4961,0.22461a67.17515,67.17515 0 0 0 27.1016,-5.80078z"/>
  </g>
 </g>
</svg>
